<svg id="Layer_1" data-name="Layer 1" xmlns="http://www.w3.org/2000/svg" xmlns:xlink="http://www.w3.org/1999/xlink" viewBox="0 0 29.16 29.16"><defs><style>.cls-1{fill:#00c5c2;}.cls-2{opacity:0.64;isolation:isolate;fill:url(#radial-gradient);}</style><radialGradient id="radial-gradient" cx="-1324.5" cy="-915.85" r="34.9" gradientTransform="matrix(1, 0, 0, -1, 1349.68, -885.69)" gradientUnits="userSpaceOnUse"><stop offset="0" stop-color="#fff"/><stop offset="0.63" stop-color="#f0f0f0"/><stop offset="1" stop-color="#e5e6e6"/></radialGradient></defs><title>ConTraining_Outs</title><g id="Group_105" data-name="Group 105"><g id="Group_98" data-name="Group 98"><g id="Group_97" data-name="Group 97"><path id="Path_1240" data-name="Path 1240" class="cls-1" d="M8.24,1.76h0l-.09,0L8,1.87H8s0,0,.16-.06S8.26,1.76,8.24,1.76Z"/><path id="Path_1241" data-name="Path 1241" class="cls-1" d="M8.05,1.68H8L8,1.71l0,0H8Z"/><path id="Path_1242" data-name="Path 1242" class="cls-1" d="M8.4,1.53l.07,0,.08,0,.07,0h0L8.2,1.6l.11,0A.32.32,0,0,1,8.4,1.53Z"/><path id="Path_1243" data-name="Path 1243" class="cls-1" d="M8.18,1.65h0l.08,0,.08,0h0a1.4,1.4,0,0,0-.44.22,1.75,1.75,0,0,0,.28-.13Z"/><path id="Path_1244" data-name="Path 1244" class="cls-1" d="M8.41,1.63h0l0,0,.05,0h0l-.14.08h0s0,0,0,0Z"/><path id="Path_1245" data-name="Path 1245" class="cls-1" d="M7.83,2.06h0a.36.36,0,0,0-.12.08h0a.51.51,0,0,0,.15-.07Z"/><path id="Path_1246" data-name="Path 1246" class="cls-1" d="M7.94,2.29H7.88l-.15,0a.8.8,0,0,0-.29.15h0a0,0,0,0,1,0,0,1.18,1.18,0,0,1-.18.13h0s0,0,0-.08a.37.37,0,0,0-.17.1h0s0,0,0,.08,0,0,0,0,0,0,0,.06h0s.37-.16.46-.25.08-.13,0-.13a.27.27,0,0,0-.12,0l.25-.14Z"/><path id="Path_1247" data-name="Path 1247" class="cls-1" d="M7,2.28c.15-.07.27-.17.42-.24l-.16.1.49-.28,0,0h0a8.78,8.78,0,0,0-.94.54c.07,0,.12-.07.18-.1Z"/><path id="Path_1248" data-name="Path 1248" class="cls-1" d="M7,3.31H7l0,0-.18.16c-.12.07-.15.09-.16.11h.1s0,0,0,0H6.8a.69.69,0,0,0,.29-.12s0-.13,0-.13A.16.16,0,0,0,7,3.31Z"/><path id="Path_1249" data-name="Path 1249" class="cls-1" d="M7.25,2.47h0a.5.5,0,0,0-.19.1h0s0,0,0,0,0,0,0,0l.15-.11S7.27,2.48,7.25,2.47Z"/><path id="Path_1250" data-name="Path 1250" class="cls-1" d="M12,.55a.75.75,0,0,1-.35.16,4.72,4.72,0,0,0-.53.18c-.14.18.21.24.21.24.87-.06.88,0,.94,0s.41.46.28.7,0,.1,0,.12.07.06.09.1,0,.15,0,.21.2-.14.34-.08a.19.19,0,0,1,.14.24s0,0,0,.05-.27.11-.35.23a.51.51,0,0,0-.06.38s.69,1.2,1,1.31a22.37,22.37,0,0,0-.45-4,20.58,20.58,0,0,1,.45,4c.81.16.83.14.88.08a4.11,4.11,0,0,0,.23-.85c0-.11,0-.22,0-.33s0,0,.24-.11c.64-.2.64-.2.66-.32s0-.19.14-.25c.28-.14.6-.16.88-.31a2.16,2.16,0,0,0,.34-.17s.06,0,0-.12-.24-.2-.33-.32-.07-.18-.1-.27,0-.13,0-.19,0-.11-.14-.21C16,.71,16,.7,16,.63v0h0c-.16-.16-.47,0-.55-.32l0,0s0,0,0,0h0l-.27,0a2,2,0,0,0-.34,0c-.11,0-.21-.06-.32-.06h-.65c-.25,0-.25,0-.28,0h0a1.9,1.9,0,0,0-.41,0h0l.21,0H13a4.38,4.38,0,0,0-1.12.28S11.89.55,12,.55Z"/><path id="Path_1251" data-name="Path 1251" class="cls-1" d="M9.53,3.29c0-.09,0-.13,0-.12s-.19.05-.22.13.06.17.09.19S9.53,3.29,9.53,3.29Z"/><path id="Path_1252" data-name="Path 1252" class="cls-1" d="M10.85.67l-.13,0,.63-.17a6.45,6.45,0,0,1-.75.22l-.1,0a.23.23,0,0,1-.07.14c-.12,0-.46.16-.47.17s.06,0,.09,0v0a.66.66,0,0,0,.2-.06c-.24.13-.27.1-.29.08-.19,0-.2.07-.2.11s-.24.07-.34.16v0a1,1,0,0,0,.25,0c.14,0,.27-.13.42-.09l0,0c.1,0,.44-.14.41-.22h0a1.17,1.17,0,0,1,.3-.19c.3-.07.4-.18.4-.21h0a2.19,2.19,0,0,0,.49-.17h-.07L12.2.4,12,.43l.47-.1a2.69,2.69,0,0,0-.4,0,7.34,7.34,0,0,0-.73.15,0,0,0,0,0,0,0,.14.14,0,0,1-.11,0,2.15,2.15,0,0,0-.61.18S10.62.73,10.85.67Z"/><path id="Path_1253" data-name="Path 1253" class="cls-1" d="M8.43,1.71l0,.05a.3.3,0,0,1-.08.08l0-.06v0a.14.14,0,0,0-.11.06h0a1,1,0,0,1-.21.1s0,0,0,0,0,0,0,0l.21-.07C8.21,1.92,8,2,8,2.05H8A2.16,2.16,0,0,0,8.28,2a.44.44,0,0,0,.15-.12v0h0l.21-.18s0,0,0,0h0l-.22.07Z"/><path id="Path_1254" data-name="Path 1254" class="cls-1" d="M10.61,3.3c.09,0,.3.25.3.26s.1.13.15.12.32-.52.32-.52a.43.43,0,0,1,0-.05l-.94-.21a1,1,0,0,1,.28-.14c.1,0,.14-.07.14-.1a1.09,1.09,0,0,0-.5-.4.5.5,0,0,1-.21,0c-.08,0-.07-.15-.17-.16a1.62,1.62,0,0,0-.43.12c-.14.06-.15.06-.17,0a1.09,1.09,0,0,1,0-.26,1,1,0,0,0-.3,0c-.28.07-1.12.77-1,.88a1.31,1.31,0,0,0,.77,0s0-.07.21-.1.23-.07.25-.1l.18.14A2.13,2.13,0,0,1,9.67,3c.08.1.27.08.27.26a.75.75,0,0,1-.59.57,2.15,2.15,0,0,0-.5.12.15.15,0,0,0-.06.17s.13,0,.42-.06.22-.07.62.1c0,0,0,0-.19.09a1.74,1.74,0,0,0,.9.15s0,0,0,0a3,3,0,0,1-.32-.29.77.77,0,0,1,.44.14s.05,0,.06,0,.2-.31.14-.37-.38-.12-.45-.33S10.61,3.3,10.61,3.3Z"/><path id="Path_1255" data-name="Path 1255" class="cls-1" d="M7.56,2s.06,0,.1,0l0,0h0Z"/><path id="Path_1256" data-name="Path 1256" class="cls-1" d="M12.73,2.5l.14,0a.1.1,0,0,0,.05,0s0,0,0,0,0,0-.05-.05a0,0,0,0,1,0,0h-.07c-.07,0-.25.12-.15.18A.16.16,0,0,0,12.73,2.5Z"/><path id="Path_1257" data-name="Path 1257" class="cls-1" d="M9.93,2h0A.57.57,0,0,0,9.57,2c-.13,0-.09.1-.06.13S9.93,2,9.93,2Z"/><path id="Path_1258" data-name="Path 1258" class="cls-1" d="M8.93,1.34l-.13,0h0l.13,0s0,0,0,0,.11,0,.12,0a.57.57,0,0,0,.16-.15h0s0,0,.06-.05h0a1.69,1.69,0,0,0-.28.12S9,1.3,9,1.3,9,1.31,8.93,1.34Z"/><path id="Path_1259" data-name="Path 1259" class="cls-1" d="M8.38,1.93s0,0,0,.05.12,0,.2-.06.13-.13.09-.13h0Z"/><path id="Path_1260" data-name="Path 1260" class="cls-1" d="M9.61,1.26h0l-.17.06-.2.05-.09,0,.32,0a.55.55,0,0,0,.15-.08Z"/><path id="Path_1261" data-name="Path 1261" class="cls-1" d="M9.13,1.36h0l.28-.11s0,0,0,0,0,0,0,0h0a0,0,0,0,0,0,0h0s-.07.08-.12.1S9.14,1.33,9.13,1.36Z"/><path id="Path_1262" data-name="Path 1262" class="cls-1" d="M9.59,1.06,9.73,1h0l-.18.06s0,0,0,0Z"/><path id="Path_1263" data-name="Path 1263" class="cls-1" d="M9.89,1C10,1,10,1,10,1h0l-.1,0-.21.07s0,.07,0,.08l.1,0a.51.51,0,0,0,.13,0c.1,0,.19-.1.28-.14l.19-.07h0l0,0c.08,0,.08,0,.08-.05h0s0,0,0-.06l.07-.05h0a4.29,4.29,0,0,0-.5.19h.05L9.92,1A.32.32,0,0,0,9.75,1Z"/><path id="Path_1264" data-name="Path 1264" class="cls-1" d="M8.74,1.94A3.19,3.19,0,0,0,10,1.56c.07-.07-.11-.08-.11-.08a3.75,3.75,0,0,0-.65.2c-.08,0-.15-.05-.13-.07s0,0,0,0,.08-.1.07-.1a.28.28,0,0,0-.13,0,.61.61,0,0,0-.14,0H8.91a.29.29,0,0,0-.1.12l.06,0c.05,0,.11,0,.12,0s-.05.12-.06.12-.12.06-.16.12S8.71,1.94,8.74,1.94Z"/><path id="Path_1265" data-name="Path 1265" class="cls-1" d="M29.11,14.51c0-.4,0-.94-.08-1.35,0-.12,0-.23-.05-.33a9.84,9.84,0,0,1-.3-1.51h0a12.55,12.55,0,0,1-.47-1.61h0a9.92,9.92,0,0,0-.46-1.13l-.5-1a1.77,1.77,0,0,0-.53-.49,1.65,1.65,0,0,1,.53.49c-.19-.31-.44-.74-.64-1a14.67,14.67,0,0,0-1.43-1.8l-.58-.59h0l-.07-.06a2.68,2.68,0,0,0,.28.3l-.12-.08a1.24,1.24,0,0,0,.28.28l0,0c-.4-.33-.75-.73-1.16-1.05.19.15.39.29.59.42a5.7,5.7,0,0,0-1.08-.88A2.25,2.25,0,0,1,23,2.9l.06,0a.51.51,0,0,0-.13-.09h0a1.12,1.12,0,0,1-.28-.16l.06,0c0-.08-.39-.24-.42-.25a.44.44,0,0,0,.08.11c-.12,0-.19-.17-.31-.22s.09.09.11.14-.05.1,0,.16a5.59,5.59,0,0,0,.3.6c.22.33.21.45.2.46,0,.31,0,.31-.21.43s-.06.06,0,.14.46,1.07.88.88c.13-.07.06-.29,0-.39a8.72,8.72,0,0,1,.92,1c.06.11.13.21.24.21a.84.84,0,0,0,0-.47c-.16-.3-.12-.34,0-.42s0-.1-.22-.24-.15-.1-.35-.43c-.08-.12.05-.28-.07-.4a3.26,3.26,0,0,1-.31-.33V3.63a1.68,1.68,0,0,1,.51.36h0c.29.64.29.64.56.9s.6.19.84.41l-.11,0h0a.35.35,0,0,1,0,.08,2.77,2.77,0,0,0-.41-.12,5.12,5.12,0,0,1,.5.63c-.15,0-.16-.24-.33-.22l0,0s.19.35.21.37.16.2.15.27h-.12l0,.09,0,0h0c-.44,0-.44,0-.44,0l-.06,0a1.42,1.42,0,0,0-.33-.11l.21,0a.45.45,0,0,0-.3-.09c-.06,0-.07,0-.23-.18a.93.93,0,0,1-.26-.51c0-.07-.1-.37-.18-.38s-.24,0-.2.11a5.16,5.16,0,0,0,.51.8c.09.1.09.11.09.12l-.07,0-.15,0,0,.06c-.23,0-.23,0-.3,0a1.82,1.82,0,0,0,.11.4l0,.07a.52.52,0,0,0-.3,0,1.45,1.45,0,0,0,.09.22l-.17.08a.45.45,0,0,1,0,.16.52.52,0,0,1-.36-.11l.09.13,0,.08-.16,0c-.1-.07-.1-.07-.28-.07l0,.06.15.13-.06,0a1.19,1.19,0,0,1,.87,1.35c-.48,0-1-.18-1.44-.23l.09.13s.06,1.31.22,1.36a3.78,3.78,0,0,1-.05.44,1.75,1.75,0,0,1,.56,0c.05.23.05.23.06.24l.79-.27a.31.31,0,0,0,.16-.49c.12-.52.13-.53.46-.65,0-.43,0-.43,0-.46s.27.08.41.08c.13-.23.24-.38.44-.2a11.51,11.51,0,0,1,1.23,1.64c.08.27,0,.28-.43.34a2.4,2.4,0,0,0,.38.4c0-.13,0-.25,0-.37h.06a2.44,2.44,0,0,0,.14-.28.88.88,0,0,1-.07-.33l.07,0,.1.13c0-.11,0-.11-.4-.56l0-.08c-.18-.07-.32-.14-.79-1.1a.24.24,0,0,1,.11-.09l1.07,1.26.32.92.33.77a.76.76,0,0,0,0-.15A2.36,2.36,0,0,0,27,11c-.12-.57-.12-.57-.06-.62a.55.55,0,0,1,.36.32.35.35,0,0,0,.06-.14h.08c.07-.52-.3-1-.24-1.5a.23.23,0,0,1,.14,0l0,.06a.39.39,0,0,0,.17.14.49.49,0,0,1,0,.24,2.26,2.26,0,0,1,.16.26c.25-.15-.13-.4,0-.62.11,0,.13,0,.16.1l0,.07c0,.06,0,.06.1.29l0,.06c.18.45.6.8.58,1.33l-.06,0c-.22-.15-.21-.63-.56-.54a.31.31,0,0,1-.06.13l-.14,0a.24.24,0,0,0,.07.12c-.08.07-.19,0-.28.07a.86.86,0,0,0,0,.16l.07,0A1.64,1.64,0,0,0,27.82,12l.05-.06v-.07c.11.09.14.24.27.32a.4.4,0,0,0,0-.15.42.42,0,0,0,.12.08c.06,1,.06,1.17-.05,1.45-.14,0-.17,0-.21-.19a.21.21,0,0,0-.13.05c-.48,0-.44-.74-.94-.74-.1.16,0,.36-.09.53l-.07,0c-.1-.08-1.22-1.09-1.3-1.22a.2.2,0,0,1,0-.16c.06-.1.06-.1,0-.7L25.33,11c-.1.08-.1.08-.5,0l-.1.12c-.53-.2-1,.38-1.48.19h-.08c-.15,0-.2,0-.36-.15l0,0-.07.06c-.1.12,0,.29-.12.41s-.34.15-.46.32,0,.13,0,.19c0,.64,0,.64-.2.72a1.67,1.67,0,0,0-.45.34c-.1.15-.8,1.37-.8,1.37,0,.33.18.6.19.92s-.38.4-.26.71c.18.46.43.9.65,1.34a2.86,2.86,0,0,0,.9.83A8.66,8.66,0,0,1,24,18.1l.06,0c.12.1,0,.28.15.38s.26,0,.39.08a.5.5,0,0,1,0,.5,9.55,9.55,0,0,1,2.28.64,9.55,9.55,0,0,0-2.28-.64c-.29.68-.29.68-.25.88a2.32,2.32,0,0,1-.23,1.65,8.38,8.38,0,0,1-.76,1.11c-.22.36-.25.8-.45,1.16A7.82,7.82,0,0,1,22,25.46a1,1,0,0,0-.22.35,1.4,1.4,0,0,0,1-.31l.63-.45.8-.63c.19-.19.29-.44.49-.62s.51-.3.73-.51a6.42,6.42,0,0,0,1.06-1.61,6.47,6.47,0,0,1,1.09-1.46,6.24,6.24,0,0,0,.86-1.66c-.08,0-.08,0-.23,0s0,0,0-.63a3.54,3.54,0,0,0,0-.65c0-.56.1-1.12.05-1.68l-.15-1.78s0,0,.07.31a.29.29,0,0,0,.08-.14c.37,1.33,0,2.67,0,4,.14-.06.14-.06.21,0a4.09,4.09,0,0,0,.4-.94v.08l0-.15v-.05l.05-.31h0c0-.14,0-.32.07-.8v.07C29.09,15.43,29.11,14.91,29.11,14.51ZM29,16.06c0-.06,0-.06,0-.56a2.09,2.09,0,0,1,0,.23,7.39,7.39,0,0,1,0-1.33,6.27,6.27,0,0,1,.08,1.37A1.47,1.47,0,0,1,29,16.06Z"/><path id="Path_1266" data-name="Path 1266" class="cls-1" d="M28.71,11.31v.06l.07.32h0a5.67,5.67,0,0,0,.1.57,10.13,10.13,0,0,0-.32-1.45l-.08-.26c.17.58.17.6.25.91Z"/><path id="Path_1267" data-name="Path 1267" class="cls-1" d="M28.44,10.39l0,0a1.29,1.29,0,0,1-.06-.21l0,.07-.17-.51h0l0-.08c.06.2.15.46.26.82A.48.48,0,0,0,28.44,10.39Z"/><path id="Path_1268" data-name="Path 1268" class="cls-1" d="M29,12.87c0-.21-.06-.41-.1-.62,0,.16.05.35.09.58Z"/><path id="Path_1269" data-name="Path 1269" class="cls-1" d="M20.71,6.05h0a1.58,1.58,0,0,0-.09.31c0,.08,0,.12,0,.15s.26,0,.42-.06l.12-.08s.11,0,.15-.06,0-.1,0-.21A.47.47,0,0,0,21.23,6a.12.12,0,0,1,0-.15.19.19,0,0,0,0-.13.2.2,0,0,0-.09-.11l-.06,0-.16-.06a.09.09,0,0,1-.05,0h0s-.34.09-.14.2l.05,0h0a.86.86,0,0,0-.2.13.2.2,0,0,0,0,.13.14.14,0,0,0,.08.07A.61.61,0,0,0,20.71,6.05Z"/><path id="Path_1270" data-name="Path 1270" class="cls-1" d="M7.13,2.21h0l-.31.18S6.85,2.39,7.13,2.21Z"/><path id="Path_1271" data-name="Path 1271" class="cls-1" d="M27.61,12.21h0L27.49,12a.13.13,0,0,0-.06,0l-.12,0-.07,0s0,0,0,.06A.7.7,0,0,0,27.61,12.21Z"/><path id="Path_1272" data-name="Path 1272" class="cls-1" d="M25,10.25s.08,0,.09.07,0,.09,0,.13a.08.08,0,0,0,.05.05.2.2,0,0,0,.19-.16v-.05s0-.1,0-.15,0-.11,0-.16,0-.1-.07-.1A.28.28,0,0,0,25,10,.36.36,0,0,0,25,10.25Z"/><path id="Path_1273" data-name="Path 1273" class="cls-1" d="M24.22,10.23l.06-.07s0-.05-.11-.06-.21,0-.16.07a.3.3,0,0,0,.18.08Z"/><path id="Path_1274" data-name="Path 1274" class="cls-1" d="M25,9.55a.08.08,0,0,0,0,0s0,0,0,0a1.66,1.66,0,0,0,.13.14s0-.22,0-.33A.64.64,0,0,0,25,9.27h0v0h0a.76.76,0,0,0,0,.15A.12.12,0,0,1,25,9.55Z"/><path id="Path_1275" data-name="Path 1275" class="cls-1" d="M28.09,12.58h.08a.88.88,0,0,0,0-.16h0v0h-.1l-.05,0h0a.24.24,0,0,0,0,.2Z"/><path id="Path_1276" data-name="Path 1276" class="cls-1" d="M5.66,3.3h0c.09-.06.16-.13.24-.19s.31-.19.46-.3,0,0,.08-.1h0a.37.37,0,0,0-.14.07s0,0,0-.06h0c-.18.08-.18.08-1,.74a.58.58,0,0,0-.18.23h0A2.93,2.93,0,0,0,5.66,3.3Z"/><path id="Path_1277" data-name="Path 1277" class="cls-1" d="M6.8,2.53A.51.51,0,0,0,7,2.46l.38-.2a2.34,2.34,0,0,0,.24-.09l.3-.2s0,0,0-.05l-.07,0-.2.14c.09-.09.2-.16.28-.25h0a1.53,1.53,0,0,0-.3.19s0,.1-.27.16h0s.14,0,.1-.1-.6.29-.61.37a2.69,2.69,0,0,0,.29-.16.38.38,0,0,1-.12.1l.07,0,.13-.06a3,3,0,0,1-.4.21S6.78,2.53,6.8,2.53Z"/><path id="Path_1278" data-name="Path 1278" class="cls-1" d="M5.15,4s.07,0,.11,0h0s-.07.08-.09.12a2.17,2.17,0,0,0,.67-.36A.56.56,0,0,1,6,3.65H6l0,0a.61.61,0,0,0,.18,0c.14,0,.14,0,.28-.2h0l-.15.07a.33.33,0,0,1,.25-.15H6.6s.07-.07.06-.13-.11-.12-.07-.17a3.79,3.79,0,0,0,.34-.45l0,0h0a2.93,2.93,0,0,1-.41.38c0-.07.06-.09.08-.14h0A.66.66,0,0,1,6.34,3s.06,0,.07-.08h0a2.15,2.15,0,0,0-.26.14,1.68,1.68,0,0,1,.21-.18c-.05,0-.78.47-.77.56l0,0s0,0-.1.08-.15.1-.15.12h0c.08,0,.14-.07.23-.09s.11,0,.17,0a.83.83,0,0,1-.3.14C5.12,3.82,5.08,4,5.15,4Z"/><path id="Path_1279" data-name="Path 1279" class="cls-1" d="M8.49,4.7s0,0-.05,0a.39.39,0,0,0-.14,0,.14.14,0,0,0,0,.14S8.47,4.74,8.49,4.7Z"/><path id="Path_1280" data-name="Path 1280" class="cls-1" d="M8.3,4.43l0,0a.11.11,0,0,0,0-.08l-.08-.06a.76.76,0,0,0-.11-.14l0,0A.88.88,0,0,1,8,4.06S7.92,4,7.89,4h0a2,2,0,0,0-.19.22.73.73,0,0,1,0,.09l-.16.25c.09,0,.09,0,.1.06s0,.06,0,.06l.09-.07A.72.72,0,0,1,8,4.42C8.11,4.41,8.2,4.46,8.3,4.43Z"/><path id="Path_1281" data-name="Path 1281" class="cls-1" d="M8.05,4.6a.94.94,0,0,0-.28.1s0,.12,0,.13.3-.12.35-.19S8.11,4.59,8.05,4.6Z"/><path id="Path_1282" data-name="Path 1282" class="cls-1" d="M7.52,16.11c-.08,0,0,.15,0,.17s.24,0,.24,0A.27.27,0,0,0,7.52,16.11Z"/><path id="Path_1283" data-name="Path 1283" class="cls-1" d="M21.65,6s0,0,0,0h.1A.25.25,0,0,0,21.65,6Z"/><path id="Path_1284" data-name="Path 1284" class="cls-1" d="M12.16,7q.13-.18.12-.24h0a1.2,1.2,0,0,0-.29.26c-.13.16-.21.34-.34.5s-.16.15-.22.23,0,0,0,0a1.72,1.72,0,0,0,.39,0,3.2,3.2,0,0,1,.54.08l.07,0c.06,0,.12-.06.18,0a.17.17,0,0,1,0,.12s0,.05,0,.05.14-.13.14-.23a.8.8,0,0,0-.23-.53c-.06-.07-.06-.07-.28,0s-.08,0-.1-.06-.06-.12-.1-.14,0,0,0,0A.36.36,0,0,1,12.16,7Z"/><path id="Path_1285" data-name="Path 1285" class="cls-1" d="M21,5.06c0,.08,0,.15,0,.23s.07,0,.18-.08.07,0,.1,0,0,.18,0,.26a.33.33,0,0,0,.27.23.62.62,0,0,1,.23.07s0,.06,0,.09S21.91,6,22,6s-.09,0-.17,0l-.13,0c0,.11.16.17.19.29s-.05.1-.14.14-.06,0,0,.06,0,.06.25,0,.28,0,.29.06,0,0-.1,0a.12.12,0,0,0-.1,0c-.05,0-.06.1-.1.15L21.74,7V7a2.09,2.09,0,0,0,.43,0c.2,0,.41,0,.62,0h0l.35-.12h0c-.07-.08-.16,0-.24,0s.06-.2,0-.31-.15-.18-.21-.18-.23-.18-.23-.19h0l.12,0s.11,0,.11,0h0l-.06,0a5.91,5.91,0,0,1-.52-.35,1.39,1.39,0,0,0-.21-.21.71.71,0,0,0-.37-.12h0c.09-.08.21-.48,0-.49h-.13c-.15,0-.18,0-.18,0s.14-.22,0-.23-.3,0-.34.11v0C20.91,4.89,21,5,21,5.06Z"/><path id="Path_1286" data-name="Path 1286" class="cls-1" d="M1.39,8.94c0-.09.06-.19.1-.28l.06-.16v0s0-.05,0,0h0A1.16,1.16,0,0,0,1.39,9Z"/><path id="Path_1287" data-name="Path 1287" class="cls-1" d="M19.05,3.09v0A.24.24,0,0,0,18.92,3h0l-.26,0c-.06,0-.1-.08-.18-.08l-.24.08A2,2,0,0,0,18,3s0,.08,0,.1-.09,0-.13,0h0c0,.07,0,.15,0,.22a1.26,1.26,0,0,1-.24-.22.39.39,0,0,0-.43-.14c0,.06.1.05.13.1s-.13.08-.18.14a.25.25,0,0,0,.17,0c.09,0,.37.08.21.21.07.09.16,0,.24,0s.08,0,.08.12,0,0,.19,0h.17l.22,0h0a1.27,1.27,0,0,0,.28-.06c.19,0,.47-.25.46-.31A.33.33,0,0,0,19,3.1S19,3.08,19.05,3.09Z"/><path id="Path_1288" data-name="Path 1288" class="cls-1" d="M7.78,15.77a.82.82,0,0,0,.61.09s-.66-.8-.67-.8a.81.81,0,0,0-.66-.12,1,1,0,0,0-.36.22A.45.45,0,0,0,7,15.09c.2-.11.32-.05.34,0a.08.08,0,0,1-.1,0h0c0,.09.16.13.26.16s.2.09.24.21a.37.37,0,0,0,.07.14.14.14,0,0,1,0,.08C7.88,15.74,7.81,15.74,7.78,15.77Z"/><path id="Path_1289" data-name="Path 1289" class="cls-1" d="M8.6,16.41c.05,0,0,.13.09.13s.12-.16.23-.17H9a5.29,5.29,0,0,0,.56.05s0,0,0,0-.05-.11,0-.17-.92-.28-1-.27l0,0,0,0a.3.3,0,0,1,.09.3.56.56,0,0,1-.2,0,.81.81,0,0,0-.23,0h0C8.34,16.34,8.48,16.34,8.6,16.41Z"/><path id="Path_1290" data-name="Path 1290" class="cls-1" d="M10.54,7.45c-.08,0,.11.12.15.14.25.11.33,0,.33,0S10.64,7.43,10.54,7.45Z"/><path id="Path_1291" data-name="Path 1291" class="cls-1" d="M26.13,23c-.27.35-.28.36-.46.42s-.19.12-.41.44a1,1,0,0,1-.26.28,5,5,0,0,0-.79.87c.12,0,.12,0,.58-.43s.7-.75,1.05-1.13c0,0,0,0,0,.07l.05-.06a4.35,4.35,0,0,0,.38-.57h0A.52.52,0,0,0,26.13,23Z"/><path id="Path_1292" data-name="Path 1292" class="cls-1" d="M16.89,20.38c0-.1.12-.24,0-.31s-.18,0-.27,0c-.29-.06-.49-.32-.77-.41s-.85-.2-1.28-.31c-.25-.09-.27-.37-.42-.54s-.45-.44-.73-.6-.79-.13-1.14-.34-.47-.46-.76-.6a.49.49,0,0,0-.16-.05C9.91,17,8.77,16.83,8.64,18c-.43-.31-1.53.17-1.43-.54a1.23,1.23,0,0,0-.13-.75c-.33-.17-.67,0-1,0,.11-.37.11-.37,0-.54a2.19,2.19,0,0,0,.2-.66c-.06-.05-.63-.51-.75.76-.19,0-.32.26-.54.14a1.6,1.6,0,0,1-.76-.88c-.07-.25.14-.44.13-.67s-.2-.22-.15-.39a2.62,2.62,0,0,1,.57-.71c.17-.13.83,0,.84,0l.06-.05-.18-.12v-.07a7.93,7.93,0,0,1,1.19-.17c.45.24.17.87.6,1.12.51-.53-.3-1-.21-1.55s.65-.69,1-1.05h0l0,0v-.07l.06,0v-.08l-.07,0,.1-1c0,.15,0,.62,0,.62s0,0,.09-.71a.88.88,0,0,1,.12.21c.09-.16.06-.36.2-.5S9,10,9.2,9.88c.06-.53.06-.53.36-.8,0,0,0,0,.91-.5l0,.06a.41.41,0,0,0,.16,0v.08c-.5.35-.5.35-.51.45.34,0,1.38-.6,1.19-1.06-.14.1-.15.27-.23.4l-.28-.08a.27.27,0,0,0,.13-.1h0a.48.48,0,0,1-.24,0,.12.12,0,0,1-.07-.13v0h0a.24.24,0,0,0,0,.2c-.13-.06-.15-.12-.2-.28A.33.33,0,0,1,10.18,8c.18-.05.31-.08.35-.27s-.09-.09-1.39.72C10,7.5,10,7.5,11,7.22c.21.15,1.15-.32,1.29-.58,0-.11,0-.11,0-.28l0-.07-.22,0h-.07a.83.83,0,0,0-.43.18l0-.07c.08-.1.11-.12.39-.23l-1.64.15,1.64-.15a.05.05,0,0,0,.05,0A.47.47,0,0,0,11.43,6c-.06,0-.06,0-.09,0s0-.11,0-.16-.15,0-.2-.12,0-.06,0-.11.06-.09-.07-.32c-.33-.59-.33-.59-.49-.28,0,0,0,.1,0,.14s-.14,0-.18.07-.1.14-.13.15-.3-.09-.47-.13a.72.72,0,0,1,.13-.45c-.09,0-.19,0-.28,0s0,0-.06-.07,0,0-.26-.13h-.1a4.58,4.58,0,0,0-.63.1c0,.19-.2.36,0,.56,0,.09-.15.13-.16.24s.12.2.13.32,0,.5-.28.57c-.06,0-.2.06-.17.16A.27.27,0,0,1,8,6.54c-.08.29.11.65-.21.87-.1-.15-.29-.2-.43-.3a.49.49,0,0,0,0-.41l.08-.06v0H7.37c-.14-.13-.3,0-.45-.06s-.22-.18-.36-.23l-.08,0c-.13,0-.22.07-.33.1s0,0-.09-.33C6,6,6,6,5.8,5.93c-.06-.32.71-.88,1-1.12,0-.1-.14-.06-.21-.1.64-.12.64-.12,1-.5a.56.56,0,0,1-.5-.07c.24-.08.54.07.72-.21l-.07,0s.12-.15.24-.07c.41-.15.41-.15.52-.24a.27.27,0,0,0,.07-.08c0-.07,0-.15,0-.23s.12-.06.17-.11a.61.61,0,0,0,.05-.12s-.35-.36-.46.15c-.22.12-.37.62-.63.39,0-.16.33-.26.19-.41-.17.06-.23.23-.36.34,0-.09.14-.3.15-.3H7.56c.25-.41.25-.41.25-.46l0,0c.14-.23.14-.23.82-.63H8.48c-.55.13-1.28,1.15-1.29,1.16l0,0,.17,0v0a.82.82,0,0,0-.2.12v0h0c-.12.2-.37.27-.47.49-.09-.1-.09-.1.08-.27-.1,0-.1,0-.41.22,0,0-.12.08-.5.06,0,0,0-.09,0-.12-.31.08-.4.26-.59.62,0-.1,0-.17,0-.26-.17,0-.3.17-.49.14.08-.08.2-.1.23-.23h0s0,0-.17,0l0-.06c-.09,0-.13.09-.2.14a.35.35,0,0,1,0-.08.63.63,0,0,0-.12.1A.86.86,0,0,1,4.71,4l-.57.5h0L4.5,4.2a5.92,5.92,0,0,0-.59.52l0-.06-.68.76A13.61,13.61,0,0,0,2,7.24H2l0,0a3.63,3.63,0,0,0-.29.84l-.06.17,0,.07a5.49,5.49,0,0,0-.17.7.59.59,0,0,0,0,.3h-.1v0s0-.07,0-.07h0a.66.66,0,0,0,0,.28c0,.1.1.09.11.09l.05,0s0,0,0-.07V9.36h0a.87.87,0,0,1,.07.31l-.12-.06a6.78,6.78,0,0,0-.3,3.81s0,0,.67,1.31H1.75c.08.16.64.89.64.89s.1-.15-.15-.51a3.28,3.28,0,0,1-.48-1.27.69.69,0,0,1,.35.51,1.35,1.35,0,0,0,.11.34c.12.19.26.35.38.53s.43.36.56.61.06.48.28.64l.11.05.21.08c.22.06.46.1.68.15s.49-.07.71.06c.53.3.53.3.71.31H6c.83.12,1.17,1.14,2.07,1.1.4-.66.65.14.73.51,0,.12,0,.12-.2.62a3.15,3.15,0,0,0-.12,1.06.26.26,0,0,0,.05.09A18.23,18.23,0,0,0,10,22.16c.3.26.7.31,1,.54a1.55,1.55,0,0,1,.5.94,11.11,11.11,0,0,0,1.27,3.25c1,1.44,2,1.28,2,1.28-1-.49-1-.49-.86-.9-.14-.14-.14-.14-.39-.83,0,0,0,0,.22,0,0,0,0,0-.22-.32.17-.15.17-.15.16-.27l0,0c.3.1.4-.15.32-.26L14,25.43c.68,0,1-1.66,1-1.67a.84.84,0,0,1,.45-.38c.24-.1.24-.38.41-.53a.26.26,0,0,1,.2-.07c.1,0,.11,0,.12-.08s0-.41,0-.61-.06-.23,0-.35.12-.17.05-.26a.14.14,0,0,1,0-.06A1.37,1.37,0,0,0,17,20.6v0C17,20.49,16.91,20.45,16.89,20.38Z"/><path id="Path_1293" data-name="Path 1293" class="cls-1" d="M2.73,7.62l.63-.19Z"/><path id="Path_1294" data-name="Path 1294" class="cls-1" d="M9.14,19.26l.79-.09Z"/><path id="Path_1295" data-name="Path 1295" class="cls-1" d="M14.86,22.84c0-.1,0-.42-.1-1,0,.34.06.67.1,1Z"/><path id="Path_1297" data-name="Path 1297" class="cls-1" d="M9.88,16.48c-.08.05,0,.15.11.17a.78.78,0,0,0,.3,0s0,0-.17-.09S9.91,16.47,9.88,16.48Z"/></g></g><circle id="Ellipse_18" data-name="Ellipse 18" class="cls-2" cx="14.58" cy="14.58" r="14.58"/><g id="Group_104" data-name="Group 104"><g id="Group_103" data-name="Group 103"><path id="Path_1702" data-name="Path 1702" class="cls-1" d="M8.24,1.76h0l-.09,0L8,1.87H8s0,0,.16-.06S8.26,1.76,8.24,1.76Z"/><path id="Path_1703" data-name="Path 1703" class="cls-1" d="M8.05,1.68H8L8,1.71l0,0H8Z"/><path id="Path_1704" data-name="Path 1704" class="cls-1" d="M8.4,1.53l.07,0,.08,0,.07,0h0L8.2,1.6l.11,0A.32.32,0,0,1,8.4,1.53Z"/><path id="Path_1705" data-name="Path 1705" class="cls-1" d="M8.18,1.65h0l.08,0,.08,0h0a1.4,1.4,0,0,0-.44.22,1.75,1.75,0,0,0,.28-.13Z"/><path id="Path_1706" data-name="Path 1706" class="cls-1" d="M8.41,1.63h0l0,0,.05,0h0l-.14.08h0s0,0,0,0Z"/><path id="Path_1707" data-name="Path 1707" class="cls-1" d="M7.83,2.06h0a.36.36,0,0,0-.12.08h0a.51.51,0,0,0,.15-.07Z"/><path id="Path_1708" data-name="Path 1708" class="cls-1" d="M7.94,2.29H7.88l-.15,0a.8.8,0,0,0-.29.15h0a0,0,0,0,1,0,0,1.18,1.18,0,0,1-.18.13h0s0,0,0-.08a.37.37,0,0,0-.17.1h0s0,0,0,.08,0,0,0,0,0,0,0,.06h0s.37-.16.46-.25.08-.13,0-.13a.27.27,0,0,0-.12,0l.25-.14Z"/><path id="Path_1709" data-name="Path 1709" class="cls-1" d="M7,2.28c.15-.07.27-.17.42-.24l-.16.1.49-.28,0,0h0a8.78,8.78,0,0,0-.94.54c.07,0,.12-.07.18-.1Z"/><path id="Path_1710" data-name="Path 1710" class="cls-1" d="M7,3.31H7l0,0-.18.16c-.12.07-.15.09-.16.11h.1s0,0,0,0H6.8a.69.69,0,0,0,.29-.12s0-.13,0-.13A.16.16,0,0,0,7,3.31Z"/><path id="Path_1711" data-name="Path 1711" class="cls-1" d="M7.25,2.47h0a.5.5,0,0,0-.19.1h0s0,0,0,0,0,0,0,0l.15-.11S7.27,2.48,7.25,2.47Z"/><path id="Path_1712" data-name="Path 1712" class="cls-1" d="M12,.55a.75.75,0,0,1-.35.16,4.72,4.72,0,0,0-.53.18c-.14.18.21.24.21.24.87-.06.88,0,.94,0s.41.46.28.7,0,.1,0,.12.07.06.09.1,0,.15,0,.21.2-.14.34-.08a.19.19,0,0,1,.14.24s0,0,0,.05-.27.11-.35.23a.51.51,0,0,0-.06.38s.69,1.2,1,1.31a22.37,22.37,0,0,0-.45-4,20.58,20.58,0,0,1,.45,4c.81.16.83.14.88.08a4.11,4.11,0,0,0,.23-.85c0-.11,0-.22,0-.33s0,0,.24-.11c.64-.2.64-.2.66-.32s0-.19.14-.25c.28-.14.6-.16.88-.31a2.16,2.16,0,0,0,.34-.17s.06,0,0-.12-.24-.2-.33-.32-.07-.18-.1-.27,0-.13,0-.19,0-.11-.14-.21C16,.71,16,.7,16,.63v0h0c-.16-.16-.47,0-.55-.32l0,0s0,0,0,0h0l-.27,0a2,2,0,0,0-.34,0c-.11,0-.21-.06-.32-.06h-.65c-.25,0-.25,0-.28,0h0a1.9,1.9,0,0,0-.41,0h0l.21,0H13a4.38,4.38,0,0,0-1.12.28S11.89.55,12,.55Z"/><path id="Path_1713" data-name="Path 1713" class="cls-1" d="M9.53,3.29c0-.09,0-.13,0-.12s-.19.05-.22.13.06.17.09.19S9.53,3.29,9.53,3.29Z"/><path id="Path_1714" data-name="Path 1714" class="cls-1" d="M10.85.67l-.13,0,.63-.17a6.45,6.45,0,0,1-.75.22l-.1,0a.23.23,0,0,1-.07.14c-.12,0-.46.16-.47.17s.06,0,.09,0v0a.66.66,0,0,0,.2-.06c-.24.13-.27.1-.29.08-.19,0-.2.07-.2.11s-.24.07-.34.16v0a1,1,0,0,0,.25,0c.14,0,.27-.13.42-.09l0,0c.1,0,.44-.14.41-.22h0a1.17,1.17,0,0,1,.3-.19c.3-.07.4-.18.4-.21h0a2.19,2.19,0,0,0,.49-.17h-.07L12.2.4,12,.43l.47-.1a2.69,2.69,0,0,0-.4,0,7.34,7.34,0,0,0-.73.15,0,0,0,0,0,0,0,.14.14,0,0,1-.11,0,2.15,2.15,0,0,0-.61.18S10.62.73,10.85.67Z"/><path id="Path_1715" data-name="Path 1715" class="cls-1" d="M8.43,1.71l0,.05a.3.3,0,0,1-.08.08l0-.06v0a.14.14,0,0,0-.11.06h0a1,1,0,0,1-.21.1s0,0,0,0,0,0,0,0l.21-.07C8.21,1.92,8,2,8,2.05H8A2.16,2.16,0,0,0,8.28,2a.44.44,0,0,0,.15-.12v0h0l.21-.18s0,0,0,0h0l-.22.07Z"/><path id="Path_1716" data-name="Path 1716" class="cls-1" d="M10.61,3.3c.09,0,.3.25.3.26s.1.13.15.12.32-.52.32-.52a.43.43,0,0,1,0-.05l-.94-.21a1,1,0,0,1,.28-.14c.1,0,.14-.07.14-.1a1.09,1.09,0,0,0-.5-.4.5.5,0,0,1-.21,0c-.08,0-.07-.15-.17-.16a1.62,1.62,0,0,0-.43.12c-.14.06-.15.06-.17,0a1.09,1.09,0,0,1,0-.26,1,1,0,0,0-.3,0c-.28.07-1.12.77-1,.88a1.31,1.31,0,0,0,.77,0s0-.07.21-.1.23-.07.25-.1l.18.14A2.13,2.13,0,0,1,9.67,3c.08.1.27.08.27.26a.75.75,0,0,1-.59.57,2.15,2.15,0,0,0-.5.12.15.15,0,0,0-.06.17s.13,0,.42-.06.22-.07.62.1c0,0,0,0-.19.09a1.74,1.74,0,0,0,.9.15s0,0,0,0a3,3,0,0,1-.32-.29.77.77,0,0,1,.44.14s.05,0,.06,0,.2-.31.14-.37-.38-.12-.45-.33S10.61,3.3,10.61,3.3Z"/><path id="Path_1717" data-name="Path 1717" class="cls-1" d="M7.56,2s.06,0,.1,0l0,0h0Z"/><path id="Path_1718" data-name="Path 1718" class="cls-1" d="M12.73,2.5l.14,0a.1.1,0,0,0,.05,0s0,0,0,0,0,0-.05-.05a0,0,0,0,1,0,0h-.07c-.07,0-.25.12-.15.18A.16.16,0,0,0,12.73,2.5Z"/><path id="Path_1719" data-name="Path 1719" class="cls-1" d="M9.93,2h0A.57.57,0,0,0,9.57,2c-.13,0-.09.1-.06.13S9.93,2,9.93,2Z"/><path id="Path_1720" data-name="Path 1720" class="cls-1" d="M8.93,1.34l-.13,0h0l.13,0s0,0,0,0,.11,0,.12,0a.57.57,0,0,0,.16-.15h0s0,0,.06-.05h0a1.69,1.69,0,0,0-.28.12S9,1.3,9,1.3,9,1.31,8.93,1.34Z"/><path id="Path_1721" data-name="Path 1721" class="cls-1" d="M8.38,1.93s0,0,0,.05.12,0,.2-.06.13-.13.09-.13h0Z"/><path id="Path_1722" data-name="Path 1722" class="cls-1" d="M9.61,1.26h0l-.17.06-.2.05-.09,0,.32,0a.55.55,0,0,0,.15-.08Z"/><path id="Path_1723" data-name="Path 1723" class="cls-1" d="M9.13,1.36h0l.28-.11s0,0,0,0,0,0,0,0h0a0,0,0,0,0,0,0h0s-.07.08-.12.1S9.14,1.33,9.13,1.36Z"/><path id="Path_1724" data-name="Path 1724" class="cls-1" d="M9.59,1.06,9.73,1h0l-.18.06s0,0,0,0Z"/><path id="Path_1725" data-name="Path 1725" class="cls-1" d="M9.89,1C10,1,10,1,10,1h0l-.1,0-.21.07s0,.07,0,.08l.1,0a.51.51,0,0,0,.13,0c.1,0,.19-.1.28-.14l.19-.07h0l0,0c.08,0,.08,0,.08-.05h0s0,0,0-.06l.07-.05h0a4.29,4.29,0,0,0-.5.19h.05L9.92,1A.32.32,0,0,0,9.75,1Z"/><path id="Path_1726" data-name="Path 1726" class="cls-1" d="M8.74,1.94A3.19,3.19,0,0,0,10,1.56c.07-.07-.11-.08-.11-.08a3.75,3.75,0,0,0-.65.2c-.08,0-.15-.05-.13-.07s0,0,0,0,.08-.1.07-.1a.28.28,0,0,0-.13,0,.61.61,0,0,0-.14,0H8.91a.29.29,0,0,0-.1.12l.06,0c.05,0,.11,0,.12,0s-.05.12-.06.12-.12.06-.16.12S8.71,1.94,8.74,1.94Z"/><path id="Path_1727" data-name="Path 1727" class="cls-1" d="M29.11,14.51c0-.4,0-.94-.08-1.35,0-.12,0-.23-.05-.33a9.84,9.84,0,0,1-.3-1.51h0a12.55,12.55,0,0,1-.47-1.61h0a9.92,9.92,0,0,0-.46-1.13l-.5-1a1.77,1.77,0,0,0-.53-.49,1.65,1.65,0,0,1,.53.49c-.19-.31-.44-.74-.64-1a14.67,14.67,0,0,0-1.43-1.8l-.58-.59h0l-.07-.06a2.68,2.68,0,0,0,.28.3l-.12-.08a1.24,1.24,0,0,0,.28.28l0,0c-.4-.33-.75-.73-1.16-1.05.19.15.39.29.59.42a5.7,5.7,0,0,0-1.08-.88A2.25,2.25,0,0,1,23,2.9l.06,0a.51.51,0,0,0-.13-.09h0a1.12,1.12,0,0,1-.28-.16l.06,0c0-.08-.39-.24-.42-.25a.44.44,0,0,0,.08.11c-.12,0-.19-.17-.31-.22s.09.09.11.14-.05.1,0,.16a5.59,5.59,0,0,0,.3.6c.22.33.21.45.2.46,0,.31,0,.31-.21.43s-.06.06,0,.14.46,1.07.88.88c.13-.07.06-.29,0-.39a8.72,8.72,0,0,1,.92,1c.06.11.13.21.24.21a.84.84,0,0,0,0-.47c-.16-.3-.12-.34,0-.42s0-.1-.22-.24-.15-.1-.35-.43c-.08-.12.05-.28-.07-.4a3.26,3.26,0,0,1-.31-.33V3.63a1.68,1.68,0,0,1,.51.36h0c.29.64.29.64.56.9s.6.19.84.41l-.11,0h0a.35.35,0,0,1,0,.08,2.77,2.77,0,0,0-.41-.12,5.12,5.12,0,0,1,.5.63c-.15,0-.16-.24-.33-.22l0,0s.19.35.21.37.16.2.15.27h-.12l0,.09,0,0h0c-.44,0-.44,0-.44,0l-.06,0a1.42,1.42,0,0,0-.33-.11l.21,0a.45.45,0,0,0-.3-.09c-.06,0-.07,0-.23-.18a.93.93,0,0,1-.26-.51c0-.07-.1-.37-.18-.38s-.24,0-.2.11a5.16,5.16,0,0,0,.51.8c.09.1.09.11.09.12l-.07,0-.15,0,0,.06c-.23,0-.23,0-.3,0a1.82,1.82,0,0,0,.11.4l0,.07a.52.52,0,0,0-.3,0,1.45,1.45,0,0,0,.09.22l-.17.08a.45.45,0,0,1,0,.16.52.52,0,0,1-.36-.11l.09.13,0,.08-.16,0c-.1-.07-.1-.07-.28-.07l0,.06.15.13-.06,0a1.19,1.19,0,0,1,.87,1.35c-.48,0-1-.18-1.44-.23l.09.13s.06,1.31.22,1.36a3.78,3.78,0,0,1-.05.44,1.75,1.75,0,0,1,.56,0c.05.23.05.23.06.24l.79-.27a.31.31,0,0,0,.16-.49c.12-.52.13-.53.46-.65,0-.43,0-.43,0-.46s.27.08.41.08c.13-.23.24-.38.44-.2a11.51,11.51,0,0,1,1.23,1.64c.08.27,0,.28-.43.34a2.4,2.4,0,0,0,.38.4c0-.13,0-.25,0-.37h.06a2.44,2.44,0,0,0,.14-.28.88.88,0,0,1-.07-.33l.07,0,.1.13c0-.11,0-.11-.4-.56l0-.08c-.18-.07-.32-.14-.79-1.1a.24.24,0,0,1,.11-.09l1.07,1.26.32.92.33.77a.76.76,0,0,0,0-.15A2.36,2.36,0,0,0,27,11c-.12-.57-.12-.57-.06-.62a.55.55,0,0,1,.36.32.35.35,0,0,0,.06-.14h.08c.07-.52-.3-1-.24-1.5a.23.23,0,0,1,.14,0l0,.06a.39.39,0,0,0,.17.14.49.49,0,0,1,0,.24,2.26,2.26,0,0,1,.16.26c.25-.15-.13-.4,0-.62.11,0,.13,0,.16.1l0,.07c0,.06,0,.06.1.29l0,.06c.18.45.6.8.58,1.33l-.06,0c-.22-.15-.21-.63-.56-.54a.31.31,0,0,1-.06.13l-.14,0a.24.24,0,0,0,.07.12c-.08.07-.19,0-.28.07a.86.86,0,0,0,0,.16l.07,0A1.64,1.64,0,0,0,27.82,12l.05-.06v-.07c.11.09.14.24.27.32a.4.4,0,0,0,0-.15.42.42,0,0,0,.12.08c.06,1,.06,1.17-.05,1.45-.14,0-.17,0-.21-.19a.21.21,0,0,0-.13.05c-.48,0-.44-.74-.94-.74-.1.16,0,.36-.09.53l-.07,0c-.1-.08-1.22-1.09-1.3-1.22a.2.2,0,0,1,0-.16c.06-.1.06-.1,0-.7L25.33,11c-.1.08-.1.08-.5,0l-.1.12c-.53-.2-1,.38-1.48.19h-.08c-.15,0-.2,0-.36-.15l0,0-.07.06c-.1.12,0,.29-.12.41s-.34.15-.46.32,0,.13,0,.19c0,.64,0,.64-.2.72a1.67,1.67,0,0,0-.45.34c-.1.15-.8,1.37-.8,1.37,0,.33.18.6.19.92s-.38.4-.26.71c.18.46.43.9.65,1.34a2.86,2.86,0,0,0,.9.83A8.66,8.66,0,0,1,24,18.1l.06,0c.12.1,0,.28.15.38s.26,0,.39.08a.5.5,0,0,1,0,.5,9.55,9.55,0,0,1,2.28.64,9.55,9.55,0,0,0-2.28-.64c-.29.68-.29.68-.25.88a2.32,2.32,0,0,1-.23,1.65,8.38,8.38,0,0,1-.76,1.11c-.22.36-.25.8-.45,1.16A7.82,7.82,0,0,1,22,25.46a1,1,0,0,0-.22.35,1.4,1.4,0,0,0,1-.31l.63-.45.8-.63c.19-.19.29-.44.49-.62s.51-.3.73-.51a6.42,6.42,0,0,0,1.06-1.61,6.47,6.47,0,0,1,1.09-1.46,6.24,6.24,0,0,0,.86-1.66c-.08,0-.08,0-.23,0s0,0,0-.63a3.54,3.54,0,0,0,0-.65c0-.56.1-1.12.05-1.68l-.15-1.78s0,0,.07.31a.29.29,0,0,0,.08-.14c.37,1.33,0,2.67,0,4,.14-.06.14-.06.21,0a4.09,4.09,0,0,0,.4-.94v.08l0-.15v-.05l.05-.31h0c0-.14,0-.32.07-.8v.07C29.09,15.43,29.11,14.91,29.11,14.51ZM29,16.06c0-.06,0-.06,0-.56a2.09,2.09,0,0,1,0,.23,7.39,7.39,0,0,1,0-1.33,6.27,6.27,0,0,1,.08,1.37A1.47,1.47,0,0,1,29,16.06Z"/><path id="Path_1728" data-name="Path 1728" class="cls-1" d="M28.71,11.31v.06l.07.32h0a5.67,5.67,0,0,0,.1.57,10.13,10.13,0,0,0-.32-1.45l-.08-.26c.17.58.17.6.25.91Z"/><path id="Path_1729" data-name="Path 1729" class="cls-1" d="M28.44,10.39l0,0a1.29,1.29,0,0,1-.06-.21l0,.07-.17-.51h0l0-.08c.06.2.15.46.26.82A.48.48,0,0,0,28.44,10.39Z"/><path id="Path_1730" data-name="Path 1730" class="cls-1" d="M29,12.87c0-.21-.06-.41-.1-.62,0,.16.05.35.09.58Z"/><path id="Path_1731" data-name="Path 1731" class="cls-1" d="M20.71,6.05h0a1.58,1.58,0,0,0-.09.31c0,.08,0,.12,0,.15s.26,0,.42-.06l.12-.08s.11,0,.15-.06,0-.1,0-.21A.47.47,0,0,0,21.23,6a.12.12,0,0,1,0-.15.19.19,0,0,0,0-.13.2.2,0,0,0-.09-.11l-.06,0-.16-.06a.09.09,0,0,1-.05,0h0s-.34.09-.14.2l.05,0h0a.86.86,0,0,0-.2.13.2.2,0,0,0,0,.13.14.14,0,0,0,.08.07A.61.61,0,0,0,20.71,6.05Z"/><path id="Path_1732" data-name="Path 1732" class="cls-1" d="M7.13,2.21h0l-.31.18S6.85,2.39,7.13,2.21Z"/><path id="Path_1733" data-name="Path 1733" class="cls-1" d="M27.61,12.21h0L27.49,12a.13.13,0,0,0-.06,0l-.12,0-.07,0s0,0,0,.06A.7.7,0,0,0,27.61,12.21Z"/><path id="Path_1734" data-name="Path 1734" class="cls-1" d="M25,10.25s.08,0,.09.07,0,.09,0,.13a.08.08,0,0,0,.05.05.2.2,0,0,0,.19-.16v-.05s0-.1,0-.15,0-.11,0-.16,0-.1-.07-.1A.28.28,0,0,0,25,10,.36.36,0,0,0,25,10.25Z"/><path id="Path_1735" data-name="Path 1735" class="cls-1" d="M24.22,10.23l.06-.07s0-.05-.11-.06-.21,0-.16.07a.3.3,0,0,0,.18.08Z"/><path id="Path_1736" data-name="Path 1736" class="cls-1" d="M25,9.55a.08.08,0,0,0,0,0s0,0,0,0a1.66,1.66,0,0,0,.13.14s0-.22,0-.33A.64.64,0,0,0,25,9.27h0v0h0a.76.76,0,0,0,0,.15A.12.12,0,0,1,25,9.55Z"/><path id="Path_1737" data-name="Path 1737" class="cls-1" d="M28.09,12.58h.08a.88.88,0,0,0,0-.16h0v0h-.1l-.05,0h0a.24.24,0,0,0,0,.2Z"/><path id="Path_1738" data-name="Path 1738" class="cls-1" d="M5.66,3.3h0c.09-.06.16-.13.24-.19s.31-.19.46-.3,0,0,.08-.1h0a.37.37,0,0,0-.14.07s0,0,0-.06h0c-.18.08-.18.08-1,.74a.58.58,0,0,0-.18.23h0A2.93,2.93,0,0,0,5.66,3.3Z"/><path id="Path_1739" data-name="Path 1739" class="cls-1" d="M6.8,2.53A.51.51,0,0,0,7,2.46l.38-.2a2.34,2.34,0,0,0,.24-.09l.3-.2s0,0,0-.05l-.07,0-.2.14c.09-.09.2-.16.28-.25h0a1.53,1.53,0,0,0-.3.19s0,.1-.27.16h0s.14,0,.1-.1-.6.29-.61.37a2.69,2.69,0,0,0,.29-.16.38.38,0,0,1-.12.1l.07,0,.13-.06a3,3,0,0,1-.4.21S6.78,2.53,6.8,2.53Z"/><path id="Path_1740" data-name="Path 1740" class="cls-1" d="M5.15,4s.07,0,.11,0h0s-.07.08-.09.12a2.17,2.17,0,0,0,.67-.36A.56.56,0,0,1,6,3.65H6l0,0a.61.61,0,0,0,.18,0c.14,0,.14,0,.28-.2h0l-.15.07a.33.33,0,0,1,.25-.15H6.6s.07-.07.06-.13-.11-.12-.07-.17a3.79,3.79,0,0,0,.34-.45l0,0h0a2.93,2.93,0,0,1-.41.38c0-.07.06-.09.08-.14h0A.66.66,0,0,1,6.34,3s.06,0,.07-.08h0a2.15,2.15,0,0,0-.26.14,1.68,1.68,0,0,1,.21-.18c-.05,0-.78.47-.77.56l0,0s0,0-.1.08-.15.1-.15.12h0c.08,0,.14-.07.23-.09s.11,0,.17,0a.83.83,0,0,1-.3.14C5.12,3.82,5.08,4,5.15,4Z"/><path id="Path_1741" data-name="Path 1741" class="cls-1" d="M8.49,4.7s0,0-.05,0a.39.39,0,0,0-.14,0,.14.14,0,0,0,0,.14S8.47,4.74,8.49,4.7Z"/><path id="Path_1742" data-name="Path 1742" class="cls-1" d="M8.3,4.43l0,0a.11.11,0,0,0,0-.08l-.08-.06a.76.76,0,0,0-.11-.14l0,0A.88.88,0,0,1,8,4.06S7.92,4,7.89,4h0a2,2,0,0,0-.19.22.73.73,0,0,1,0,.09l-.16.25c.09,0,.09,0,.1.06s0,.06,0,.06l.09-.07A.72.72,0,0,1,8,4.42C8.11,4.41,8.2,4.46,8.3,4.43Z"/><path id="Path_1743" data-name="Path 1743" class="cls-1" d="M8.05,4.6a.94.94,0,0,0-.28.1s0,.12,0,.13.3-.12.35-.19S8.11,4.59,8.05,4.6Z"/><path id="Path_1744" data-name="Path 1744" class="cls-1" d="M7.52,16.11c-.08,0,0,.15,0,.17s.24,0,.24,0A.27.27,0,0,0,7.52,16.11Z"/><path id="Path_1745" data-name="Path 1745" class="cls-1" d="M21.65,6s0,0,0,0h.1A.25.25,0,0,0,21.65,6Z"/><path id="Path_1746" data-name="Path 1746" class="cls-1" d="M12.16,7q.13-.18.12-.24h0a1.2,1.2,0,0,0-.29.26c-.13.16-.21.34-.34.5s-.16.15-.22.23,0,0,0,0a1.72,1.72,0,0,0,.39,0,3.2,3.2,0,0,1,.54.08l.07,0c.06,0,.12-.06.18,0a.17.17,0,0,1,0,.12s0,.05,0,.05.14-.13.14-.23a.8.8,0,0,0-.23-.53c-.06-.07-.06-.07-.28,0s-.08,0-.1-.06-.06-.12-.1-.14,0,0,0,0A.36.36,0,0,1,12.16,7Z"/><path id="Path_1747" data-name="Path 1747" class="cls-1" d="M21,5.06c0,.08,0,.15,0,.23s.07,0,.18-.08.07,0,.1,0,0,.18,0,.26a.33.33,0,0,0,.27.23.62.62,0,0,1,.23.07s0,.06,0,.09S21.91,6,22,6s-.09,0-.17,0l-.13,0c0,.11.16.17.19.29s-.05.1-.14.14-.06,0,0,.06,0,.06.25,0,.28,0,.29.06,0,0-.1,0a.12.12,0,0,0-.1,0c-.05,0-.06.1-.1.15L21.74,7V7a2.09,2.09,0,0,0,.43,0c.2,0,.41,0,.62,0h0l.35-.12h0c-.07-.08-.16,0-.24,0s.06-.2,0-.31-.15-.18-.21-.18-.23-.18-.23-.19h0l.12,0s.11,0,.11,0h0l-.06,0a5.91,5.91,0,0,1-.52-.35,1.39,1.39,0,0,0-.21-.21.71.71,0,0,0-.37-.12h0c.09-.08.21-.48,0-.49h-.13c-.15,0-.18,0-.18,0s.14-.22,0-.23-.3,0-.34.11v0C20.91,4.89,21,5,21,5.06Z"/><path id="Path_1748" data-name="Path 1748" class="cls-1" d="M1.39,8.94c0-.09.06-.19.1-.28l.06-.16v0s0-.05,0,0h0A1.16,1.16,0,0,0,1.39,9Z"/><path id="Path_1749" data-name="Path 1749" class="cls-1" d="M19.05,3.09v0A.24.24,0,0,0,18.92,3h0l-.26,0c-.06,0-.1-.08-.18-.08l-.24.08A2,2,0,0,0,18,3s0,.08,0,.1-.09,0-.13,0h0c0,.07,0,.15,0,.22a1.26,1.26,0,0,1-.24-.22.39.39,0,0,0-.43-.14c0,.06.1.05.13.1s-.13.08-.18.14a.25.25,0,0,0,.17,0c.09,0,.37.08.21.21.07.09.16,0,.24,0s.08,0,.08.12,0,0,.19,0h.17l.22,0h0a1.27,1.27,0,0,0,.28-.06c.19,0,.47-.25.46-.31A.33.33,0,0,0,19,3.1S19,3.08,19.05,3.09Z"/><path id="Path_1750" data-name="Path 1750" class="cls-1" d="M7.78,15.77a.82.82,0,0,0,.61.09s-.66-.8-.67-.8a.81.81,0,0,0-.66-.12,1,1,0,0,0-.36.22A.45.45,0,0,0,7,15.09c.2-.11.32-.05.34,0a.08.08,0,0,1-.1,0h0c0,.09.16.13.26.16s.2.09.24.21a.37.37,0,0,0,.07.14.14.14,0,0,1,0,.08C7.88,15.74,7.81,15.74,7.78,15.77Z"/><path id="Path_1751" data-name="Path 1751" class="cls-1" d="M8.6,16.41c.05,0,0,.13.09.13s.12-.16.23-.17H9a5.29,5.29,0,0,0,.56.05s0,0,0,0-.05-.11,0-.17-.92-.28-1-.27l0,0,0,0a.3.3,0,0,1,.09.3.56.56,0,0,1-.2,0,.81.81,0,0,0-.23,0h0C8.34,16.34,8.48,16.34,8.6,16.41Z"/><path id="Path_1752" data-name="Path 1752" class="cls-1" d="M10.54,7.45c-.08,0,.11.12.15.14.25.11.33,0,.33,0S10.64,7.43,10.54,7.45Z"/><path id="Path_1753" data-name="Path 1753" class="cls-1" d="M26.13,23c-.27.35-.28.36-.46.42s-.19.12-.41.44a1,1,0,0,1-.26.28,5,5,0,0,0-.79.87c.12,0,.12,0,.58-.43s.7-.75,1.05-1.13c0,0,0,0,0,.07l.05-.06a4.35,4.35,0,0,0,.38-.57h0A.52.52,0,0,0,26.13,23Z"/><path id="Path_1754" data-name="Path 1754" class="cls-1" d="M16.89,20.38c0-.1.12-.24,0-.31s-.18,0-.27,0c-.29-.06-.49-.32-.77-.41s-.85-.2-1.28-.31c-.25-.09-.27-.37-.42-.54s-.45-.44-.73-.6-.79-.13-1.14-.34-.47-.46-.76-.6a.49.49,0,0,0-.16-.05C9.91,17,8.77,16.83,8.64,18c-.43-.31-1.53.17-1.43-.54a1.23,1.23,0,0,0-.13-.75c-.33-.17-.67,0-1,0,.11-.37.11-.37,0-.54a2.19,2.19,0,0,0,.2-.66c-.06-.05-.63-.51-.75.76-.19,0-.32.26-.54.14a1.6,1.6,0,0,1-.76-.88c-.07-.25.14-.44.13-.67s-.2-.22-.15-.39a2.62,2.62,0,0,1,.57-.71c.17-.13.83,0,.84,0l.06-.05-.18-.12v-.07a7.93,7.93,0,0,1,1.19-.17c.45.24.17.87.6,1.12.51-.53-.3-1-.21-1.55s.65-.69,1-1.05h0l0,0v-.07l.06,0v-.08l-.07,0,.1-1c0,.15,0,.62,0,.62s0,0,.09-.71a.88.88,0,0,1,.12.21c.09-.16.06-.36.2-.5S9,10,9.2,9.88c.06-.53.06-.53.36-.8,0,0,0,0,.91-.5l0,.06a.41.41,0,0,0,.16,0v.08c-.5.35-.5.35-.51.45.34,0,1.38-.6,1.19-1.06-.14.1-.15.27-.23.4l-.28-.08a.27.27,0,0,0,.13-.1h0a.48.48,0,0,1-.24,0,.12.12,0,0,1-.07-.13v0h0a.24.24,0,0,0,0,.2c-.13-.06-.15-.12-.2-.28A.33.33,0,0,1,10.18,8c.18-.05.31-.08.35-.27s-.09-.09-1.39.72C10,7.5,10,7.5,11,7.22c.21.15,1.15-.32,1.29-.58,0-.11,0-.11,0-.28l0-.07-.22,0h-.07a.83.83,0,0,0-.43.18l0-.07c.08-.1.11-.12.39-.23l-1.64.15,1.64-.15a.05.05,0,0,0,.05,0A.47.47,0,0,0,11.43,6c-.06,0-.06,0-.09,0s0-.11,0-.16-.15,0-.2-.12,0-.06,0-.11.06-.09-.07-.32c-.33-.59-.33-.59-.49-.28,0,0,0,.1,0,.14s-.14,0-.18.07-.1.14-.13.15-.3-.09-.47-.13a.72.72,0,0,1,.13-.45c-.09,0-.19,0-.28,0s0,0-.06-.07,0,0-.26-.13h-.1a4.58,4.58,0,0,0-.63.1c0,.19-.2.36,0,.56,0,.09-.15.13-.16.24s.12.2.13.32,0,.5-.28.57c-.06,0-.2.06-.17.16A.27.27,0,0,1,8,6.54c-.08.29.11.65-.21.87-.1-.15-.29-.2-.43-.3a.49.49,0,0,0,0-.41l.08-.06v0H7.37c-.14-.13-.3,0-.45-.06s-.22-.18-.36-.23l-.08,0c-.13,0-.22.07-.33.1s0,0-.09-.33C6,6,6,6,5.8,5.93c-.06-.32.71-.88,1-1.12,0-.1-.14-.06-.21-.1.64-.12.64-.12,1-.5a.56.56,0,0,1-.5-.07c.24-.08.54.07.72-.21l-.07,0s.12-.15.24-.07c.41-.15.41-.15.52-.24a.27.27,0,0,0,.07-.08c0-.07,0-.15,0-.23s.12-.06.17-.11a.61.61,0,0,0,.05-.12s-.35-.36-.46.15c-.22.12-.37.62-.63.39,0-.16.33-.26.19-.41-.17.06-.23.23-.36.34,0-.09.14-.3.15-.3H7.56c.25-.41.25-.41.25-.46l0,0c.14-.23.14-.23.82-.63H8.48c-.55.13-1.28,1.15-1.29,1.16l0,0,.17,0v0a.82.82,0,0,0-.2.12v0h0c-.12.2-.37.27-.47.49-.09-.1-.09-.1.08-.27-.1,0-.1,0-.41.22,0,0-.12.08-.5.06,0,0,0-.09,0-.12-.31.08-.4.26-.59.62,0-.1,0-.17,0-.26-.17,0-.3.17-.49.14.08-.08.2-.1.23-.23h0s0,0-.17,0l0-.06c-.09,0-.13.09-.2.14a.35.35,0,0,1,0-.08.63.63,0,0,0-.12.1A.86.86,0,0,1,4.71,4l-.57.5h0L4.5,4.2a5.92,5.92,0,0,0-.59.52l0-.06-.68.76A13.61,13.61,0,0,0,2,7.24H2l0,0a3.63,3.63,0,0,0-.29.84l-.06.17,0,.07a5.49,5.49,0,0,0-.17.7.59.59,0,0,0,0,.3h-.1v0s0-.07,0-.07h0a.66.66,0,0,0,0,.28c0,.1.1.09.11.09l.05,0s0,0,0-.07V9.36h0a.87.87,0,0,1,.07.31l-.12-.06a6.78,6.78,0,0,0-.3,3.81s0,0,.67,1.31H1.75c.08.16.64.89.64.89s.1-.15-.15-.51a3.28,3.28,0,0,1-.48-1.27.69.69,0,0,1,.35.51,1.35,1.35,0,0,0,.11.34c.12.19.26.35.38.53s.43.36.56.61.06.48.28.64l.11.05.21.08c.22.06.46.1.68.15s.49-.07.71.06c.53.3.53.3.71.31H6c.83.12,1.17,1.14,2.07,1.1.4-.66.65.14.73.51,0,.12,0,.12-.2.62a3.15,3.15,0,0,0-.12,1.06.26.26,0,0,0,.05.09A18.23,18.23,0,0,0,10,22.16c.3.26.7.31,1,.54a1.55,1.55,0,0,1,.5.94,11.11,11.11,0,0,0,1.27,3.25c1,1.44,2,1.28,2,1.28-1-.49-1-.49-.86-.9-.14-.14-.14-.14-.39-.83,0,0,0,0,.22,0,0,0,0,0-.22-.32.17-.15.17-.15.16-.27l0,0c.3.1.4-.15.32-.26L14,25.43c.68,0,1-1.66,1-1.67a.84.84,0,0,1,.45-.38c.24-.1.24-.38.41-.53a.26.26,0,0,1,.2-.07c.1,0,.11,0,.12-.08s0-.41,0-.61-.06-.23,0-.35.12-.17.05-.26a.14.14,0,0,1,0-.06A1.37,1.37,0,0,0,17,20.6v0C17,20.49,16.91,20.45,16.89,20.38Z"/><path id="Path_1755" data-name="Path 1755" class="cls-1" d="M2.73,7.62l.63-.19Z"/><path id="Path_1756" data-name="Path 1756" class="cls-1" d="M9.14,19.26l.79-.09Z"/><path id="Path_1757" data-name="Path 1757" class="cls-1" d="M14.86,22.84c0-.1,0-.42-.1-1,0,.34.06.67.1,1Z"/><path id="Path_1759" data-name="Path 1759" class="cls-1" d="M9.88,16.48c-.08.05,0,.15.11.17a.78.78,0,0,0,.3,0s0,0-.17-.09S9.91,16.47,9.88,16.48Z"/></g></g></g></svg>