<svg id="Layer_1" data-name="Layer 1" xmlns="http://www.w3.org/2000/svg" viewBox="0 0 78.52 52.44"><defs><style>.cls-1{fill:#fff;}</style></defs><title>ConTraining_Outs</title><g id="Group_123" data-name="Group 123"><g id="Group_121" data-name="Group 121"><g id="Group_119" data-name="Group 119"><path id="Path_1768" data-name="Path 1768" class="cls-1" d="M6.89,44.2a41.06,41.06,0,0,0,9.16-1.37,169.91,169.91,0,0,0,22.3-7.52c-.6-.24-1.75-.77-3-1.33a160.34,160.34,0,0,1-18.6,5.57c-8.27,1.8-12.72.91-13,.83.4-.74,5-5,9.6-7.53a15.07,15.07,0,0,1-.76-4.51C5,33.51-1.15,39,.18,42,1,43.8,3.67,44.2,6.89,44.2Z"/><path id="Path_1769" data-name="Path 1769" class="cls-1" d="M40.93,31.81c1.92.75,1,.5,2.91,1.17,7.9-3.73,18.25-9.28,23.57-12.93C75.1,14.78,79.63,10,78.28,7c-.78-1.77-4.38-1.6-7.6-1.6a43.17,43.17,0,0,0-9.39,1.36c-.55.13-.86.27-1.44.42A23.65,23.65,0,0,1,62,10.65c9.8-2.41,12.13-1.58,12.45-1.51-.48.88-1.34,3.87-8.87,9.37C59.85,22.65,49.45,28,40.93,31.81Z"/><path id="Path_1770" data-name="Path 1770" class="cls-1" d="M68.15,28.93a23.19,23.19,0,0,0-2.52-1.32,13.15,13.15,0,0,1-.45,4.28c5.39,3.52,7.71,6.18,8.17,7C73,39,69.56,40.1,62,38.7a141.31,141.31,0,0,1-25.81-8,146.88,146.88,0,0,1-22.48-12c-7.24-4.57-8.25-8-8.25-8a11.34,11.34,0,0,1,2.1-.22,56.76,56.76,0,0,1,8.42,1,20.22,20.22,0,0,1,2.39-3.93A48,48,0,0,0,7.52,6.17C4,6.3,1.72,6.91.94,8.78c-1.28,3.07,1.93,6.88,9.74,12A160.65,160.65,0,0,0,35.8,33.5a161.28,161.28,0,0,0,26.78,8.77,44.24,44.24,0,0,0,8.73,1.14c3.5,0,5.51-.92,6.29-2.78C78.87,37.55,76,34,68.15,28.93Z"/></g><g id="Group_120" data-name="Group 120"><path id="Path_1771" data-name="Path 1771" class="cls-1" d="M33.85.5c0,.07-.06.1-.17.1s-.18,0-.18-.1V.11c0-.07.06-.11.18-.11s.17,0,.17.11ZM33.77.12s0-.06-.09-.06-.1,0-.1.06V.49s0,.05.1.05.09,0,.09-.05Z"/><path id="Path_1772" data-name="Path 1772" class="cls-1" d="M35.09.5c0,.07-.06.1-.18.1s-.17,0-.17-.1V.11c0-.07.06-.11.17-.11s.18,0,.18.11ZM35,.12s0-.06-.1-.06-.09,0-.09.06V.49s0,.05.09.05.1,0,.1-.05Z"/><path id="Path_1773" data-name="Path 1773" class="cls-1" d="M36.16,0h.08V.59h-.08V.12h-.1V.06C36.13.06,36.16,0,36.16,0Z"/><path id="Path_1774" data-name="Path 1774" class="cls-1" d="M37.4,0h.08V.59H37.4V.12h-.1V.06C37.36.06,37.4,0,37.4,0Z"/><path id="Path_1775" data-name="Path 1775" class="cls-1" d="M38.63,0h.09V.59h-.09V.12h-.09V.06C38.6.06,38.63,0,38.63,0Z"/><path id="Path_1776" data-name="Path 1776" class="cls-1" d="M40,.5c0,.07-.06.1-.18.1s-.17,0-.17-.1V.11c0-.07.06-.11.17-.11S40,0,40,.11ZM40,.12s0-.06-.1-.06-.09,0-.09.06V.49s0,.05.09.05.1,0,.1-.05Z"/><path id="Path_1777" data-name="Path 1777" class="cls-1" d="M41.11,0h.08V.59h-.08V.12H41V.06C41.08.06,41.11,0,41.11,0Z"/><path id="Path_1778" data-name="Path 1778" class="cls-1" d="M42.52.5c0,.07-.06.1-.18.1s-.18,0-.18-.1V.11c0-.07.06-.11.18-.11s.18,0,.18.11ZM42.43.12s0-.06-.09-.06-.09,0-.09.06V.49s0,.05.09.05.09,0,.09-.05Z"/><path id="Path_1779" data-name="Path 1779" class="cls-1" d="M43.58,0h.08V.59h-.08V.12h-.09V.06C43.55.06,43.58,0,43.58,0Z"/><path id="Path_1780" data-name="Path 1780" class="cls-1" d="M45,.5c0,.07-.06.1-.18.1s-.17,0-.17-.1V.11c0-.07.06-.11.17-.11S45,0,45,.11ZM44.91.12s0-.06-.1-.06-.09,0-.09.06V.49s0,.05.09.05.1,0,.1-.05Z"/><path id="Path_1781" data-name="Path 1781" class="cls-1" d="M26.88,2.42H27V3.2h-.11V2.57h-.13V2.49C26.84,2.49,26.88,2.46,26.88,2.42Z"/><path id="Path_1782" data-name="Path 1782" class="cls-1" d="M28.76,3.07c0,.09-.08.14-.24.14s-.23,0-.23-.14V2.55c0-.1.08-.14.23-.14s.24,0,.24.14Zm-.11-.5s0-.08-.13-.08-.12,0-.12.08v.48c0,.05,0,.07.12.07s.13,0,.13-.07Z"/><path id="Path_1783" data-name="Path 1783" class="cls-1" d="M30.18,2.42h.11V3.2h-.11V2.57h-.13V2.49C30.14,2.49,30.18,2.46,30.18,2.42Z"/><path id="Path_1784" data-name="Path 1784" class="cls-1" d="M32.06,3.07c0,.09-.08.14-.24.14s-.23,0-.23-.14V2.55c0-.1.07-.14.23-.14s.24,0,.24.14ZM32,2.57s0-.08-.13-.08-.12,0-.12.08v.48c0,.05,0,.07.12.07s.13,0,.13-.07Z"/><path id="Path_1785" data-name="Path 1785" class="cls-1" d="M33.48,2.42h.11V3.2h-.11V2.57h-.13V2.49C33.44,2.49,33.48,2.46,33.48,2.42Z"/><path id="Path_1786" data-name="Path 1786" class="cls-1" d="M35.13,2.42h.11V3.2h-.11V2.57H35V2.49C35.09,2.49,35.13,2.46,35.13,2.42Z"/><path id="Path_1787" data-name="Path 1787" class="cls-1" d="M37,3.07c0,.09-.07.14-.23.14s-.23,0-.23-.14V2.55c0-.1.07-.14.23-.14s.23,0,.23.14Zm-.1-.5s0-.08-.13-.08-.13,0-.13.08v.48c0,.05,0,.07.13.07s.13,0,.13-.07Z"/><path id="Path_1788" data-name="Path 1788" class="cls-1" d="M38.43,2.42h.11V3.2h-.11V2.57H38.3V2.49C38.39,2.49,38.43,2.46,38.43,2.42Z"/><path id="Path_1789" data-name="Path 1789" class="cls-1" d="M40.3,3.07c0,.09-.07.14-.23.14s-.23,0-.23-.14V2.55c0-.1.07-.14.23-.14s.23,0,.23.14Zm-.1-.5s-.05-.08-.13-.08-.13,0-.13.08v.48c0,.05.05.07.13.07s.13,0,.13-.07Z"/><path id="Path_1790" data-name="Path 1790" class="cls-1" d="M42,3.07c0,.09-.07.14-.23.14s-.23,0-.23-.14V2.55c0-.1.07-.14.23-.14s.23,0,.23.14Zm-.1-.5s-.05-.08-.13-.08-.13,0-.13.08v.48c0,.05,0,.07.13.07s.13,0,.13-.07Z"/><path id="Path_1791" data-name="Path 1791" class="cls-1" d="M43.38,2.42h.11V3.2h-.11V2.57h-.13V2.49C43.34,2.49,43.38,2.46,43.38,2.42Z"/><path id="Path_1792" data-name="Path 1792" class="cls-1" d="M45.25,3.07c0,.09-.07.14-.23.14s-.24,0-.24-.14V2.55c0-.1.08-.14.24-.14s.23,0,.23.14Zm-.1-.5s0-.08-.13-.08-.13,0-.13.08v.48c0,.05,0,.07.13.07s.13,0,.13-.07Z"/><path id="Path_1793" data-name="Path 1793" class="cls-1" d="M46.9,3.07c0,.09-.07.14-.23.14s-.24,0-.24-.14V2.55c0-.1.08-.14.24-.14s.23,0,.23.14Zm-.11-.5s0-.08-.12-.08-.13,0-.13.08v.48c0,.05,0,.07.13.07s.12,0,.12-.07Z"/><path id="Path_1794" data-name="Path 1794" class="cls-1" d="M48.55,3.07c0,.09-.08.14-.23.14s-.24,0-.24-.14V2.55c0-.1.08-.14.24-.14s.23,0,.23.14Zm-.11-.5s0-.08-.12-.08-.13,0-.13.08v.48c0,.05,0,.07.13.07s.12,0,.12-.07Z"/><path id="Path_1795" data-name="Path 1795" class="cls-1" d="M50,2.42h.11V3.2H50V2.57h-.13V2.49C49.94,2.49,50,2.46,50,2.42Z"/><path id="Path_1796" data-name="Path 1796" class="cls-1" d="M51.85,3.07c0,.09-.08.14-.23.14s-.24,0-.24-.14V2.55c0-.1.08-.14.24-.14s.23,0,.23.14Zm-.11-.5s0-.08-.12-.08-.13,0-.13.08v.48c0,.05,0,.07.13.07s.12,0,.12-.07Z"/><path id="Path_1797" data-name="Path 1797" class="cls-1" d="M22.76,5.61h.13v1h-.13V5.8H22.6V5.69C22.71,5.69,22.76,5.66,22.76,5.61Z"/><path id="Path_1798" data-name="Path 1798" class="cls-1" d="M25.1,6.42c0,.12-.1.18-.29.18s-.29-.06-.29-.18V5.77c0-.12.1-.18.29-.18s.29.06.29.18ZM25,5.8c0-.06-.06-.1-.16-.1s-.16,0-.16.1v.6c0,.06.05.09.16.09s.16,0,.16-.09Z"/><path id="Path_1799" data-name="Path 1799" class="cls-1" d="M27.17,6.42q0,.18-.3.18c-.19,0-.29-.06-.29-.18V5.77c0-.12.1-.18.29-.18s.3.06.3.18ZM27,5.8c0-.06-.05-.1-.16-.1s-.16,0-.16.1v.6c0,.06.06.09.16.09s.16,0,.16-.09Z"/><path id="Path_1800" data-name="Path 1800" class="cls-1" d="M29.23,6.42q0,.18-.3.18c-.19,0-.29-.06-.29-.18V5.77c0-.12.1-.18.29-.18s.3.06.3.18Zm-.14-.62c0-.06-.05-.1-.16-.1s-.15,0-.15.1v.6q0,.09.15.09c.11,0,.16,0,.16-.09Z"/><path id="Path_1801" data-name="Path 1801" class="cls-1" d="M31,5.61h.13v1H31V5.8h-.16V5.69C31,5.69,31,5.66,31,5.61Z"/><path id="Path_1802" data-name="Path 1802" class="cls-1" d="M33.35,6.42c0,.12-.1.18-.29.18s-.29-.06-.29-.18V5.77c0-.12.1-.18.29-.18s.29.06.29.18Zm-.13-.62c0-.06-.06-.1-.16-.1s-.16,0-.16.1v.6c0,.06.05.09.16.09s.16,0,.16-.09Z"/><path id="Path_1803" data-name="Path 1803" class="cls-1" d="M35.13,5.61h.14v1h-.14V5.8H35V5.69C35.08,5.69,35.13,5.66,35.13,5.61Z"/><path id="Path_1804" data-name="Path 1804" class="cls-1" d="M37.48,6.42q0,.18-.3.18c-.19,0-.29-.06-.29-.18V5.77c0-.12.1-.18.29-.18s.3.06.3.18Zm-.14-.62c0-.06-.05-.1-.16-.1s-.15,0-.15.1v.6q0,.09.15.09c.11,0,.16,0,.16-.09Z"/><path id="Path_1805" data-name="Path 1805" class="cls-1" d="M39.54,6.42q0,.18-.3.18c-.19,0-.29-.06-.29-.18V5.77c0-.12.1-.18.29-.18s.3.06.3.18ZM39.4,5.8c0-.06,0-.1-.16-.1s-.15,0-.15.1v.6q0,.09.15.09c.11,0,.16,0,.16-.09Z"/><path id="Path_1806" data-name="Path 1806" class="cls-1" d="M41.32,5.61h.13v1h-.13V5.8h-.16V5.69C41.27,5.69,41.32,5.66,41.32,5.61Z"/><path id="Path_1807" data-name="Path 1807" class="cls-1" d="M43.66,6.42c0,.12-.1.18-.29.18s-.29-.06-.29-.18V5.77c0-.12.1-.18.29-.18s.29.06.29.18Zm-.13-.62c0-.06-.06-.1-.16-.1s-.16,0-.16.1v.6c0,.06,0,.09.16.09s.16,0,.16-.09Z"/><path id="Path_1808" data-name="Path 1808" class="cls-1" d="M45.72,6.42c0,.12-.1.18-.29.18s-.29-.06-.29-.18V5.77c0-.12.1-.18.29-.18s.29.06.29.18Zm-.13-.62c0-.06-.05-.1-.16-.1s-.16,0-.16.1v.6c0,.06.06.09.16.09s.16,0,.16-.09Z"/><path id="Path_1809" data-name="Path 1809" class="cls-1" d="M47.79,6.42q0,.18-.3.18c-.19,0-.29-.06-.29-.18V5.77c0-.12.1-.18.29-.18s.3.06.3.18Zm-.14-.62c0-.06,0-.1-.16-.1s-.15,0-.15.1v.6q0,.09.15.09c.11,0,.16,0,.16-.09Z"/><path id="Path_1810" data-name="Path 1810" class="cls-1" d="M49.57,5.61h.13v1h-.13V5.8h-.16V5.69C49.52,5.69,49.57,5.66,49.57,5.61Z"/><path id="Path_1811" data-name="Path 1811" class="cls-1" d="M51.92,6.42q0,.18-.3.18c-.19,0-.29-.06-.29-.18V5.77c0-.12.1-.18.29-.18s.3.06.3.18Zm-.14-.62c0-.06-.05-.1-.16-.1s-.15,0-.15.1v.6q0,.09.15.09c.11,0,.16,0,.16-.09Z"/><path id="Path_1812" data-name="Path 1812" class="cls-1" d="M53.69,5.61h.14v1h-.14V5.8h-.16V5.69C53.64,5.69,53.69,5.66,53.69,5.61Z"/><path id="Path_1813" data-name="Path 1813" class="cls-1" d="M56,6.42q0,.18-.3.18c-.19,0-.29-.06-.29-.18V5.77c0-.12.1-.18.29-.18s.3.06.3.18ZM55.9,5.8c0-.06,0-.1-.16-.1s-.16,0-.16.1v.6c0,.06.06.09.16.09s.16,0,.16-.09Z"/><path id="Path_1814" data-name="Path 1814" class="cls-1" d="M19.46,8.8h.16V10h-.16V9h-.19V8.9C19.4,8.9,19.46,8.87,19.46,8.8Z"/><path id="Path_1815" data-name="Path 1815" class="cls-1" d="M22.27,9.78c0,.14-.11.21-.35.21s-.35-.07-.35-.21V9c0-.14.12-.21.35-.21s.35.07.35.21ZM22.11,9c0-.08-.06-.12-.19-.12s-.19,0-.19.12v.71c0,.08.07.12.19.12s.19,0,.19-.12Z"/><path id="Path_1816" data-name="Path 1816" class="cls-1" d="M24.42,8.8h.16V10h-.16V9h-.19V8.9C24.35,8.9,24.42,8.87,24.42,8.8Z"/><path id="Path_1817" data-name="Path 1817" class="cls-1" d="M27.22,9.78c0,.14-.11.21-.35.21s-.35-.07-.35-.21V9c0-.14.12-.21.35-.21s.35.07.35.21ZM27.06,9c0-.08-.06-.12-.19-.12s-.19,0-.19.12v.71c0,.08.07.12.19.12s.19,0,.19-.12Z"/><path id="Path_1818" data-name="Path 1818" class="cls-1" d="M29.7,9.78c0,.14-.12.21-.35.21S29,9.92,29,9.78V9q0-.21.36-.21c.23,0,.35.07.35.21ZM29.54,9c0-.08-.07-.12-.19-.12s-.19,0-.19.12v.71c0,.08.06.12.19.12s.19,0,.19-.12Z"/><path id="Path_1819" data-name="Path 1819" class="cls-1" d="M31.83,8.8H32V10h-.17V9h-.18V8.9C31.77,8.9,31.83,8.87,31.83,8.8Z"/><path id="Path_1820" data-name="Path 1820" class="cls-1" d="M34.65,9.78c0,.14-.12.21-.35.21s-.36-.07-.36-.21V9q0-.21.36-.21c.23,0,.35.07.35.21ZM34.48,9q0-.12-.18-.12c-.13,0-.19,0-.19.12v.71c0,.08.06.12.19.12s.18,0,.18-.12Z"/><path id="Path_1821" data-name="Path 1821" class="cls-1" d="M37.12,9.78c0,.14-.12.21-.35.21s-.35-.07-.35-.21V9c0-.14.12-.21.35-.21s.35.07.35.21ZM37,9c0-.08-.06-.12-.19-.12s-.19,0-.19.12v.71c0,.08.06.12.19.12s.19,0,.19-.12Z"/><path id="Path_1822" data-name="Path 1822" class="cls-1" d="M39.6,9.78q0,.21-.36.21c-.23,0-.35-.07-.35-.21V9c0-.14.12-.21.35-.21s.36.07.36.21ZM39.43,9c0-.08-.06-.12-.19-.12s-.18,0-.18.12v.71q0,.12.18.12c.13,0,.19,0,.19-.12Z"/><path id="Path_1823" data-name="Path 1823" class="cls-1" d="M41.73,8.8h.17V10h-.17V9h-.19V8.9C41.67,8.9,41.73,8.87,41.73,8.8Z"/><path id="Path_1824" data-name="Path 1824" class="cls-1" d="M44.55,9.78q0,.21-.36.21c-.23,0-.35-.07-.35-.21V9c0-.14.12-.21.35-.21s.36.07.36.21ZM44.38,9c0-.08-.06-.12-.19-.12S44,9,44,9v.71q0,.12.18.12c.13,0,.19,0,.19-.12Z"/><path id="Path_1825" data-name="Path 1825" class="cls-1" d="M46.68,8.8h.16V10h-.16V9h-.19V8.9C46.62,8.9,46.68,8.87,46.68,8.8Z"/><path id="Path_1826" data-name="Path 1826" class="cls-1" d="M49.49,9.78c0,.14-.11.21-.35.21s-.35-.07-.35-.21V9c0-.14.12-.21.35-.21s.35.07.35.21ZM49.33,9c0-.08-.06-.12-.19-.12S49,9,49,9v.71c0,.08.07.12.19.12s.19,0,.19-.12Z"/><path id="Path_1827" data-name="Path 1827" class="cls-1" d="M52,9.78c0,.14-.12.21-.35.21s-.35-.07-.35-.21V9c0-.14.11-.21.35-.21S52,8.85,52,9ZM51.81,9c0-.08-.07-.12-.19-.12s-.19,0-.19.12v.71c0,.08.06.12.19.12s.19,0,.19-.12Z"/><path id="Path_1828" data-name="Path 1828" class="cls-1" d="M54.44,9.78c0,.14-.11.21-.35.21s-.35-.07-.35-.21V9c0-.14.12-.21.35-.21s.35.07.35.21ZM54.28,9c0-.08-.06-.12-.19-.12S53.9,9,53.9,9v.71c0,.08.07.12.19.12s.19,0,.19-.12Z"/><path id="Path_1829" data-name="Path 1829" class="cls-1" d="M56.58,8.8h.16V10h-.16V9h-.19V8.9C56.52,8.9,56.58,8.87,56.58,8.8Z"/><path id="Path_1830" data-name="Path 1830" class="cls-1" d="M59.39,9.78c0,.14-.11.21-.35.21s-.35-.07-.35-.21V9c0-.14.12-.21.35-.21s.35.07.35.21ZM59.23,9c0-.08-.06-.12-.19-.12s-.19,0-.19.12v.71c0,.08.07.12.19.12s.19,0,.19-.12Z"/><path id="Path_1831" data-name="Path 1831" class="cls-1" d="M18,13.13c0,.17-.13.25-.41.25s-.41-.09-.41-.25v-.91c0-.17.14-.25.41-.25s.41.09.41.25Zm-.19-.87c0-.09-.07-.14-.22-.14s-.22.05-.22.14v.83c0,.09.08.13.22.13s.22,0,.22-.13Z"/><path id="Path_1832" data-name="Path 1832" class="cls-1" d="M20.49,12h.19v1.37h-.19v-1.1h-.22v-.15C20.42,12.11,20.49,12.07,20.49,12Z"/><path id="Path_1833" data-name="Path 1833" class="cls-1" d="M23.78,13.13c0,.17-.14.25-.41.25s-.41-.09-.41-.25v-.91c0-.17.13-.25.41-.25s.41.09.41.25Zm-.19-.87c0-.09-.08-.14-.22-.14s-.22.05-.22.14v.83c0,.09.07.13.22.13s.22,0,.22-.13Z"/><path id="Path_1834" data-name="Path 1834" class="cls-1" d="M26.27,12h.19v1.37h-.19v-1.1h-.22v-.15C26.19,12.11,26.27,12.07,26.27,12Z"/><path id="Path_1835" data-name="Path 1835" class="cls-1" d="M29.16,12h.19v1.37h-.19v-1.1h-.22v-.15C29.08,12.11,29.16,12.07,29.16,12Z"/><path id="Path_1836" data-name="Path 1836" class="cls-1" d="M32.44,13.13c0,.17-.14.25-.41.25s-.41-.09-.41-.25v-.91c0-.17.13-.25.41-.25s.41.09.41.25Zm-.19-.87c0-.09-.08-.14-.22-.14s-.22.05-.22.14v.83c0,.09.07.13.22.13s.22,0,.22-.13Z"/><path id="Path_1837" data-name="Path 1837" class="cls-1" d="M35.32,13.13c0,.17-.13.25-.41.25s-.41-.09-.41-.25v-.91c0-.17.14-.25.41-.25s.42.09.41.25Zm-.19-.87c0-.09-.07-.14-.22-.14s-.22.05-.22.14v.83c0,.09.08.13.22.13s.22,0,.22-.13Z"/><path id="Path_1838" data-name="Path 1838" class="cls-1" d="M37.82,12H38v1.37h-.19v-1.1H37.6v-.15C37.74,12.11,37.82,12.07,37.82,12Z"/><path id="Path_1839" data-name="Path 1839" class="cls-1" d="M40.7,12h.19v1.37H40.7v-1.1h-.22v-.15C40.63,12.11,40.7,12.07,40.7,12Z"/><path id="Path_1840" data-name="Path 1840" class="cls-1" d="M44,13.13c0,.17-.14.25-.41.25s-.41-.09-.42-.25v-.91c0-.17.14-.25.42-.25s.41.09.41.25Zm-.19-.87c0-.09-.08-.14-.22-.14s-.23.05-.23.14v.83c0,.09.08.13.23.13s.22,0,.22-.13Z"/><path id="Path_1841" data-name="Path 1841" class="cls-1" d="M46.87,13.13c0,.17-.13.25-.41.25s-.41-.09-.41-.25v-.91c0-.17.14-.25.41-.25s.41.09.41.25Zm-.19-.87c0-.09-.07-.14-.22-.14s-.22.05-.22.14v.83c0,.09.08.13.22.13s.22,0,.22-.13Z"/><path id="Path_1842" data-name="Path 1842" class="cls-1" d="M49.36,12h.19v1.37h-.19v-1.1h-.22v-.15C49.29,12.11,49.36,12.07,49.36,12Z"/><path id="Path_1843" data-name="Path 1843" class="cls-1" d="M52.25,12h.19v1.37h-.19v-1.1H52v-.15C52.18,12.11,52.25,12.07,52.25,12Z"/><path id="Path_1844" data-name="Path 1844" class="cls-1" d="M55.14,12h.19v1.37h-.19v-1.1h-.22v-.15C55.06,12.11,55.14,12.07,55.14,12Z"/><path id="Path_1845" data-name="Path 1845" class="cls-1" d="M58.42,13.13c0,.17-.14.25-.41.25s-.41-.09-.41-.25v-.91c0-.17.14-.25.41-.25s.41.09.41.25Zm-.19-.87c0-.09-.07-.14-.22-.14s-.22.05-.22.14v.83c0,.09.07.13.22.13s.22,0,.22-.13Z"/><path id="Path_1846" data-name="Path 1846" class="cls-1" d="M60.92,12h.19v1.37h-.19v-1.1h-.23v-.15C60.84,12.11,60.92,12.07,60.92,12Z"/><path id="Path_1847" data-name="Path 1847" class="cls-1" d="M16.62,16.48c0,.19-.16.29-.47.29s-.47-.1-.47-.29v-1c0-.19.15-.28.47-.28s.47.09.47.28Zm-.22-1c0-.1-.09-.15-.25-.15s-.26.05-.26.15v1c0,.1.09.15.26.15s.25-.05.25-.15Z"/><path id="Path_1848" data-name="Path 1848" class="cls-1" d="M19.92,16.48c0,.19-.16.29-.47.29s-.47-.1-.47-.29v-1c0-.19.15-.28.47-.28s.47.09.47.28Zm-.22-1c0-.1-.09-.15-.25-.15s-.26.05-.26.15v1c0,.1.09.15.26.15s.25-.05.25-.15Z"/><path id="Path_1849" data-name="Path 1849" class="cls-1" d="M22.77,15.18H23v1.56h-.21V15.48h-.25v-.17C22.68,15.31,22.77,15.27,22.77,15.18Z"/><path id="Path_1850" data-name="Path 1850" class="cls-1" d="M26.52,16.48c0,.19-.16.29-.47.29s-.47-.1-.47-.29v-1c0-.19.16-.28.47-.28s.47.09.47.28Zm-.22-1c0-.1-.09-.15-.25-.15s-.25.05-.25.15v1c0,.1.08.15.25.15s.25-.05.25-.15Z"/><path id="Path_1851" data-name="Path 1851" class="cls-1" d="M29.36,15.18h.22v1.56h-.22V15.48h-.24v-.17C29.28,15.31,29.36,15.27,29.36,15.18Z"/><path id="Path_1852" data-name="Path 1852" class="cls-1" d="M33.12,16.48c0,.19-.16.29-.47.29s-.47-.1-.47-.29v-1c0-.19.15-.28.47-.28s.47.09.47.28Zm-.22-1c0-.1-.09-.15-.25-.15s-.25.05-.25.15v1c0,.1.08.15.25.15s.25-.05.25-.15Z"/><path id="Path_1853" data-name="Path 1853" class="cls-1" d="M36.42,16.48c0,.19-.16.29-.47.29s-.47-.1-.47-.29v-1c0-.19.15-.28.47-.28s.47.09.47.28Zm-.22-1c0-.1-.09-.15-.25-.15s-.26.05-.26.15v1c0,.1.09.15.26.15s.25-.05.25-.15Z"/><path id="Path_1854" data-name="Path 1854" class="cls-1" d="M39.26,15.18h.22v1.56h-.22V15.48H39v-.17C39.18,15.31,39.26,15.27,39.26,15.18Z"/><path id="Path_1855" data-name="Path 1855" class="cls-1" d="M43,16.48c0,.19-.16.29-.47.29s-.47-.1-.47-.29v-1c0-.19.15-.28.47-.28s.47.09.47.28Zm-.22-1c0-.1-.09-.15-.25-.15s-.26.05-.26.15v1c0,.1.09.15.26.15s.25-.05.25-.15Z"/><path id="Path_1856" data-name="Path 1856" class="cls-1" d="M46.32,16.48c0,.19-.16.29-.47.29s-.47-.1-.47-.29v-1c0-.19.15-.28.47-.28s.47.09.47.28Zm-.22-1c0-.1-.09-.15-.25-.15s-.26.05-.26.15v1c0,.1.09.15.26.15s.25-.05.25-.15Z"/><path id="Path_1857" data-name="Path 1857" class="cls-1" d="M49.62,16.48c0,.19-.16.29-.47.29s-.47-.1-.47-.29v-1c0-.19.15-.28.47-.28s.47.09.47.28Zm-.22-1c0-.1-.09-.15-.25-.15s-.26.05-.26.15v1c0,.1.09.15.26.15s.25-.05.25-.15Z"/><path id="Path_1858" data-name="Path 1858" class="cls-1" d="M52.46,15.18h.22v1.56h-.22V15.48h-.25v-.17C52.38,15.31,52.46,15.27,52.46,15.18Z"/><path id="Path_1859" data-name="Path 1859" class="cls-1" d="M56.21,16.48c0,.19-.16.29-.47.29s-.47-.1-.47-.29v-1c0-.19.16-.28.47-.28s.47.09.47.28Zm-.22-1c0-.1-.08-.15-.25-.15s-.25.05-.25.15v1c0,.1.08.15.25.15s.25-.05.25-.15Z"/><path id="Path_1860" data-name="Path 1860" class="cls-1" d="M59.06,15.18h.22v1.56h-.22V15.48h-.25v-.17C59,15.31,59.06,15.27,59.06,15.18Z"/><path id="Path_1861" data-name="Path 1861" class="cls-1" d="M62.81,16.48c0,.19-.16.29-.47.29s-.47-.1-.47-.29v-1c0-.19.16-.28.47-.28s.47.09.47.28Zm-.22-1c0-.1-.08-.15-.25-.15s-.25.05-.25.15v1c0,.1.08.15.25.15s.25-.05.25-.15Z"/><path id="Path_1862" data-name="Path 1862" class="cls-1" d="M15.14,18.37h.24v1.76h-.24V18.71h-.29v-.19C15,18.52,15.14,18.47,15.14,18.37Z"/><path id="Path_1863" data-name="Path 1863" class="cls-1" d="M18.85,18.37h.24v1.76h-.24V18.71h-.28v-.19C18.75,18.52,18.85,18.47,18.85,18.37Z"/><path id="Path_1864" data-name="Path 1864" class="cls-1" d="M23.07,19.84c0,.21-.18.31-.53.31s-.53-.1-.53-.31V18.67c0-.22.18-.32.53-.32s.53.1.53.32Zm-.25-1.13c0-.11-.09-.17-.28-.17s-.28.06-.28.17v1.08c0,.11.09.17.28.17s.28-.06.28-.17Z"/><path id="Path_1865" data-name="Path 1865" class="cls-1" d="M56.48,19.84c0,.21-.18.31-.53.31s-.53-.1-.53-.31V18.67c0-.22.18-.32.53-.32s.53.1.53.32Zm-.25-1.13c0-.11-.09-.17-.28-.17s-.28.06-.28.17v1.08c0,.11.09.17.28.17s.28-.06.28-.17Z"/><path id="Path_1866" data-name="Path 1866" class="cls-1" d="M59.68,18.37h.24v1.76h-.24V18.71H59.4v-.19C59.59,18.52,59.68,18.47,59.68,18.37Z"/><path id="Path_1867" data-name="Path 1867" class="cls-1" d="M63.39,18.37h.25v1.76h-.25V18.71h-.28v-.19C63.3,18.52,63.39,18.47,63.39,18.37Z"/><path id="Path_1868" data-name="Path 1868" class="cls-1" d="M15.09,23.19c0,.24-.2.35-.59.35s-.59-.11-.59-.35v-1.3c0-.24.2-.36.59-.36s.59.12.59.36Zm-.28-1.25c0-.12-.1-.19-.31-.19s-.32.07-.32.19v1.2c0,.12.1.19.32.19s.31-.07.31-.19Z"/><path id="Path_1869" data-name="Path 1869" class="cls-1" d="M19.21,23.19c0,.24-.2.35-.59.35s-.58-.11-.58-.35v-1.3c0-.24.19-.36.58-.36s.59.12.59.36Zm-.27-1.25c0-.12-.11-.19-.32-.19s-.31.07-.31.19v1.2c0,.12.1.19.31.19s.32-.07.32-.19Z"/><path id="Path_1870" data-name="Path 1870" class="cls-1" d="M23.33,23.19c0,.24-.19.35-.58.35s-.59-.11-.59-.35v-1.3c0-.24.2-.36.59-.36s.58.12.58.36Zm-.27-1.25c0-.12-.1-.19-.31-.19s-.32.07-.32.19v1.2c0,.12.11.19.32.19s.31-.07.31-.19Z"/><path id="Path_1871" data-name="Path 1871" class="cls-1" d="M27.46,23.19c0,.24-.2.35-.59.35s-.58-.11-.58-.35v-1.3c0-.24.2-.36.58-.36s.59.12.59.36Zm-.27-1.25c0-.12-.1-.19-.32-.19s-.31.07-.31.19v1.2c0,.12.1.19.31.19s.32-.07.32-.19Z"/><path id="Path_1872" data-name="Path 1872" class="cls-1" d="M31,21.56h.27v2H31V21.94H30.7v-.21C30.92,21.73,31,21.67,31,21.56Z"/><path id="Path_1873" data-name="Path 1873" class="cls-1" d="M35.71,23.19c0,.24-.2.35-.59.35s-.59-.11-.59-.35v-1.3c0-.24.2-.36.59-.36s.59.12.59.36Zm-.27-1.25c0-.12-.1-.19-.32-.19s-.31.07-.31.19v1.2c0,.12.1.19.31.19s.32-.07.32-.19Z"/><path id="Path_1874" data-name="Path 1874" class="cls-1" d="M39.27,21.56h.27v2h-.27V21.94H39v-.21C39.16,21.73,39.27,21.67,39.27,21.56Z"/><path id="Path_1875" data-name="Path 1875" class="cls-1" d="M44,23.19c0,.24-.2.35-.59.35s-.59-.11-.59-.35v-1.3c0-.24.2-.36.59-.36s.59.12.59.36Zm-.28-1.25c0-.12-.1-.19-.31-.19s-.32.07-.32.19v1.2c0,.12.1.19.32.19s.31-.07.31-.19Z"/><path id="Path_1876" data-name="Path 1876" class="cls-1" d="M47.52,21.56h.27v2h-.27V21.94H47.2v-.21C47.41,21.73,47.52,21.67,47.52,21.56Z"/><path id="Path_1877" data-name="Path 1877" class="cls-1" d="M52.2,23.19c0,.24-.19.35-.58.35s-.59-.11-.59-.35v-1.3c0-.24.2-.36.59-.36s.58.12.58.36Zm-.27-1.25c0-.12-.1-.19-.31-.19s-.32.07-.32.19v1.2c0,.12.11.19.32.19s.31-.07.31-.19Z"/><path id="Path_1878" data-name="Path 1878" class="cls-1" d="M55.76,21.56H56v2h-.27V21.94h-.31v-.21C55.66,21.73,55.76,21.67,55.76,21.56Z"/><path id="Path_1879" data-name="Path 1879" class="cls-1" d="M60.45,23.19c0,.24-.2.35-.58.35s-.59-.11-.59-.35v-1.3c0-.24.2-.36.59-.36s.58.12.58.36Zm-.27-1.25c0-.12-.1-.19-.31-.19s-.32.07-.32.19v1.2c0,.12.1.19.32.19s.31-.07.31-.19Z"/><path id="Path_1880" data-name="Path 1880" class="cls-1" d="M64.58,23.19c0,.24-.2.35-.59.35s-.59-.11-.59-.35v-1.3c0-.24.2-.36.59-.36s.59.12.59.36Zm-.27-1.25c0-.12-.11-.19-.32-.19s-.31.07-.31.19v1.2c0,.12.1.19.31.19s.32-.07.32-.19Z"/><path id="Path_1881" data-name="Path 1881" class="cls-1" d="M14.32,24.75h.3V26.9h-.3V25.17H14v-.24C14.2,24.93,14.32,24.87,14.32,24.75Z"/><path id="Path_1882" data-name="Path 1882" class="cls-1" d="M18.85,24.75h.3V26.9h-.3V25.17h-.34v-.24C18.74,24.93,18.85,24.87,18.85,24.75Z"/><path id="Path_1883" data-name="Path 1883" class="cls-1" d="M24,26.55c0,.25-.22.38-.65.38s-.64-.13-.64-.38V25.11c0-.26.21-.39.64-.38s.65.13.65.38Zm-.3-1.38c0-.14-.12-.21-.35-.21S23,25,23,25.17v1.31c0,.14.12.21.35.21s.35-.07.35-.21Z"/><path id="Path_1884" data-name="Path 1884" class="cls-1" d="M27.93,24.75h.3V26.9h-.3V25.17h-.35v-.24C27.82,24.93,27.93,24.87,27.93,24.75Z"/><path id="Path_1885" data-name="Path 1885" class="cls-1" d="M33.08,26.55c0,.25-.21.38-.64.38s-.64-.13-.64-.38V25.11c0-.26.21-.38.64-.38s.64.12.64.38Zm-.3-1.38c0-.14-.11-.21-.34-.21s-.35.07-.35.21v1.31c0,.14.12.21.35.21s.34-.07.34-.21Z"/><path id="Path_1886" data-name="Path 1886" class="cls-1" d="M37,24.75h.3V26.9H37V25.17h-.35v-.24C36.88,24.93,37,24.87,37,24.75Z"/><path id="Path_1887" data-name="Path 1887" class="cls-1" d="M42.16,26.55c0,.25-.22.38-.65.38s-.64-.13-.64-.38V25.11c0-.26.21-.39.64-.38s.65.12.65.38Zm-.3-1.38c0-.14-.12-.21-.35-.21s-.34.07-.34.21v1.31c0,.14.11.21.34.21s.35-.07.35-.21Z"/><path id="Path_1888" data-name="Path 1888" class="cls-1" d="M46.69,26.55c0,.25-.21.38-.64.38s-.64-.13-.64-.38V25.11c0-.26.21-.39.64-.38s.64.13.64.38Zm-.3-1.38c0-.14-.11-.21-.34-.21s-.35.07-.35.21v1.31c0,.14.12.21.35.21s.34-.07.34-.21Z"/><path id="Path_1889" data-name="Path 1889" class="cls-1" d="M51.23,26.55c0,.25-.21.38-.64.38s-.65-.13-.65-.38V25.11c0-.26.22-.38.65-.38s.64.12.64.38Zm-.3-1.38c0-.14-.11-.21-.34-.21s-.35.07-.35.21v1.31c0,.14.11.21.35.21s.34-.07.34-.21Z"/><path id="Path_1890" data-name="Path 1890" class="cls-1" d="M55.15,24.75h.3V26.9h-.3V25.17H54.8v-.24C55,24.93,55.15,24.87,55.15,24.75Z"/><path id="Path_1891" data-name="Path 1891" class="cls-1" d="M60.3,26.55c0,.25-.21.38-.64.38S59,26.8,59,26.55V25.11c0-.26.21-.39.64-.38s.65.13.64.38ZM60,25.17c0-.14-.11-.21-.34-.21s-.35.07-.35.21v1.31c0,.14.12.21.35.21s.34-.07.34-.21Z"/><path id="Path_1892" data-name="Path 1892" class="cls-1" d="M64.22,24.75h.3V26.9h-.3V25.17h-.35v-.24C64.11,24.93,64.22,24.87,64.22,24.75Z"/><path id="Path_1893" data-name="Path 1893" class="cls-1" d="M15.09,30c0,.24-.2.36-.59.36s-.59-.12-.59-.36v-1.3c0-.23.2-.35.59-.35s.59.12.59.35Zm-.28-1.24c0-.13-.1-.19-.31-.19s-.32.06-.32.19v1.19c0,.13.1.19.32.19s.31-.06.31-.19Z"/><path id="Path_1894" data-name="Path 1894" class="cls-1" d="M19.21,30c0,.24-.2.36-.59.36S18,30.2,18,30v-1.3c0-.23.19-.35.58-.35s.59.12.59.35Zm-.27-1.24c0-.13-.11-.19-.32-.19s-.31.06-.31.19v1.19c0,.13.1.19.31.19s.32-.06.32-.19Z"/><path id="Path_1895" data-name="Path 1895" class="cls-1" d="M23.33,30c0,.24-.19.36-.58.36s-.59-.12-.59-.36v-1.3c0-.23.2-.35.59-.35s.58.12.58.35Zm-.27-1.24c0-.13-.1-.19-.31-.19s-.32.06-.32.19v1.19c0,.13.11.19.32.19s.31-.06.31-.19Z"/><path id="Path_1896" data-name="Path 1896" class="cls-1" d="M27.46,30c0,.24-.2.36-.59.36s-.58-.12-.58-.36v-1.3c0-.23.2-.35.58-.35s.59.12.59.35Zm-.27-1.24c0-.13-.1-.19-.32-.19s-.31.06-.31.19v1.19c0,.13.1.19.31.19s.32-.06.32-.19Z"/><path id="Path_1897" data-name="Path 1897" class="cls-1" d="M31,28.34h.27v1.94H31V28.72H30.7V28.5C30.92,28.5,31,28.44,31,28.34Z"/><path id="Path_1898" data-name="Path 1898" class="cls-1" d="M35.71,30c0,.24-.2.36-.59.36s-.59-.12-.59-.36v-1.3c0-.23.2-.35.59-.35s.59.12.59.35Zm-.27-1.24c0-.13-.1-.19-.32-.19s-.31.06-.31.19v1.19c0,.13.1.19.31.19s.32-.06.32-.19Z"/><path id="Path_1899" data-name="Path 1899" class="cls-1" d="M39.27,28.34h.27v1.94h-.27V28.72H39V28.5C39.16,28.5,39.27,28.44,39.27,28.34Z"/><path id="Path_1900" data-name="Path 1900" class="cls-1" d="M44,30c0,.24-.2.36-.59.36s-.59-.12-.59-.36v-1.3c0-.23.2-.35.59-.35s.59.12.59.35Zm-.28-1.24c0-.13-.1-.19-.31-.19s-.32.06-.32.19v1.19c0,.13.1.19.32.19s.31-.06.31-.19Z"/><path id="Path_1901" data-name="Path 1901" class="cls-1" d="M47.52,28.34h.27v1.94h-.27V28.72H47.2V28.5C47.42,28.5,47.52,28.44,47.52,28.34Z"/><path id="Path_1902" data-name="Path 1902" class="cls-1" d="M52.2,30c0,.24-.19.36-.58.36S51,30.2,51,30v-1.3c0-.23.2-.35.59-.35s.58.12.58.35Zm-.27-1.24c0-.13-.1-.19-.31-.19s-.32.06-.32.19v1.19c0,.13.11.19.32.19s.31-.06.31-.19Z"/><path id="Path_1903" data-name="Path 1903" class="cls-1" d="M55.76,28.34H56v1.94h-.27V28.72h-.31V28.5C55.66,28.5,55.76,28.44,55.76,28.34Z"/><path id="Path_1904" data-name="Path 1904" class="cls-1" d="M60.45,30c0,.24-.2.36-.58.36s-.59-.12-.59-.36v-1.3c0-.23.2-.35.59-.35s.58.12.58.35Zm-.27-1.24c0-.13-.1-.19-.31-.19s-.32.06-.32.19v1.19c0,.13.1.19.32.19s.31-.06.31-.19Z"/><path id="Path_1905" data-name="Path 1905" class="cls-1" d="M64.58,30c0,.24-.2.36-.59.36s-.59-.12-.59-.36v-1.3c0-.23.2-.35.59-.35s.59.12.59.35Zm-.27-1.24c0-.13-.11-.19-.32-.19s-.31.06-.31.19v1.19c0,.13.1.19.31.19s.32-.06.32-.19Z"/><path id="Path_1906" data-name="Path 1906" class="cls-1" d="M15.14,31.92h.24v1.76h-.24V32.26h-.29v-.2C15,32.06,15.14,32,15.14,31.92Z"/><path id="Path_1907" data-name="Path 1907" class="cls-1" d="M18.85,31.92h.24v1.76h-.24V32.26h-.28v-.2C18.75,32.06,18.85,32,18.85,31.92Z"/><path id="Path_1908" data-name="Path 1908" class="cls-1" d="M23.07,33.39c0,.21-.18.31-.53.31s-.53-.1-.53-.31V32.21c0-.21.18-.32.53-.32s.53.11.53.32Zm-.25-1.13c0-.11-.09-.17-.28-.17s-.28.06-.28.17v1.08c0,.11.09.17.28.17s.28-.06.28-.17Z"/><path id="Path_1909" data-name="Path 1909" class="cls-1" d="M26.27,31.92h.25v1.76h-.25V32.26H26v-.2C26.18,32.06,26.27,32,26.27,31.92Z"/><path id="Path_1910" data-name="Path 1910" class="cls-1" d="M30.49,33.39c0,.21-.17.31-.52.31s-.53-.1-.53-.31V32.21c0-.21.17-.32.53-.32s.52.11.52.32Zm-.24-1.13c0-.11-.1-.17-.28-.17s-.29.06-.29.17v1.08c0,.11.1.17.29.17s.28-.06.28-.17Z"/><path id="Path_1911" data-name="Path 1911" class="cls-1" d="M34.2,33.39c0,.21-.17.31-.52.31s-.53-.1-.53-.31V32.21c0-.21.18-.32.53-.32s.53.11.52.32ZM34,32.26c0-.11-.09-.17-.28-.17s-.29.06-.29.17v1.08c0,.11.1.17.29.17s.28-.06.28-.17Z"/><path id="Path_1912" data-name="Path 1912" class="cls-1" d="M37.41,31.92h.24v1.76h-.24V32.26h-.28v-.2C37.32,32.06,37.41,32,37.41,31.92Z"/><path id="Path_1913" data-name="Path 1913" class="cls-1" d="M41.63,33.39c0,.21-.18.31-.53.31s-.53-.1-.53-.31V32.21c0-.21.18-.32.53-.32s.53.11.53.32Zm-.25-1.13c0-.11-.1-.17-.28-.17s-.28.06-.28.17v1.08c0,.11.1.17.28.17s.28-.06.28-.17Z"/><path id="Path_1914" data-name="Path 1914" class="cls-1" d="M45.34,33.39c0,.21-.18.31-.53.31s-.52-.1-.52-.31V32.21c0-.21.17-.32.52-.32s.53.11.53.32Zm-.24-1.13c0-.11-.1-.17-.29-.17s-.28.06-.28.17v1.08c0,.11.09.17.28.17s.29-.06.29-.17Z"/><path id="Path_1915" data-name="Path 1915" class="cls-1" d="M49.05,33.39c0,.21-.17.31-.53.31s-.52-.1-.52-.31V32.21c0-.21.17-.32.52-.32s.53.11.53.32Zm-.24-1.13c0-.11-.1-.17-.29-.17s-.28.06-.28.17v1.08c0,.11.1.17.28.17s.29-.06.29-.17Z"/><path id="Path_1916" data-name="Path 1916" class="cls-1" d="M52.26,31.92h.24v1.76h-.24V32.26H52v-.2C52.16,32.06,52.26,32,52.26,31.92Z"/><path id="Path_1917" data-name="Path 1917" class="cls-1" d="M56.48,33.39c0,.21-.18.31-.53.31s-.53-.1-.53-.31V32.21c0-.21.18-.32.53-.32s.53.11.53.32Zm-.25-1.13c0-.11-.09-.17-.28-.17s-.28.06-.28.17v1.08c0,.11.09.17.28.17s.28-.06.28-.17Z"/><path id="Path_1918" data-name="Path 1918" class="cls-1" d="M59.68,31.92h.24v1.76h-.24V32.26H59.4v-.2C59.59,32.06,59.68,32,59.68,31.92Z"/><path id="Path_1919" data-name="Path 1919" class="cls-1" d="M63.39,31.92h.25v1.76h-.25V32.26h-.28v-.2C63.3,32.06,63.39,32,63.39,31.92Z"/><path id="Path_1920" data-name="Path 1920" class="cls-1" d="M16.62,36.8c0,.19-.16.28-.47.28s-.47-.09-.47-.28v-1c0-.19.15-.28.47-.28s.47.09.47.28Zm-.22-1c0-.1-.09-.15-.25-.15s-.26.05-.26.15v1c0,.1.09.15.26.15s.25,0,.25-.15Z"/><path id="Path_1921" data-name="Path 1921" class="cls-1" d="M19.92,36.8c0,.19-.16.28-.47.28S19,37,19,36.8v-1c0-.19.15-.28.47-.28s.47.09.47.28Zm-.22-1c0-.1-.09-.15-.25-.15s-.26.05-.26.15v1c0,.1.09.15.26.15s.25,0,.25-.15Z"/><path id="Path_1922" data-name="Path 1922" class="cls-1" d="M22.77,35.5H23v1.56h-.21V35.8h-.25v-.17C22.68,35.63,22.77,35.59,22.77,35.5Z"/><path id="Path_1923" data-name="Path 1923" class="cls-1" d="M26.52,36.8c0,.19-.16.28-.47.28s-.47-.09-.47-.28v-1c0-.19.16-.28.47-.28s.47.09.47.28Zm-.22-1c0-.1-.09-.15-.25-.15s-.25.05-.25.15v1c0,.1.08.15.25.15s.25,0,.25-.15Z"/><path id="Path_1924" data-name="Path 1924" class="cls-1" d="M29.36,35.5h.22v1.56h-.22V35.8h-.24v-.17C29.28,35.63,29.36,35.59,29.36,35.5Z"/><path id="Path_1925" data-name="Path 1925" class="cls-1" d="M33.12,36.8c0,.19-.16.28-.47.28s-.47-.09-.47-.28v-1c0-.19.15-.28.47-.28s.47.09.47.28Zm-.22-1c0-.1-.09-.15-.25-.15s-.25.05-.25.15v1c0,.1.08.15.25.15s.25,0,.25-.15Z"/><path id="Path_1926" data-name="Path 1926" class="cls-1" d="M36.42,36.8c0,.19-.16.28-.47.28s-.47-.09-.47-.28v-1c0-.19.15-.28.47-.28s.47.09.47.28Zm-.22-1c0-.1-.09-.15-.25-.15s-.26.05-.26.15v1c0,.1.09.15.26.15s.25,0,.25-.15Z"/><path id="Path_1927" data-name="Path 1927" class="cls-1" d="M39.26,35.5h.22v1.56h-.22V35.8H39v-.17C39.18,35.63,39.26,35.59,39.26,35.5Z"/><path id="Path_1928" data-name="Path 1928" class="cls-1" d="M43,36.8c0,.19-.16.28-.47.28s-.47-.09-.47-.28v-1c0-.19.15-.28.47-.28s.47.09.47.28Zm-.22-1c0-.1-.09-.15-.25-.15s-.26.05-.26.15v1c0,.1.09.15.26.15s.25,0,.25-.15Z"/><path id="Path_1929" data-name="Path 1929" class="cls-1" d="M46.32,36.8c0,.19-.16.28-.47.28s-.47-.09-.47-.28v-1c0-.19.15-.28.47-.28s.47.09.47.28Zm-.22-1c0-.1-.09-.15-.25-.15s-.26.05-.26.15v1c0,.1.09.15.26.15s.25,0,.25-.15Z"/><path id="Path_1930" data-name="Path 1930" class="cls-1" d="M49.62,36.8c0,.19-.16.28-.47.28s-.47-.09-.47-.28v-1c0-.19.15-.28.47-.28s.47.09.47.28Zm-.22-1c0-.1-.09-.15-.25-.15s-.26.05-.26.15v1c0,.1.09.15.26.15s.25,0,.25-.15Z"/><path id="Path_1931" data-name="Path 1931" class="cls-1" d="M52.46,35.5h.22v1.56h-.22V35.8h-.25v-.17C52.38,35.63,52.46,35.59,52.46,35.5Z"/><path id="Path_1932" data-name="Path 1932" class="cls-1" d="M56.21,36.8c0,.19-.16.28-.47.28s-.47-.09-.47-.28v-1c0-.19.16-.28.47-.28s.47.09.47.28Zm-.22-1c0-.1-.08-.15-.25-.15s-.25.05-.25.15v1c0,.1.08.15.25.15s.25,0,.25-.15Z"/><path id="Path_1933" data-name="Path 1933" class="cls-1" d="M59.06,35.5h.22v1.56h-.22V35.8h-.25v-.17C59,35.63,59.06,35.59,59.06,35.5Z"/><path id="Path_1934" data-name="Path 1934" class="cls-1" d="M62.81,36.8c0,.19-.16.28-.47.28s-.47-.09-.47-.28v-1c0-.19.16-.28.47-.28s.47.09.47.28Zm-.22-1c0-.1-.08-.15-.25-.15s-.25.05-.25.15v1c0,.1.08.15.25.15s.25,0,.25-.15Z"/><path id="Path_1935" data-name="Path 1935" class="cls-1" d="M18,40.22c0,.17-.13.25-.41.25s-.41-.08-.41-.25v-.91c0-.17.14-.25.41-.25s.41.09.41.25Zm-.19-.87c0-.09-.07-.14-.22-.14s-.22,0-.22.14v.83c0,.09.08.14.22.14s.22,0,.22-.14Z"/><path id="Path_1936" data-name="Path 1936" class="cls-1" d="M20.49,39.09h.19v1.36h-.19v-1.1h-.22v-.16C20.42,39.19,20.49,39.16,20.49,39.09Z"/><path id="Path_1937" data-name="Path 1937" class="cls-1" d="M23.78,40.22c0,.17-.14.25-.41.25s-.41-.08-.41-.25v-.91c0-.17.13-.25.41-.25s.41.09.41.25Zm-.19-.87c0-.09-.08-.14-.22-.14s-.22,0-.22.14v.83c0,.09.07.14.22.14s.22,0,.22-.14Z"/><path id="Path_1938" data-name="Path 1938" class="cls-1" d="M26.27,39.09h.19v1.36h-.19v-1.1h-.22v-.16C26.19,39.19,26.27,39.16,26.27,39.09Z"/><path id="Path_1939" data-name="Path 1939" class="cls-1" d="M29.16,39.09h.19v1.36h-.19v-1.1h-.22v-.16C29.08,39.19,29.16,39.16,29.16,39.09Z"/><path id="Path_1940" data-name="Path 1940" class="cls-1" d="M32.44,40.22c0,.17-.14.25-.41.25s-.41-.08-.41-.25v-.91c0-.17.13-.25.41-.25s.41.09.41.25Zm-.19-.87c0-.09-.08-.14-.22-.14s-.22,0-.22.14v.83c0,.09.07.14.22.14s.22,0,.22-.14Z"/><path id="Path_1941" data-name="Path 1941" class="cls-1" d="M35.32,40.22c0,.17-.13.25-.41.25s-.41-.08-.41-.25v-.91c0-.17.14-.25.41-.25s.42.09.41.25Zm-.19-.87c0-.09-.07-.14-.22-.14s-.22,0-.22.14v.83c0,.09.08.14.22.14s.22,0,.22-.14Z"/><path id="Path_1942" data-name="Path 1942" class="cls-1" d="M37.82,39.09H38v1.36h-.19v-1.1H37.6v-.16C37.74,39.19,37.82,39.16,37.82,39.09Z"/><path id="Path_1943" data-name="Path 1943" class="cls-1" d="M40.7,39.09h.19v1.36H40.7v-1.1h-.22v-.16C40.63,39.19,40.7,39.16,40.7,39.09Z"/><path id="Path_1944" data-name="Path 1944" class="cls-1" d="M44,40.22c0,.17-.14.25-.41.25s-.42-.08-.42-.25v-.91c0-.17.14-.25.42-.25s.41.09.41.25Zm-.19-.87c0-.09-.08-.14-.22-.14s-.23,0-.23.14v.83c0,.09.08.14.23.14s.22,0,.22-.14Z"/><path id="Path_1945" data-name="Path 1945" class="cls-1" d="M46.87,40.22c0,.17-.13.25-.41.25s-.41-.08-.41-.25v-.91c0-.17.14-.25.41-.25s.41.09.41.25Zm-.19-.87c0-.09-.07-.14-.22-.14s-.22,0-.22.14v.83c0,.09.08.14.22.14s.22,0,.22-.14Z"/><path id="Path_1946" data-name="Path 1946" class="cls-1" d="M49.36,39.09h.19v1.36h-.19v-1.1h-.22v-.16C49.29,39.19,49.36,39.16,49.36,39.09Z"/><path id="Path_1947" data-name="Path 1947" class="cls-1" d="M52.25,39.09h.19v1.36h-.19v-1.1H52v-.16C52.18,39.19,52.25,39.16,52.25,39.09Z"/><path id="Path_1948" data-name="Path 1948" class="cls-1" d="M55.14,39.09h.19v1.36h-.19v-1.1h-.22v-.16C55.06,39.19,55.14,39.16,55.14,39.09Z"/><path id="Path_1949" data-name="Path 1949" class="cls-1" d="M58.42,40.22c0,.17-.14.25-.41.25s-.41-.08-.41-.25v-.91c0-.17.14-.25.41-.25s.41.09.41.25Zm-.19-.87c0-.09-.07-.14-.22-.14s-.22,0-.22.14v.83c0,.09.07.14.22.14s.22,0,.22-.14Z"/><path id="Path_1950" data-name="Path 1950" class="cls-1" d="M60.92,39.09h.19v1.36h-.19v-1.1h-.23v-.16C60.84,39.19,60.92,39.16,60.92,39.09Z"/><path id="Path_1951" data-name="Path 1951" class="cls-1" d="M19.46,42.66h.16v1.18h-.16v-1h-.19v-.13C19.4,42.76,19.46,42.73,19.46,42.66Z"/><path id="Path_1952" data-name="Path 1952" class="cls-1" d="M22.27,43.64c0,.14-.11.21-.35.21s-.35-.07-.35-.21v-.78c0-.14.12-.21.35-.21s.35.07.35.21Zm-.16-.75c0-.07-.06-.11-.19-.11s-.19,0-.19.11v.72c0,.07.07.11.19.11s.19,0,.19-.11Z"/><path id="Path_1953" data-name="Path 1953" class="cls-1" d="M24.42,42.66h.16v1.18h-.16v-1h-.19v-.13C24.35,42.76,24.42,42.73,24.42,42.66Z"/><path id="Path_1954" data-name="Path 1954" class="cls-1" d="M27.22,43.64c0,.14-.11.21-.35.21s-.35-.07-.35-.21v-.78c0-.14.12-.21.35-.21s.35.07.35.21Zm-.16-.75c0-.07-.06-.11-.19-.11s-.19,0-.19.11v.72c0,.07.07.11.19.11s.19,0,.19-.11Z"/><path id="Path_1955" data-name="Path 1955" class="cls-1" d="M29.7,43.64c0,.14-.12.21-.35.21s-.36-.07-.36-.21v-.78q0-.21.36-.21c.23,0,.35.07.35.21Zm-.16-.75c0-.07-.07-.11-.19-.11s-.19,0-.19.11v.72c0,.07.06.11.19.11s.19,0,.19-.11Z"/><path id="Path_1956" data-name="Path 1956" class="cls-1" d="M31.83,42.66H32v1.18h-.17v-1h-.18v-.13C31.77,42.76,31.83,42.73,31.83,42.66Z"/><path id="Path_1957" data-name="Path 1957" class="cls-1" d="M34.65,43.64c0,.14-.12.21-.35.21s-.36-.07-.36-.21v-.78q0-.21.36-.21c.23,0,.35.07.35.21Zm-.17-.75c0-.07-.06-.11-.18-.11s-.19,0-.19.11v.72c0,.07.06.11.19.11s.18,0,.18-.11Z"/><path id="Path_1958" data-name="Path 1958" class="cls-1" d="M37.12,43.64c0,.14-.12.21-.35.21s-.35-.07-.35-.21v-.78c0-.14.12-.21.35-.21s.35.07.35.21ZM37,42.89c0-.07-.06-.11-.19-.11s-.19,0-.19.11v.72c0,.07.06.11.19.11s.19,0,.19-.11Z"/><path id="Path_1959" data-name="Path 1959" class="cls-1" d="M39.6,43.64q0,.21-.36.21c-.23,0-.35-.07-.35-.21v-.78c0-.14.12-.21.35-.21s.36.07.36.21Zm-.17-.75c0-.07-.06-.11-.19-.11s-.18,0-.18.11v.72c0,.07.06.11.18.11s.19,0,.19-.11Z"/><path id="Path_1960" data-name="Path 1960" class="cls-1" d="M41.73,42.66h.17v1.18h-.17v-1h-.19v-.13C41.67,42.76,41.73,42.73,41.73,42.66Z"/><path id="Path_1961" data-name="Path 1961" class="cls-1" d="M44.55,43.64q0,.21-.36.21c-.23,0-.35-.07-.35-.21v-.78c0-.14.12-.21.35-.21s.36.07.36.21Zm-.17-.75c0-.08-.06-.11-.19-.11s-.18,0-.18.11v.72c0,.07.06.11.18.11s.19,0,.19-.11Z"/><path id="Path_1962" data-name="Path 1962" class="cls-1" d="M46.68,42.66h.16v1.18h-.16v-1h-.19v-.13C46.62,42.76,46.68,42.73,46.68,42.66Z"/><path id="Path_1963" data-name="Path 1963" class="cls-1" d="M49.49,43.64c0,.14-.11.21-.35.21s-.35-.07-.35-.21v-.78c0-.14.12-.21.35-.21s.35.07.35.21Zm-.16-.75c0-.07-.06-.11-.19-.11s-.19,0-.19.11v.72c0,.07.07.11.19.11s.19,0,.19-.11Z"/><path id="Path_1964" data-name="Path 1964" class="cls-1" d="M52,43.64c0,.14-.12.21-.35.21s-.35-.07-.35-.21v-.78c0-.14.11-.21.35-.21s.35.07.35.21Zm-.16-.75c0-.07-.07-.11-.19-.11s-.19,0-.19.11v.72c0,.07.06.11.19.11s.19,0,.19-.11Z"/><path id="Path_1965" data-name="Path 1965" class="cls-1" d="M54.44,43.64c0,.14-.11.21-.35.21s-.35-.07-.35-.21v-.78c0-.14.12-.21.35-.21s.35.07.35.21Zm-.16-.75c0-.07-.06-.11-.19-.11s-.19,0-.19.11v.72c0,.07.07.11.19.11s.19,0,.19-.11Z"/><path id="Path_1966" data-name="Path 1966" class="cls-1" d="M56.58,42.66h.16v1.18h-.16v-1h-.19v-.13C56.52,42.76,56.58,42.73,56.58,42.66Z"/><path id="Path_1967" data-name="Path 1967" class="cls-1" d="M59.39,43.64c0,.14-.11.21-.35.21s-.35-.07-.35-.21v-.78c0-.14.12-.21.35-.21s.35.07.35.21Zm-.16-.75c0-.07-.06-.11-.19-.11s-.19,0-.19.11v.72c0,.07.07.11.19.11s.19,0,.19-.11Z"/><path id="Path_1968" data-name="Path 1968" class="cls-1" d="M22.76,46.24h.13v1h-.13v-.79H22.6v-.1C22.71,46.33,22.76,46.3,22.76,46.24Z"/><path id="Path_1969" data-name="Path 1969" class="cls-1" d="M25.1,47.06c0,.12-.1.17-.29.17s-.29,0-.29-.17v-.65c0-.12.1-.18.29-.18s.29.06.29.18ZM25,46.43c0-.06-.06-.1-.16-.1s-.16,0-.16.1V47c0,.07.05.1.16.1s.16,0,.16-.1Z"/><path id="Path_1970" data-name="Path 1970" class="cls-1" d="M27.17,47.06c0,.12-.1.17-.3.17s-.29,0-.29-.17v-.65c0-.12.1-.18.29-.18s.3.06.3.18ZM27,46.43c0-.06-.05-.1-.16-.1s-.16,0-.16.1V47c0,.07.06.1.16.1s.16,0,.16-.1Z"/><path id="Path_1971" data-name="Path 1971" class="cls-1" d="M29.23,47.06c0,.12-.1.17-.3.17s-.29,0-.29-.17v-.65c0-.12.1-.18.29-.18s.3.06.3.18Zm-.14-.63c0-.06-.05-.1-.16-.1s-.15,0-.15.1V47c0,.07,0,.1.15.1s.16,0,.16-.1Z"/><path id="Path_1972" data-name="Path 1972" class="cls-1" d="M31,46.24h.13v1H31v-.79h-.16v-.1C31,46.33,31,46.3,31,46.24Z"/><path id="Path_1973" data-name="Path 1973" class="cls-1" d="M33.35,47.06c0,.12-.1.17-.29.17s-.29,0-.29-.17v-.65c0-.12.1-.18.29-.18s.29.06.29.18Zm-.13-.63c0-.06-.06-.1-.16-.1s-.16,0-.16.1V47c0,.07.05.1.16.1s.16,0,.16-.1Z"/><path id="Path_1974" data-name="Path 1974" class="cls-1" d="M35.13,46.24h.14v1h-.14v-.79H35v-.1C35.08,46.33,35.13,46.3,35.13,46.24Z"/><path id="Path_1975" data-name="Path 1975" class="cls-1" d="M37.48,47.06c0,.12-.1.17-.3.17s-.29,0-.29-.17v-.65c0-.12.1-.18.29-.18s.3.06.3.18Zm-.14-.63c0-.06-.05-.1-.16-.1s-.15,0-.15.1V47c0,.07,0,.1.15.1s.16,0,.16-.1Z"/><path id="Path_1976" data-name="Path 1976" class="cls-1" d="M39.54,47.06c0,.12-.1.17-.3.17s-.29,0-.29-.17v-.65c0-.12.1-.18.29-.18s.3.06.3.18Zm-.14-.63c0-.06,0-.1-.16-.1s-.15,0-.15.1V47c0,.07,0,.1.15.1s.16,0,.16-.1Z"/><path id="Path_1977" data-name="Path 1977" class="cls-1" d="M41.32,46.24h.13v1h-.13v-.79h-.16v-.1C41.27,46.33,41.32,46.3,41.32,46.24Z"/><path id="Path_1978" data-name="Path 1978" class="cls-1" d="M43.66,47.06c0,.12-.1.17-.29.17s-.29,0-.29-.17v-.65c0-.12.1-.18.29-.18s.29.06.29.18Zm-.13-.63c0-.06-.06-.1-.16-.1s-.16,0-.16.1V47c0,.07,0,.1.16.1s.16,0,.16-.1Z"/><path id="Path_1979" data-name="Path 1979" class="cls-1" d="M45.72,47.06c0,.12-.1.17-.29.17s-.29,0-.29-.17v-.65c0-.12.1-.18.29-.18s.29.06.29.18Zm-.13-.63c0-.06-.05-.1-.16-.1s-.16,0-.16.1V47c0,.07.06.1.16.1s.16,0,.16-.1Z"/><path id="Path_1980" data-name="Path 1980" class="cls-1" d="M47.79,47.06c0,.12-.1.17-.3.17s-.29,0-.29-.17v-.65c0-.12.1-.18.29-.18s.3.06.3.18Zm-.14-.63c0-.06,0-.1-.16-.1s-.15,0-.15.1V47c0,.07,0,.1.15.1s.16,0,.16-.1Z"/><path id="Path_1981" data-name="Path 1981" class="cls-1" d="M49.57,46.24h.13v1h-.13v-.79h-.16v-.1C49.52,46.33,49.57,46.3,49.57,46.24Z"/><path id="Path_1982" data-name="Path 1982" class="cls-1" d="M51.92,47.06c0,.12-.1.17-.3.17s-.29,0-.29-.17v-.65c0-.12.1-.18.29-.18s.3.06.3.18Zm-.14-.63c0-.06-.05-.1-.16-.1s-.15,0-.15.1V47c0,.07.05.1.15.1s.16,0,.16-.1Z"/><path id="Path_1983" data-name="Path 1983" class="cls-1" d="M53.69,46.24h.14v1h-.14v-.79h-.16v-.1C53.64,46.33,53.69,46.3,53.69,46.24Z"/><path id="Path_1984" data-name="Path 1984" class="cls-1" d="M56,47.06c0,.12-.1.17-.3.17s-.29,0-.29-.17v-.65c0-.12.1-.18.29-.18s.3.06.3.18Zm-.14-.63c0-.06,0-.1-.16-.1s-.16,0-.16.1V47c0,.07.06.1.16.1s.16,0,.16-.1Z"/><path id="Path_1985" data-name="Path 1985" class="cls-1" d="M26.88,49.05H27v.78h-.11V49.2h-.13v-.09C26.84,49.11,26.88,49.09,26.88,49.05Z"/><path id="Path_1986" data-name="Path 1986" class="cls-1" d="M28.76,49.7c0,.09-.08.14-.24.14s-.23-.05-.23-.14v-.52c0-.1.08-.15.23-.15s.24,0,.24.15Zm-.11-.5c0-.05,0-.08-.13-.08s-.12,0-.12.08v.47c0,.06,0,.08.12.08s.13,0,.13-.08Z"/><path id="Path_1987" data-name="Path 1987" class="cls-1" d="M30.18,49.05h.11v.78h-.11V49.2h-.13v-.09C30.14,49.11,30.18,49.09,30.18,49.05Z"/><path id="Path_1988" data-name="Path 1988" class="cls-1" d="M32.06,49.7c0,.09-.08.14-.24.14s-.23-.05-.23-.14v-.52c0-.1.07-.15.23-.15s.24,0,.24.15ZM32,49.2c0-.05,0-.08-.13-.08s-.12,0-.12.08v.47c0,.06,0,.08.12.08s.13,0,.13-.08Z"/><path id="Path_1989" data-name="Path 1989" class="cls-1" d="M33.48,49.05h.11v.78h-.11V49.2h-.13v-.09C33.44,49.11,33.48,49.09,33.48,49.05Z"/><path id="Path_1990" data-name="Path 1990" class="cls-1" d="M35.13,49.05h.11v.78h-.11V49.2H35v-.09C35.09,49.11,35.13,49.09,35.13,49.05Z"/><path id="Path_1991" data-name="Path 1991" class="cls-1" d="M37,49.7c0,.09-.07.14-.23.14s-.23-.05-.23-.14v-.52c0-.1.07-.15.23-.15s.23,0,.23.15Zm-.1-.5c0-.05,0-.08-.13-.08s-.13,0-.13.08v.47c0,.06,0,.08.13.08s.13,0,.13-.08Z"/><path id="Path_1992" data-name="Path 1992" class="cls-1" d="M38.43,49.05h.11v.78h-.11V49.2H38.3v-.09C38.39,49.11,38.43,49.09,38.43,49.05Z"/><path id="Path_1993" data-name="Path 1993" class="cls-1" d="M40.3,49.7c0,.09-.07.14-.23.14s-.23-.05-.23-.14v-.52c0-.1.07-.15.23-.15s.23,0,.23.15Zm-.1-.5c0-.05-.05-.08-.13-.08s-.13,0-.13.08v.47c0,.06.05.08.13.08s.13,0,.13-.08Z"/><path id="Path_1994" data-name="Path 1994" class="cls-1" d="M42,49.7c0,.09-.07.14-.23.14s-.23-.05-.23-.14v-.52c0-.1.07-.15.23-.15s.23,0,.23.15Zm-.1-.5c0-.05-.05-.08-.13-.08s-.13,0-.13.08v.47c0,.06,0,.08.13.08s.13,0,.13-.08Z"/><path id="Path_1995" data-name="Path 1995" class="cls-1" d="M43.38,49.05h.11v.78h-.11V49.2h-.13v-.09C43.34,49.11,43.38,49.09,43.38,49.05Z"/><path id="Path_1996" data-name="Path 1996" class="cls-1" d="M45.25,49.7c0,.09-.07.14-.23.14s-.24-.05-.24-.14v-.52q0-.15.24-.15c.16,0,.23,0,.23.15Zm-.1-.5c0-.05,0-.08-.13-.08s-.13,0-.13.08v.47c0,.06,0,.08.13.08s.13,0,.13-.08Z"/><path id="Path_1997" data-name="Path 1997" class="cls-1" d="M46.9,49.7c0,.09-.07.14-.23.14s-.24-.05-.24-.14v-.52q0-.15.24-.15c.16,0,.23,0,.23.15Zm-.11-.5c0-.05,0-.08-.12-.08s-.13,0-.13.08v.47c0,.06,0,.08.13.08s.12,0,.12-.08Z"/><path id="Path_1998" data-name="Path 1998" class="cls-1" d="M48.55,49.7c0,.09-.08.14-.23.14s-.24-.05-.24-.14v-.52q0-.15.24-.15c.15,0,.23,0,.23.15Zm-.11-.5c0-.05,0-.08-.12-.08s-.13,0-.13.08v.47c0,.06,0,.08.13.08s.12,0,.12-.08Z"/><path id="Path_1999" data-name="Path 1999" class="cls-1" d="M50,49.05h.11v.78H50V49.2h-.13v-.09C49.94,49.11,50,49.09,50,49.05Z"/><path id="Path_2000" data-name="Path 2000" class="cls-1" d="M51.85,49.7c0,.09-.08.14-.23.14s-.24-.05-.24-.14v-.52q0-.15.24-.15c.16,0,.23,0,.23.15Zm-.11-.5c0-.05,0-.08-.12-.08s-.13,0-.13.08v.47c0,.06,0,.08.13.08s.12,0,.12-.08Z"/><path id="Path_2001" data-name="Path 2001" class="cls-1" d="M33.85,52.33c0,.07-.06.11-.17.11s-.18,0-.18-.11v-.39c0-.07.06-.1.18-.1s.17,0,.17.1ZM33.77,52s0-.06-.09-.06-.1,0-.1.06v.36s0,0,.1,0,.09,0,.09,0Z"/><path id="Path_2002" data-name="Path 2002" class="cls-1" d="M35.09,52.33c0,.07-.06.11-.18.11s-.17,0-.17-.11v-.39c0-.07.06-.1.17-.1s.18,0,.18.1ZM35,52s0-.06-.1-.06-.09,0-.09.06v.36s0,0,.09,0,.1,0,.1,0Z"/><path id="Path_2003" data-name="Path 2003" class="cls-1" d="M36.16,51.84h.08v.59h-.08V52h-.1v-.07C36.13,51.89,36.16,51.88,36.16,51.84Z"/><path id="Path_2004" data-name="Path 2004" class="cls-1" d="M37.4,51.84h.08v.59H37.4V52h-.1v-.07C37.36,51.89,37.4,51.88,37.4,51.84Z"/><path id="Path_2005" data-name="Path 2005" class="cls-1" d="M38.63,51.84h.09v.59h-.09V52h-.09v-.07C38.6,51.89,38.63,51.88,38.63,51.84Z"/><path id="Path_2006" data-name="Path 2006" class="cls-1" d="M40,52.33c0,.07-.06.11-.18.11s-.17,0-.17-.11v-.39c0-.07.06-.1.17-.1s.18,0,.18.1ZM40,52s0-.06-.1-.06-.09,0-.09.06v.36s0,0,.09,0,.1,0,.1,0Z"/><path id="Path_2007" data-name="Path 2007" class="cls-1" d="M41.11,51.84h.08v.59h-.08V52H41v-.07C41.08,51.89,41.11,51.88,41.11,51.84Z"/><path id="Path_2008" data-name="Path 2008" class="cls-1" d="M42.52,52.33c0,.07-.06.11-.18.11s-.18,0-.18-.11v-.39c0-.07.06-.1.18-.1s.18,0,.18.1ZM42.43,52s0-.06-.09-.06-.09,0-.09.06v.36s0,0,.09,0,.09,0,.09,0Z"/><path id="Path_2009" data-name="Path 2009" class="cls-1" d="M43.58,51.84h.08v.59h-.08V52h-.09v-.07C43.55,51.89,43.58,51.88,43.58,51.84Z"/><path id="Path_2010" data-name="Path 2010" class="cls-1" d="M45,52.33c0,.07-.06.11-.18.11s-.17,0-.17-.11v-.39c0-.07.06-.1.17-.1s.18,0,.18.1ZM44.91,52s0-.06-.1-.06-.1,0-.1.06v.36s0,0,.1,0,.1,0,.1,0Z"/></g></g><g id="Group_122" data-name="Group 122"><path id="Path_2011" data-name="Path 2011" class="cls-1" d="M27,20.07c0,.36-.35.54-1,.54s-1-.18-1-.54v-2c0-.36.35-.54,1-.54s1,.18,1,.54v.41h-.62v-.33c0-.17-.14-.25-.42-.25s-.41.08-.41.25V20c0,.14.14.21.41.21s.42-.07.42-.21v-.33H27Z"/><path id="Path_2012" data-name="Path 2012" class="cls-1" d="M29.78,20.07q0,.54-1,.54c-.63,0-.95-.18-.95-.54V18.91c0-.36.32-.54.95-.54s1,.18,1,.54ZM29.15,19q0-.21-.33-.21t-.33.21v1q0,.21.33.21t.33-.21Z"/><path id="Path_2013" data-name="Path 2013" class="cls-1" d="M30.67,18.41h.63v.29c0-.22.21-.33.64-.33s.64.18.64.54v1.66H32V19c0-.16-.11-.25-.33-.25s-.33.09-.33.25v1.54h-.63Z"/><path id="Path_2014" data-name="Path 2014" class="cls-1" d="M35.7,20.57V18H35v-.41H37V18H36.3v2.57Z"/><path id="Path_2015" data-name="Path 2015" class="cls-1" d="M37.85,18.41h.63v.29c0-.22.17-.33.53-.33a.46.46,0,0,1,.53.4.33.33,0,0,1,0,.14v.25h-.62V19a.19.19,0,0,0-.22-.21c-.15,0-.22.07-.22.21v1.58h-.63Z"/><path id="Path_2016" data-name="Path 2016" class="cls-1" d="M41.17,20.61q-.78,0-.78-.54v-.28c0-.37.3-.56.88-.56.16,0,.24-.05.24-.16V19q0-.21-.24-.21c-.13,0-.19.07-.19.21v.08h-.63v-.16c0-.36.27-.54.82-.54s.87.18.87.54v1.37c0,.19,0,.29.16.29h-.62c-.11,0-.17-.08-.17-.23C41.52,20.52,41.4,20.61,41.17,20.61Zm.1-1c-.17,0-.25.07-.25.22V20c0,.14.08.21.25.21s.25-.1.25-.31v-.36c0,.09-.09.13-.25.13Z"/><path id="Path_2017" data-name="Path 2017" class="cls-1" d="M43.35,18c-.23,0-.35-.1-.35-.29s.12-.29.35-.29.34.1.34.29S43.58,18,43.35,18Zm.31.37v2.16H43V18.41Z"/><path id="Path_2018" data-name="Path 2018" class="cls-1" d="M44.55,18.41h.63v.29c0-.22.21-.33.64-.33s.64.18.64.54v1.66h-.62V19c0-.16-.11-.25-.33-.25s-.33.09-.33.25v1.54h-.63Z"/><path id="Path_2019" data-name="Path 2019" class="cls-1" d="M47.67,18c-.23,0-.34-.1-.34-.29s.11-.29.34-.29.35.1.35.29S47.9,18,47.67,18Zm.31.37v2.16h-.62V18.41Z"/><path id="Path_2020" data-name="Path 2020" class="cls-1" d="M48.88,18.41h.62v.29c0-.22.22-.33.65-.33s.64.18.64.54v1.66h-.62V19c0-.16-.11-.25-.34-.25s-.33.09-.33.25v1.54h-.62Z"/><path id="Path_2021" data-name="Path 2021" class="cls-1" d="M53.59,18.41V20.9c0,.3-.31.46-1,.46s-1-.16-1-.46v-.12h.62v0q0,.12.33.12t.33-.12v-.54c0,.22-.21.33-.64.33s-.64-.18-.64-.54V18.91c0-.36.21-.54.64-.54s.64.11.64.33v-.29ZM53,20V19q0-.21-.33-.21t-.33.21v1c0,.14.11.2.33.2S53,20.13,53,20Z"/></g></g></svg>