<svg id="Layer_1" data-name="Layer 1" xmlns="http://www.w3.org/2000/svg" viewBox="0 0 34.41 34.41"><defs><style>.cls-1{fill:#00c5c2;}</style></defs><title>ConTraining_Outs</title><g id="Group_5-4" data-name="Group 5-4"><path id="Path_8-3" data-name="Path 8-3" class="cls-1" d="M30.75,27.8s-5.13,6.61-13.54,6.61-14-7.17-14-7.17,5.45,7.17,14,7.17S30.75,27.8,30.75,27.8Z"/><path id="Path_9-4" data-name="Path 9-4" class="cls-1" d="M14.63,19.61A8,8,0,0,1,17,4h0A8,8,0,0,1,19.2,19.63a16.65,16.65,0,0,1,11.55,8.16A17.19,17.19,0,0,0,17.21,0h0A17.21,17.21,0,0,0,0,17.2H0a17.14,17.14,0,0,0,3.25,10A16.64,16.64,0,0,1,14.63,19.61Z"/></g></svg>