<?xml version="1.0" encoding="UTF-8" standalone="no"?>
<!--
*************Map created by Simplemaps.com********************		
*************Attribution is highly appreciated!***************
*************http://simplemaps.com****************************

The MIT License (MIT)

Copyright (c) 2015 Pareto Softare, LLC DBA Simplemaps.com

Permission is hereby granted, free of charge, to any person obtaining a copy
of this software and associated documentation files (the "Software"), to deal
in the Software without restriction, including without limitation the rights
to use, copy, modify, merge, publish, distribute, sublicense, and/or sell
copies of the Software, and to permit persons to whom the Software is
furnished to do so, subject to the following conditions:

The above copyright notice and this permission notice shall be included in
all copies or substantial portions of the Software.

THE SOFTWARE IS PROVIDED "AS IS", WITHOUT WARRANTY OF ANY KIND, EXPRESS OR
IMPLIED, INCLUDING BUT NOT LIMITED TO THE WARRANTIES OF MERCHANTABILITY,
FITNESS FOR A PARTICULAR PURPOSE AND NONINFRINGEMENT. IN NO EVENT SHALL THE
AUTHORS OR COPYRIGHT HOLDERS BE LIABLE FOR ANY CLAIM, DAMAGES OR OTHER
LIABILITY, WHETHER IN AN ACTION OF CONTRACT, TORT OR OTHERWISE, ARISING FROM,
OUT OF OR IN CONNECTION WITH THE SOFTWARE OR THE USE OR OTHER DEALINGS IN
THE SOFTWARE.

-->

<svg
   xmlns:dc="http://purl.org/dc/elements/1.1/"
   xmlns:cc="http://creativecommons.org/ns#"
   xmlns:rdf="http://www.w3.org/1999/02/22-rdf-syntax-ns#"
   xmlns:svg="http://www.w3.org/2000/svg"
   xmlns="http://www.w3.org/2000/svg"
   xmlns:xlink="http://www.w3.org/1999/xlink"
   xmlns:sodipodi="http://sodipodi.sourceforge.net/DTD/sodipodi-0.dtd"
   xmlns:inkscape="http://www.inkscape.org/namespaces/inkscape"
   enable_background="new 0 0 2000 1001"
   height="432.19998"
   pretty_print="False"
   style="fill:none;stroke:#000000;stroke-linejoin:round"
   version="1.1"
   viewBox="0 0 263.29999 432.19998"
   width="263.29999"
   id="svg2"
   inkscape:version="0.92.4 (5da689c313, 2019-01-14)"
   sodipodi:docname="void.svg"
   inkscape:export-filename="C:\Users\Michael\Desktop\world.png"
   inkscape:export-xdpi="96"
   inkscape:export-ydpi="96">
  <sodipodi:namedview
     pagecolor="#ffffff"
     bordercolor="#666666"
     borderopacity="1"
     objecttolerance="10"
     gridtolerance="10"
     guidetolerance="10"
     inkscape:pageopacity="0"
     inkscape:pageshadow="2"
     inkscape:window-width="1920"
     inkscape:window-height="1001"
     id="namedview231"
     showgrid="false"
     inkscape:zoom="0.80893016"
     inkscape:cx="324.26028"
     inkscape:cy="157.3286"
     inkscape:window-x="-9"
     inkscape:window-y="-9"
     inkscape:window-maximized="1"
     inkscape:current-layer="svg2"
     fit-margin-top="0"
     fit-margin-left="0"
     fit-margin-right="0"
     fit-margin-bottom="0" />
  <defs
     id="defs4">
    <linearGradient
       inkscape:collect="always"
       id="linearGradient5533">
      <stop
         style="stop-color:#00c5c2;stop-opacity:1;"
         offset="0"
         id="stop5529" />
      <stop
         style="stop-color:#00c5c2;stop-opacity:0;"
         offset="1"
         id="stop5531" />
    </linearGradient>
    <linearGradient
       inkscape:collect="always"
       id="linearGradient5117">
      <stop
         style="stop-color:#00c5c2;stop-opacity:1;"
         offset="0"
         id="stop5113" />
      <stop
         style="stop-color:#00c5c2;stop-opacity:0;"
         offset="1"
         id="stop5115" />
    </linearGradient>
    <style
       type="text/css"
       id="style6">path { fill-rule: evenodd; }</style>
    <linearGradient
       inkscape:collect="always"
       xlink:href="#linearGradient5117"
       id="linearGradient5119"
       x1="489.84409"
       y1="451.34482"
       x2="723.84186"
       y2="451.34482"
       gradientUnits="userSpaceOnUse" />
    <linearGradient
       inkscape:collect="always"
       xlink:href="#linearGradient5533"
       id="linearGradient5535"
       x1="1779.0076"
       y1="693.37335"
       x2="2003.6776"
       y2="693.37335"
       gradientUnits="userSpaceOnUse" />
  </defs>
  <metadata
     id="metadata8">
    <views
       id="views10">
      <view
         h="1001"
         padding="0"
         w="2000"
         id="view12">
        <proj
           flip="auto"
           id="robinson"
           lon0="100.0" />
        <bbox
           h="2233.1"
           w="5271.17"
           x="-2635.59"
           y="-1308.06"
           id="bbox15" />
      </view>
    </views>
    <rdf:RDF>
      <cc:Work
         rdf:about="">
        <dc:format>image/svg+xml</dc:format>
        <dc:type
           rdf:resource="http://purl.org/dc/dcmitype/StillImage" />
        <dc:title></dc:title>
      </cc:Work>
    </rdf:RDF>
  </metadata>
  <path
     inkscape:connector-curvature="0"
     id="AR"
     data-name="Argentina"
     data-id="AR"
     d="m 150.6,429.29998 0.9,-3 -7.3,-1.5 -7.7,-3.6 -4.3,-4.6 -3,-2.8 5.9,13.5 h 5 l 2.9,0.2 3.3,2.1 z m -50.4,-208.1 -7.400004,-1.5 -4,5.7 0.9,1.6 -1.1,6.6 -5.6,3.2 1.6,10.6 -0.9,2 2,2.5 -3.2,4 -2.6,5.9 -0.9,5.8 1.7,6.2 -2.1,6.5 4.9,10.9 1.6,1.2 1.3,5.9 -1.6,6.2 1.4,5.4 -2.9,4.3 1.5,5.9 3.3,6.3 -2.5,2.4 0.3,5.7 0.7,6.4 3.3,7.6 -1.6,1.2 3.6,7.1 3.1,2.3 -0.8,2.6 2.8,1.3 1.3,2.3 -1.8,1.1 1.8,3.7 1.1,8.2 -0.7,5.3 1.800004,3.2 -0.1,3.9 -2.700004,2.7 3.100004,6.6 2.6,2.2 3.1,-0.4 1.8,4.6 3.5,3.6 12,0.8 4.8,0.9 2.2,0.4 -4.7,-3.6 -4.1,-6.3 0.9,-2.9 3.5,-2.5 0.5,-7.2 4.7,-3.5 -0.2,-5.6 -5.2,-1.3 -6.4,-4.5 -0.1,-4.7 2.9,-3.1 4.7,-0.1 0.2,-3.3 -1.2,-6.1 2.9,-3.9 4.1,-1.9 -2.5,-3.2 -2.2,2 -4,-1.9 -2.5,-6.2 1.5,-1.6 5.6,2.3 5,-0.9 2.5,-2.2 -1.8,-3.1 -0.1,-4.8 -2,-3.8 5.8,0.6 10.2,-1.3 6.9,-3.4 3.3,-8.3 -0.3,-3.2 -3.9,-2.8 -0.1,-4.5 -7.8,-5.5 -0.3,-3.3 -0.4,-4.2 0.9,-1.4 -1.1,-6.3 0.3,-6.5 0.5,-5.1 5.9,-8.6 5.3,-6.2 3.3,-2.6 4.2,-3.5 -0.5,-5.1 -3.1,-3.7 -2.6,1.2 -0.3,5.7 -4.3,4.8 -4.2,1.1 -6.2,-1 -5.7,-1.8 4.2,-9.6 -1.1,-2.8 -5.9,-2.5 -7.2,-4.7 -4.6,-1 -11.2,-10.4 -1,-1.3 -6.3,-0.3 -1.6,5.1 z"
     style="fill:#000000;fill-opacity:0;fill-rule:evenodd;stroke:#05c6c3;stroke-opacity:1" />
  <path
     inkscape:connector-curvature="0"
     id="BO"
     data-name="Bolivia"
     data-id="BO"
     d="m 136.5,209.09998 1.6,-1.3 -0.8,-3.6 1.3,-2.8 0.5,-5 -1.6,-4 -3.2,-1.7 -0.8,-2.6 0.6,-3.6 -10.7,-0.3 -2.7,-7.4 1.6,-0.1 -0.3,-2.8 -1.2,-1.8 -0.5,-3.7 -3.3,-1.9 -3.5,0.1 -2.5,-1.9 -3.8,-1.2 -2.4,-2.4 -6.300004,-1 -6.4,-5.7 0.3,-4.3 -0.9,-2.5 0.4,-4.7 -7.3,1.1 -2.8,2.3 -4.8,2.6 -1.1,1.9 -2.9,0.2 -4.2,-0.6 5.5,10.3 -1.1,2.1 0.1,4.5 0.3,5.4 -1.9,3.2 1.2,2.4 -1.1,2.1 2.8,5.3 -2.8,6.9 3.1,4.3 1.2,4.6 3.2,2.7 -1.1,6.2 3.7,7.1 3.1,8.8 3.8,-0.9 4,-5.7 7.400004,1.5 3.7,4.6 1.6,-5.1 6.3,0.3 1,1.3 1.5,-7.6 -0.2,-3.4 2.1,-5.6 9.5,-1.9 5.1,0.1 5.4,3.3 z"
     style="fill:#000000;fill-opacity:0;fill-rule:evenodd;stroke:#05c6c3;stroke-opacity:1" />
  <path
     inkscape:connector-curvature="0"
     id="BR"
     data-name="Brazil"
     data-id="BR"
     d="m 139.8,68.699979 -1.4,0.2 -3.1,-0.5 -1.8,1.7 -2.6,1.100002 -1.7,0.2 -0.7,1.3 -2.7,-0.3 -3.5,-3.000002 -0.3,-2.9 -1.4,-3.3 1,-5.4 1.6,-2.2 -1.2,-3 -1.9,-0.9 0.8,-2.8 -1.3,-1.5 -2.9,0.3 0.7,1.8 -2.1,2.4 -6.4,2.4 -4,1 -1.7,1.5 -4.400004,-1.6 -4.2,-0.8 -1,0.6 2.4,1.6 -0.3,4.3 0.7,4 4.800004,0.5 0.3,1.4 -4.100004,1.8 -0.7,2.700002 -2.3,1 -4.2,1.5 -1.1,1.9 -4.4,0.5 -3,-3.4 -1.1,0.8 -1,-3.800002 -1.6,-2 -1.9,2.2 -10.9,-0.1 v 3.900002 l 3.3,0.7 -0.2,2.4 -1.1,-0.6 -3.2,1 v 4.6 l 2.5,2.4 0.9,3.6 -0.1,2.8 -2.2,17.399999 -5.1,-0.3 -0.7,1 -4.6,1.2 -6.2,4.3 -0.4,3 -1.3,2.2 0.7,3.4 -3.3,1.9 0.1,2.7 -1.5,1.1 2.6,5.8 3.3,3.8 -1,2.8 3.7,0.3 2.3,3.4 4.9,0.2 4.4,-3.8 0.2,9.7 2.6,0.7 3,-1.1 4.2,0.6 2.9,-0.2 1.1,-1.9 4.8,-2.6 2.8,-2.3 7.3,-1.1 -0.4,4.7 0.9,2.5 -0.3,4.3 6.4,5.7 6.300004,1 2.4,2.4 3.8,1.2 2.5,1.9 3.5,-0.1 3.3,1.9 0.5,3.7 1.2,1.8 0.3,2.8 -1.6,0.1 2.7,7.4 10.7,0.3 -0.6,3.6 0.8,2.6 3.2,1.7 1.6,4 -0.5,5 -1.3,2.8 0.8,3.6 -1.6,1.3 1.9,3.6 0.4,8.6 6,1.2 2.1,-1.2 3.9,1.7 1.2,1.9 1,5.8 0.9,2.5 2,0.3 2,-1.1 2.1,1.2 0.3,3.5 -0.3,3.8 -0.7,3.6 2.6,-1.2 3.1,3.7 0.5,5.1 -4.2,3.5 -3.3,2.6 -5.3,6.2 -5.9,8.6 3.4,-0.7 6.2,4.9 1.9,-0.2 6.2,4.1 4.8,3.5 3.8,4.3 -1.9,3 2.1,3.7 2.9,-3.7 1.5,-6 3.2,-3 3.9,-5 4.5,-11.2 3.4,-3.5 0.8,-3.1 0.3,-6.4 -1.3,-3.5 0.3,-4.8 4.1,-6.3 6,-5.1 6,-1.8 3.6,-2.9 8.5,-2.4 h 5.9 l 1.1,-3.8 4.2,-2.8 0.6,-6.5 5.1,-8.3 0.5,-8.5 1.6,-2.6 0.3,-4.1 1.1,-9.9 -1,-11.9 1.4,-4.7 1.4,-0.1 3.9,-5.5 3.3,-7.2 7.7,-8.8 2.7,-4.2 2,-10.5 -1,-3.9 -2,-8.1 -2.1,-2 -4.8,-0.2 -4.3,-1.9 -7.3,-7.1 -8.4,-5.299999 -8.4,0.3 -10.9,-3.4 -6.5,2 0.8,-3.5 -2.7,-3.8 -9.4,-3.8 -7.1,-2.3 -4.2,4.1 -0.3,-6.3 -9.9,-1 -1.7,-2 4.2,-5.2 -0.1,-4.400002 -3,-1 -3,-11.2 -1.3,-3.5 -1.9,0.3 -3.5,5.8 -1.8,4.7 -2.1,2.4 -2.7,0.5 -0.8,-1.8 -1.2,-0.3 -1.8,1.8 -2.4,-1.3 -3.2,-1.4 -2.7,0.7 -2.3,-0.6 -0.5,1.8 0.9,1.3 -0.5,1.3 z"
     style="fill:#000000;fill-opacity:0;fill-rule:evenodd;stroke:#05c6c3;stroke-opacity:1" />
  <path
     inkscape:connector-curvature="0"
     id="CL"
     data-name="Chile"
     data-id="CL"
     d="m 129.2,413.79998 -3.7,-0.7 -3.3,2.5 0.2,4.1 -1.2,2.8 -7.2,-2.2 -8.6,-4 -4.5,-1.3 9.7,6.8 6.3,3.2 7.5,3.4 5.3,0.9 4.3,1.8 3,0.5 2.3,0.1 3.2,-1.8 0.5,-2.4 -2.9,-0.2 h -5 z m -47.300004,-196.3 -3.7,-7.1 1.1,-6.2 -3.2,-2.7 -1.2,-4.6 -3.1,-4.3 -1.2,3.3 -2.7,1.6 2.1,9 1.5,10.4 -0.1,14.2 v 13.2 l 0.9,12.3 -1.9,7.8 2.1,7.8 -0.5,5.3 3.2,9.5 -0.1,9.5 -1.2,10.2 -0.6,10.5 -2.1,0.2 2.4,7.3 3.3,6.3 -1.1,4.3 1.9,11.6 1.5,8.8 3.5,0.9 -1.1,-7.7 4,1.6 1.8,12.7 -6.4,-2.1 2,10.2 -2.7,5.5 8.2,1.8 -3.4,4.8 0.2,6 5,10.6 4.2,4.1 0.2,3.6 3.3,3.8 7.500004,3.5 v 0 l 7.4,4.2 6.2,2 2,-0.1 -1.8,-5.7 3.4,-2.2 1.7,-1.5 h 4.2 l -4.8,-0.9 -12,-0.8 -3.5,-3.6 -1.8,-4.6 -3.1,0.4 -2.6,-2.2 -3.100004,-6.6 2.700004,-2.7 0.1,-3.9 -1.800004,-3.2 0.7,-5.3 -1.1,-8.2 -1.8,-3.7 1.8,-1.1 -1.3,-2.3 -2.8,-1.3 0.8,-2.6 -3.1,-2.3 -3.6,-7.1 1.6,-1.2 -3.3,-7.6 -0.7,-6.4 -0.3,-5.7 2.5,-2.4 -3.3,-6.3 -1.5,-5.9 2.9,-4.3 -1.4,-5.4 1.6,-6.2 -1.3,-5.9 -1.6,-1.2 -4.9,-10.9 2.1,-6.5 -1.7,-6.2 0.9,-5.8 2.6,-5.9 3.2,-4 -2,-2.5 0.9,-2 -1.6,-10.6 5.6,-3.2 1.1,-6.6 -0.9,-1.6 -3.8,0.9 z"
     style="fill:#000000;fill-opacity:0;fill-rule:evenodd;stroke:#05c6c3;stroke-opacity:1" />
  <path
     inkscape:connector-curvature="0"
     id="CO"
     data-name="Colombia"
     data-id="CO"
     d="m 59.099996,5.7999793 1.2,-2.1 -1.3,-1.7 -2,-0.4 -2.9,3.1 -2.3,1.4 -4.6,3.2 -4.3,-0.5 -0.5,1.2999997 -3.6,0.1 -3.3,3 -1.4,5.4 -0.1,2.1 -2.4,0.7 -4.4,4.4 -2.9,-0.2 -0.7,0.9 1.1,3.8 -1.1,1.9 -1.8,-0.5 -0.9,3.1 2.2,3.4 0.6,5.4 -1.2,1.6 1.1,5.9 -1.2,3.7 2,1.5 -2.2,3.3 -2.5,4 -2.8,0.4 -1.4,2.3 0.2,3.2 -2.1,0.5 0.8,2.000002 5.6,3.6 1,-0.1 1.4,2.7 4.7,0.9 1.6,-1 2.8,2.1 2.4,1.5 1.5,-0.6 3.7,3 1.8,3 2.7,1.7 3.4,6.7 4.2,0.8 3,-1.7 2.1,1.1 3.3,-0.6 4.4,3 -3.5,6.499999 1.7,0.1 2.9,3.4 2.2,-17.399999 0.1,-2.8 -0.9,-3.6 -2.5,-2.4 v -4.6 l 3.2,-1 1.1,0.6 0.2,-2.4 -3.3,-0.7 v -3.900002 l 10.9,0.1 1.9,-2.2 1.6,2 1,3.800002 1.1,-0.8 -1.7,-6.400002 -1.4,-2.2 -2,-1.4 2.9,-3.1 -0.2,-1.5 -1.5,-1.9 -1,-4.2 0.5,-4.6 1.3,-2.1 1.2,-3.4 -2,-1.1 -3.2,0.7 -4,-0.3 -2.3,0.7 -3.8,-5.5 -3.2,-0.8 -7.2,0.6 -1.3,-2.2 -1.3,-0.6 -0.2,-1.3 0.8,-2.4 -0.4,-2.5 -1.1,-1.4 -0.6,-2.9 -2.9,-0.5 1.8,-3.7 0.9,-4.5 1.8,-2.4 2.2,-1.8 1.6,-3.1999997 z"
     style="fill:#000000;fill-opacity:0;fill-rule:evenodd;stroke:#05c6c3;stroke-opacity:1" />
  <path
     inkscape:connector-curvature="0"
     id="EC"
     data-name="Ecuador"
     data-id="EC"
     d="m 33.899996,81.699981 -2.4,-1.5 -2.8,-2.1 -1.6,1 -4.7,-0.9 -1.4,-2.7 -1,0.1 -5.6,-3.6 -3.9,2.5 -3.1000002,1.4 0.4,2.6 -2.2,4.1 -1,3.9 -1.9,1 1,5.8 -1.1,1.8 3.4,2.7 2.1,-2.9 1.3,2.8 -2.9,4.699999 0.7,2.7 -1.5,1.5 0.2,2.3 2.3,-0.5 2.3000002,0.7 2.5,3.2 3.1,-2.6 0.9,-4.3 3.3,-5.499999 6.7,-2.5 6,-6.7 1.7,-4.1 z"
     style="fill:#000000;fill-opacity:0;fill-rule:evenodd;stroke:#05c6c3;stroke-opacity:1" />
  <path
     inkscape:connector-curvature="0"
     id="GY"
     data-name="Guyana"
     data-id="GY"
     d="m 136.9,42.799979 -2.1,-2.3 -2.9,-3.1 -2.1,-0.1 -0.1,-3.3 -3.3,-4.1 -3.6,-2.4 -4.6,3.8 -0.6,2.3 1.9,2.3 -1.5,1.2 -3.4,1.1 v 2.9 l -1.6,1.8 3.7,4.8 2.9,-0.3 1.3,1.5 -0.8,2.8 1.9,0.9 1.2,3 -1.6,2.2 -1,5.4 1.4,3.3 0.3,2.9 3.5,3.000002 2.7,0.3 0.7,-1.3 1.7,-0.2 2.6,-1.100002 1.8,-1.7 3.1,0.5 1.4,-0.2 -3.3,-5.6 -0.7,-3.5 -1.8,-0.1 -2.4,-4.6 1.1,-3.3 -0.3,-1.5 3.5,-1.6 z"
     style="fill:#000000;fill-opacity:0;fill-rule:evenodd;stroke:#05c6c3;stroke-opacity:1" />
  <path
     inkscape:connector-curvature="0"
     id="PE"
     data-name="Peru"
     data-id="PE"
     d="m 65.099996,108.09998 -2.9,-3.4 -1.7,-0.1 3.5,-6.499999 -4.4,-3 -3.3,0.6 -2.1,-1.1 -3,1.7 -4.2,-0.8 -3.4,-6.7 -2.7,-1.7 -1.8,-3 -3.7,-3 -1.5,0.6 0.8,4.9 -1.7,4.1 -6,6.7 -6.7,2.5 -3.3,5.499999 -0.9,4.3 -3.1,2.6 -2.5,-3.2 -2.3000002,-0.7 -2.3,0.5 -0.2,-2.3 1.5,-1.5 -0.7,-2.7 -4.4,4 -1.59999998,4.5 2.99999998,6.1 -1.7,2.8 4.1,2.6 4.5000002,4.1 2,4.7 2.4,2.9 6,12.7 6.2,11.7 5.4,8.4 -0.8,1.8 2.8,5.3 4.6,3.9 10.7,6.9 11.6,6.4 0.7,2.6 5.9,3.7 2.7,-1.6 1.2,-3.3 2.8,-6.9 -2.8,-5.3 1.1,-2.1 -1.2,-2.4 1.9,-3.2 -0.3,-5.4 -0.1,-4.5 1.1,-2.1 -5.5,-10.3 -3,1.1 -2.6,-0.7 -0.2,-9.7 -4.4,3.8 -4.9,-0.2 -2.3,-3.4 -3.7,-0.3 1,-2.8 -3.3,-3.8 -2.6,-5.8 1.5,-1.1 -0.1,-2.7 3.3,-1.9 -0.7,-3.4 1.3,-2.2 0.4,-3 6.2,-4.3 4.6,-1.2 0.7,-1 z"
     style="fill:#000000;fill-opacity:0;fill-rule:evenodd;stroke:#05c6c3;stroke-opacity:1" />
  <path
     inkscape:connector-curvature="0"
     id="PY"
     data-name="Paraguay"
     data-id="PY"
     d="m 136.5,209.09998 -0.3,-1.9 -5.4,-3.3 -5.1,-0.1 -9.5,1.9 -2.1,5.6 0.2,3.4 -1.5,7.6 11.2,10.4 4.6,1 7.2,4.7 5.9,2.5 1.1,2.8 -4.2,9.6 5.7,1.8 6.2,1 4.2,-1.1 4.3,-4.8 0.3,-5.7 0.7,-3.6 0.3,-3.8 -0.3,-3.5 -2.1,-1.2 -2,1.1 -2,-0.3 -0.9,-2.5 -1,-5.8 -1.2,-1.9 -3.9,-1.7 -2.1,1.2 -6,-1.2 -0.4,-8.6 z"
     style="fill:#000000;fill-opacity:0;fill-rule:evenodd;stroke:#05c6c3;stroke-opacity:1" />
  <path
     inkscape:connector-curvature="0"
     id="SR"
     data-name="Suriname"
     data-id="SR"
     d="m 148.8,42.399979 -4.6,0.5 -0.6,1.1 -6.7,-1.2 -1,5.7 -3.5,1.6 0.3,1.5 -1.1,3.3 2.4,4.6 1.8,0.1 0.7,3.5 3.3,5.6 3.1,0.5 0.5,-1.3 -0.9,-1.3 0.5,-1.8 2.3,0.6 2.7,-0.7 3.2,1.4 1.4,-2.7 0.6,-2.9 1,-2.8 -2.1,-3.7 -0.4,-4.4 3.1,-5.5 z"
     style="fill:#000000;fill-opacity:0;fill-rule:evenodd;stroke:#05c6c3;stroke-opacity:1" />
  <path
     inkscape:connector-curvature="0"
     id="UY"
     data-name="Uruguay"
     data-id="UY"
     d="m 173.3,295.59998 -2.1,-3.7 1.9,-3 -3.8,-4.3 -4.8,-3.5 -6.2,-4.1 -1.9,0.2 -6.2,-4.9 -3.4,0.7 -0.5,5.1 -0.3,6.5 1.1,6.3 -0.9,1.4 0.4,4.2 3.9,3.5 3.6,-0.2 5.4,2.7 2.7,-0.6 4.2,1.2 5.3,-3.5 z"
     style="fill:#000000;fill-opacity:0;fill-rule:evenodd;stroke:#05c6c3;stroke-opacity:1" />
  <path
     inkscape:connector-curvature="0"
     id="VE"
     data-name="Venezuela"
     data-id="VE"
     d="m 122.8,27.499979 -2.2,-1.5 -2.9,0.2 -0.7,-5.1 -4.1,-3.2 -4.4,-0.4 -1.8,-3 4.8,-1.9 -6.7,0.1 -6.900004,0.4 -0.2,1.6 -3.2,1.9 -4.2,-0.7 -3.1,-2.9 -6,0.7 -5,-0.1 -0.1,-2.1 -3.5,-3.4999997 -3.9,-0.1 -1.7,-4.5 -2.1,2 0.6,3 -7.1,2.5999997 v 4.8 l 1.6,2.2 -1.5,4.6 -2.4,0.4 -1.9,-5 2.7,-3.7 0.3,-3.3 -1.7,-2.8999997 3.3,-0.8 0.3,-1.5 -3.7,1.1 -1.6,3.1999997 -2.2,1.8 -1.8,2.4 -0.9,4.5 -1.8,3.7 2.9,0.5 0.6,2.9 1.1,1.4 0.4,2.5 -0.8,2.4 0.2,1.3 1.3,0.6 1.3,2.2 7.2,-0.6 3.2,0.8 3.8,5.5 2.3,-0.7 4,0.3 3.2,-0.7 2,1.1 -1.2,3.4 -1.3,2.1 -0.5,4.6 1,4.2 1.5,1.9 0.2,1.5 -2.9,3.1 2,1.4 1.4,2.2 1.7,6.400002 3,3.4 4.4,-0.5 1.1,-1.9 4.2,-1.5 2.3,-1 0.7,-2.700002 4.100004,-1.8 -0.3,-1.4 -4.800004,-0.5 -0.7,-4 0.3,-4.3 -2.4,-1.6 1,-0.6 4.2,0.8 4.400004,1.6 1.7,-1.5 4,-1 6.4,-2.4 2.1,-2.4 -0.7,-1.8 -3.7,-4.8 1.6,-1.8 v -2.9 l 3.4,-1.1 1.5,-1.2 -1.9,-2.3 0.6,-2.3 z"
     style="fill:#000000;fill-opacity:0;fill-rule:evenodd;stroke:#05c6c3;stroke-opacity:1" />
  <path
     inkscape:connector-curvature="0"
     id="GF"
     data-name="French Guiana"
     data-id="GF"
     d="m 162.2,64.799979 1.8,-4.7 3.5,-5.8 -0.9,-2.6 -5.8,-5.4 -4.1,-1.5 -1.9,-0.7 -3.1,5.5 0.4,4.4 2.1,3.7 -1,2.7 -0.6,2.9 -1.4,2.8 2.4,1.3 1.8,-1.8 1.2,0.3 0.8,1.8 2.7,-0.5 z"
     style="fill:#000000;fill-opacity:0;fill-rule:evenodd;stroke:#05c6c3;stroke-opacity:1" />
  <path
     inkscape:connector-curvature="0"
     id="AW"
     data-name="Aruba"
     data-id="AW"
     d="m 67.399996,1.4999793 -0.1,-0.1 -0.3,-0.60000001 -0.3,-0.3 -0.1,0.1 -0.1,0.3 0.3,0.30000001 0.3,0.4 0.3,0.1 z"
     style="fill:#000000;fill-opacity:0;fill-rule:evenodd;stroke:#05c6c3;stroke-opacity:1" />
  <path
     inkscape:connector-curvature="0"
     id="FK"
     data-name="Falkland Is."
     data-id="FK"
     d="m 171.1,411.29998 -0.1,-0.3 -0.4,-0.2 -0.2,-0.1 0.1,0.2 0.1,0.3 0.1,0.2 0.2,0.1 z m 5.5,-1.3 -0.1,-0.1 h -0.2 l -0.1,0.2 0.2,0.3 0.4,0.1 z m -12.9,-1.4 -0.1,0.2 -0.4,0.1 0.2,0.3 0.6,0.4 h 0.4 l 0.1,-0.3 -0.1,-0.6 h -0.3 z m 2.8,-2 -0.9,-0.3 -0.4,-0.3 h -0.3 l 0.4,0.4 0.1,0.2 0.1,0.2 0.6,0.3 0.6,0.3 0.4,0.3 -0.1,0.1 -0.8,0.3 h -0.3 l -0.2,0.1 0.4,0.2 0.6,-0.1 0.2,-0.1 h 0.2 l 0.3,0.1 v 0.2 l -0.1,0.2 -0.2,0.2 -0.4,0.3 -0.6,0.4 h -0.8 l -0.7,0.7 0.9,0.5 0.7,0.3 h 0.9 v -0.1 l 0.2,-0.1 h 0.3 l 0.1,-0.1 0.2,-0.4 v -0.6 h 0.2 l 0.3,0.1 0.7,-0.1 0.3,-0.1 0.6,-0.9 0.4,-0.8 0.2,-0.4 0.3,-0.2 0.1,-0.2 0.1,-0.3 0.3,-0.2 v -0.3 l -0.4,-0.2 -0.3,-0.2 -0.3,0.3 -0.2,-0.1 -0.9,0.3 h -0.4 l -0.3,-0.2 -0.4,-0.1 -0.4,0.1 -0.5,0.5 z m 0.7,-0.4 0.1,-0.3 -0.1,-0.2 -0.5,-0.2 h -0.5 l 0.2,0.5 0.2,0.2 z m 5.9,-0.7 h -0.4 l 0.4,0.5 -0.8,0.8 0.2,0.6 0.3,0.4 0.1,0.2 -0.1,0.1 -0.4,0.1 -0.3,0.1 -0.2,0.3 -0.9,0.9 0.2,0.2 -0.3,0.7 0.2,0.3 0.8,0.7 0.8,0.4 v -0.7 l 0.4,-0.1 0.4,0.2 0.4,-0.2 -0.9,-1 h 0.3 l 2.5,0.5 -0.1,-0.4 -0.1,-0.2 -0.3,-0.4 1.5,-0.4 0.5,-0.3 0.2,-0.3 0.6,-0.1 0.8,-0.3 -0.1,-0.1 0.1,-0.3 -0.4,-0.2 -0.5,-0.1 0.1,-0.3 0.5,-0.1 -0.8,-0.7 -0.3,-0.1 -1,0.1 -0.3,0.1 v 0.2 l 0.1,0.3 0.3,0.3 0.1,0.2 -0.2,-0.1 -1.1,-0.4 -0.2,-0.1 -0.2,-0.4 0.2,-0.1 0.3,0.1 0.1,-0.3 -0.4,-0.3 -0.4,-0.1 -0.9,0.1 z"
     style="fill:#000000;fill-opacity:0;fill-rule:evenodd;stroke:#05c6c3;stroke-opacity:1" />
  <path
     inkscape:connector-curvature="0"
     id="PN"
     data-name="Pitcairn Is."
     data-id="PN"
     d="m -245,235.99998 v -0.2 l -0.1,-0.2 -0.2,-0.1 -0.1,0.1 0.1,0.2 0.2,0.2 0.1,0.1 z"
     style="fill:#05c6c3;fill-opacity:1;fill-rule:evenodd;stroke:#ffffff;stroke-opacity:1" />
  <path
     inkscape:connector-curvature="0"
     id="TT"
     data-name="Trinidad and Tobago"
     data-id="TT"
     d="m 116.2,16.299979 0.1,-0.2 v -0.6 l 0.2,-0.4 -0.2,-0.4 -0.1,-0.6 0.1,-0.5 v -0.7 l 0.2,-0.3 0.5,-0.8 h -0.9 l -0.6,0.2 -1.1,0.1 -0.5,0.2 -0.7,0.1 -0.4,0.2 0.1,0.1 0.5,0.2 0.2,0.2 0.1,0.2 0.1,0.4 -0.3,1.7 -0.1,0.1 -0.6,0.1 -0.2,0.3 -1.4,0.8 0.8,-0.1 0.9,0.1 2.4,-0.1 z m 1.8,-6.6999997 1.2,-0.5 0.1,-0.4 h -0.2 l -0.8,0.3 -0.6,0.5 v 0.2 z"
     style="fill:#000000;fill-opacity:0;fill-rule:evenodd;stroke:#05c6c3;stroke-opacity:1" />
</svg>
