<?xml version="1.0" encoding="UTF-8" standalone="no"?>
<!--
*************Map created by Simplemaps.com********************		
*************Attribution is highly appreciated!***************
*************http://simplemaps.com****************************

The MIT License (MIT)

Copyright (c) 2015 Pareto Softare, LLC DBA Simplemaps.com

Permission is hereby granted, free of charge, to any person obtaining a copy
of this software and associated documentation files (the "Software"), to deal
in the Software without restriction, including without limitation the rights
to use, copy, modify, merge, publish, distribute, sublicense, and/or sell
copies of the Software, and to permit persons to whom the Software is
furnished to do so, subject to the following conditions:

The above copyright notice and this permission notice shall be included in
all copies or substantial portions of the Software.

THE SOFTWARE IS PROVIDED "AS IS", WITHOUT WARRANTY OF ANY KIND, EXPRESS OR
IMPLIED, INCLUDING BUT NOT LIMITED TO THE WARRANTIES OF MERCHANTABILITY,
FITNESS FOR A PARTICULAR PURPOSE AND NONINFRINGEMENT. IN NO EVENT SHALL THE
AUTHORS OR COPYRIGHT HOLDERS BE LIABLE FOR ANY CLAIM, DAMAGES OR OTHER
LIABILITY, WHETHER IN AN ACTION OF CONTRACT, TORT OR OTHERWISE, ARISING FROM,
OUT OF OR IN CONNECTION WITH THE SOFTWARE OR THE USE OR OTHER DEALINGS IN
THE SOFTWARE.

-->

<svg
   xmlns:dc="http://purl.org/dc/elements/1.1/"
   xmlns:cc="http://creativecommons.org/ns#"
   xmlns:rdf="http://www.w3.org/1999/02/22-rdf-syntax-ns#"
   xmlns:svg="http://www.w3.org/2000/svg"
   xmlns="http://www.w3.org/2000/svg"
   xmlns:sodipodi="http://sodipodi.sourceforge.net/DTD/sodipodi-0.dtd"
   xmlns:inkscape="http://www.inkscape.org/namespaces/inkscape"
   enable_background="new 0 0 2000 1001"
   height="460.39999"
   pretty_print="False"
   style="fill:none;stroke:#000000;stroke-linejoin:round"
   version="1.1"
   viewBox="0 0 385.19998 460.39999"
   width="385.19998"
   id="svg2"
   inkscape:version="0.92.4 (5da689c313, 2019-01-14)"
   sodipodi:docname="sud.svg"
   inkscape:export-filename="C:\Users\Michael\Desktop\world.png"
   inkscape:export-xdpi="96"
   inkscape:export-ydpi="96">
  <sodipodi:namedview
     pagecolor="#ffffff"
     bordercolor="#666666"
     borderopacity="1"
     objecttolerance="10"
     gridtolerance="10"
     guidetolerance="10"
     inkscape:pageopacity="0"
     inkscape:pageshadow="2"
     inkscape:window-width="1920"
     inkscape:window-height="1001"
     id="namedview231"
     showgrid="false"
     inkscape:zoom="2.288"
     inkscape:cx="306.97948"
     inkscape:cy="144.59595"
     inkscape:window-x="-9"
     inkscape:window-y="-9"
     inkscape:window-maximized="1"
     inkscape:current-layer="svg2"
     fit-margin-top="0"
     fit-margin-left="0"
     fit-margin-right="0"
     fit-margin-bottom="0" />
  <defs
     id="defs4">
    <style
       type="text/css"
       id="style6">path { fill-rule: evenodd; }</style>
  </defs>
  <metadata
     id="metadata8">
    <views
       id="views10">
      <view
         h="1001"
         padding="0"
         w="2000"
         id="view12">
        <proj
           flip="auto"
           id="robinson"
           lon0="100.0" />
        <bbox
           h="2233.1"
           w="5271.17"
           x="-2635.59"
           y="-1308.06"
           id="bbox15" />
      </view>
    </views>
    <rdf:RDF>
      <cc:Work
         rdf:about="">
        <dc:format>image/svg+xml</dc:format>
        <dc:type
           rdf:resource="http://purl.org/dc/dcmitype/StillImage" />
        <dc:title />
      </cc:Work>
    </rdf:RDF>
  </metadata>
  <path
     inkscape:connector-curvature="0"
     id="AO"
     data-name="Angola"
     data-id="AO"
     d="m 190.69997,275.8 -16.6,-0.1 -1.9,0.7 -1.7,-0.1 -2.3,0.9 -0.5,1.2 2.8,4 1.1,4.3 1.6,6.1 -1.7,2.6 -0.3,1.3 1.3,3.8 1.5,3.9 1.6,2.2 0.3,3.6 -0.7,4.8 -1.8,2.8 -3.3,4.2 -1.3,2.6 -1.9,5.7 -0.3,2.7 -2,5.9 -0.9,5.5 0.5,4 2.7,-1.2 3.3,-1 3.6,0.1 3.2,2.9 0.9,-0.4 22.5,-0.3 3.7,3 13.4,0.9 10.3,-2.5 -3.5,-4 -3.6,-5.2 0.8,-20.3 11.6,0.1 -0.5,-2.2 0.9,-2.4 -0.9,-3 0.7,-3 -0.5,-2 -2.6,-0.4 -3.5,1 -2.4,-0.2 -1.4,0.6 0.5,-7.6 -1.9,-2.3 -0.3,-4 0.9,-3.8 -1.2,-2.4 v -4 h -6.8 l 0.5,-2.3 h -2.9 l -0.3,1.1 -3.4,0.3 -1.5,3.7 -0.9,1.6 -3,-0.9 -1.9,0.9 -3.7,0.5 -2.1,-3.3 -1.3,-2.1 -1.6,-3.8 z m -21.8,-1.3 0.2,-2.7 0.9,-1.7 2,-1.3 -2,-2.2 -1.8,1.1 -2.2,2.7 1.4,4.8 z"
     style="fill:#00c5c2;fill-opacity:1;fill-rule:evenodd;stroke:#ffffff;stroke-opacity:1" />
  <path
     inkscape:connector-curvature="0"
     id="BI"
     data-name="Burundi"
     data-id="BI"
     d="m 270.59997,256.2 -0.3,-2.5 v 0 l -3,-0.4 -1.7,3.6 -3.5,-0.5 1.4,2.9 0.1,1.1 2,6.1 -0.1,0.3 0.6,-0.1 2.1,-2.3 2.2,-3.3 1.4,-1.4 v -2 z"
     style="fill:#ffffff;fill-opacity:1;fill-rule:evenodd;stroke:#00c5c2;stroke-opacity:1" />
  <path
     inkscape:connector-curvature="0"
     id="BJ"
     data-name="Benin"
     data-id="BJ"
     d="m 119.29997,164.2 -4.3,-3.7 h -2 l -1.9,1.9 -1.2,1.9 -2.7,0.6 -1.2,2.8 -1.9,0.7 -0.7,3.3 1.7,1.9 2,2.3 0.2,3.1 1.1,1.3 -0.2,14.6 1.4,4.4 4.6,-0.8 0.3,-10.2 -0.1,-4.1 1,-4 1.7,-1.9 2.7,-4 -0.6,-1.7 1.1,-2.5 -1.2,-3.8 z"
     style="fill:#ffffff;fill-opacity:1;fill-rule:evenodd;stroke:#00c5c2;stroke-opacity:1" />
  <path
     inkscape:connector-curvature="0"
     id="BF"
     data-name="Burkina Faso"
     data-id="BF"
     d="m 101.19997,143.4 h -3.600001 l -1.4,-1.2 -3,0.9 -5.2,2.6 -1.1,2 -4.3,2.9 -0.8,1.6 -2.3,1.3 -2.7,-0.9 -1.6,1.6 -0.8,4.4 -4.5,5.2 0.2,2.2 -1.6,2.7 0.4,3.7 2.5,1.4 1,2.1 2.5,1.3 1.9,-1.6 2.7,-0.2 3.8,1.6 -0.8,-4.8 0.2,-3.6 9.7,-0.3 2.4,0.5 1.8,-1 2.6,0.5 4.900001,0.1 1.9,-0.7 1.2,-2.8 2.7,-0.6 1.2,-1.9 0.1,-4.4 -6.4,-1.4 -0.2,-3.1 -3.1,-4.1 -0.8,-2.9 z"
     style="fill:#ffffff;fill-opacity:1;fill-rule:evenodd;stroke:#00c5c2;stroke-opacity:1" />
  <path
     inkscape:connector-curvature="0"
     id="BW"
     data-name="Botswana"
     data-id="BW"
     d="m 239.09997,351.2 -1,-0.5 -3.2,1.5 h -1.6 l -3.7,2.5 -2,-2.6 -8.6,2.2 -4.1,0.2 -0.9,22.7 -5.4,0.2 -0.6,18.5 1.4,1 3,6.1 -0.7,3.8 1.1,2.3 4,-0.7 2.8,-2.8 2.7,-1.9 1.5,-3.1 2.7,-1.5 2.3,0.8 2.5,1.8 4.4,0.3 3.6,-1.5 0.6,-2 1.2,-3 3,-0.5 1.7,-2.4 2,-4.3 5.2,-4.7 8,-4.7 -3.4,-2.9 -4.2,-0.9 -1.5,-4.1 0.1,-2.2 -2.3,-0.7 -6,-7 -1.6,-3.7 -1.1,-1.1 z"
     style="fill:#00c5c2;fill-opacity:1;fill-rule:evenodd;stroke:#ffffff;stroke-opacity:1" />
  <path
     inkscape:connector-curvature="0"
     id="CF"
     data-name="Central African Rep."
     data-id="CF"
     d="m 232.89997,183.5 -0.5,-0.3 -2,-1.8 -0.3,-2 0.8,-2.6 v -2.6 l -3.3,-4 -0.7,-2.7 -3.5,1.1 -2.8,2.5 -4,7 -5.2,2.9 -5.4,-0.4 -1.6,0.6 0.6,2.3 -2.9,2.2 -2.3,2.5 -7.1,2.4 -1.4,-1.4 -0.9,-0.2 -1,1.7 -4.7,0.4 -2.7,6.5 -1.4,1.1 -0.4,5 0.6,2.7 -0.4,1.9 2.6,3.3 0.5,2.3 2.1,3.2 2.6,2.1 0.3,2.9 0.6,1.8 2.9,-5.9 3.3,-3.4 3.8,1.1 3.6,0.4 0.5,-4.5 2.2,-3.2 3,-2 4.6,2.1 3.6,2.4 4.1,0.6 4.2,1.2 1.6,-3.8 0.8,-0.5 2.6,0.6 6.2,-3.1 2.2,1.3 1.8,-0.2 0.9,-1.5 2,-0.6 4.3,0.7 3.6,0.1 1.8,-0.6 -0.9,-2.1 -4.2,-2.5 -1.5,-3.8 -2.4,-2.7 -3.8,-3.4 -0.1,-2 -3.1,-2.6 z"
     style="fill:#ffffff;fill-opacity:1;fill-rule:evenodd;stroke:#00c5c2;stroke-opacity:1" />
  <path
     inkscape:connector-curvature="0"
     id="CI"
     data-name="Côte d'Ivoire"
     data-id="CI"
     d="m 68.899969,172.4 -2.3,0.9 -1.3,0.8 -0.9,-2.7 -1.6,0.7 -1,-0.1 -1,1.9 -4.3,-0.1 -1.6,-1 -0.7,0.6 -1.1,0.5 -0.5,2.2 1.3,2.6 1.3,5.1 -2,0.8 -0.6,0.9 0.4,1.2 -0.3,2.8 h -0.9 l -0.3,1.8 0.6,3.1 -1.2,2.8 1.6,1.8 1.8,0.4 2.3,2.7 0.2,2.5 -0.5,0.8 -0.5,5.2 1.1,0.2 5.6,-2.4 3.9,-1.8 6.6,-1.1 3.6,-0.1 3.9,1.3 2.6,-0.1 0.2,-2.5 -2.4,-5.5 1.5,-7.2 2.3,-5.3 -1.4,-9.1 -3.8,-1.6 -2.7,0.2 -1.9,1.6 -2.5,-1.3 -1,-2.1 z"
     style="fill:#ffffff;fill-opacity:1;fill-rule:evenodd;stroke:#00c5c2;stroke-opacity:1" />
  <path
     inkscape:connector-curvature="0"
     id="CM"
     data-name="Cameroon"
     data-id="CM"
     d="m 182.49997,169.1 0.2,-4.3 -0.5,-4.2 -2.2,-4.1 -1.6,0.4 -0.2,2 2.3,2.6 -0.6,1.1 -0.3,2.1 -4.6,5 -1.5,4 -0.7,3.3 -1.2,1.4 -1.1,4.5 -3,2.6 -0.8,3.2 -1.2,2.6 -0.5,2.6 -3.9,2.2 -3.2,-2.6 -2.1,0.1 -3.3,3.7 -1.6,0.1 -2.7,6.1 -1.4,4.5 v 1.8 l 1.4,0.9 1.1,2.8 2.6,1.1 2.2,4.2 -0.8,5 9.2,0.2 2.6,-0.4 3.4,0.8 3.4,-0.8 0.7,0.3 7.1,0.3 4.5,1.7 4.5,1.5 0.4,-3.5 -0.6,-1.8 -0.3,-2.9 -2.6,-2.1 -2.1,-3.2 -0.5,-2.3 -2.6,-3.3 0.4,-1.9 -0.6,-2.7 0.4,-5 1.4,-1.1 2.7,-6.5 0.9,-1.7 -1.8,-4.4 -0.8,-2.6 -2.5,-1.1 -3.3,-3.7 1.2,-3 2.5,0.6 1.6,-0.4 3.1,0.1 z"
     style="fill:#ffffff;fill-opacity:1;fill-rule:evenodd;stroke:#00c5c2;stroke-opacity:1" />
  <path
     inkscape:connector-curvature="0"
     id="CD"
     data-name="Dem. Rep. Congo"
     data-id="CD"
     d="m 247.29997,205.6 -4.3,-0.7 -2,0.6 -0.9,1.5 -1.8,0.2 -2.2,-1.3 -6.2,3.1 -2.6,-0.6 -0.8,0.5 -1.6,3.8 -4.2,-1.2 -4.1,-0.6 -3.6,-2.4 -4.6,-2.1 -3,2 -2.2,3.2 -0.5,4.5 -0.3,3.8 -1.6,3.4 -1.1,4 -0.7,5.6 0.3,3.6 -0.9,2.2 -0.2,2.4 -0.6,2 -3.7,3.1 -2.6,3.2 -2.5,6.2 0.2,5.3 -1.4,2 -3.3,3.1 -3.4,4 -2,-1.1 -0.4,-1.8 -3.1,-0.1 -1.9,2.4 -1.5,-0.6 -2,1.3 -0.9,1.7 -0.2,2.7 -1.5,0.7 0.8,2 2.3,-0.9 1.7,0.1 1.9,-0.7 16.6,0.1 1.3,4.7 1.6,3.8 1.3,2.1 2.1,3.3 3.7,-0.5 1.9,-0.9 3,0.9 0.9,-1.6 1.5,-3.7 3.4,-0.3 0.3,-1.1 h 2.9 l -0.5,2.3 h 6.8 v 4 l 1.2,2.4 -0.9,3.8 0.3,4 1.9,2.3 -0.5,7.6 1.4,-0.6 2.4,0.2 3.5,-1 2.6,0.4 1.9,0.1 0.3,2 2.6,-0.1 3.5,0.6 1.8,2.8 4.5,0.9 3.4,-2 1.2,3.4 4.3,0.8 2,2.8 2.1,3.5 h 4.3 l -0.3,-6.9 -1.5,1.2 -3.9,-2.5 -1.4,-1.1 0.8,-6.4 1.2,-7.5 -1.2,-2.8 1.6,-4.1 1.6,-0.7 7.5,-1.1 1,0.3 0.2,-1.1 -1.5,-1.7 -0.7,-3.5 -3.4,-3.5 -1.8,-4.5 1,-2.7 -1.5,-3.6 1.1,-10.2 0.1,0.1 -0.1,-1.1 -1.4,-2.9 0.6,-3.5 0.8,-0.4 0.2,-3.8 1.6,-1.8 0.1,-4.8 1.3,-2.4 0.3,-5.1 1.2,-3 2.1,-3.3 2.2,-1.7 1.8,-2.3 -2.3,-0.8 0.3,-7.5 v 0 l -5,-4.2 -1.4,-2.7 -3.1,1.3 -2.6,-0.4 -1.5,1.1 -2.5,-0.8 -3.5,-5.2 -1.8,0.6 z"
     style="fill:#ffffff;fill-opacity:1;fill-rule:evenodd;stroke:#00c5c2;stroke-opacity:1" />
  <path
     inkscape:connector-curvature="0"
     id="CG"
     data-name="Congo"
     data-id="CG"
     d="m 202.69997,216.1 -3.6,-0.4 -3.8,-1.1 -3.3,3.4 -2.9,5.9 -0.4,3.5 -4.5,-1.5 -4.5,-1.7 -7.1,-0.3 -0.4,2.8 1.5,3.3 4.2,-0.5 1.4,1.2 -2.4,7.4 2.7,3.8 0.6,4.9 -0.8,4.3 -1.7,3 -4.9,-0.3 -3,-3 -0.5,2.8 -3.8,0.8 -1.9,1.6 2.1,4.2 -4.3,3.5 4.6,6.7 2.2,-2.7 1.8,-1.1 2,2.2 1.5,0.6 1.9,-2.4 3.1,0.1 0.4,1.8 2,1.1 3.4,-4 3.3,-3.1 1.4,-2 -0.2,-5.3 2.5,-6.2 2.6,-3.2 3.7,-3.1 0.6,-2 0.2,-2.4 0.9,-2.2 -0.3,-3.6 0.7,-5.6 1.1,-4 1.6,-3.4 z"
     style="fill:#ffffff;fill-opacity:1;fill-rule:evenodd;stroke:#00c5c2;stroke-opacity:1" />
  <path
     inkscape:connector-curvature="0"
     id="DJ"
     data-name="Djibouti"
     data-id="DJ"
     d="m 340.19997,165.4 -2.5,-1.7 3.1,-1.5 0.1,-2.7 -1.4,-1.9 -1.6,1.5 -2.4,-0.5 -1.9,2.8 -1.8,3 0.5,1.7 0.2,2 3.1,0.1 1.3,-0.5 1.3,1.1 z"
     style="fill:#ffffff;fill-opacity:1;fill-rule:evenodd;stroke:#00c5c2;stroke-opacity:1" />
  <path
     inkscape:connector-curvature="0"
     id="DZ"
     data-name="Algeria"
     data-id="DZ"
     d="m 143.39997,3.0999979 -3.6,0.4 -2.2,-1.5 h -5.6 l -4.9,2.6 -2.7,-1 -8.7,0.5 -8.9,1.2 -5,2 -3.400001,2.6 -5.7,1.2000001 -5.1,3.5 2,4.1 0.3,3.9 1.8,6.7 1.4,1.4 -1,2.5 -7,1 -2.5,2.4 -3.1,0.5 -0.3,4.7 -6.3,2.5 -2.1,3.2 -4.4,1.7 -5.4,1 -8.9,4.7 -0.1,7.5 v 0.4 l -0.1,1.2 20.3,15.5 18.4,13.9 18.600001,13.800002 1.3,3 3.4,1.8 2.6,1.1 0.1,4 6.1,-0.6 7.8,-2.8 15.8,-12.5 18.6,-12.200002 -2.5,-4 -4.3,-2.9 -2.6,1.2 -2,-3.6 -0.2,-2.7 -3.4,-4.7 2.1,-2.6 -0.5,-4 0.6,-3.5 -0.5,-2.9 0.9,-5.2 -0.4,-3 -1.9,-5.6 -2.6,-11.3 -3.4,-2.6 v -1.5 l -4.5,-3.8 -0.6,-4.8 3.2,-3.6 1.1,-5.3 -1,-6.2000001 z"
     style="fill:#ffffff;fill-opacity:1;fill-rule:evenodd;stroke:#00c5c2;stroke-opacity:1" />
  <path
     inkscape:connector-curvature="0"
     id="EG"
     data-name="Egypt"
     data-id="EG"
     d="m 252.09997,40.999998 -5.5,-1.9 -5.3,-1.7 -7.1,0.2 -1.8,3 1.1,2.7 -1.2,3.9 2,5.1 1.3,22.7 1,23.4 h 22.1 21.4 21.8 l -1,-1.3 -6.8,-5.7 -0.4,-4.2 1,-1.1 -5.3,-7 -2,-3.6 -2.3,-3.5 -4.8,-9.9 -3.9,-6.4 -2.8,-6.7 0.5,-0.6 4.6,9.1 2.7,2.9 2,2 1.2,-1.1 1.2,-3.3 0.7,-4.8 1.3,-2.5 -0.7,-1.7 -3.9,-9.2 v 0 l -2.5,1.6 -4.2,-0.4 -4.4,-1.5 -1.1,2.1 -1.7,-3.2 -3.9,-0.8 -4.7,0.6 -2.1,1.8 -3.9,2 z"
     style="fill:#ffffff;fill-opacity:1;fill-rule:evenodd;stroke:#00c5c2;stroke-opacity:1" />
  <path
     inkscape:connector-curvature="0"
     id="ER"
     data-name="Eritrea"
     data-id="ER"
     d="m 320.49997,140.2 -3.2,-3.1 -1.8,-5.9 -3.7,-7.3 -2.6,3.6 -4,1 -1.6,2 -0.4,4.2 -1.9,9.4 0.7,2.5 6.5,1.3 1.5,-4.7 3.5,2.9 3.2,-1.5 1.4,1.3 3.9,0.1 4.9,2.5 1.6,2.2 2.5,2.1 2.5,3.7 2,2.1 2.4,0.5 1.6,-1.5 -2.8,-1.9 -1.9,-2.2 -3.2,-3.7 -3.2,-3.6 z"
     style="fill:#ffffff;fill-opacity:1;fill-rule:evenodd;stroke:#00c5c2;stroke-opacity:1" />
  <path
     inkscape:connector-curvature="0"
     id="ET"
     data-name="Ethiopia"
     data-id="ET"
     d="m 309.99997,143.2 -1.5,4.7 -6.5,-1.3 -0.7,5.5 -2.1,6.2 -3.2,3.2 -2.3,4.8 -0.5,2.6 -2.6,1.8 -1.4,6.7 v 0.7 l 0.2,5 -0.8,2 -3,0.1 -1.8,3.6 3.4,0.5 2.9,3.1 1,2.5 2.6,1.5 3.5,6.9 2.9,1.1 v 3.6 l 2,2.1 h 3.9 l 7.2,5.4 h 1.8 l 1.3,-0.1 1.2,0.7 3.8,0.5 1.6,-2.7 5.1,-2.6 2.3,2.1 h 3.8 l 1.5,-2 3.6,-0.1 4.9,-4.5 7.4,-0.3 15.4,-19.1 -4.8,0.1 -18.5,-7.6 -2.2,-2.2 -2.1,-3.1 -2.2,-3.5 1.1,-2.3 -1.3,-1.1 -1.3,0.5 -3.1,-0.1 -0.2,-2 -0.5,-1.7 1.8,-3 1.9,-2.8 -2,-2.1 -2.5,-3.7 -2.5,-2.1 -1.6,-2.2 -4.9,-2.5 -3.9,-0.1 -1.4,-1.3 -3.2,1.5 z"
     style="fill:#ffffff;fill-opacity:1;fill-rule:evenodd;stroke:#00c5c2;stroke-opacity:1" />
  <path
     inkscape:connector-curvature="0"
     id="GA"
     data-name="Gabon"
     data-id="GA"
     d="m 172.59997,223.9 -0.7,-0.3 -3.4,0.8 -3.4,-0.8 -2.6,0.4 v 7.6 h -8.2 l -1.9,0.3 -1.1,4.8 -1.3,4.6 -1.3,2 -0.2,2.1 3.4,6.6 3.7,5.3 5.8,6.4 4.3,-3.5 -2.1,-4.2 1.9,-1.6 3.8,-0.8 0.5,-2.8 3,3 4.9,0.3 1.7,-3 0.8,-4.3 -0.6,-4.9 -2.7,-3.8 2.4,-7.4 -1.4,-1.2 -4.2,0.5 -1.5,-3.3 z"
     style="fill:#ffffff;fill-opacity:1;fill-rule:evenodd;stroke:#00c5c2;stroke-opacity:1" />
  <path
     inkscape:connector-curvature="0"
     id="GH"
     data-name="Ghana"
     data-id="GH"
     d="m 99.199969,168.3 -2.6,-0.5 -1.8,1 -2.4,-0.5 -9.7,0.3 -0.2,3.6 0.8,4.8 1.4,9.1 -2.3,5.3 -1.5,7.2 2.4,5.5 -0.2,2.5 5,1.8 5,-1.9 3.2,-2.1 8.700001,-3.8 -1.2,-2.2 -1.5,-4 -0.4,-3.2 1.2,-5.7 -1.4,-2.3 -0.6,-5.1 0.1,-4.6 -2.400001,-3.3 z"
     style="fill:#ffffff;fill-opacity:1;fill-rule:evenodd;stroke:#00c5c2;stroke-opacity:1" />
  <path
     inkscape:connector-curvature="0"
     id="GN"
     data-name="Guinea"
     data-id="GN"
     d="m 34.799969,159.2 -0.8,0.4 -3,-0.5 -0.4,0.7 -1.3,0.1 -4,-1.5 -2.7,-0.1 -0.1,2.1 -0.6,0.7 0.4,2.1 -0.8,0.9 h -1.3 l -1.4,1 -1.7,-0.1 -2.6,3.1 1.6,1.1 0.8,1.4 0.7,2.8 1.3,1.2 1.5,0.9 2.1,2.5 2.4,3.7 3,-2.8 0.7,-1.7 1,-1.4 1.5,-0.2 1.3,-1.2 h 4.5 l 1.5,2.3 1.2,2.7 -0.2,1.8 0.9,1.7 v 2.3 l 1.5,-0.3 1.2,-0.2 1.5,-0.7 2.3,3.9 -0.4,2.6 1.1,1.3 1.6,0.1 1.1,-2.6 1.6,0.2 h 0.9 l 0.3,-2.8 -0.4,-1.2 0.6,-0.9 2,-0.8 -1.3,-5.1 -1.3,-2.6 0.5,-2.2 1.1,-0.5 -1.7,-1.8 0.3,-1.9 -0.7,-0.7 -1.2,0.6 0.2,-2.1 1.2,-1.6 -2.3,-2.7 -0.6,-1.7 -1.3,-1.4 -1.1,-0.2 -1.3,0.9 -1.8,0.8 -1.6,1.4 -2.4,-0.5 -1.5,-1.6 -0.9,-0.2 -1.5,0.8 h -0.9 z"
     style="fill:#ffffff;fill-opacity:1;fill-rule:evenodd;stroke:#00c5c2;stroke-opacity:1" />
  <path
     inkscape:connector-curvature="0"
     id="GM"
     data-name="Gambia"
     data-id="GM"
     d="m 5.1999691,154.7 4.9999999,0.1 1.4,-0.9 h 1 l 2.1,-1.5 2.4,1.4 2.4,0.1 2.4,-1.5 -1.1,-1.8 -1.8,1.1 -1.8,-0.1 -2.1,-1.5 -1.8,0.1 -1.3,1.5 -6.0999999,0.2 z"
     style="fill:#ffffff;fill-opacity:1;fill-rule:evenodd;stroke:#00c5c2;stroke-opacity:1" />
  <path
     inkscape:connector-curvature="0"
     id="GW"
     data-name="Guinea-Bissau"
     data-id="GW"
     d="m 22.599969,158.3 -10.3,-0.3 -1.5,0.7 -1.7999999,-0.2 -3,1.1 0.3,1.3 1.7,1.4 v 0.9 l 1.2,1.8 2.3999999,0.5 2.9,2.6 2.6,-3.1 1.7,0.1 1.4,-1 h 1.3 l 0.8,-0.9 -0.4,-2.1 0.6,-0.7 z"
     style="fill:#ffffff;fill-opacity:1;fill-rule:evenodd;stroke:#00c5c2;stroke-opacity:1" />
  <path
     inkscape:connector-curvature="0"
     id="GQ"
     data-name="Eq. Guinea"
     data-id="GQ"
     d="m 162.49997,224 -9.2,-0.2 -1.9,7.2 1,0.9 1.9,-0.3 h 8.2 z"
     style="fill:#ffffff;fill-opacity:1;fill-rule:evenodd;stroke:#00c5c2;stroke-opacity:1" />
  <path
     inkscape:connector-curvature="0"
     id="KE"
     data-name="Kenya"
     data-id="KE"
     d="m 334.09997,213.4 h -3.8 l -2.3,-2.1 -5.1,2.6 -1.6,2.7 -3.8,-0.5 -1.2,-0.7 -1.3,0.1 h -1.8 l -7.2,-5.4 h -3.9 l -2,-2.1 v -3.6 l -2.9,-1.1 -3.8,4.2 -3.4,3.8 2.7,4.4 0.7,3.2 2.6,7.3 -2.1,4.7 -2.7,4.2 -1.6,2.6 v 0.3 l 1.4,2.4 -0.4,4.7 20.2,13 0.4,3.7 8,6.3 2.2,-2.1 1.2,-4.2 1.8,-2.6 0.9,-4.5 2.1,-0.4 1.4,-2.7 4,-2.5 -3.3,-5.3 -0.2,-23.2 z"
     style="fill:#ffffff;fill-opacity:1;fill-rule:evenodd;stroke:#00c5c2;stroke-opacity:1" />
  <path
     inkscape:connector-curvature="0"
     id="LR"
     data-name="Liberia"
     data-id="LR"
     d="m 51.799969,189.5 -1.6,-0.2 -1.1,2.6 -1.6,-0.1 -1.1,-1.3 0.4,-2.6 -2.3,-3.9 -1.5,0.7 -1.2,0.2 -2.6,3 -2.6,3.4 -0.3,1.9 -1.3,2 3.7,4.1 4.8,3.5 5.1,4.8 5.7,3.1 1.5,-0.1 0.5,-5.2 0.5,-0.8 -0.2,-2.5 -2.3,-2.7 -1.8,-0.4 -1.6,-1.8 1.2,-2.8 -0.6,-3.1 z"
     style="fill:#ffffff;fill-opacity:1;fill-rule:evenodd;stroke:#00c5c2;stroke-opacity:1" />
  <path
     inkscape:connector-curvature="0"
     id="LY"
     data-name="Libya"
     data-id="LY"
     d="m 234.19997,37.599998 -1.5,-2.1 -5.4,-0.8 -1.8,-1.1 h -2 l -2,-2.8 -7.3,-1.3 -3.6,0.8 -3.7,3 -1.5,3.1 1.5,4.8 -2.4,3 -2.5,1.6 -5.9,-3.1 -7.7,-2.7 -4.9,-1.2 -2.8,-5.7 -7.2,-2.8 -4.5,-1.1 -2.2,0.6 -6.4,-2.2 -0.1,4.9 -2.6,1.8 -1.5,2 -3.7,2.5 0.7,2.6 -0.4,2.7 -2.6,1.4 1.9,5.6 0.4,3 -0.9,5.2 0.5,2.9 -0.6,3.5 0.5,4 -2.1,2.6 3.4,4.7 0.2,2.7 2,3.6 2.6,-1.2 4.3,2.9 2.5,4 8.8,2.8 3.1,3.5 3.9,-2.4 5.4,-3.5 22.3,12.200002 22.4,12.2 v -2.7 h 6.3 l -0.5,-12.700002 -1,-23.4 -1.3,-22.7 -2,-5.1 1.2,-3.9 -1.1,-2.7 z"
     style="fill:#ffffff;fill-opacity:1;fill-rule:evenodd;stroke:#00c5c2;stroke-opacity:1" />
  <path
     inkscape:connector-curvature="0"
     id="LS"
     data-name="Lesotho"
     data-id="LS"
     d="m 250.49997,432.7 1.1,-2 3.1,-1 1.1,-2.1 1.9,-3.1 -1.7,-1.9 -2.3,-2 -2.6,1.3 -3.1,2.5 -3.2,4 3.7,4.9 z"
     style="fill:#ffffff;fill-opacity:1;fill-rule:evenodd;stroke:#00c5c2;stroke-opacity:1" />
  <path
     style="fill:#ffffff;fill-opacity:1;fill-rule:evenodd;stroke:#00c5c2;stroke-opacity:1"
     d="M 67.800781 10.800781 L 66 14.699219 L 62.300781 21.400391 L 58.300781 24 L 52.900391 26.900391 L 49.400391 31.199219 L 48.5 34.599609 L 46.400391 40 L 47.5 47.900391 L 42.800781 53.199219 L 40.099609 54.900391 L 35.699219 59.300781 L 30.599609 60 L 27.800781 62.400391 L 27.699219 62.5 L 24.099609 69 L 20.400391 71.300781 L 18.300781 75.300781 L 18.099609 78.599609 L 16.5 82.400391 L 14.599609 83.400391 L 11.5 87.400391 L 9.5 91.900391 L 9.8007812 94.099609 L 7.9003906 97.400391 L 5.6992188 99.099609 L 5.4003906 102.09961 L 5.0996094 104.80078 L 6.3007812 102.59961 L 27.900391 102.69922 L 27 93.5 L 28.400391 90.199219 L 33.599609 89.699219 L 33.800781 73.400391 L 51.699219 73.699219 L 51.900391 64 L 52 62.800781 L 52 62.400391 L 52.099609 54.900391 L 61 50.199219 L 66.400391 49.199219 L 70.800781 47.5 L 72.900391 44.300781 L 79.199219 41.800781 L 79.5 37.099609 L 82.599609 36.599609 L 85.099609 34.199219 L 92.099609 33.199219 L 93.099609 30.699219 L 91.699219 29.300781 L 89.900391 22.599609 L 89.599609 18.699219 L 87.599609 14.599609 L 85.300781 14.5 L 79.800781 13.099609 L 74.800781 13.5 L 71.699219 10.800781 L 67.800781 10.800781 z "
     id="MA" />
  <path
     inkscape:connector-curvature="0"
     id="MG"
     data-name="Madagascar"
     data-id="MG"
     d="m 378.09997,324.6 -1.1,-4.2 -1.4,-2.7 -1.8,-2.7 -2,2.8 -0.3,3.8 -3.3,4.5 -2.3,-0.8 0.6,2.7 -1.8,3.2 -4.8,3.9 -3.4,3.7 h -2.4 l -2.2,1.2 -3.1,1.3 -2.8,0.2 -1,4.1 -2.2,3.5 0.1,5.9 0.8,4 1.1,3 -0.8,4.1 -2.9,4.8 -0.2,2.1 -2.6,1.1 -1.3,4.6 0.2,4.6 1.6,5 -0.1,5.7 1.2,3.3 4.2,2.3 3,1.7 5,-2.7 4.6,-1.5 3.1,-7.4 2.8,-8.9 4.3,-12 3.3,-8.8 2.7,-7.4 0.8,-5.4 1.6,-1.5 0.7,-2.7 -0.8,-4.7 1.2,-1.9 1.6,3.8 1.1,-1.9 0.8,-3.1 -1.3,-2.9 z"
     style="fill:#00c5c2;fill-opacity:1;fill-rule:evenodd;stroke:#ffffff;stroke-opacity:1" />
  <path
     inkscape:connector-curvature="0"
     id="ML"
     data-name="Mali"
     data-id="ML"
     d="m 122.69997,116.5 -6.1,0.6 -0.1,-4 -2.6,-1.1 -3.4,-1.8 -1.3,-3 -18.600001,-13.800002 -18.4,-13.9 -8.4,0.1 2.4,27.400002 2.4,27.5 1,0.8 -1.3,4.4 -22.3,0.1 -0.9,1.4 -2.1,-0.4 -3.2,1.3 -3.8,-1.8 -1.8,0.2 -1,3.7 -1.9,1.2 0.2,3.9 1.1,3.7 2.1,1.8 0.4,2.4 -0.3,2 0.3,2.3 h 0.9 l 1.5,-0.8 0.9,0.2 1.5,1.6 2.4,0.5 1.6,-1.4 1.8,-0.8 1.3,-0.9 1.1,0.2 1.3,1.4 0.6,1.7 2.3,2.7 -1.2,1.6 -0.2,2.1 1.2,-0.6 0.7,0.7 -0.3,1.9 1.7,1.8 0.7,-0.6 1.6,1 4.3,0.1 1,-1.9 1,0.1 1.6,-0.7 0.9,2.7 1.3,-0.8 2.3,-0.9 -0.4,-3.7 1.6,-2.7 -0.2,-2.2 4.5,-5.2 0.8,-4.4 1.6,-1.6 2.7,0.9 2.3,-1.3 0.8,-1.6 4.3,-2.9 1.1,-2 5.2,-2.6 3,-0.9 1.4,1.2 h 3.600001 l 3.6,-0.3 2,-2.2 7.6,-0.6 4.9,-1 0.5,-3.9 3,-4.3 z"
     style="fill:#ffffff;fill-opacity:1;fill-rule:evenodd;stroke:#00c5c2;stroke-opacity:1" />
  <path
     inkscape:connector-curvature="0"
     id="MZ"
     data-name="Mozambique"
     data-id="MZ"
     d="m 325.39997,306.9 -0.8,-2.9 v 0 0 l -4.6,3.7 -6.2,2.5 -3.3,-0.1 -2.1,1.9 -3.9,0.1 -1.4,0.8 -6.7,-1.8 -2.1,0.3 -1.6,6 0.7,7.3 h 0.3 l 1.9,2 2.2,4.6 0.1,8.2 -2.5,1.3 -1.9,4.5 -3.4,-4 -0.2,-4.5 1.3,-2.9 -0.3,-2.6 -2.1,-1.6 -1.6,0.6 -3,-3 -17.1,5.2 0.3,4.5 0.3,2.4 4.6,-0.1 2.6,1.3 1.1,1.6 2.6,0.5 2.8,2 -0.3,8.1 -1.3,4.4 -0.5,4.7 0.8,1.9 -0.8,3.7 -0.9,0.6 -1.6,4.6 -6.2,7.2 2.2,9 1.1,4.5 -1.4,7.1 0.4,2.3 0.6,2.9 0.3,2.8 h 4.1 l 0.7,-3.3 -1.4,-0.5 -0.3,-2.6 2.6,-2.4 6.8,-3.4 4.6,-2.2 2.5,-2.3 0.9,-2.6 -1.2,-1.1 1.1,-3 0.5,-6.2 -1,0.3 v -1.9 l -0.8,-3.7 -2.4,-4.8 0.7,-4.6 2.3,-1.4 4.1,-4.6 2.2,-1.1 6.7,-6.8 6.4,-3.1 5.2,-2.5 3.7,-3.9 2.4,-4.4 1.9,-4.6 -0.9,-3.1 0.2,-9.9 -0.4,-5.6 z"
     style="fill:#00c5c2;fill-opacity:1;fill-rule:evenodd;stroke:#ffffff;stroke-opacity:1" />
  <path
     inkscape:connector-curvature="0"
     id="MR"
     data-name="Mauritania"
     data-id="MR"
     d="m 72.199969,79.499998 -20.3,-15.5 -0.2,9.7 -17.9,-0.3 -0.2,16.3 -5.2,0.5 -1.4,3.3 0.9,9.200002 -21.5999999,-0.1 -1.2,2.2 2.8,2.7 1.4,3 -0.7,3.2 0.6,3.2 0.5,6.3 -0.8,5.9 -1.7,3.2 0.4,3.4 2,-2 2.6999999,0.5 2.8,-1.4 h 3.1 l 2.6,1.8 3.7,1.7 3.2,4.7 3.6,4.4 1.9,-1.2 1,-3.7 1.8,-0.2 3.8,1.8 3.2,-1.3 2.1,0.4 0.9,-1.4 22.3,-0.1 1.3,-4.4 -1,-0.8 -2.4,-27.5 -2.4,-27.400002 z"
     style="fill:#ffffff;fill-opacity:1;fill-rule:evenodd;stroke:#00c5c2;stroke-opacity:1" />
  <path
     inkscape:connector-curvature="0"
     id="MW"
     data-name="Malawi"
     data-id="MW"
     d="m 291.59997,327.7 0.1,-2.3 -1.2,-1.9 0.1,-2.8 -1.5,-4.7 1.7,-3.5 -0.1,-7.7 -1.9,-4.1 0.2,-0.7 v 0 l -1.1,-1.7 -5.4,-1.2 2.6,2.8 1.2,5.4 -1,1.8 -1.2,5.1 0.9,5.3 -1.8,2.2 -1.9,5.9 2.9,1.7 3,3 1.6,-0.6 2.1,1.6 0.3,2.6 -1.3,2.9 0.2,4.5 3.4,4 1.9,-4.5 2.5,-1.3 -0.1,-8.2 -2.2,-4.6 -1.9,-2 h -0.3 v 0.8 l 1.1,0.3 1,3.4 -0.2,0.8 -1.9,-2.5 -1,1.6 z"
     style="fill:#ffffff;fill-opacity:1;fill-rule:evenodd;stroke:#00c5c2;stroke-opacity:1" />
  <path
     inkscape:connector-curvature="0"
     id="NA"
     data-name="Namibia"
     data-id="NA"
     d="m 227.79997,349.9 -10.3,2.5 -13.4,-0.9 -3.7,-3 -22.5,0.3 -0.9,0.4 -3.2,-2.9 -3.6,-0.1 -3.3,1 -2.7,1.2 0.2,4.9 4.4,6.2 1.1,4 2.8,7.7 2.7,5.2 2.1,2.6 0.6,3.5 v 7.6 l 1.6,9.8 1.2,4.6 1,6.2 1.9,4.7 3.9,4.8 2.7,-3.2 2.1,1.8 0.8,2.7 2.4,0.5 3.3,1.2 2.9,-0.5 5,-3.2 1.1,-23.6 0.6,-18.5 5.4,-0.2 0.9,-22.7 4.1,-0.2 8.6,-2.2 2,2.6 3.7,-2.5 h 1.6 l 3.2,-1.5 v -0.5 l -2.1,-1.4 -3.6,-0.4 z"
     style="fill:#00c5c2;fill-opacity:1;fill-rule:evenodd;stroke:#ffffff;stroke-opacity:1" />
  <path
     inkscape:connector-curvature="0"
     id="NE"
     data-name="Niger"
     data-id="NE"
     d="m 173.69997,91.799998 -8.8,-2.8 -18.6,12.200002 -15.8,12.5 -7.8,2.8 0.1,14.6 -3,4.3 -0.5,3.9 -4.9,1 -7.6,0.6 -2,2.2 -3.6,0.3 -0.5,3.1 0.8,2.9 3.1,4.1 0.2,3.1 6.4,1.4 -0.1,4.4 1.9,-1.9 h 2 l 4.3,3.7 0.3,-5.7 1.6,-2.6 0.8,-3.6 1.4,-1.4 6,-0.8 5.6,2.4 2.1,2.4 2.9,0.1 2.6,-1.5 6.8,3.3 2.8,-0.2 3.3,-2.7 3.3,0.2 1.6,-0.9 3,0.4 4.3,1.8 4.3,-3.5 1.3,0.2 3.9,7 1,-0.2 0.2,-2 1.6,-0.4 0.5,-2.9 -3.6,-0.2 v -4.1 l -2.4,-2.3 2.3,-8.4 6.9,-6 0.2,-8.3 1.8,-12.9 1.1,-2.7 -2.3,-2.2 -0.2,-2.1 -2,-1.6 -1.6,-9.900002 -3.9,2.4 z"
     style="fill:#ffffff;fill-opacity:1;fill-rule:evenodd;stroke:#00c5c2;stroke-opacity:1" />
  <path
     inkscape:connector-curvature="0"
     id="NG"
     data-name="Nigeria"
     data-id="NG"
     d="m 178.19997,158.9 -1,0.2 -3.9,-7 -1.3,-0.2 -4.3,3.5 -4.3,-1.8 -3,-0.4 -1.6,0.9 -3.3,-0.2 -3.3,2.7 -2.8,0.2 -6.8,-3.3 -2.6,1.5 -2.9,-0.1 -2.1,-2.4 -5.6,-2.4 -6,0.8 -1.4,1.4 -0.8,3.6 -1.6,2.6 -0.3,5.7 -0.2,2.1 1.2,3.8 -1.1,2.5 0.6,1.7 -2.7,4 -1.7,1.9 -1,4 0.1,4.1 -0.3,10.2 h 4.9 4.3 l 3.9,4.2 1.9,4.6 3,3.9 4.5,0.2 2.2,-1.4 2.1,0.3 5.8,-2.3 1.4,-4.5 2.7,-6.1 1.6,-0.1 3.3,-3.7 2.1,-0.1 3.2,2.6 3.9,-2.2 0.5,-2.6 1.2,-2.6 0.8,-3.2 3,-2.6 1.1,-4.5 1.2,-1.4 0.7,-3.3 1.5,-4 4.6,-5 0.3,-2.1 0.6,-1.1 z"
     style="fill:#ffffff;fill-opacity:1;fill-rule:evenodd;stroke:#00c5c2;stroke-opacity:1" />
  <path
     inkscape:connector-curvature="0"
     id="RW"
     data-name="Rwanda"
     data-id="RW"
     d="m 269.99997,245.6 -3.3,1.9 -1.4,-0.6 -1.6,1.8 -0.2,3.8 -0.8,0.4 -0.6,3.5 3.5,0.5 1.7,-3.6 3,0.4 v 0 l 1.6,-0.8 0.4,-3.7 z"
     style="fill:#ffffff;fill-opacity:1;fill-rule:evenodd;stroke:#00c5c2;stroke-opacity:1" />
  <path
     inkscape:connector-curvature="0"
     id="SD"
     data-name="Sudan"
     data-id="SD"
     d="m 303.19997,134.7 0.4,-4.2 1.6,-2 4,-1 2.6,-3.6 -3.1,-2.4 -2.2,-1.6 -2.5,-7.6 -1.1,-6.5 1.1,-1.2 -2.1,-6.200002 h -21.8 -21.4 -22.1 l 0.5,12.700002 h -6.3 v 2.7 l 1.1,25.2 -4.8,-0.4 -2.4,4.7 -1.4,3.9 1.2,1.5 -1.8,1.9 0.7,2.7 -1.4,2.6 -0.5,2.4 2,-0.4 1.2,2.5 0.1,3.7 2.1,1.8 v 1.6 l 0.7,2.7 3.3,4 v 2.6 l -0.8,2.6 0.3,2 2,1.8 0.5,0.3 1.7,-0.7 1.9,-1.2 1.3,-5.7 1.5,-2.9 4,-0.9 1,1.8 3,3.7 1.5,0.5 2,-1.1 4.1,0.3 0.8,1.3 h 5.5 l 0.2,-1.3 2.9,-1.2 0.5,-1.9 2.1,-1.3 4.8,3.7 2.8,-0.7 2.7,-4.5 3,-3.5 -0.6,-3.9 -1.4,-1.8 3.4,-0.3 0.3,-1.5 2.6,0.5 -0.5,4.7 0.8,4.6 2.9,2.5 0.7,2.2 v 3.1 l 0.8,0.1 v -0.7 l 1.4,-6.7 2.6,-1.8 0.5,-2.6 2.3,-4.8 3.2,-3.2 2.1,-6.2 0.7,-5.5 -0.7,-2.5 z"
     style="fill:#ffffff;fill-opacity:1;fill-rule:evenodd;stroke:#00c5c2;stroke-opacity:1" />
  <path
     inkscape:connector-curvature="0"
     id="SS"
     data-name="S. Sudan"
     data-id="SS"
     d="m 288.39997,174.9 -0.7,-2.2 -2.9,-2.5 -0.8,-4.6 0.5,-4.7 -2.6,-0.5 -0.3,1.5 -3.4,0.3 1.4,1.8 0.6,3.9 -3,3.5 -2.7,4.5 -2.8,0.7 -4.8,-3.7 -2.1,1.3 -0.5,1.9 -2.9,1.2 -0.2,1.3 h -5.5 l -0.8,-1.3 -4.1,-0.3 -2,1.1 -1.5,-0.5 -3,-3.7 -1,-1.8 -4,0.9 -1.5,2.9 -1.3,5.7 -1.9,1.2 -1.7,0.7 3.8,2.5 3.1,2.6 0.1,2 3.8,3.4 2.4,2.7 1.5,3.8 4.2,2.5 0.9,2.1 3.5,5.2 2.5,0.8 1.5,-1.1 2.6,0.4 3.1,-1.3 1.4,2.7 5,4.2 v 0 l 2.3,-1.7 3.5,1.4 4.5,-1.5 4,0.1 3.4,-3 3.4,-3.8 3.8,-4.2 -3.5,-6.9 -2.6,-1.5 -1,-2.5 -2.9,-3.1 -3.4,-0.5 1.8,-3.6 3,-0.1 0.8,-2 -0.2,-5 -0.8,-0.1 z"
     style="fill:#ffffff;fill-opacity:1;fill-rule:evenodd;stroke:#00c5c2;stroke-opacity:1" />
  <path
     inkscape:connector-curvature="0"
     id="SN"
     data-name="Senegal"
     data-id="SN"
     d="m 31.299969,145.4 -3.6,-4.4 -3.2,-4.7 -3.7,-1.7 -2.6,-1.8 h -3.1 l -2.8,1.4 -2.6999999,-0.5 -2,2 -1.3,3.3 -2.8,4.4 -2.49999999,1.2 2.69999999,2.3 2.2,5 6.0999999,-0.2 1.3,-1.5 1.8,-0.1 2.1,1.5 1.8,0.1 1.8,-1.1 1.1,1.8 -2.4,1.5 -2.4,-0.1 -2.4,-1.4 -2.1,1.5 h -1 l -1.4,0.9 -4.9999999,-0.1 0.8,4.9 3,-1.1 1.7999999,0.2 1.5,-0.7 10.3,0.3 2.7,0.1 4,1.5 1.3,-0.1 0.4,-0.7 3,0.5 0.8,-0.4 0.3,-2 -0.4,-2.4 -2.1,-1.8 -1.1,-3.7 z"
     style="fill:#ffffff;fill-opacity:1;fill-rule:evenodd;stroke:#00c5c2;stroke-opacity:1" />
  <path
     inkscape:connector-curvature="0"
     id="SL"
     data-name="Sierra Leone"
     data-id="SL"
     d="m 41.799969,184.9 -1.5,0.3 v -2.3 l -0.9,-1.7 0.2,-1.8 -1.2,-2.7 -1.5,-2.3 h -4.5 l -1.3,1.2 -1.5,0.2 -1,1.4 -0.7,1.7 -3,2.8 0.7,4.7 0.9,2.3 2.9,3.5 4.1,2.5 1.5,0.5 1.3,-2 0.3,-1.9 2.6,-3.4 z"
     style="fill:#ffffff;fill-opacity:1;fill-rule:evenodd;stroke:#00c5c2;stroke-opacity:1" />
  <path
     inkscape:connector-curvature="0"
     id="SZ"
     data-name="Swaziland"
     data-id="SZ"
     d="m 272.89997,402.8 -2.7,-1.2 -1.6,0.5 -0.7,1.8 -1.6,2.4 -0.1,2.2 3,3.5 3.3,-0.7 1.3,-2.8 -0.3,-2.8 z"
     style="fill:#ffffff;fill-opacity:1;fill-rule:evenodd;stroke:#00c5c2;stroke-opacity:1" />
  <path
     inkscape:connector-curvature="0"
     id="TD"
     data-name="Chad"
     data-id="TD"
     d="m 230.79997,113.8 -22.4,-12.2 -22.3,-12.200002 -5.4,3.5 1.6,9.900002 2,1.6 0.2,2.1 2.3,2.2 -1.1,2.7 -1.8,12.9 -0.2,8.3 -6.9,6 -2.3,8.4 2.4,2.3 v 4.1 l 3.6,0.2 -0.5,2.9 2.2,4.1 0.5,4.2 -0.2,4.3 3.1,5.8 -3.1,-0.1 -1.6,0.4 -2.5,-0.6 -1.2,3 3.3,3.7 2.5,1.1 0.8,2.6 1.8,4.4 -0.9,1.7 4.7,-0.4 1,-1.7 0.9,0.2 1.4,1.4 7.1,-2.4 2.3,-2.5 2.9,-2.2 -0.6,-2.3 1.6,-0.6 5.4,0.4 5.2,-2.9 4,-7 2.8,-2.5 3.5,-1.1 v -1.6 l -2.1,-1.8 -0.1,-3.7 -1.2,-2.5 -2,0.4 0.5,-2.4 1.4,-2.6 -0.7,-2.7 1.8,-1.9 -1.2,-1.5 1.4,-3.9 2.4,-4.7 4.8,0.4 z"
     style="fill:#ffffff;fill-opacity:1;fill-rule:evenodd;stroke:#00c5c2;stroke-opacity:1" />
  <path
     inkscape:connector-curvature="0"
     id="TG"
     data-name="Togo"
     data-id="TG"
     d="m 104.09997,168.4 -4.900001,-0.1 -0.4,1.9 2.400001,3.3 -0.1,4.6 0.6,5.1 1.4,2.3 -1.2,5.7 0.4,3.2 1.5,4 1.2,2.2 4.6,-1.3 -1.4,-4.4 0.2,-14.6 -1.1,-1.3 -0.2,-3.1 -2,-2.3 -1.7,-1.9 z"
     style="fill:#ffffff;fill-opacity:1;fill-rule:evenodd;stroke:#00c5c2;stroke-opacity:1" />
  <path
     inkscape:connector-curvature="0"
     id="TN"
     data-name="Tunisia"
     data-id="TN"
     d="m 160.39997,27.599998 -2,-1 -1.5,-3 -2.8,-0.1 -1.1,-3.5 3.4,-3.2 0.5,-5.6 -1.9,-1.6000001 -0.1,-3 2.5,-3.2 -0.4,-1.3 -4.4,2.4 0.1,-3.3 -3.7,-0.70000001 -5.6,2.60000001 -1,3.3 1,6.2000001 -1.1,5.3 -3.2,3.6 0.6,4.8 4.5,3.8 v 1.5 l 3.4,2.6 2.6,11.3 2.6,-1.4 0.4,-2.7 -0.7,-2.6 3.7,-2.5 1.5,-2 2.6,-1.8 z"
     style="fill:#ffffff;fill-opacity:1;fill-rule:evenodd;stroke:#00c5c2;stroke-opacity:1" />
  <path
     inkscape:connector-curvature="0"
     id="TZ"
     data-name="Tanzania"
     data-id="TZ"
     d="m 271.99997,244.8 -2,0.8 2.3,3.6 -0.4,3.7 -1.6,0.8 v 0 l 0.3,2.5 1.2,1.5 v 2 l -1.4,1.4 -2.2,3.3 -2.1,2.3 -0.6,0.1 -0.3,2.7 1.1,0.9 -0.2,2.7 1,2.6 -1.3,2.4 4.5,4.3 0.3,3.9 2.7,6.5 v 0 l 0.3,0.2 2.2,1.1 3.5,1.1 3.2,1.9 5.4,1.2 1.1,1.7 v 0 l 0.4,-1.2 2.8,3.4 0.3,6.7 1.8,2.4 v 0.1 l 2.1,-0.3 6.7,1.8 1.4,-0.8 3.9,-0.1 2.1,-1.9 3.3,0.1 6.2,-2.5 4.6,-3.7 v 0 l -2,-1.4 -2.2,-6.3 -1.8,-3.9 0.4,-3.1 -0.3,-1.9 1.7,-3.9 -0.2,-1.6 -3.5,-2.3 -0.3,-3.6 2.8,-7.9 -8,-6.3 -0.4,-3.7 -20.2,-13 v 0 l -2.8,2.8 -1.9,2.9 2.2,2.2 -3.2,1.6 -0.7,-0.8 -3.2,0.4 -2.5,1.4 -1.6,-2.4 1.1,-4.5 0.2,-3.8 v 0 0 z"
     style="fill:#ffffff;fill-opacity:1;fill-rule:evenodd;stroke:#00c5c2;stroke-opacity:1" />
  <path
     inkscape:connector-curvature="0"
     id="UG"
     data-name="Uganda"
     data-id="UG"
     d="m 289.99997,211.3 -3.4,3 -4,-0.1 -4.5,1.5 -3.5,-1.4 -2.3,1.7 v 0 l -0.3,7.5 2.3,0.8 -1.8,2.3 -2.2,1.7 -2.1,3.3 -1.2,3 -0.3,5.1 -1.3,2.4 -0.1,4.8 1.4,0.6 3.3,-1.9 2,-0.8 6.2,0.1 v 0 l -0.3,-2.5 2.6,-3.7 3.5,-0.9 2.4,-1.5 2.9,1.2 0.3,0.5 v -0.3 l 1.6,-2.6 2.7,-4.2 2.1,-4.7 -2.6,-7.3 -0.7,-3.2 z"
     style="fill:#ffffff;fill-opacity:1;fill-rule:evenodd;stroke:#00c5c2;stroke-opacity:1" />
  <path
     inkscape:connector-curvature="0"
     id="ZA"
     data-name="South Africa"
     data-id="ZA"
     d="m 270.59997,379.9 -2.9,-0.6 -1.9,0.8 -2.6,-1.1 -2.2,-0.1 -8,4.7 -5.2,4.7 -2,4.3 -1.7,2.4 -3,0.5 -1.2,3 -0.6,2 -3.6,1.5 -4.4,-0.3 -2.5,-1.8 -2.3,-0.8 -2.7,1.5 -1.5,3.1 -2.7,1.9 -2.8,2.8 -4,0.7 -1.1,-2.3 0.7,-3.8 -3,-6.1 -1.4,-1 -1.1,23.6 -5,3.2 -2.9,0.5 -3.3,-1.2 -2.4,-0.5 -0.8,-2.7 -2.1,-1.8 -2.7,3.2 3.5,8.2 v 0.1 l 2.5,5.3 3.2,6 -0.2,4.8 -1.7,1.2 1.4,4.2 -0.2,3.8 0.6,1.7 0.3,-0.9 2.1,2.9 1.8,0.1 2.1,2.3 2.4,-0.2 3.5,-2.4 4.6,-1 5.6,-2.5 2.2,0.3 3.3,-0.8 5.7,1.2 2.7,-1.2 3.2,1 0.8,-1.8 2.7,-0.3 5.8,-2.5 4.3,-2.9 4.1,-3.8 6.7,-6.5 3.4,-4.6 1.8,-3.2 2.5,-3.3 1.2,-0.9 3.9,-3.2 1.6,-2.9 1.1,-5.2 1.7,-4.7 h -4.1 l -1.3,2.8 -3.3,0.7 -3,-3.5 0.1,-2.2 1.6,-2.4 0.7,-1.8 1.6,-0.5 2.7,1.2 -0.4,-2.3 1.4,-7.1 -1.1,-4.5 z m -20.1,52.8 -2,0.6 -3.7,-4.9 3.2,-4 3.1,-2.5 2.6,-1.3 2.3,2 1.7,1.9 -1.9,3.1 -1.1,2.1 -3.1,1 z"
     style="fill:#00c5c2;fill-opacity:1;fill-rule:evenodd;stroke:#ffffff;stroke-opacity:1" />
  <path
     inkscape:connector-curvature="0"
     id="ZM"
     data-name="Zambia"
     data-id="ZM"
     d="m 271.59997,292.9 -1.9,-0.5 0.4,-1.3 -1,-0.3 -7.5,1.1 -1.6,0.7 -1.6,4.1 1.2,2.8 -1.2,7.5 -0.8,6.4 1.4,1.1 3.9,2.5 1.5,-1.2 0.3,6.9 h -4.3 l -2.1,-3.5 -2,-2.8 -4.3,-0.8 -1.2,-3.4 -3.4,2 -4.5,-0.9 -1.8,-2.8 -3.5,-0.6 -2.6,0.1 -0.3,-2 -1.9,-0.1 0.5,2 -0.7,3 0.9,3 -0.9,2.4 0.5,2.2 -11.6,-0.1 -0.8,20.3 3.6,5.2 3.5,4 4.6,-1.5 3.6,0.4 2.1,1.4 v 0.5 l 1,0.5 6.2,0.7 1.7,0.7 1.9,-0.1 3.2,-4.1 5.1,-5.3 2,-0.5 0.7,-2.2 3.3,-2.5 4.2,-0.9 -0.3,-4.5 17.1,-5.2 -2.9,-1.7 1.9,-5.9 1.8,-2.2 -0.9,-5.3 1.2,-5.1 1,-1.8 -1.2,-5.4 -2.6,-2.8 -3.2,-1.9 -3.5,-1.1 -2.2,-1.1 -0.3,-0.2 v 0 l 0.5,1.1 -1,0.4 z"
     style="fill:#00c5c2;fill-opacity:1;fill-rule:evenodd;stroke:#ffffff;stroke-opacity:1" />
  <path
     inkscape:connector-curvature="0"
     id="ZW"
     data-name="Zimbabwe"
     data-id="ZW"
     d="m 270.59997,379.9 6.2,-7.2 1.6,-4.6 0.9,-0.6 0.8,-3.7 -0.8,-1.9 0.5,-4.7 1.3,-4.4 0.3,-8.1 -2.8,-2 -2.6,-0.5 -1.1,-1.6 -2.6,-1.3 -4.6,0.1 -0.3,-2.4 -4.2,0.9 -3.3,2.5 -0.7,2.2 -2,0.5 -5.1,5.3 -3.2,4.1 -1.9,0.1 -1.7,-0.7 -6.2,-0.7 1.9,5.1 1.1,1.1 1.6,3.7 6,7 2.3,0.7 -0.1,2.2 1.5,4.1 4.2,0.9 3.4,2.9 2.2,0.1 2.6,1.1 1.9,-0.8 z"
     style="fill:#00c5c2;fill-opacity:1;fill-rule:evenodd;stroke:#ffffff;stroke-opacity:1" />
  <path
     inkscape:connector-curvature="0"
     id="SO"
     data-name="Somalia"
     data-id="SO"
     d="m 345.79997,171.9 -2.6,-2.7 -1.2,-2.6 -1.8,-1.2 -2,3.4 -1.1,2.3 2.2,3.5 2.1,3.1 2.2,2.2 18.5,7.6 4.8,-0.1 -15.4,19.1 -7.4,0.3 -4.9,4.5 -3.6,0.1 -1.5,2 -4.8,7.2 0.2,23.2 3.3,5.3 1.3,-1.5 1.3,-3.4 6.1,-7.7 5.3,-4.8 8.3,-6.4 5.6,-5.1 6.4,-8.7 4.7,-7.1 4.6,-9.3 3.2,-8.2 2.5,-7.1 1.3,-6.8 1.1,-2.3 -0.2,-3.4 0.4,-3.7 -0.2,-1.7 h -2.1 l -2.6,2.2 -2.9,0.6 -2.5,0.9 -1.8,0.2 v 0 l -3.2,0.2 -1.9,1.1 -2.8,0.5 -4.8,1.9 -6.1,0.8 -5.2,1.6 z"
     style="fill:#ffffff;fill-opacity:1;fill-rule:evenodd;stroke:#00c5c2;stroke-opacity:1" />
  <path
     inkscape:connector-curvature="0"
     id="KM"
     data-name="Comoros"
     data-id="KM"
     d="m 343.49997,316.7 -0.4,-0.4 h -0.4 v 0.2 l 0.1,0.4 1.1,0.2 z m 3.9,-1.5 h -0.1 l -0.2,0.1 -0.1,0.2 -0.1,0.3 h -0.3 -0.2 -0.4 l 0.8,0.5 0.5,0.5 0.2,0.2 0.1,-0.2 0.1,-0.7 z m -5.6,-1.1 0.2,-0.3 -0.2,-0.7 -0.4,-0.8 0.1,-1.4 -0.2,-0.2 h -0.3 l -0.1,0.1 -0.1,0.3 -0.3,2 0.4,0.6 0.3,0.1 0.5,0.4 z"
     style="fill:#ffffff;fill-opacity:1;fill-rule:evenodd;stroke:#00c5c2;stroke-opacity:1" />
  <path
     inkscape:connector-curvature="0"
     id="ST"
     data-name="São Tomé and Principe"
     data-id="ST"
     d="m 136.49997,237.6 0.5,-0.8 v -0.5 l -0.3,-0.5 h -0.4 l -0.5,0.4 -0.3,0.4 v 0.3 l 0.1,0.7 0.1,0.3 0.3,0.2 z m 4.3,-9.2 0.2,-0.4 v -0.2 l -0.1,-0.1 -0.1,-0.1 -0.2,0.1 -0.3,0.5 0.1,0.2 0.2,0.2 z"
     style="fill:#ffffff;fill-opacity:1;fill-rule:evenodd;stroke:#00c5c2;stroke-opacity:1" />
  <path
     inkscape:connector-curvature="0"
     id="YT"
     data-name="Mayotte"
     data-id="YT"
     d="m 351.09997,320.9 v -0.3 l 0.2,-0.5 V 320 l 0.1,-0.5 -0.3,-0.3 h -0.2 l -0.2,-0.3 -0.3,0.3 0.3,0.5 -0.1,0.3 -0.1,0.4 0.1,0.4 0.2,0.2 z"
     style="fill:#ffffff;fill-opacity:1;fill-rule:evenodd;stroke:#00c5c2;stroke-opacity:1" />
  <path
     inkscape:connector-curvature="0"
     id="IC"
     data-name="Canary Islands"
     data-id="IC"
     d="m 1.9999691,61.399998 -0.2,-0.2 -0.7,0.5 H 0.49996911 l 0.1,0.2 0.1,0.2 0.69999999,0.4 z m 13.4999999,-2.1 v -0.1 h -0.1 l -0.1,0.1 -1.3,-0.1 -0.2,0.6 -0.5,0.4 v 0.7 l 0.5,0.7 0.3,0.1 0.5,0.1 0.7,-0.4 0.2,-0.4 0.1,-0.8 -0.1,-0.4 z m -9.6999999,0.8 0.5,-0.4 v -0.2 l -0.1,-0.3 -0.5,-0.3 h -0.2 l -0.2,0.2 -0.2,0.4 0.3,0.5 0.2,0.1 z m 4.6999999,-2.3 1.2,-1 v -0.3 l -1,0.1 -1.0999999,1 -0.3,0.1 -1,0.1 h -0.5 l -0.4,0.2 0.2,0.3 0.4,1 0.7,0.9 0.6,-0.2 0.3,-0.2 0.4,-0.6 z m 11.6,1.3 1.5,-0.5 0.3,-1 0.3,-1.1 v -0.7 l -0.2,-0.3 h -0.1 -0.4 l -0.3,0.2 -0.1,0.6 -0.7,1.3 -0.5,1.2 -0.7,0.6 -0.7,0.2 0.1,0.1 0.7,0.1 z m -19.6999999,-2 0.5,-0.5 0.1,-0.3 -0.1,-0.5 0.2,-0.2 -0.1,-0.4 -0.3,-0.4 h -0.7 l -0.4,0.6 0.6,1.2 0.1,0.5 z m 22.3999999,-2.7 0.9,-0.3 0.5,-0.3 0.1,-0.9 0.2,-0.3 -0.2,-0.3 -0.2,0.2 -0.2,0.4 -0.6,0.2 -0.8,0.4 -0.2,0.3 -0.2,0.9 0.4,0.1 z"
     style="fill:#ffffff;fill-opacity:1;fill-rule:evenodd;stroke:#00c5c2;stroke-opacity:1" />
</svg>
