<?xml version="1.0" encoding="UTF-8" standalone="no"?>
<svg
   xmlns:dc="http://purl.org/dc/elements/1.1/"
   xmlns:cc="http://creativecommons.org/ns#"
   xmlns:rdf="http://www.w3.org/1999/02/22-rdf-syntax-ns#"
   xmlns:svg="http://www.w3.org/2000/svg"
   xmlns="http://www.w3.org/2000/svg"
   xmlns:sodipodi="http://sodipodi.sourceforge.net/DTD/sodipodi-0.dtd"
   xmlns:inkscape="http://www.inkscape.org/namespaces/inkscape"
   id="Layer_1"
   data-name="Layer 1"
   viewBox="0 0 220.59 288.34"
   version="1.1"
   sodipodi:docname="bordo_alto_editing.svg"
   inkscape:version="0.92.4 (5da689c313, 2019-01-14)">
  <metadata
     id="metadata19">
    <rdf:RDF>
      <cc:Work
         rdf:about="">
        <dc:format>image/svg+xml</dc:format>
        <dc:type
           rdf:resource="http://purl.org/dc/dcmitype/StillImage" />
        <dc:title>ConTraining_Outs</dc:title>
      </cc:Work>
    </rdf:RDF>
  </metadata>
  <sodipodi:namedview
     pagecolor="#ffffff"
     bordercolor="#666666"
     borderopacity="1"
     objecttolerance="10"
     gridtolerance="10"
     guidetolerance="10"
     inkscape:pageopacity="0"
     inkscape:pageshadow="2"
     inkscape:window-width="1920"
     inkscape:window-height="1001"
     id="namedview17"
     showgrid="false"
     inkscape:zoom="3.2739127"
     inkscape:cx="184.50012"
     inkscape:cy="329.82827"
     inkscape:window-x="-9"
     inkscape:window-y="-9"
     inkscape:window-maximized="1"
     inkscape:current-layer="Layer_1" />
  <defs
     id="defs4">
    <style
       id="style2">.cls-1{fill:#00c5c2;}</style>
  </defs>
  <title
     id="title6">ConTraining_Outs</title>
  <g
     data-name="Group 107"
     id="Group_107"
     transform="translate(-29.088713,6.8725105)">
    <path
       style="fill:#00c5c2"
       inkscape:connector-curvature="0"
       d="m 2.16,269.65 v 0 A 2.2,2.2 0 0 0 0,271.89 c 0,0.08 0,0.17 0,0.25 a 18.55,18.55 0 0 0 15.57,16.19 2.18,2.18 0 0 0 2.43,-1.93 2.72,2.72 0 0 0 0,-0.28 v 0 c -8.76,0 -15.84,-7.38 -15.84,-16.47 z"
       class="cls-1"
       data-name="Path 1761"
       id="Path_1761" />
    <path
       style="fill:#00c5c2"
       inkscape:connector-curvature="0"
       d="m 202.6,286.12 v 0 a 2.17,2.17 0 0 0 2.12,2.22 H 205 a 18.54,18.54 0 0 0 15.57,-16.19 2.2,2.2 0 0 0 -1.88,-2.47 h -0.25 v 0 c -0.01,9.06 -7.1,16.44 -15.84,16.44 z"
       class="cls-1"
       data-name="Path 1762"
       id="Path_1762" />
  </g>
  <path
     style="fill:#00c5c2;stroke-width:0.2265709"
     d="m 384.99639,-62.626247 h -3.09079 v 0.919922 h 3.09079 z"
     id="path887"
     inkscape:connector-curvature="0" />
  <path
     style="fill:#00c5c2"
     d="m 321.61666,-34.921864 h -0.17383 c -0.0191,0 -0.0375,0.0038 -0.0566,0.0039 a 2.18,2.18 0 0 0 -2.0625,-1.654297 h -0.27929 a 18.55,18.55 0 0 0 -15.58985,16.199219 2.2,2.2 0 0 0 1.64063,2.419922 c -2e-5,0.01054 -0.002,0.0207 -0.002,0.03125 v 0.07422 h 0.87891 v -0.03516 c 0,-8.870002 6.94047,-16.079141 15.48047,-16.119141 h 0.16406 z"
     id="path837-9"
     inkscape:connector-curvature="0" />
  <path
     style="fill:#00c5c2"
     d="m 361.27472,-19.199407 v -0.17383 c 0,-0.0191 -0.004,-0.0375 -0.004,-0.0566 a 2.18,2.18 0 0 0 1.6543,-2.0625 v -0.27929 a 18.55,18.55 0 0 0 -16.19922,-15.58985 2.2,2.2 0 0 0 -2.41992,1.64063 c -0.0105,-2e-5 -0.0207,-0.002 -0.0312,-0.002 h -0.0742 v 0.87891 h 0.0352 c 8.87,0 16.07914,6.94047 16.11914,15.48047 v 0.16406 z"
     id="path837-91"
     inkscape:connector-curvature="0" />
  <path
     style="fill:#00c5c2"
     d="m 321.69677,2.9920317 h -0.17383 c -0.0191,0 -0.0375,-0.0038 -0.0566,-0.0039 a 2.18,2.18 0 0 1 -2.0625,1.654297 h -0.27929 A 18.55,18.55 0 0 1 303.5347,-11.55679 a 2.2,2.2 0 0 1 1.64063,-2.419922 c -2e-5,-0.01054 -0.002,-0.0207 -0.002,-0.03125 v -0.07422 h 0.87891 v 0.03516 c 0,8.8700017 6.94047,16.0791407 15.48047,16.1191407 h 0.16406 z"
     id="path837-9-3"
     inkscape:connector-curvature="0" />
  <path
     style="fill:#00c5c2"
     d="m 361.35483,-12.730425 v 0.17383 c 0,0.0191 -0.004,0.0375 -0.004,0.0566 a 2.18,2.18 0 0 1 1.6543,2.0625 v 0.27929 a 18.55,18.55 0 0 1 -16.19922,15.5898497 2.2,2.2 0 0 1 -2.41992,-1.64063 c -0.0105,2e-5 -0.0207,0.002 -0.0312,0.002 h -0.0742 v -0.87891 h 0.0352 c 8.87,0 16.07914,-6.94047 16.11914,-15.4804697 v -0.16406 z"
     id="path837-91-8"
     inkscape:connector-curvature="0" />
  <path
     style="fill:#00c5c2;stroke-width:0.2265709"
     d="m 383.56425,-56.94731 v -3.09079 h -0.91993 v 3.09079 z"
     id="path887-8"
     inkscape:connector-curvature="0" />
</svg>
