<svg id="Layer_1" data-name="Layer 1" xmlns="http://www.w3.org/2000/svg" viewBox="0 0 223.93 140.08"><defs><style>.cls-1{fill:#00c5c2;}.cls-2{fill:none;}</style></defs><title>ConTraining_Outs</title><g id="Group_126" data-name="Group 126"><g id="Group_124" data-name="Group 124"><path id="Path_2023" data-name="Path 2023" class="cls-1" d="M18.66,2.18c-8.86,0-16.07,6-16.07,13.32V124.58c0,7.34,7.21,13.32,16.07,13.32H205.27c8.86,0,16.06-6,16.06-13.32V15.5c0-7.34-7.2-13.32-16.06-13.32ZM205.27,138.66H18.66c-9.37,0-17-6.32-17-14.08V15.5c0-7.76,7.62-14.08,17-14.08H205.27c9.36,0,17,6.32,17,14.08V124.58C222.25,132.34,214.63,138.66,205.27,138.66Z"/></g><g id="Group_125" data-name="Group 125"><path id="Path_2024" data-name="Path 2024" class="cls-1" d="M205.27,138.21h0a2.11,2.11,0,0,0,2.33,1.86l.16,0c8.39-.92,15.05-6.44,16.16-13.4a2,2,0,0,0-1.92-2.07h-.29C221.71,132.11,214.35,138.21,205.27,138.21Z"/><path id="Path_2025" data-name="Path 2025" class="cls-1" d="M221.71,15.5h0a2,2,0,0,0,2.2-1.78,1.31,1.31,0,0,0,0-.28C222.81,6.48,216.15,1,207.75,0a2.1,2.1,0,0,0-2.46,1.68.77.77,0,0,0,0,.15h0C214.35,1.87,221.71,8,221.71,15.5Z"/><path id="Path_2026" data-name="Path 2026" class="cls-1" d="M18.66,1.87h0A2.11,2.11,0,0,0,16.32,0l-.15,0C7.78,1,1.11,6.49,0,13.44a2,2,0,0,0,1.93,2.07h.28C2.21,8,9.57,1.87,18.66,1.87Z"/><path id="Path_2027" data-name="Path 2027" class="cls-1" d="M2.21,124.58h0A2,2,0,0,0,0,126.36a2.62,2.62,0,0,0,0,.28c1.11,7,7.78,12.48,16.17,13.4a2.1,2.1,0,0,0,2.46-1.68l0-.15h0C9.57,138.21,2.21,132.11,2.21,124.58Z"/></g></g><g id="Group_127" data-name="Group 127"><path id="Path_2028" data-name="Path 2028" class="cls-2" d="M18.66,2.18c-8.86,0-16.07,6-16.07,13.32V124.58c0,7.34,7.21,13.32,16.07,13.32H205.27c8.86,0,16.06-6,16.06-13.32V15.5c0-7.34-7.2-13.32-16.06-13.32Z"/></g></svg>