<svg id="Layer_1" data-name="Layer 1" xmlns="http://www.w3.org/2000/svg" viewBox="0 0 220.59 288.34"><defs><style>.cls-1{fill:#00c5c2;}</style></defs><title>ConTraining_Outs</title><g id="Group_108" data-name="Group 108"><g id="Group_106" data-name="Group 106"><path id="Path_1760" data-name="Path 1760" class="cls-1" d="M1.64,269.65v-251c0-9.37,7.33-17,16.35-17H202.6c9,0,16.35,7.63,16.35,17v251c0,9.38-7.33,17-16.35,17H18C9,286.65,1.64,279,1.64,269.65Zm216.43-251c0-8.87-6.94-16.08-15.47-16.08H18C9.46,2.61,2.52,9.82,2.52,18.69v251c0,8.87,6.94,16.09,15.47,16.09H202.6c8.53,0,15.47-7.22,15.47-16.09Z"/></g><g id="Group_107" data-name="Group 107"><path id="Path_1761" data-name="Path 1761" class="cls-1" d="M2.16,269.65h0A2.2,2.2,0,0,0,0,271.89c0,.08,0,.17,0,.25a18.55,18.55,0,0,0,15.57,16.19A2.18,2.18,0,0,0,18,286.4a2.72,2.72,0,0,0,0-.28h0C9.24,286.12,2.16,278.74,2.16,269.65Z"/><path id="Path_1762" data-name="Path 1762" class="cls-1" d="M202.6,286.12h0a2.17,2.17,0,0,0,2.12,2.22H205a18.54,18.54,0,0,0,15.57-16.19,2.2,2.2,0,0,0-1.88-2.47l-.25,0h0C218.43,278.74,211.34,286.12,202.6,286.12Z"/><path id="Path_1763" data-name="Path 1763" class="cls-1" d="M218.43,18.69h0a2.19,2.19,0,0,0,2.15-2.24,2.11,2.11,0,0,0,0-.25A18.53,18.53,0,0,0,205,0a2.17,2.17,0,0,0-2.39,1.93,1.41,1.41,0,0,0,0,.29h0C211.34,2.23,218.43,9.6,218.43,18.69Z"/><path id="Path_1764" data-name="Path 1764" class="cls-1" d="M18,2.23h0A2.18,2.18,0,0,0,15.87,0h-.28A18.55,18.55,0,0,0,0,16.2a2.2,2.2,0,0,0,1.89,2.47l.24,0h0C2.16,9.6,9.24,2.23,18,2.23Z"/></g></g></svg>