<?xml version="1.0" encoding="UTF-8" standalone="no"?>
<!-- Created with Inkscape (http://www.inkscape.org/) -->

<svg
   xmlns:dc="http://purl.org/dc/elements/1.1/"
   xmlns:cc="http://creativecommons.org/ns#"
   xmlns:rdf="http://www.w3.org/1999/02/22-rdf-syntax-ns#"
   xmlns:svg="http://www.w3.org/2000/svg"
   xmlns="http://www.w3.org/2000/svg"
   xmlns:xlink="http://www.w3.org/1999/xlink"
   xmlns:sodipodi="http://sodipodi.sourceforge.net/DTD/sodipodi-0.dtd"
   xmlns:inkscape="http://www.inkscape.org/namespaces/inkscape"
   width="94.74472mm"
   height="178.06506mm"
   viewBox="0 0 94.74472 178.06506"
   version="1.1"
   id="svg8"
   inkscape:version="0.92.4 (5da689c313, 2019-01-14)"
   sodipodi:docname="backArrow.svg">
  <defs
     id="defs2">
    <linearGradient
       inkscape:collect="always"
       id="linearGradient837">
      <stop
         style="stop-color:#00c5c2;stop-opacity:1;"
         offset="0"
         id="stop833" />
      <stop
         style="stop-color:#00a8a6;stop-opacity:1"
         offset="1"
         id="stop835" />
    </linearGradient>
    <linearGradient
       inkscape:collect="always"
       xlink:href="#linearGradient837"
       id="linearGradient839"
       x1="109.25977"
       y1="50.300552"
       x2="109.25977"
       y2="153.965"
       gradientUnits="userSpaceOnUse" />
  </defs>
  <sodipodi:namedview
     id="base"
     pagecolor="#ffffff"
     bordercolor="#666666"
     borderopacity="1.0"
     inkscape:pageopacity="0.0"
     inkscape:pageshadow="2"
     inkscape:zoom="0.7"
     inkscape:cx="236.2317"
     inkscape:cy="253.44437"
     inkscape:document-units="mm"
     inkscape:current-layer="layer1"
     showgrid="false"
     fit-margin-top="0"
     fit-margin-left="0"
     fit-margin-right="0"
     fit-margin-bottom="0"
     inkscape:window-width="1920"
     inkscape:window-height="1001"
     inkscape:window-x="-9"
     inkscape:window-y="-9"
     inkscape:window-maximized="1" />
  <metadata
     id="metadata5">
    <rdf:RDF>
      <cc:Work
         rdf:about="">
        <dc:format>image/svg+xml</dc:format>
        <dc:type
           rdf:resource="http://purl.org/dc/dcmitype/StillImage" />
        <dc:title />
      </cc:Work>
    </rdf:RDF>
  </metadata>
  <g
     inkscape:label="Livello 1"
     inkscape:groupmode="layer"
     id="layer1"
     transform="translate(-66.773042,-58.029926)">
    <g
       id="g1042"
       transform="translate(9.0714288,9.0714286)"
       style="fill:url(#linearGradient839);fill-opacity:1">
      <path
         style="fill:url(#linearGradient839);fill-opacity:1;stroke-width:0.26458332"
         d="m 129.86635,226.81623 c -0.55299,-0.56463 -71.997772,-88.76793 -72.068633,-88.9735 -0.05061,-0.1468 72.038403,-87.232271 73.468103,-88.75145 0.20505,-0.217884 20.65089,3.964691 21.01115,4.29822 0.11944,0.110574 -15.20746,19.20414 -34.05978,42.430142 l -34.276945,42.229098 34.019695,43.54813 c 18.71083,23.95147 33.9782,43.58784 33.92749,43.63637 -0.0507,0.0485 -4.95957,0.49258 -10.90858,0.98678 -8.10505,0.67332 -10.8906,0.82277 -11.1125,0.59621 z"
         id="path1082"
         inkscape:connector-curvature="0" />
      <path
         style="fill:url(#linearGradient839);fill-opacity:1;stroke-width:0.26458332"
         d="M 126.47001,222.64619 C 114.10169,207.46078 57.855669,138 57.799355,137.84167 c -0.04743,-0.13335 72.683715,-87.961895 73.602015,-88.8802 0.13283,-0.132823 20.66039,4.228791 20.88517,4.437597 0.1247,0.115837 -0.83681,1.501619 -2.13669,3.079512 -1.29989,1.577893 -16.73211,20.576488 -34.29384,42.2191 l -31.930409,39.350201 34.022379,43.5532 c 18.7123,23.95426 33.98297,43.59018 33.93481,43.63538 -0.11966,0.11229 -19.68599,1.72642 -20.91486,1.72538 -0.95086,-7.9e-4 -1.10038,-0.14427 -4.49792,-4.31565 z"
         id="path1080"
         inkscape:connector-curvature="0" />
      <path
         style="fill:url(#linearGradient839);fill-opacity:1;stroke-width:0.26458332"
         d="M 123.16169,218.5528 C 85.277632,171.85075 57.856074,137.98824 57.801159,137.83996 c -0.06977,-0.18841 73.409081,-88.770921 73.712801,-88.864541 0.0951,-0.02932 4.81637,0.932569 10.49169,2.137526 6.85669,1.455785 10.29634,2.295446 10.25196,2.502631 -0.0367,0.171487 -15.42958,19.23893 -34.20632,42.372098 l -34.13953,42.060306 34.02599,43.55646 c 18.7143,23.95605 33.98807,43.5891 33.94173,43.62901 -0.11707,0.1008 -19.99531,1.73629 -21.04488,1.73147 -0.79769,-0.004 -1.28923,-0.54256 -7.67291,-8.41212 z"
         id="path1078"
         inkscape:connector-curvature="0" />
      <path
         style="fill:url(#linearGradient839);fill-opacity:1;stroke-width:0.26458332"
         d="M 106.77377,198.31986 C 94.003389,182.56723 77.733465,162.49823 70.618388,153.72208 58.92997,139.30491 57.718734,137.72227 58.063846,137.31792 58.273922,137.07177 74.793806,117.16554 94.774694,93.081848 114.75558,68.998151 131.1789,49.206363 131.27095,49.100099 c 0.26157,-0.301964 21.06398,4.166465 20.99086,4.50891 -0.0476,0.223128 -58.615423,72.559411 -66.810823,82.517141 l -1.565047,1.9016 34.0354,43.57007 c 18.71947,23.96354 33.99906,43.59847 33.95465,43.63318 -0.11382,0.0889 -20.29861,1.745 -21.16851,1.73677 -0.62677,-0.006 -3.57499,-3.53485 -23.93371,-28.64791 z"
         id="path1076"
         inkscape:connector-curvature="0" />
      <path
         style="fill:url(#linearGradient839);fill-opacity:1;stroke-width:0.26458332"
         d="M 93.843562,182.36073 C 61.152319,142.03569 57.723208,137.71779 58.070347,137.31542 c 0.290292,-0.33649 73.103523,-88.052962 73.336743,-88.347145 0.0782,-0.09863 20.08042,4.133977 20.6015,4.359415 0.40162,0.173752 -4.85448,6.776715 -32.91199,41.345571 C 100.73213,117.2996 85.296224,136.3135 84.794585,136.92637 l -0.912074,1.11432 34.062949,43.60026 c 29.96804,38.35883 33.98652,43.60825 33.42719,43.66671 -2.28868,0.23921 -19.84463,1.65292 -20.52884,1.65311 -0.80148,2.3e-4 -2.6279,-2.20134 -37.000248,-44.60004 z"
         id="path1074"
         inkscape:connector-curvature="0" />
      <path
         style="fill:url(#linearGradient839);fill-opacity:1;stroke-width:0.26458332"
         d="M 93.849732,182.35867 C 61.180246,142.06133 57.72724,137.71357 58.074575,137.31336 c 0.351612,-0.40515 73.242565,-88.216005 73.328235,-88.33765 0.0657,-0.09324 20.10855,4.142227 20.60495,4.354237 0.40161,0.171527 -1.18961,2.256581 -10.05416,13.174445 -46.71825,57.539688 -57.891702,71.348728 -57.891702,71.547168 0,0.12516 15.283484,19.79317 33.963292,43.70668 l 33.9633,43.47911 -9.88621,0.84877 c -5.43742,0.46683 -10.38273,0.85465 -10.98959,0.86183 l -1.10336,0.0131 z"
         id="path1072"
         inkscape:connector-curvature="0" />
      <path
         style="fill:url(#linearGradient839);fill-opacity:1;stroke-width:0.26458332"
         d="M 93.858921,182.35453 C 61.300933,142.19287 57.735736,137.70432 58.080038,137.30922 c 0.368657,-0.42305 73.253592,-88.227417 73.322832,-88.331904 0.0187,-0.02828 1.10234,0.174675 2.40801,0.451004 1.30566,0.276328 5.82674,1.223518 10.04685,2.104868 4.2201,0.881349 7.88469,1.690714 8.14353,1.798593 0.38955,0.162353 -5.43161,7.465522 -33.79313,42.39654 -18.845058,23.210219 -34.237304,42.285489 -34.204988,42.389479 0.03232,0.104 15.239224,19.61561 33.793128,43.35915 18.55391,23.74355 33.81527,43.30795 33.91414,43.47645 0.13165,0.22439 -2.62967,0.53623 -10.31875,1.16533 -5.77419,0.47242 -10.69492,0.8552 -10.93498,0.85061 -0.25577,-0.005 -15.40767,-18.47594 -36.597759,-44.61481 z"
         id="path1070"
         inkscape:connector-curvature="0" />
      <path
         style="fill:url(#linearGradient839);fill-opacity:1;stroke-width:0.26458332"
         d="m 93.867623,182.34785 -36.16601,-44.61316 0.504295,-0.56444 C 58.483271,136.8598 74.759448,117.25815 94.375189,93.611014 113.99093,69.96388 130.41068,50.24416 130.86353,49.789415 l 0.82337,-0.826812 10.25769,2.176864 c 5.64173,1.197274 10.31069,2.229864 10.37547,2.294644 0.0648,0.06478 -15.29461,19.102567 -34.13197,42.306196 -18.837358,23.203623 -34.248503,42.247943 -34.246985,42.320703 0.0016,0.0728 15.308056,19.71665 34.014525,43.6531 l 34.01177,43.5208 -10.00796,0.8482 c -5.50438,0.46652 -10.43948,0.85489 -10.96688,0.86305 l -0.95893,0.0148 z"
         id="path1068"
         inkscape:connector-curvature="0" />
      <path
         style="fill:url(#linearGradient839);fill-opacity:1;stroke-width:0.26458332"
         d="m 93.874809,182.35478 -36.16233,-44.60623 1.154168,-1.36512 c 0.634794,-0.75082 17.189172,-20.67564 36.787506,-44.277374 19.598337,-23.601734 35.723197,-42.960563 35.833037,-43.019618 0.21374,-0.114914 20.62854,4.143338 20.83007,4.344874 0.066,0.066 -15.2923,19.104921 -34.12957,42.308706 C 99.350422,118.9438 83.938827,137.98825 83.9397,138.06101 c 7.94e-4,0.0728 15.303772,19.71602 34.00644,43.65168 l 34.00486,43.51938 -9.99976,0.84722 c -5.49987,0.46597 -10.43049,0.85498 -10.95693,0.86447 l -0.95717,0.0172 z"
         id="path1066"
         inkscape:connector-curvature="0" />
      <path
         style="fill:url(#linearGradient839);fill-opacity:1;stroke-width:0.26458332"
         d="m 118.30058,212.47507 c -6.45796,-7.96726 -22.733795,-28.04406 -36.168523,-44.6151 l -24.42678,-30.12917 0.509699,-0.5625 C 58.49531,136.85893 74.827184,117.19862 94.508029,93.478723 114.18887,69.758828 130.60537,50.043047 130.98914,49.665878 l 0.69776,-0.685763 10.26265,2.173068 c 5.64446,1.195187 10.3119,2.222318 10.3721,2.282516 0.0602,0.0602 -15.30235,19.09575 -34.139,42.301234 -18.836644,23.205487 -34.247426,42.251317 -34.246183,42.324077 0.0013,0.0728 15.240208,19.63704 33.864363,43.47618 18.62416,23.83914 33.86211,43.42742 33.86211,43.52952 0,0.13883 -20.58555,1.96676 -21.45979,1.90556 -0.0885,-0.006 -5.44462,-6.52993 -11.90257,-14.4972 z"
         id="path1064"
         inkscape:connector-curvature="0" />
      <path
         style="fill:url(#linearGradient839);fill-opacity:1;stroke-width:0.26458332"
         d="M 94.054276,182.55536 C 74.229461,158.09785 57.97743,137.98236 57.938653,137.85427 57.873735,137.63983 131.08155,49.29557 131.501,49.082165 c 0.19116,-0.09726 18.5921,3.74011 20.10261,4.192236 l 0.84272,0.25224 -34.25779,42.20104 C 99.346758,118.93825 83.931728,137.98825 83.932919,138.06101 c 0.0013,0.0728 15.240931,19.63942 33.866091,43.48146 18.62516,23.84204 33.86393,43.42955 33.86393,43.52782 0,0.0983 -4.13742,0.51505 -9.19427,0.92619 -5.05685,0.41115 -9.90865,0.81043 -10.78177,0.88731 l -1.5875,0.13977 z"
         id="path1062"
         inkscape:connector-curvature="0" />
      <path
         style="fill:url(#linearGradient839);fill-opacity:1;stroke-width:0.26458332"
         d="m 94.052326,182.54621 c -19.825889,-24.45892 -36.07792,-44.57093 -36.115623,-44.69336 -0.05265,-0.17096 35.594045,-43.249691 70.927487,-85.715271 1.56,-1.874877 2.66232,-2.976563 2.97829,-2.976563 0.55592,0 19.0805,3.862446 20.00582,4.171291 0.52615,0.175615 -2.7171,4.259093 -33.66823,42.390654 -18.837755,23.207979 -34.250464,42.259129 -34.250464,42.335899 0,0.0768 15.24,19.64679 33.866664,43.48892 18.62667,23.84214 33.86667,43.42756 33.86667,43.52316 0,0.0956 -4.19696,0.51467 -9.32657,0.93125 -5.1296,0.41659 -9.9814,0.81533 -10.78177,0.8861 l -1.4552,0.12868 z"
         id="path1060"
         inkscape:connector-curvature="0" />
      <path
         style="fill:url(#linearGradient839);fill-opacity:1;stroke-width:0.26458332"
         d="M 94.033435,182.50532 C 74.213199,158.05468 57.967733,137.95785 57.932398,137.84568 57.806599,137.44634 131.33803,49.161016 131.79643,49.161016 c 0.6499,0 20.36807,4.117536 20.5396,4.289068 0.0436,0.04356 -15.33006,19.064337 -34.16361,42.268395 -18.833547,23.204061 -34.242814,42.256731 -34.242814,42.339271 0,0.0825 15.24,19.6577 33.866664,43.50036 18.62667,23.84266 33.86667,43.45494 33.86667,43.58284 0,0.12791 -0.4592,0.23256 -1.02043,0.23256 -0.56124,0 -5.23445,0.35689 -10.3849,0.79308 -5.15046,0.4362 -9.54962,0.79339 -9.77593,0.79375 -0.22803,2.7e-4 -16.47667,-19.8177 -36.448245,-44.45502 z"
         id="path1058"
         inkscape:connector-curvature="0" />
      <path
         style="fill:url(#linearGradient839);fill-opacity:1;stroke-width:0.26458332"
         d="m 94.035181,182.49485 c -19.82503,-24.45638 -36.072853,-44.5516 -36.10627,-44.65604 -0.12686,-0.39645 73.431269,-88.677794 73.888459,-88.677794 0.48117,0 20.39661,4.16624 20.5216,4.293047 0.0394,0.03992 -15.33937,19.059426 -34.17492,42.265577 -18.835557,23.20615 -34.19673,42.32261 -34.135944,42.48101 0.06079,0.15841 15.251167,19.66755 33.756404,43.35366 18.50523,23.6861 33.71094,43.23519 33.79046,43.44242 0.11145,0.29044 -0.11958,0.37682 -1.0082,0.37695 -0.63404,9e-5 -5.37951,0.3572 -10.5455,0.79358 -5.16599,0.43637 -9.51598,0.79349 -9.66664,0.79358 -0.15067,9e-5 -16.49442,-20.0096 -36.319449,-44.46599 z"
         id="path1056"
         inkscape:connector-curvature="0" />
      <path
         style="fill:url(#linearGradient839);fill-opacity:1;stroke-width:0.26458332"
         d="M 126.38959,222.39695 C 124.35971,219.88671 108.13583,199.86961 90.336521,177.9145 72.53721,155.95938 58.009823,137.84386 58.053437,137.65777 c 0.162579,-0.6937 73.321843,-88.496725 73.736363,-88.49565 0.45851,0.0011 20.43835,4.17667 20.5472,4.294052 0.0359,0.03876 -15.34492,19.054195 -34.17969,42.256531 -18.83478,23.202337 -34.193302,42.320907 -34.130059,42.485717 0.06324,0.16481 15.249059,19.67237 33.746259,43.35013 18.49719,23.67775 33.65958,43.1859 33.6942,43.35144 0.0437,0.20922 -3.04244,0.56469 -10.12352,1.16603 -5.60255,0.47578 -10.42889,0.87179 -10.72518,0.88002 -0.38649,0.0107 -1.58167,-1.27478 -4.22942,-4.54909 z"
         id="path1054"
         inkscape:connector-curvature="0" />
      <path
         style="fill:url(#linearGradient839);fill-opacity:1;stroke-width:0.26458332"
         d="M 94.248356,182.74619 C 74.530284,158.42838 58.294158,138.31667 58.168076,138.0535 57.980909,137.66282 64.67677,129.46206 94.653423,93.368013 114.84644,69.054166 131.53446,49.161016 131.7379,49.161016 c 0.40544,0 20.51045,4.197223 20.60366,4.301323 0.0317,0.03537 -15.34807,19.041633 -34.17719,42.236148 C 99.335251,118.893 83.929606,137.95394 83.929606,138.05614 c 0,0.10219 15.239428,19.69176 33.865394,43.53237 18.62597,23.84061 33.80365,43.40832 33.72817,43.48379 -0.10713,0.10714 -19.33347,1.82209 -21.0269,1.87557 -0.21828,0.007 -16.52984,-19.88386 -36.247914,-44.20168 z"
         id="path1052"
         inkscape:connector-curvature="0" />
      <path
         style="fill:url(#linearGradient839);fill-opacity:1;stroke-width:0.26458332"
         d="M 128.6356,225.17507 C 127.85104,224.1928 111.69121,204.24524 92.724851,180.84714 73.758494,157.44904 58.176717,138.13875 58.098678,137.93538 58.011831,137.70906 71.327257,121.47022 92.422855,96.075298 111.37919,73.255619 127.89507,53.364584 129.1248,51.872995 c 1.22973,-1.491588 2.40393,-2.711979 2.60933,-2.711979 0.40496,0 18.82327,3.84756 19.95947,4.169508 0.66471,0.188349 -0.66363,1.866339 -33.53593,42.363282 -18.825435,23.191944 -34.228064,42.254824 -34.228064,42.361974 0,0.10714 15.238243,19.7 33.862764,43.53968 18.62451,23.83969 33.80258,43.40506 33.72904,43.4786 -0.10048,0.10049 -19.6257,1.83259 -21.1761,1.87855 -0.15579,0.005 -0.92516,-0.79527 -1.70971,-1.77754 z"
         id="path1050"
         inkscape:connector-curvature="0" />
      <path
         style="fill:url(#linearGradient839);fill-opacity:1;stroke-width:0.26458332"
         d="M 128.22914,224.66183 C 127.2005,223.37976 111.02942,203.4176 92.293397,180.30147 73.557377,157.18534 58.167713,138.11529 58.094146,137.92357 58.018128,137.72547 73.633685,118.6917 94.268255,93.831028 114.23758,69.771845 130.79344,49.855082 131.05905,49.571552 c 0.4773,-0.50949 0.59648,-0.491673 10.21395,1.526886 5.35206,1.123318 10.0393,2.1292 10.41608,2.235298 0.65496,0.184433 -0.81807,2.04457 -33.53721,42.350635 -18.822244,23.186759 -34.222264,42.252109 -34.222264,42.367449 0,0.11534 15.242598,19.72061 33.872434,43.56726 27.55607,35.27244 33.78502,43.38937 33.40365,43.52819 -0.25784,0.0939 -4.57645,0.48824 -9.59692,0.87642 -5.02047,0.38818 -9.66391,0.76505 -10.31875,0.83748 l -1.19062,0.1317 z"
         id="path1048"
         inkscape:connector-curvature="0" />
      <path
         style="fill:url(#linearGradient839);fill-opacity:1;stroke-width:0.26458332"
         d="M 94.380648,182.89657 C 74.735336,158.66918 58.495355,138.57349 58.2918,138.23947 c -0.356407,-0.58486 0.978509,-2.23173 36.0804,-44.512161 20.04777,-24.147657 36.61087,-44.074866 36.80687,-44.28268 0.3086,-0.327192 0.63255,-0.320125 2.41648,0.05273 9.37352,1.959123 18.73195,3.947178 18.75514,3.984246 0.0155,0.02477 -15.3729,19.012415 -34.19645,42.194761 -18.823548,23.182344 -34.224634,42.250874 -34.224634,42.374504 0,0.12363 15.234803,19.72778 33.855124,43.56477 18.62031,23.83699 33.80459,43.39051 33.74285,43.45225 -0.0819,0.0819 -20.39954,1.87344 -21.29589,1.87781 -0.0728,2.7e-4 -16.20573,-19.82175 -35.851042,-44.04913 z"
         id="path1046"
         inkscape:connector-curvature="0" />
      <path
         style="fill:url(#linearGradient839);fill-opacity:1;stroke-width:0.26458332"
         d="M 94.380648,182.8852 C 74.735336,158.63352 58.498696,138.52962 58.299227,138.20989 57.954552,137.6574 59.744963,135.45008 94.3816,93.725515 c 20.04477,-24.146673 36.60294,-44.071487 36.79593,-44.27737 0.30102,-0.321136 1.74435,-0.08277 10.15704,1.677461 5.39339,1.128482 10.07855,2.130369 10.41146,2.22641 0.54958,0.158552 -2.54369,4.053517 -33.60556,42.315268 -18.815977,23.177356 -34.210864,42.249566 -34.210864,42.382686 0,0.13313 15.23792,19.74609 33.862044,43.58436 32.93993,42.16202 33.84236,43.34726 33.13906,43.52446 -0.39764,0.10018 -4.71158,0.49283 -9.58652,0.87255 -4.87495,0.37972 -9.39933,0.74832 -10.05417,0.81912 l -1.19062,0.12873 z"
         id="path1044"
         inkscape:connector-curvature="0" />
    </g>
  </g>
</svg>
