<?xml version="1.0" encoding="UTF-8" standalone="no"?>
<!-- Created with Inkscape (http://www.inkscape.org/) -->

<svg
   xmlns:dc="http://purl.org/dc/elements/1.1/"
   xmlns:cc="http://creativecommons.org/ns#"
   xmlns:rdf="http://www.w3.org/1999/02/22-rdf-syntax-ns#"
   xmlns:svg="http://www.w3.org/2000/svg"
   xmlns="http://www.w3.org/2000/svg"
   xmlns:sodipodi="http://sodipodi.sourceforge.net/DTD/sodipodi-0.dtd"
   xmlns:inkscape="http://www.inkscape.org/namespaces/inkscape"
   width="122.3635mm"
   height="122.07571mm"
   viewBox="0 0 122.3635 122.07571"
   version="1.1"
   id="svg8"
   inkscape:version="0.92.4 (5da689c313, 2019-01-14)"
   sodipodi:docname="backArrow_hover.svg">
  <defs
     id="defs2" />
  <sodipodi:namedview
     id="base"
     pagecolor="#ffffff"
     bordercolor="#666666"
     borderopacity="1.0"
     inkscape:pageopacity="0.0"
     inkscape:pageshadow="2"
     inkscape:zoom="1.979899"
     inkscape:cx="192.62537"
     inkscape:cy="278.69578"
     inkscape:document-units="mm"
     inkscape:current-layer="layer1"
     showgrid="false"
     fit-margin-top="0"
     fit-margin-left="0"
     fit-margin-right="0"
     fit-margin-bottom="0"
     inkscape:window-width="1920"
     inkscape:window-height="1001"
     inkscape:window-x="-9"
     inkscape:window-y="-9"
     inkscape:window-maximized="1" />
  <metadata
     id="metadata5">
    <rdf:RDF>
      <cc:Work
         rdf:about="">
        <dc:format>image/svg+xml</dc:format>
        <dc:type
           rdf:resource="http://purl.org/dc/dcmitype/StillImage" />
        <dc:title></dc:title>
      </cc:Work>
    </rdf:RDF>
  </metadata>
  <g
     inkscape:label="Livello 1"
     inkscape:groupmode="layer"
     id="layer1"
     style="opacity:1"
     transform="translate(-32.11975,-37.209671)">
    <g
       id="g987"
       transform="matrix(0,-1,-1,0,224.81093,204.02225)"
       style="fill:#007b79;fill-opacity:1;stroke:#007b79;stroke-opacity:1;stroke-width:0.2;stroke-miterlimit:4;stroke-dasharray:none">
      <g
         id="g880"
         style="fill:#007b79;fill-opacity:1;stroke:#007b79;stroke-opacity:1;stroke-width:0.2;stroke-miterlimit:4;stroke-dasharray:none">
        <path
           inkscape:connector-curvature="0"
           id="path932"
           d="m 120.97986,177.41692 c -8.66083,-8.66182 -15.14653,-15.34971 -15.14653,-15.61872 0,-1.53685 0.9792,-0.66353 15.245,13.59665 l 14.39786,14.3922 -0.0861,-39.55521 c -0.0773,-35.53406 -0.13055,-39.77039 -0.52327,-41.67187 C 132.89735,99.02424 128.84906,91.432845 122.2388,84.879759 114.92631,77.630527 105.60474,73.24276 95.288112,72.193777 93.589956,72.021111 83.515094,71.915176 68.79194,71.915176 c -21.695158,0 -23.770486,-0.03734 -23.921321,-0.43041 -0.468911,-1.221964 -1.168086,-1.192847 25.883637,-1.077911 27.233239,0.115708 26.311407,0.07243 31.904074,1.497691 2.95799,0.753826 7.54077,2.591808 10.39541,4.169207 12.9507,7.156239 21.67916,19.892549 23.61942,34.464757 0.30307,2.27623 0.37162,9.75606 0.37584,41.01296 l 0.005,38.229 14.3701,-14.36112 c 14.46883,-14.4598 14.90943,-14.84948 15.38592,-13.60777 0.11943,0.31125 -3.92725,4.51946 -14.99153,15.58996 -8.33532,8.33999 -15.27598,15.16363 -15.42369,15.16363 -0.14771,0 -7.0845,-6.81671 -15.4151,-15.14825 z"
           style="fill:#007b79;fill-opacity:1;stroke-width:0.2;stroke:#007b79;stroke-opacity:1;stroke-miterlimit:4;stroke-dasharray:none" />
        <path
           inkscape:connector-curvature="0"
           id="path930"
           d="m 120.97986,177.41692 c -8.33059,-8.33154 -15.14653,-15.34349 -15.14653,-15.58211 0,-1.57625 0.93406,-0.74525 15.27146,13.5865 l 14.3714,14.36574 -0.0861,-39.55521 c -0.0773,-35.53406 -0.13055,-39.77039 -0.52327,-41.67187 -3.41102,-16.515369 -14.4059,-29.159029 -29.79942,-34.268129 -6.974895,-2.314962 -7.908713,-2.376665 -35.968324,-2.376665 -20.82436,0 -23.831597,-0.04948 -24.119908,-0.396875 -0.26278,-0.316631 -0.26278,-0.477119 0,-0.79375 0.28825,-0.34732 3.259886,-0.396875 23.798945,-0.396875 14.598794,0 24.561981,0.106396 26.359788,0.281493 14.197429,1.382755 26.669549,8.93286 34.500479,20.885173 3.77711,5.764987 6.23896,12.607318 7.13722,19.836808 0.18336,1.47576 0.27856,15.25963 0.27856,40.33093 v 38.08891 l 14.39295,-14.33761 c 10.00466,-9.9662 14.5159,-14.29044 14.79621,-14.18287 1.22331,0.46943 0.80339,0.94008 -14.42958,16.17306 -8.33889,8.33888 -15.2799,15.1616 -15.42447,15.1616 -0.14458,0 -7.07881,-6.81671 -15.40941,-15.14825 z"
           style="fill:#007b79;fill-opacity:1;stroke-width:0.2;stroke:#007b79;stroke-opacity:1;stroke-miterlimit:4;stroke-dasharray:none" />
        <path
           inkscape:connector-curvature="0"
           id="path928"
           d="m 120.97986,177.41692 c -8.33059,-8.33154 -15.14653,-15.34349 -15.14653,-15.58211 0,-1.56552 0.94781,-0.72195 15.26324,13.58454 l 14.37009,14.36112 -0.002,-38.49358 c -0.001,-32.92799 -0.0592,-38.87574 -0.39992,-41.13666 C 132.00639,89.858453 116.0886,74.534063 95.635713,72.191075 94.185929,72.024994 83.951611,71.918675 69.286644,71.917347 48.296956,71.915447 45.26705,71.865707 44.978728,71.518301 c -0.26278,-0.316631 -0.26278,-0.477119 0,-0.79375 0.288253,-0.347324 3.261876,-0.396875 23.816862,-0.396875 14.449708,0 24.541818,0.106655 26.227499,0.277177 6.254961,0.632746 10.955791,1.985954 16.498341,4.749306 13.20546,6.583848 21.98622,18.365577 24.94501,33.470391 0.36063,1.84104 0.43448,7.24822 0.5671,41.52481 l 0.15248,39.40815 14.46057,-14.34534 c 13.23237,-13.12693 14.49639,-14.30952 14.88229,-13.92363 0.29674,0.29674 0.34853,0.55348 0.17478,0.86636 -0.37189,0.66964 -30.0176,30.21027 -30.31773,30.21027 -0.14299,0 -7.07591,-6.81671 -15.40651,-15.14825 z"
           style="fill:#007b79;fill-opacity:1;stroke-width:0.2;stroke:#007b79;stroke-opacity:1;stroke-miterlimit:4;stroke-dasharray:none" />
        <path
           inkscape:connector-curvature="0"
           id="path926"
           d="m 120.97986,177.41692 c -8.33059,-8.33154 -15.14653,-15.34349 -15.14653,-15.58211 0,-1.56552 0.94781,-0.72195 15.26324,13.58454 l 14.37009,14.36112 -0.002,-38.49358 c -0.002,-41.72998 0.0319,-40.66052 -1.45365,-46.24206 -2.79159,-10.488368 -9.30192,-19.570489 -18.38854,-25.652629 -3.73074,-2.497177 -8.94156,-4.86123 -13.01031,-5.902534 -5.660796,-1.448753 -4.296765,-1.384502 -31.748129,-1.495474 -21.963337,-0.08879 -25.621252,-0.157731 -25.895417,-0.488079 -0.249755,-0.300937 -0.247553,-0.471092 0.01011,-0.781563 0.288223,-0.347287 3.24276,-0.396847 23.646457,-0.396654 23.921743,2.27e-4 26.938816,0.102308 31.717349,1.073142 17.1706,3.488477 31.3403,17.22658 35.4237,34.344721 1.27529,5.34615 1.27683,5.40175 1.28233,46.07267 l 0.005,38.23138 14.35455,-14.35274 c 7.895,-7.894 14.54976,-14.35273 14.78836,-14.35273 1.57839,0 0.74153,0.93437 -14.38333,16.05923 -8.33889,8.33888 -15.2799,15.1616 -15.42447,15.1616 -0.14458,0 -7.07881,-6.81671 -15.40941,-15.14825 z"
           style="fill:#007b79;fill-opacity:1;stroke-width:0.2;stroke:#007b79;stroke-opacity:1;stroke-miterlimit:4;stroke-dasharray:none" />
        <path
           inkscape:connector-curvature="0"
           id="path924"
           d="m 120.97986,177.41692 c -8.33059,-8.33154 -15.14653,-15.34349 -15.14653,-15.58211 0,-1.56543 0.94783,-0.72195 15.26879,13.58782 l 14.37563,14.36442 -0.081,-39.6875 -0.081,-39.6875 -0.60123,-2.64583 c -2.35302,-10.354875 -7.4387,-18.942017 -14.94801,-25.239603 -5.23347,-4.388986 -11.14442,-7.498841 -17.19808,-9.048213 -5.60932,-1.43565 -4.278371,-1.373343 -31.704009,-1.484211 -21.963337,-0.08879 -25.621252,-0.157731 -25.895417,-0.488079 -0.250304,-0.301597 -0.24533,-0.473771 0.02302,-0.79712 0.306755,-0.369617 2.967468,-0.401466 25.630833,-0.306804 24.488771,0.102287 25.382443,0.123505 28.257599,0.670907 20.481794,3.899533 35.645264,20.141061 37.891384,40.585293 0.18671,1.69943 0.28227,15.40422 0.28227,40.48034 v 37.91108 l 14.35455,-14.35274 c 7.895,-7.894 14.54976,-14.35273 14.78836,-14.35273 1.57839,0 0.74153,0.93437 -14.38333,16.05923 -8.33889,8.33888 -15.2799,15.1616 -15.42447,15.1616 -0.14458,0 -7.07881,-6.81671 -15.40941,-15.14825 z"
           style="fill:#007b79;fill-opacity:1;stroke-width:0.2;stroke:#007b79;stroke-opacity:1;stroke-miterlimit:4;stroke-dasharray:none" />
        <path
           inkscape:connector-curvature="0"
           id="path922"
           d="m 120.97986,177.41692 c -8.33059,-8.33154 -15.14653,-15.34349 -15.14653,-15.58211 0,-1.56552 0.94781,-0.72195 15.26324,13.58454 l 14.37009,14.36112 v -38.66573 c 0,-37.48953 -0.0161,-38.7611 -0.53089,-41.80088 -2.96589,-17.514938 -15.73818,-31.53104 -32.76967,-35.9609 -5.309972,-1.381115 -6.598582,-1.437784 -32.694128,-1.437784 -21.155823,0 -24.204424,-0.0494 -24.492804,-0.396875 -0.26278,-0.316631 -0.26278,-0.477119 0,-0.79375 0.2882,-0.34726 3.211293,-0.396534 23.381874,-0.394145 13.705321,0.0016 24.339877,0.114187 26.227499,0.277612 6.063809,0.524986 11.004819,1.87643 16.404169,4.486799 13.32107,6.440201 22.53742,18.615466 25.43236,33.597443 0.45362,2.34758 0.49479,5.11216 0.62354,41.8713 l 0.13785,39.35776 14.28658,-14.28849 c 8.00967,-8.01075 14.49041,-14.28849 14.75052,-14.28849 0.26578,0 0.46394,0.19813 0.46394,0.46388 0,0.39292 -30.04007,30.75695 -30.4288,30.75695 -0.0728,0 -6.94824,-6.81671 -15.27884,-15.14825 z"
           style="fill:#007b79;fill-opacity:1;stroke-width:0.2;stroke:#007b79;stroke-opacity:1;stroke-miterlimit:4;stroke-dasharray:none" />
        <path
           inkscape:connector-curvature="0"
           id="path920"
           d="m 120.97986,177.41692 c -8.33059,-8.33154 -15.14653,-15.34349 -15.14653,-15.58211 0,-1.56552 0.94781,-0.72195 15.26324,13.58454 l 14.37009,14.36112 v -38.65886 c 0,-37.98545 -0.01,-38.7159 -0.55267,-41.93317 -2.83436,-16.792287 -15.1137,-30.707712 -31.2492,-35.412807 -5.999097,-1.749332 -4.700978,-1.67867 -32.79938,-1.785411 -22.002501,-0.08358 -25.619944,-0.151052 -25.895416,-0.482976 -0.250966,-0.302395 -0.248982,-0.471636 0.0092,-0.782695 0.28812,-0.347163 3.187227,-0.396875 23.145016,-0.396875 23.38961,0 27.663816,0.139779 32.02367,1.047265 19.67388,4.095041 34.42769,20.323199 36.62365,40.283449 0.18723,1.70178 0.28266,15.36951 0.28266,40.48034 v 37.91108 l 14.35455,-14.35274 c 8.00415,-8.00313 14.55899,-14.35273 14.81667,-14.35273 0.26405,0 0.46212,0.19882 0.46212,0.46388 0,0.39292 -30.04007,30.75695 -30.4288,30.75695 -0.0728,0 -6.94824,-6.81671 -15.27884,-15.14825 z"
           style="fill:#007b79;fill-opacity:1;stroke-width:0.2;stroke:#007b79;stroke-opacity:1;stroke-miterlimit:4;stroke-dasharray:none" />
        <path
           inkscape:connector-curvature="0"
           id="path918"
           d="m 120.97986,177.41692 c -8.33059,-8.33154 -15.14653,-15.34349 -15.14653,-15.58211 0,-1.56543 0.94783,-0.72195 15.26877,13.58782 l 14.37562,14.36442 -0.0809,-39.81979 -0.0809,-39.81979 -0.59209,-2.58268 c -2.132,-9.29929 -6.45547,-17.05655 -12.97266,-23.275652 -6.28693,-5.999374 -13.34218,-9.65667 -22.453636,-11.639497 -2.527149,-0.549957 -3.238688,-0.566586 -28.300726,-0.661434 -27.158962,-0.102783 -27.015284,-0.09592 -25.875582,-1.235624 0.383512,-0.383513 2.620443,-0.424844 22.961736,-0.424265 23.234721,6.62e-4 27.631743,0.146166 32.080808,1.061597 17.86606,3.676084 32.18685,17.872738 35.8247,35.514155 1.02694,4.98007 1.06569,6.62979 1.06569,45.36695 v 37.77879 l 14.35455,-14.35274 c 8.00415,-8.00313 14.55899,-14.35273 14.81667,-14.35273 0.26405,0 0.46212,0.19882 0.46212,0.46388 0,0.39292 -30.04007,30.75695 -30.4288,30.75695 -0.0728,0 -6.94824,-6.81671 -15.27884,-15.14825 z"
           style="fill:#007b79;fill-opacity:1;stroke-width:0.2;stroke:#007b79;stroke-opacity:1;stroke-miterlimit:4;stroke-dasharray:none" />
        <path
           inkscape:connector-curvature="0"
           id="path916"
           d="m 121.04915,177.4839 c -8.3687,-8.36401 -15.21582,-15.40431 -15.21582,-15.64512 0,-1.56994 0.94067,-0.73307 15.26877,13.58385 l 14.37562,14.36442 -0.0809,-39.81979 -0.0809,-39.81979 -0.59209,-2.58268 c -2.64342,-11.530447 -8.80935,-20.889932 -18.17479,-27.588191 -4.35472,-3.114533 -11.09744,-6.058032 -16.27188,-7.103395 -4.419357,-0.89282 -6.510218,-0.958028 -30.71847,-0.958028 -20.413738,0 -24.298491,-0.05835 -24.556178,-0.368844 -0.236345,-0.284778 -0.209269,-0.465686 0.118794,-0.793749 0.383486,-0.383487 2.596026,-0.424524 22.697153,-0.420983 12.249734,0.0022 23.981742,0.120643 26.071125,0.2633 10.338776,0.705902 19.771366,4.624384 27.593306,11.462796 6.54492,5.721959 11.83505,14.293324 13.98903,22.665814 1.47686,5.74054 1.39583,3.36144 1.5613,45.84006 l 0.15332,39.35776 14.28658,-14.2885 c 8.00967,-8.01075 14.49041,-14.28849 14.75052,-14.28849 0.26578,0 0.46394,0.19813 0.46394,0.46388 0,0.26038 -6.67329,7.13642 -15.21127,15.67342 l -15.21126,15.20954 z"
           style="fill:#007b79;fill-opacity:1;stroke-width:0.2;stroke:#007b79;stroke-opacity:1;stroke-miterlimit:4;stroke-dasharray:none" />
        <path
           inkscape:connector-curvature="0"
           id="path914"
           d="m 121.0437,177.48078 c -8.71545,-8.70922 -15.18937,-15.37873 -15.14664,-15.60424 0.24789,-1.30802 1.18262,-0.47469 15.32474,13.66235 l 14.25327,14.24816 -0.0788,-39.81979 -0.0788,-39.81979 -0.58839,-2.56041 c -2.04868,-8.914896 -5.95279,-16.168625 -11.95274,-22.207862 -1.67885,-1.68984 -3.9527,-3.741168 -5.053,-4.558506 C 112.14975,76.680399 105.9185,73.95657 98.75884,72.530827 96.682975,72.117449 93.757604,72.054223 70.776042,71.926036 L 45.11146,71.782884 45.02814,71.196924 c -0.06205,-0.436359 0.08242,-0.62756 0.565854,-0.748894 0.357047,-0.08961 11.765011,-0.109874 25.351029,-0.04503 23.655177,0.112912 24.825175,0.141273 27.61227,0.669324 9.917437,1.878986 18.131797,6.128077 24.883487,12.871618 5.79588,5.788885 10.07648,13.182178 12.03106,20.779558 1.47686,5.74054 1.39583,3.36144 1.5613,45.84006 l 0.15332,39.35776 14.28658,-14.2885 c 8.00967,-8.01075 14.49041,-14.28849 14.75052,-14.28849 0.26578,0 0.46394,0.19813 0.46394,0.46388 0,0.26038 -6.67329,7.13642 -15.21127,15.67342 l -15.21126,15.20954 z"
           style="fill:#007b79;fill-opacity:1;stroke-width:0.2;stroke:#007b79;stroke-opacity:1;stroke-miterlimit:4;stroke-dasharray:none" />
        <path
           inkscape:connector-curvature="0"
           id="path912"
           d="m 121.0437,177.48078 c -8.71545,-8.70922 -15.18937,-15.37873 -15.14664,-15.60424 0.24802,-1.30871 1.18246,-0.47484 15.41579,13.75669 l 14.34431,14.3425 0.0173,-35.94538 c 0.01,-19.76996 -0.0844,-37.67179 -0.20858,-39.78184 -0.12424,-2.11005 -0.47969,-5.08662 -0.78989,-6.61459 C 131.38478,91.422126 119.22621,78.251887 103.28666,73.632784 97.76575,72.032889 98.69685,72.081775 70.779593,71.926036 45.934851,71.787438 45.115514,71.76706 45.02283,71.285422 c -0.05265,-0.273604 0.06482,-0.599203 0.261034,-0.723553 0.489307,-0.310087 43.335021,-0.284358 48.170861,0.02893 8.472895,0.548908 15.939295,2.975772 22.565065,7.334509 11.87314,7.810695 19.31557,20.063094 20.7548,34.168422 0.18222,1.78583 0.27957,15.83667 0.27957,40.34804 v 37.60804 l 14.35455,-14.35274 c 8.00415,-8.00313 14.55899,-14.35273 14.81667,-14.35273 0.26405,0 0.46212,0.19882 0.46212,0.46388 0,0.26038 -6.67329,7.13642 -15.21127,15.67342 l -15.21126,15.20954 z"
           style="fill:#007b79;fill-opacity:1;stroke-width:0.2;stroke:#007b79;stroke-opacity:1;stroke-miterlimit:4;stroke-dasharray:none" />
        <path
           inkscape:connector-curvature="0"
           id="path910"
           d="m 120.809,177.24606 c -14.91876,-14.92049 -15.79852,-15.90172 -14.25727,-15.90172 0.26865,0 6.62738,6.15617 14.82497,14.35273 l 14.35455,14.35274 -0.009,-36.3793 c -0.005,-20.00861 -0.11636,-37.92949 -0.24717,-39.82418 -0.7532,-10.90462 -4.91275,-20.431561 -12.27362,-28.110458 C 116.78341,79.040523 109.17248,74.825118 99.615624,72.672568 96.996164,72.082571 96.711333,72.075167 71.040625,71.929757 L 45.11146,71.782884 45.026912,71.187572 c -0.07262,-0.51132 0.03937,-0.598463 0.79375,-0.617641 0.483064,-0.01228 11.712985,-0.02142 24.95538,-0.02032 26.145219,0.0022 26.585232,0.02286 32.142858,1.510574 15.97253,4.275661 28.58882,17.102669 32.65943,33.204905 1.46649,5.80101 1.47583,6.09926 1.47583,47.08088 v 37.70384 l 14.39311,-14.39129 c 13.99978,-13.99802 15.24023,-15.11524 15.24023,-13.7263 0,0.48103 -29.94683,30.36837 -30.42882,30.36837 -0.21829,0 -7.17064,-6.77454 -15.44968,-15.05453 z"
           style="fill:#007b79;fill-opacity:1;stroke-width:0.2;stroke:#007b79;stroke-opacity:1;stroke-miterlimit:4;stroke-dasharray:none" />
        <path
           inkscape:connector-curvature="0"
           id="path908"
           d="m 120.809,177.24606 c -14.77543,-14.77715 -15.78877,-15.90172 -14.32878,-15.90172 0.2194,0 6.86087,6.41677 14.75882,14.25949 l 14.35992,14.25948 0.0754,-35.88917 c 0.0477,-22.7075 -0.0249,-37.38263 -0.19776,-39.95533 -0.806,-11.99864 -5.40955,-21.814142 -14.11177,-30.088513 C 115.51059,78.363881 108.34006,74.656426 99.587578,72.670579 96.9978,72.082986 96.692359,72.075059 71.040625,71.929757 l -25.929165,-0.146873 -0.08582,-0.605039 -0.08582,-0.60504 26.279571,0.08846 c 26.059221,0.08772 26.301233,0.0934 28.863039,0.677391 18.99301,4.329669 32.59259,18.282382 36.23555,37.176424 0.56294,2.91971 0.57159,3.42766 0.71915,42.18078 l 0.14934,39.22548 14.28658,-14.2885 c 7.85761,-7.85867 14.43954,-14.2885 14.62653,-14.2885 1.39308,0 0.26034,1.25193 -14.38776,15.90172 -8.27903,8.27999 -15.23217,15.05453 -15.45141,15.05453 -0.21924,0 -7.17237,-6.77454 -15.4514,-15.05453 z"
           style="fill:#007b79;fill-opacity:1;stroke-width:0.2;stroke:#007b79;stroke-opacity:1;stroke-miterlimit:4;stroke-dasharray:none" />
        <path
           inkscape:connector-curvature="0"
           id="path906"
           d="m 120.809,177.24606 c -11.33164,-11.33296 -15.01075,-15.16408 -14.88274,-15.49768 0.0935,-0.24373 0.33834,-0.40459 0.54403,-0.35745 0.20569,0.0471 6.84378,6.4966 14.75132,14.33215 l 14.37735,14.24645 0.0769,-36.07457 c 0.0498,-23.36502 -0.0212,-37.46651 -0.20156,-40.0254 -0.83595,-11.86097 -5.39345,-21.614285 -13.89085,-29.727241 -6.0391,-5.765872 -13.1651,-9.4871 -21.967806,-11.471678 -2.620568,-0.59081 -2.893436,-0.597896 -28.574999,-0.742131 L 45.11148,71.782884 45.0258,71.178956 l -0.08568,-0.603928 26.147134,0.07476 26.147134,0.07476 2.778122,0.621962 c 18.97391,4.247846 32.65948,18.258771 36.30547,37.16857 0.56294,2.91971 0.5716,3.42766 0.71915,42.18078 l 0.14934,39.22548 14.28658,-14.2885 c 7.85762,-7.85867 14.43955,-14.2885 14.62653,-14.2885 1.39308,0 0.26035,1.25193 -14.38775,15.90172 -8.27903,8.27999 -15.23217,15.05453 -15.45141,15.05453 -0.21924,0 -7.17237,-6.77454 -15.45141,-15.05453 z"
           style="fill:#007b79;fill-opacity:1;stroke-width:0.2;stroke:#007b79;stroke-opacity:1;stroke-miterlimit:4;stroke-dasharray:none" />
        <path
           inkscape:connector-curvature="0"
           id="path904"
           d="m 120.809,177.24606 c -14.64809,-14.64979 -15.78083,-15.90172 -14.38774,-15.90172 0.18697,0 6.7685,6.42937 14.62561,14.2875 7.85712,7.85812 14.37538,14.2875 14.48502,14.2875 0.29338,0 0.23297,-72.83535 -0.0636,-76.64802 C 134.07231,95.322632 122.12623,79.899418 105.2495,74.256751 98.427597,71.975876 100.26241,72.100553 71.040625,71.932236 L 45.11146,71.782884 45.026912,71.187572 44.942364,70.592259 H 70.06989 c 24.008206,0 25.267181,0.02383 28.262672,0.534966 4.049708,0.691022 6.425848,1.359601 10.014308,2.817745 15.85229,6.44146 26.66652,21.053624 28.42909,38.41334 0.18034,1.77617 0.2782,15.92272 0.2782,40.21576 v 37.47574 l 14.39311,-14.39129 c 13.99978,-13.99802 15.24023,-15.11524 15.24023,-13.7263 0,0.48103 -29.94683,30.36837 -30.42882,30.36837 -0.21829,0 -7.17064,-6.77454 -15.44968,-15.05453 z"
           style="fill:#007b79;fill-opacity:1;stroke-width:0.2;stroke:#007b79;stroke-opacity:1;stroke-miterlimit:4;stroke-dasharray:none" />
        <path
           inkscape:connector-curvature="0"
           id="path902"
           d="m 120.809,177.24606 c -14.64809,-14.64979 -15.78083,-15.90172 -14.38774,-15.90172 0.18697,0 6.7685,6.42937 14.62561,14.2875 7.85712,7.85812 14.37538,14.2875 14.48502,14.2875 0.30082,0 0.23632,-73.13925 -0.0677,-76.80895 -0.92404,-11.15242 -5.50653,-20.857533 -13.52871,-28.652055 -6.24688,-6.069603 -13.59201,-9.945636 -22.354252,-11.79636 -2.858021,-0.60366 -3.037075,-0.608301 -28.672854,-0.743272 L 45.1115,71.782884 45.02695,71.187572 44.9424,70.592259 h 24.921424 c 21.199217,0 25.33602,0.06156 27.69728,0.412175 19.164946,2.845719 34.495456,17.266703 38.429576,36.149616 1.00444,4.82113 1.06308,7.33499 1.0633,45.59042 l 2.2e-4,37.30534 14.39311,-14.39129 c 13.99978,-13.99802 15.24023,-15.11524 15.24023,-13.7263 0,0.48103 -29.94683,30.36837 -30.42882,30.36837 -0.21829,0 -7.17064,-6.77454 -15.44968,-15.05453 z"
           style="fill:#007b79;fill-opacity:1;stroke-width:0.2;stroke:#007b79;stroke-opacity:1;stroke-miterlimit:4;stroke-dasharray:none" />
        <path
           inkscape:connector-curvature="0"
           id="path900"
           d="m 120.809,177.24606 c -14.64809,-14.64979 -15.78083,-15.90172 -14.38774,-15.90172 0.18697,0 6.7685,6.42937 14.62561,14.2875 7.85712,7.85812 14.38016,14.2875 14.49567,14.2875 0.11549,0 0.16718,-17.59149 0.11486,-39.09219 -0.094,-38.63613 -0.10174,-39.12645 -0.66062,-42.02973 -1.76296,-9.158206 -5.72623,-16.824619 -12.07167,-23.351019 -6.34133,-6.52218 -13.51174,-10.51486 -22.78032,-12.684702 L 97.234374,72.080349 71.172917,71.931617 45.11146,71.782884 45.025632,71.1778 l -0.08583,-0.605085 26.147286,0.08689 26.147285,0.08689 3.042707,0.691921 c 20.38915,4.63655 34.57046,20.656621 36.49112,41.222584 0.18664,1.99859 0.28447,15.7988 0.28506,40.21575 l 9e-4,37.17305 14.39311,-14.39129 c 13.99978,-13.99802 15.24023,-15.11524 15.24023,-13.7263 0,0.48103 -29.94683,30.36837 -30.42882,30.36837 -0.21829,0 -7.17064,-6.77454 -15.44968,-15.05453 z"
           style="fill:#007b79;fill-opacity:1;stroke-width:0.2;stroke:#007b79;stroke-opacity:1;stroke-miterlimit:4;stroke-dasharray:none" />
        <path
           inkscape:connector-curvature="0"
           id="path898"
           d="m 120.809,177.24606 c -14.64809,-14.64979 -15.78083,-15.90172 -14.38774,-15.90172 0.18697,0 6.7685,6.42937 14.62561,14.2875 7.85712,7.85812 14.37982,14.2875 14.4949,14.2875 0.11508,0 0.16714,-17.59149 0.11569,-39.09219 -0.0932,-38.96334 -0.0954,-39.10215 -0.6743,-42.11442 C 133.29212,99.912695 129.2665,92.020772 123.33334,85.874093 116.59922,78.897646 109.37372,74.840635 99.794776,72.657557 97.274458,72.083166 96.826368,72.071752 71.172917,71.928457 L 45.11146,71.782884 45.025632,71.1778 l -0.08583,-0.605085 26.147286,0.08856 c 26.023563,0.08814 26.159805,0.09138 28.793118,0.685757 11.736074,2.648998 21.126014,8.614171 27.942244,17.750962 3.65947,4.905311 6.17716,10.169762 7.64703,15.989796 1.4672,5.80946 1.40912,4.11093 1.56839,45.87266 l 0.14859,38.96091 14.28658,-14.28851 c 7.85762,-7.85868 14.43955,-14.28851 14.62653,-14.28851 1.39308,0 0.26035,1.25193 -14.38775,15.90172 -8.27903,8.27999 -15.23217,15.05453 -15.45141,15.05453 -0.21924,0 -7.17237,-6.77454 -15.45141,-15.05453 z"
           style="fill:#007b79;fill-opacity:1;stroke-width:0.2;stroke:#007b79;stroke-opacity:1;stroke-miterlimit:4;stroke-dasharray:none" />
        <path
           inkscape:connector-curvature="0"
           id="path896"
           d="m 120.809,177.24606 c -14.64809,-14.64979 -15.78083,-15.90172 -14.38774,-15.90172 0.18697,0 6.7685,6.42937 14.62561,14.2875 7.85712,7.85812 14.37538,14.2875 14.48502,14.2875 0.31013,0 0.24466,-74.09263 -0.0683,-77.29645 -1.13074,-11.57548 -6.08578,-21.448758 -14.74294,-29.376357 -5.47571,-5.014268 -12.85944,-8.750604 -20.925874,-10.588976 -2.520318,-0.574391 -2.968408,-0.585805 -28.621859,-0.7291 L 45.11146,71.782884 45.02548,71.176662 44.9395,70.570441 l 26.147436,0.09093 c 26.001047,0.09042 26.162247,0.09427 28.793266,0.686895 9.632438,2.169659 17.313338,6.361703 23.880638,13.033473 6.82927,6.937889 11.05197,15.402423 12.79175,25.641411 0.25782,1.51731 0.35756,11.03884 0.42941,40.99081 l 0.0936,39.01441 14.38238,-14.38057 c 13.98926,-13.98749 15.22952,-15.10445 15.22952,-13.71558 0,0.48103 -29.94684,30.36837 -30.42883,30.36837 -0.21828,0 -7.17063,-6.77454 -15.44967,-15.05453 z"
           style="fill:#007b79;fill-opacity:1;stroke-width:0.2;stroke:#007b79;stroke-opacity:1;stroke-miterlimit:4;stroke-dasharray:none" />
        <path
           inkscape:connector-curvature="0"
           id="path894"
           d="m 120.809,177.24606 c -14.64809,-14.64979 -15.78083,-15.90172 -14.38774,-15.90172 0.18697,0 6.7685,6.42937 14.62561,14.2875 7.85712,7.85812 14.37538,14.2875 14.48502,14.2875 0.31601,0 0.24357,-74.00935 -0.0757,-77.37663 C 133.58446,92.804923 119.57837,77.106935 99.880207,72.669301 97.249439,72.076637 97.089001,72.072797 71.702084,71.994883 57.659324,71.951785 45.901903,71.85442 45.574481,71.778517 c -0.370571,-0.08591 -0.595313,-0.335874 -0.595313,-0.662132 0,-0.518753 0.254279,-0.524076 24.804687,-0.519279 20.25585,0.004 25.300642,0.07535 27.509119,0.389316 10.057346,1.429773 19.112996,5.971263 26.199586,13.139324 6.87314,6.952165 10.89707,14.700109 12.82742,24.698804 0.55417,2.87042 0.56324,3.44831 0.66024,42.05564 l 0.0984,39.14522 14.3809,-14.37909 c 13.9878,-13.98603 15.22803,-15.10296 15.22803,-13.7141 0,0.48103 -29.94683,30.36837 -30.42882,30.36837 -0.21829,0 -7.17064,-6.77454 -15.44968,-15.05453 z"
           style="fill:#007b79;fill-opacity:1;stroke-width:0.2;stroke:#007b79;stroke-opacity:1;stroke-miterlimit:4;stroke-dasharray:none" />
        <path
           inkscape:connector-curvature="0"
           id="path892"
           d="m 120.809,177.24606 c -14.64809,-14.64979 -15.78083,-15.90172 -14.38774,-15.90172 0.18697,0 6.7685,6.42937 14.62561,14.2875 7.85712,7.85812 14.37946,14.2875 14.49409,14.2875 0.11464,0 0.16492,-17.65102 0.11173,-39.22448 -0.10525,-42.69085 -0.017,-40.16627 -1.60858,-46.00851 C 129.65737,88.58411 116.75042,76.48834 99.880207,72.669593 97.244838,72.073051 97.133385,72.070379 71.702084,71.994215 57.659324,71.952158 45.901903,71.85537 45.574481,71.779129 c -0.370365,-0.08624 -0.595313,-0.336667 -0.595313,-0.662744 0,-0.518713 0.255801,-0.524126 24.77073,-0.524126 26.414176,0 27.269735,0.03535 32.426902,1.339887 7.70372,1.948703 14.79867,5.912595 20.54528,11.478483 7.34518,7.114184 11.59982,15.066744 13.59652,25.413921 0.55377,2.8697 0.56302,3.458 0.66154,42.05489 l 0.0999,39.14448 14.38015,-14.37834 c 13.98708,-13.98531 15.22729,-15.10221 15.22729,-13.71336 0,0.48103 -29.94683,30.36837 -30.42882,30.36837 -0.21829,0 -7.17064,-6.77454 -15.44968,-15.05453 z"
           style="fill:#007b79;fill-opacity:1;stroke-width:0.2;stroke:#007b79;stroke-opacity:1;stroke-miterlimit:4;stroke-dasharray:none" />
        <path
           inkscape:connector-curvature="0"
           id="path890"
           d="m 120.84529,177.28005 c -8.25658,-8.26129 -15.01196,-15.17065 -15.01196,-15.35413 0,-1.38139 1.25287,-0.25299 15.17499,13.66737 7.88032,7.87933 14.42083,14.32605 14.53446,14.32605 0.11364,0 0.1631,-17.65102 0.10991,-39.22448 -0.10519,-42.66769 -0.0148,-40.07133 -1.60315,-46.03698 -2.66379,-10.004734 -9.39502,-19.342837 -18.16204,-25.19585 -4.73691,-3.16244 -9.45092,-5.203093 -15.36205,-6.650087 l -3.026493,-0.740859 -25.664582,-0.07726 c -14.11552,-0.04249 -25.932472,-0.139369 -26.259894,-0.215286 -0.370563,-0.08592 -0.595313,-0.335906 -0.595313,-0.662157 0,-0.518679 0.255084,-0.524126 24.547043,-0.524126 15.590181,0 25.365124,0.101646 26.789061,0.278568 10.038588,1.247281 19.185518,5.564094 26.260728,12.393514 7.58882,7.325184 12.01391,15.701429 13.85613,26.228233 0.39184,2.239 0.44992,6.67713 0.54337,41.51913 l 0.10464,39.01214 14.38011,-14.3783 c 13.98704,-13.98527 15.22725,-15.10217 15.22725,-13.71332 0,0.4825 -29.9476,30.36837 -30.43109,30.36837 -0.21954,0 -7.15454,-6.75924 -15.41112,-15.02054 z"
           style="fill:#007b79;fill-opacity:1;stroke-width:0.2;stroke:#007b79;stroke-opacity:1;stroke-miterlimit:4;stroke-dasharray:none" />
        <path
           inkscape:connector-curvature="0"
           id="path888"
           d="m 120.84529,177.28005 c -8.25658,-8.26129 -15.01196,-15.17065 -15.01196,-15.35413 0,-1.38139 1.25287,-0.25299 15.17499,13.66737 7.88032,7.87933 14.41675,14.32605 14.52539,14.32605 0.32066,0 0.24107,-74.76343 -0.0827,-77.73178 -0.83557,-7.6596 -3.15943,-14.170155 -7.24134,-20.28748 -6.66862,-9.993878 -16.27222,-16.513589 -28.357326,-19.251288 -2.601301,-0.589285 -2.780122,-0.593491 -28.15022,-0.662048 -14.04276,-0.03795 -25.800181,-0.131374 -26.127603,-0.207615 -0.374916,-0.0873 -0.595313,-0.336303 -0.595313,-0.672584 0,-0.53247 0.07244,-0.533741 25.86302,-0.453841 25.808952,0.07996 25.869036,0.08139 28.741308,0.687411 9.804994,2.068743 17.688964,6.389893 24.529994,13.444705 3.58716,3.699257 5.92841,7.091191 8.28372,12.001188 2.69574,5.619682 3.9693,10.588082 4.39383,17.141112 0.13918,2.14826 0.25467,20.08022 0.25767,40.00798 l 0.005,36.11471 14.39311,-14.39129 c 13.99978,-13.99802 15.24023,-15.11524 15.24023,-13.7263 0,0.4825 -29.9476,30.36837 -30.43109,30.36837 -0.21954,0 -7.15454,-6.75924 -15.41112,-15.02054 z"
           style="fill:#007b79;fill-opacity:1;stroke-width:0.2;stroke:#007b79;stroke-opacity:1;stroke-miterlimit:4;stroke-dasharray:none" />
        <path
           inkscape:connector-curvature="0"
           id="path886"
           d="m 120.84529,177.28005 c -8.25658,-8.26129 -15.01196,-15.17065 -15.01196,-15.35413 0,-1.38139 1.25287,-0.25299 15.17499,13.66737 7.88032,7.87933 14.41675,14.32605 14.52539,14.32605 0.32066,0 0.24107,-74.76343 -0.0827,-77.73178 -1.51866,-13.921457 -8.61472,-25.570858 -20.22493,-33.202719 -6.31301,-4.149797 -13.57994,-6.518994 -21.695832,-7.073376 -2.037292,-0.139164 -13.803445,-0.254791 -26.147003,-0.256949 -21.230539,-0.0037 -22.438017,-0.02893 -22.35359,-0.466944 0.08427,-0.437176 1.521583,-0.463021 25.750129,-0.463021 h 25.66088 l 2.998732,0.607545 c 12.929004,2.619422 23.697214,10.024681 30.665094,21.088287 1.24592,1.978271 3.65062,7.123816 4.45137,9.524997 1.16125,3.48217 1.97838,7.92088 2.23989,12.16721 0.13455,2.18481 0.24775,20.16446 0.25155,39.9548 l 0.007,35.98242 14.39311,-14.39129 c 13.99978,-13.99802 15.24023,-15.11524 15.24023,-13.7263 0,0.4825 -29.9476,30.36837 -30.43109,30.36837 -0.21954,0 -7.15454,-6.75924 -15.41112,-15.02054 z"
           style="fill:#007b79;fill-opacity:1;stroke-width:0.2;stroke:#007b79;stroke-opacity:1;stroke-miterlimit:4;stroke-dasharray:none" />
        <path
           inkscape:connector-curvature="0"
           id="path884"
           d="m 120.85104,177.28288 c -8.25974,-8.25973 -15.01771,-15.16909 -15.01771,-15.35413 0,-1.38459 1.24675,-0.26194 15.17499,13.66454 7.88032,7.87933 14.41675,14.32605 14.52539,14.32605 0.30271,0 0.23337,-74.83966 -0.0721,-77.7875 C 133.44273,92.647052 119.10257,76.677554 100.08617,72.736969 95.609057,71.80922 90.985408,71.65533 67.515497,71.652915 c -21.356988,-0.0022 -22.570318,-0.02731 -22.485971,-0.465343 0.08403,-0.43637 1.490057,-0.467007 24.427211,-0.532263 20.419464,-0.05809 24.832674,-0.0052 27.410104,0.328693 15.510589,2.009147 28.828779,11.700382 35.541069,25.862135 1.68215,3.549043 2.60507,6.192093 3.53597,10.126333 l 0.68866,2.91041 0.0851,40.01823 c 0.0468,22.01002 0.17184,40.01823 0.27787,40.01823 0.10603,0 6.62133,-6.42938 14.47844,-14.2875 7.85712,-7.85813 14.43864,-14.2875 14.62562,-14.2875 1.39308,0 0.26035,1.25193 -14.38775,15.90172 -8.27903,8.27999 -15.23061,15.05453 -15.44794,15.05453 -0.21733,0 -7.15311,-6.75797 -15.41284,-15.01771 z"
           style="fill:#007b79;fill-opacity:1;stroke-width:0.2;stroke:#007b79;stroke-opacity:1;stroke-miterlimit:4;stroke-dasharray:none" />
        <path
           inkscape:connector-curvature="0"
           id="path882"
           d="m 120.94528,177.11775 c -8.99036,-8.99138 -15.1067,-15.30326 -14.99863,-15.47813 0.10037,-0.16241 0.3239,-0.29528 0.49672,-0.29528 0.17282,0 6.83329,6.51826 14.80105,14.48503 l 14.48683,14.48504 -0.002,-37.96681 c -0.001,-23.64795 -0.10239,-38.86487 -0.2679,-40.34805 -1.51378,-13.56528 -8.54893,-25.190948 -19.79456,-32.710752 -4.94302,-3.305325 -10.95597,-5.739189 -16.997506,-6.88008 -2.93329,-0.553926 -3.768322,-0.574035 -28.37187,-0.683235 -23.555239,-0.104546 -25.343577,-0.143954 -25.264096,-0.556721 0.07923,-0.411452 1.880372,-0.449317 24.423589,-0.513453 26.451125,-0.07525 27.441659,-0.03313 33.069303,1.406353 10.85858,2.777492 20.72828,9.902396 26.91891,19.43268 3.3307,5.1275 5.76804,11.383288 6.79077,17.429518 0.54471,3.22023 0.55386,3.91599 0.55386,42.13489 0,21.37332 0.0897,38.86059 0.19936,38.86059 0.10964,0 6.6279,-6.42938 14.48501,-14.2875 7.85712,-7.85813 14.43864,-14.2875 14.62562,-14.2875 1.39308,0 0.26035,1.25193 -14.38775,15.90172 -8.27903,8.27999 -15.17263,15.05453 -15.31911,15.05453 -0.14647,0 -7.09782,-6.83228 -15.44743,-15.18284 z"
           style="fill:#007b79;fill-opacity:1;stroke-width:0.2;stroke:#007b79;stroke-opacity:1;stroke-miterlimit:4;stroke-dasharray:none" />
      </g>
    </g>
  </g>
</svg>
