<?xml version="1.0" encoding="UTF-8" standalone="no"?>
<!--
*************Map created by Simplemaps.com********************		
*************Attribution is highly appreciated!***************
*************http://simplemaps.com****************************

The MIT License (MIT)

Copyright (c) 2015 Pareto Softare, LLC DBA Simplemaps.com

Permission is hereby granted, free of charge, to any person obtaining a copy
of this software and associated documentation files (the "Software"), to deal
in the Software without restriction, including without limitation the rights
to use, copy, modify, merge, publish, distribute, sublicense, and/or sell
copies of the Software, and to permit persons to whom the Software is
furnished to do so, subject to the following conditions:

The above copyright notice and this permission notice shall be included in
all copies or substantial portions of the Software.

THE SOFTWARE IS PROVIDED "AS IS", WITHOUT WARRANTY OF ANY KIND, EXPRESS OR
IMPLIED, INCLUDING BUT NOT LIMITED TO THE WARRANTIES OF MERCHANTABILITY,
FITNESS FOR A PARTICULAR PURPOSE AND NONINFRINGEMENT. IN NO EVENT SHALL THE
AUTHORS OR COPYRIGHT HOLDERS BE LIABLE FOR ANY CLAIM, DAMAGES OR OTHER
LIABILITY, WHETHER IN AN ACTION OF CONTRACT, TORT OR OTHERWISE, ARISING FROM,
OUT OF OR IN CONNECTION WITH THE SOFTWARE OR THE USE OR OTHER DEALINGS IN
THE SOFTWARE.

-->

<svg
   xmlns:dc="http://purl.org/dc/elements/1.1/"
   xmlns:cc="http://creativecommons.org/ns#"
   xmlns:rdf="http://www.w3.org/1999/02/22-rdf-syntax-ns#"
   xmlns:svg="http://www.w3.org/2000/svg"
   xmlns="http://www.w3.org/2000/svg"
   xmlns:sodipodi="http://sodipodi.sourceforge.net/DTD/sodipodi-0.dtd"
   xmlns:inkscape="http://www.inkscape.org/namespaces/inkscape"
   enable_background="new 0 0 2000 1001"
   height="302.09998"
   pretty_print="False"
   style="fill:none;stroke:#000000;stroke-linejoin:round"
   version="1.1"
   viewBox="0 0 565.5 302.09998"
   width="565.5"
   id="svg2"
   inkscape:version="0.92.4 (5da689c313, 2019-01-14)"
   sodipodi:docname="void.svg"
   inkscape:export-filename="C:\Users\Michael\Desktop\world.png"
   inkscape:export-xdpi="96"
   inkscape:export-ydpi="96">
  <sodipodi:namedview
     pagecolor="#ffffff"
     bordercolor="#666666"
     borderopacity="1"
     objecttolerance="10"
     gridtolerance="10"
     guidetolerance="10"
     inkscape:pageopacity="0"
     inkscape:pageshadow="2"
     inkscape:window-width="1920"
     inkscape:window-height="1001"
     id="namedview231"
     showgrid="false"
     inkscape:zoom="0.80893016"
     inkscape:cx="-9.4410929"
     inkscape:cy="-152.34731"
     inkscape:window-x="-9"
     inkscape:window-y="-9"
     inkscape:window-maximized="1"
     inkscape:current-layer="svg2"
     fit-margin-top="0"
     fit-margin-left="0"
     fit-margin-right="0"
     fit-margin-bottom="0" />
  <defs
     id="defs4">
    <style
       type="text/css"
       id="style6">path { fill-rule: evenodd; }</style>
  </defs>
  <metadata
     id="metadata8">
    <views
       id="views10">
      <view
         h="1001"
         padding="0"
         w="2000"
         id="view12">
        <proj
           flip="auto"
           id="robinson"
           lon0="100.0" />
        <bbox
           h="2233.1"
           w="5271.17"
           x="-2635.59"
           y="-1308.06"
           id="bbox15" />
      </view>
    </views>
    <rdf:RDF>
      <cc:Work
         rdf:about="">
        <dc:format>image/svg+xml</dc:format>
        <dc:type
           rdf:resource="http://purl.org/dc/dcmitype/StillImage" />
        <dc:title></dc:title>
      </cc:Work>
    </rdf:RDF>
  </metadata>
  <path
     inkscape:connector-curvature="0"
     id="BD"
     data-name="Bangladesh"
     data-id="BD"
     d="m 136.49998,86.099972 -4.5,-10.1 -1.5,0.1 -0.2,4 -3.5,-3.3 1.1,-3.6 2.4,-0.4 1.6,-5.3 -3.4,-1.1 -5,0.1 -5.4,-0.9 -1.2,-4.4 -2.7,-0.4 -4.8,-2.7 -1.2,4.3 4.6,3.4 -3.1,2.4 -0.8,2.3 3.7,1.7 -0.4,3.8 2.6,4.8 1.6,5.2 2.2,0.6 1.7,0.7 0.6,-1.2 2.5,1.3 1.3,-3.5 -0.9,-2.6 5.1,0.2 2.8,3.7 1.5,3.1 0.8,3.2 2,3.3 -1.1,-5.1 2.1,1 z"
     style="fill:#ffffff;fill-opacity:1;fill-rule:evenodd;stroke:#00c5c2;stroke-opacity:1" />
  <path
     inkscape:connector-curvature="0"
     id="BN"
     data-name="Brunei"
     data-id="BN"
     d="m 267.79998,197.59997 2.7,3.3 1.1,-2.2 2.7,0.2 0.1,-4.1 0.1,-3.1 -4.6,3.5 z"
     style="fill:#ffffff;fill-opacity:1;fill-rule:evenodd;stroke:#00c5c2;stroke-opacity:1" />
  <path
     inkscape:connector-curvature="0"
     id="BT"
     data-name="Bhutan"
     data-id="BT"
     d="m 124.69998,49.699972 -2.7,-1.8 -2.9,-0.1 -4.2,-1.5 -2.6,1.6 -2.6,4.8 0.3,1.2 5.5,2.5 3.2,-1 4.7,0.4 4.4,-0.2 -0.4,-3.9 z"
     style="fill:#ffffff;fill-opacity:1;fill-rule:evenodd;stroke:#00c5c2;stroke-opacity:1" />
  <path
     inkscape:connector-curvature="0"
     id="ID"
     data-name="Indonesia"
     data-id="ID"
     d="m 301.89998,291.49997 0.5,-1.7 -1.8,-1.9 -2.8,-2 -5.3,1.3 7,4.4 z m 20.9,-0.6 4,-4.8 0.1,-1.9 -0.5,-1.3 -5.7,2.6 -2.8,3.9 -0.7,2.1 0.6,0.8 z m -35.6,-13 -1.6,2.2 -3.1,0.1 -2.2,3.6 3,0.1 3.9,-0.9 6.6,-1.2 -1.2,-2.8 -3.5,0.6 z m 28.1,0 -5.2,2.3 -3.8,0.5 -3.4,-1.9 -4.5,1.3 -0.2,2.3 7.4,0.8 8.6,-1.8 z m -79.5,-8.4 -0.7,-2.3 -2.3,-0.5 -4.4,-2.4 -6.8,-0.4 -4.1,6.1 5.1,0.4 0.8,2.8 10,2.6 2.4,-0.8 4.1,0.6 6.3,2.4 5.2,1.2 5.8,0.5 5.1,-0.2 5.9,2.5 6.6,-2.4 -6.6,-3.8 -8.3,-1.1 -1.8,-4.1 -10.3,-3.1 -1.3,2.6 z m 146.6,-3.6 0.2,-3 -1.2,-1.9 -1.3,2.2 -1.2,2.2 0.3,4.8 z m -41,-17.5 -1.4,-2.1 -5.7,0.3 1,2.7 3.9,1.2 z m 18.1,-2.4 -6.1,-1.8 -6.9,0.3 -1.5,3.5 3.9,0.2 3.2,-0.4 4.6,0.5 4.7,2.6 z m 21,-12.3 -0.8,-2.4 -9,-2.6 -2.9,2.1 -7.6,1.5 2.3,3.2 5,1.2 2.1,3.7 8.3,0.1 0.4,1.6 -4,-0.1 -6.2,2.3 4.2,3.1 -0.1,2.8 1.2,2.3 2.1,-0.5 1.8,-3.1 8.2,5.9 4.6,0.5 10.6,5.4 2.3,5.3 1,6.9 -3.7,1.8 -2.8,5.2 7.1,-0.2 1.6,-1.8 5.5,1.3 4.6,5.2 1.5,-20.8 1,-20.7 -6,-1.2 -4.1,-2.3 -4.7,-2.2 h -5 l -6.6,3.8 -4.9,6.8 -5.7,-3.8 z m -50,-16.4 -1,-1.4 -5.5,4.6 -6.5,0.3 -7.1,-0.9 -4.4,-1.9 -4.7,4.8 -1.2,2.6 -2.9,9.6 -0.9,5 -2.4,4.2 1.6,4.3 2.3,0.1 0.6,6.1 -1.9,5.9 2.3,1.9 3.6,-1 0.3,-9.1 -0.2,-7.4 3.8,-1.9 -0.7,6.2 3.9,3.7 -0.8,2.5 1.3,1.7 5.6,-2.4 -3,5.2 2.1,2.2 3.1,-1.9 0.3,-4.1 -4.7,-7.4 1.1,-2.2 -5.1,-8.1 5,-2.5 2.6,-3.7 2.4,0.9 0.5,-2.9 -10.5,2.1 -3.1,2.9 -5,-5.6 0.9,-4.8 4.9,-1 9.3,-0.3 5.4,1.3 4.3,-1.3 z m 19.4,1.9 -0.6,-2.6 -3.3,-0.6 -0.5,-3.5 -1.8,2.3 -1,5.1 1.7,8.2 2.2,4 1.6,-0.8 -2.3,-3.3 0.9,-3.9 2.9,0.6 z m -60.9,-4.5 0.9,-2.9 -4.3,-6 3,-5.8 -5,-1 h -6.4 l -1.7,7.2 -2,2.2 -2.7,8.9 -4.5,1.3 -5.4,-1.8 -2.7,0.6 -3.2,3.2 -3.6,-0.4 -3.6,1.2 -3.9,-3.5 -1,-4.3 -3.3,4.2 -0.6,5.9 0.8,5.6 2.6,5.4 2.8,1.8 0.7,8.5 4.6,0.8 3.6,-0.4 2,3.1 6.7,-2.3 2.8,2 4,0.4 2,3.9 6.5,-2.9 0.8,2.3 2.5,-9.7 0.3,-6.4 5.5,-4.3 -0.2,-5.8 1.8,-4.3 6.7,-0.8 z m -68.7,48.9 0.7,-9.8 1.7,-8 -2.6,-4 -4.1,-0.5 -1.9,-3.6 -0.9,-4.4 -2,-0.2 -3.2,-2.2 2.3,-5.2 -4.3,-2.9 -3.3,-5.3 -4.8,-4.4 -5.7,-0.1 -5.5,-6.8 -3.2,-2.7 -4.5,-4.3 -5.2,-6.2 -8.8,-1.2 -3.6,-0.3 0.6,3.2 6.1,7 4.4,3.6 3.1,5.5 5.1,4 2.2,4.9 1.7,5.5 4.9,5.3 4.1,8.9 2.7,4.8 4.1,5.2 2.2,3.8 7,5.2 4.5,5.3 z"
     style="fill:#ffffff;fill-opacity:1;fill-rule:evenodd;stroke:#00c5c2;stroke-opacity:1" />
  <path
     inkscape:connector-curvature="0"
     id="IN"
     data-name="India"
     data-id="IN"
     d="m 64.09998,34.299972 -8.5,-4.4 -6.2,-4 -3.2,-7 4.1,0.9 -0.6,-3.3 -3,-3.3 -0.8,-5.1999996 -7.6,-7.49999999 -3.7,5.39999999 -5.7,1 -8.5,-1.6 -1.9,2.8 3.2,5.5999996 2.9,4.3 5,3.1 -3.7,3.7 1,4.5 -3.9,6.3 -2.1,6.5 -4.5,6.7 -6.4000001,-0.5 -4.9,6.6 4,2.9 1.3000001,4.9 3.5,3.2 1.8,5.5 H 3.6999799 l -3.2,4.2 7.1,5.4 1.9,2.5 -2.4,2.3 8.0000001,7.7 4,0.8 7.6,-3.8 1.7,5.9 0.8,7.799998 2.5,8.1 3.6,12.3 5.8,8.8 1.3,3.9 2,8 3.4,6.1 2.2,3 2.5,6.4 3.1,8.9 5.5,6 2.2,-1.8 1.7,-4.4 5,-1.8 -1.8,-2.1 2.2,-4.8 2.9,-0.3 -0.7,-10.8 1.9,-6.1 -0.7,-5.3 -1.9,-8.2 1.2,-4.9 2.5,-0.3 4.8,-2.3 2.6,-1.6 -0.3,-2.9 5,-4.2 3.7,-4 5.3,-7.5 7.4,-4.199998 2.4,-3.8 -0.9,-4.8 6.6,-1.3 3.7,0.1 0.5,-2.4 -1.6,-5.2 -2.6,-4.8 0.4,-3.8 -3.7,-1.7 0.8,-2.3 3.1,-2.4 -4.6,-3.4 1.2,-4.3 4.8,2.7 2.7,0.4 1.2,4.4 5.4,0.9 5,-0.1 3.4,1.1 -1.6,5.3 -2.4,0.4 -1.1,3.6 3.5,3.3 0.2,-4 1.5,-0.1 4.5,10.1 2.4,-1.5 -0.9,-2.7 0.9,-2.1 -0.9,-6.6 4.6,1.4 1.5,-5.2 -0.3,-3.1 2.1,-5.4 -0.9,-3.6 6.1,-4.4 4.1,1.1 -1.3,-3.9 1.6,-1.2 -0.9,-2.4 -6.1,-0.9 1.2,-2.7 -3.5,-3.9 -3.2,2.6 -4.9,-1.5 -5.3,4 -3.9,4.8 -4.2,0.8 2.7,2 0.4,3.9 -4.4,0.2 -4.7,-0.4 -3.2,1 -5.5,-2.5 -0.3,-1.2 -1.5,-5.1 -3,1.4 0.1,2.7 1.5,4.1 -0.1,2.5 -4.6,0.1 -6.8,-1.5 -4.3,-0.6 -3.8,-3.2 -7.6,-0.9 -7.7,-3.5 -5.8,-3.1 -5.7,-2.5 0.9,-5.9 z"
     style="fill:#ffffff;fill-opacity:1;fill-rule:evenodd;stroke:#00c5c2;stroke-opacity:1" />
  <path
     inkscape:connector-curvature="0"
     id="KH"
     data-name="Cambodia"
     data-id="KH"
     d="m 224.79998,135.99997 -5.2,-2.3 -2,4.3 -4.9,-2.4 -5.3,-1 -7.1,1.3 -3,5.2 2.1,7.7 3.4,6.6 2.6,3.3 4.7,0.9 4.7,-2.5 5.8,-0.5 -2.8,-3.8 8.9,-4.9 -0.1,-7.7 z"
     style="fill:#ffffff;fill-opacity:1;fill-rule:evenodd;stroke:#00c5c2;stroke-opacity:1" />
  <path
     inkscape:connector-curvature="0"
     id="LA"
     data-name="Lao PDR"
     data-id="LA"
     d="m 224.79998,135.99997 0.2,-6.4 -2,-4.5 -4.8,-4.4 -4.3,-5.6 -5.7,-7.5 -7.3,-3.8 1.3,-2.3 3.3,-1.699998 -3,-5.5 -6.8,-0.1 -3.4,-5.7 -4,-5.1 -2.7,1 1.9,7.2 -2.9,-0.1 -0.7,-1.5 -4.1,4.1 -0.8,2.4 2.6,1.9 0.9,3.799998 3.8,0.3 -0.4,6.7 1,5.7 5.3,-3.8 1.8,1.2 3.2,-0.2 0.8,-2.2 4.3,0.4 4.9,5.2 1.3,6.3 5.2,5.5 0.5,5.4 -1.5,2.9 4.9,2.4 2,-4.3 z"
     style="fill:#ffffff;fill-opacity:1;fill-rule:evenodd;stroke:#00c5c2;stroke-opacity:1" />
  <path
     inkscape:connector-curvature="0"
     id="MM"
     data-name="Myanmar"
     data-id="MM"
     d="m 183.89998,89.999972 -0.6,-2.6 -3.8,1.8 -2.5,-1.2 -4.5,-2.4 0.8,-5.2 -3.7,-1.3 -2.3,-5.8 -5.6,1 -0.7,-7.5 4.1,-5.3 -0.8,-5.3 -1.3,-4.9 -2.7,-1.5 -2.7,-3.7 -3,0.4 0.9,2.4 -1.6,1.2 1.3,3.9 -4.1,-1.1 -6.1,4.4 0.9,3.6 -2.1,5.4 0.3,3.1 -1.5,5.2 -4.6,-1.4 0.9,6.6 -0.9,2.1 0.9,2.7 -2.4,1.5 0.5,4.6 -2.1,-1 1.1,5.1 4.6,5.2 3.4,0.899998 -0.4,2.2 5.4,7.4 1.9,5.9 -0.9,7.9 3.6,1.5 3.2,0.6 5.8,-4.6 3.2,-3.1 3.1,5.2 2,8.1 2.6,7.6 2.6,3.3 0.2,6.9 2.2,3.8 -1.3,4.8 0.9,4.8 2.2,-6.6 2.6,-5.9 -2.8,-5.8 -0.2,-3 -1,-3.5 -4.2,-5.1 -1.7,-3.2 1.7,-1.1 1.4,-5.6 -2.9,-4.2 -4.1,-4.6 -3.5,-5.6 2.2,-1.1 1.5,-6.9 3.9,-0.3 2.8,-2.799998 3,-1.4 0.8,-2.4 z"
     style="fill:#ffffff;fill-opacity:1;fill-rule:evenodd;stroke:#00c5c2;stroke-opacity:1" />
  <path
     inkscape:connector-curvature="0"
     id="MY"
     data-name="Malaysia"
     data-id="MY"
     d="m 193.59998,186.89997 -4.7,-2.8 -0.9,1.1 1.4,2.7 -0.4,4.7 2.1,3.4 1,5.3 3.4,4.3 0.8,3.2 6.7,5 5.4,4.8 4,-0.5 0.1,-2.1 -2.3,-5.6 -2.1,-1.8 -0.5,-3.8 -0.6,-2.1 0.5,-2.9 -0.5,-4.3 -2.6,-4.3 -3.5,-3.8 -1.3,-0.6 -1.7,2.6 -3.7,0.8 z m 99,11 -1.2,-3.1 3.8,-0.4 0.3,-2.4 -4.8,-2 -3.8,-1.7 -0.4,-2.8 -3.1,-3.2 h -2.3 l -2.5,5 -4.1,4.4 -0.1,3.1 -0.1,4.1 -2.7,-0.2 -1.1,2.2 -2.7,-3.3 -2.6,4 -3.8,5 -6.7,1.4 -2.4,1.2 -0.9,5.4 -4.4,1.2 -4.1,-2.2 1,4.3 3.9,3.5 3.6,-1.2 3.6,0.4 3.2,-3.2 2.7,-0.6 5.4,1.8 4.5,-1.3 2.7,-8.9 2,-2.2 1.7,-7.2 h 6.4 l 5,1 z"
     style="fill:#ffffff;fill-opacity:1;fill-rule:evenodd;stroke:#00c5c2;stroke-opacity:1" />
  <path
     inkscape:connector-curvature="0"
     id="PH"
     data-name="Philippines"
     data-id="PH"
     d="m 334.59998,172.79997 -0.6,-2.3 -0.8,-3.2 -4.8,-3 0.8,4.9 -3.9,0.2 -0.7,2.8 -4.2,1.7 -2.2,-2.8 -2.8,2.4 -3.4,1.7 -1.9,5.4 1.1,1.9 3.9,-3.6 2.7,0.3 1.5,-2.7 3.8,3 -1.5,3.1 1.9,4.6 6.8,3.7 1.4,-3 -2.1,-4.7 2.4,-3.2 2.5,6.4 1.5,-5.8 -0.6,-3.5 z m -14.5,-11.8 v -6.1 l -3.6,6.1 0.5,-4.2 -3,0.3 -0.3,4 -1.2,1.8 -1,1.7 3.8,4.4 1.6,-1.9 1.4,-4 z m -30.1,6.1 2.6,-4.4 3.4,-3.5 -1.5,-5.2 -2.4,6.3 -2.9,4.4 -3.8,4 -2.4,4.4 z m 17.4,-16.4 1.2,3 -0.1,3.3 0.5,2.9 3.3,-1.9 2.4,-2.7 -0.2,-2.6 h -3.6 z m 20,-1.7 -1.8,-2.4 -5.4,-0.1 4,4.8 0.3,2.4 -3.3,-0.5 1.2,3.9 1.7,0.3 0.7,4.5 2.5,-1.4 -1.7,-4 -0.4,-2.1 4.5,1.7 z m -22.9,-5.8 -2.2,-2.3 -4.8,-0.2 3.4,4.8 2.8,3.2 z m -6.4,-34.6 h -3.3 l -0.9,5.8 1.1,9.9 -2.6,-2 1.2,6 1.2,2.8 3.3,3.7 0.4,-2.3 1.8,1.4 -1.5,1.7 0.1,2.6 2.9,1.4 5,-0.9 4,3.8 1.1,-2.4 2.5,3.4 4.8,3.1 0.2,-2.9 -2,-1.6 0.1,-3.4 -7.5,-3.6 -2.3,0.8 -3.1,-0.7 -2,-5.1 0.1,-5.1 3,-2.1 0.6,-5.3 -2.7,-4.6 0.4,-2.6 -0.7,-1.6 -1.5,1.6 z"
     style="fill:#ffffff;fill-opacity:1;fill-rule:evenodd;stroke:#00c5c2;stroke-opacity:1" />
  <path
     inkscape:connector-curvature="0"
     id="TH"
     data-name="Thailand"
     data-id="TH"
     d="m 212.69998,135.59997 1.5,-2.9 -0.5,-5.4 -5.2,-5.5 -1.3,-6.3 -4.9,-5.2 -4.3,-0.4 -0.8,2.2 -3.2,0.2 -1.8,-1.2 -5.3,3.8 -1,-5.7 0.4,-6.7 -3.8,-0.3 -0.9,-3.799998 -2.6,-1.9 -3,1.4 -2.8,2.799998 -3.9,0.3 -1.5,6.9 -2.2,1.1 3.5,5.6 4.1,4.6 2.9,4.2 -1.4,5.6 -1.7,1.1 1.7,3.2 4.2,5.1 1,3.5 0.2,3 2.8,5.8 -2.6,5.9 -2.2,6.6 -1.3,6.1 -0.3,3.9 1.2,3.6 0.7,-3.8 2.9,3.1 3.2,3.5 1.1,3.2 2.4,2.4 0.9,-1.1 4.7,2.8 0.6,3.3 3.7,-0.8 1.7,-2.6 -3.1,-3.3 -3.4,-0.8 -3.3,-3.6 -1.4,-5.5 -2.6,-5.8 -3.7,-0.2 -0.7,-4.6 1.4,-5.6 2.2,-9.3 -0.2,-7 4.9,-0.1 -0.3,5 4.7,-0.1 5.3,2.9 -2.1,-7.7 3,-5.2 7.1,-1.3 z"
     style="fill:#ffffff;fill-opacity:1;fill-rule:evenodd;stroke:#00c5c2;stroke-opacity:1" />
  <path
     inkscape:connector-curvature="0"
     id="TL"
     data-name="Timor-Leste"
     data-id="TL"
     d="m 326.79998,286.09997 4.9,-1.8 6,-2.8 2.2,-1.7 -2,-0.8 -1.8,0.8 -4,0.2 -4.9,1.4 -0.8,1.5 0.5,1.3 z"
     style="fill:#ffffff;fill-opacity:1;fill-rule:evenodd;stroke:#00c5c2;stroke-opacity:1" />
  <path
     inkscape:connector-curvature="0"
     id="VN"
     data-name="Vietnam"
     data-id="VN"
     d="m 221.59998,89.199972 -5.9,-1.6 -3,-2.6 0.2,-3.7 -5.2,-1.1 -3,-2.4 -4.1,3.4 -5.3,0.7 h -4.3 l -2.7,1.5 4,5.1 3.4,5.7 6.8,0.1 3,5.5 -3.3,1.699998 -1.3,2.3 7.3,3.8 5.7,7.5 4.3,5.6 4.8,4.4 2,4.5 -0.2,6.4 1.8,4.2 0.1,7.7 -8.9,4.9 2.8,3.8 -5.8,0.5 -4.7,2.5 4.5,3.7 -1.3,4.3 2.3,4 6.6,-5.9 4.1,-5.3 6.1,-4.1 4.3,-4.2 -0.4,-11.2 -4,-11.7 -4.1,-5.1 -5.6,-4 -6.4,-8.3 -5.3,-6.7 0.5,-4.4 3.7,-5.999998 z"
     style="fill:#ffffff;fill-opacity:1;fill-rule:evenodd;stroke:#00c5c2;stroke-opacity:1" />
  <path
     inkscape:connector-curvature="0"
     id="HK"
     data-name="Hong Kong"
     data-id="HK"
     d="m 254.89998,85.099972 v -0.2 -0.2 l -0.4,-0.2 h -0.3 l 0.1,0.2 0.4,0.5 z m -1.3,0 -0.1,-0.5 0.2,-0.3 -0.9,0.3 -0.1,0.3 v 0.1 l 0.2,0.1 z m 1.6,-1.2 -0.1,-0.3 -0.2,-0.1 -0.1,-0.3 -0.1,-0.2 v 0 l -0.3,-0.1 -0.2,-0.1 h -0.4 l -0.1,0.1 h -0.2 l -0.2,0.2 v 0 0.2 l -0.5,0.4 v 0.2 l 0.3,0.2 0.5,-0.1 0.6,0.2 0.8,0.3 v -0.2 -0.3 z"
     style="fill:#ffffff;fill-opacity:1;fill-rule:evenodd;stroke:#00c5c2;stroke-opacity:1" />
  <path
     inkscape:connector-curvature="0"
     id="NR"
     data-name="Nauru"
     data-id="NR"
     d="m 564.99998,229.69997 v -0.2 h -0.1 -0.1 l -0.1,0.2 0.1,0.1 0.1,0.1 z"
     style="fill:#ffffff;fill-opacity:1;fill-rule:evenodd;stroke:#00c5c2;stroke-opacity:1" />
  <path
     inkscape:connector-curvature="0"
     id="SG"
     data-name="Singapore"
     data-id="SG"
     d="m 210.99998,217.89997 0.1,-0.2 -0.2,-0.2 -0.3,-0.1 -0.5,-0.2 -0.6,0.1 -0.3,0.6 0.9,0.4 z"
     style="fill:#ffffff;fill-opacity:1;fill-rule:evenodd;stroke:#00c5c2;stroke-opacity:1" />
  <path
     inkscape:connector-curvature="0"
     id="SB"
     data-name="Solomon Is."
     data-id="SB"
     d="m 559.09998,300.59997 -0.2,-0.2 -0.1,-0.4 h -0.3 l -0.3,0.1 0.2,0.6 h 0.2 z m -35.6,0.8 -0.1,-0.2 -0.5,-0.4 -1.9,-1.3 -0.4,-0.1 -0.1,0.1 -0.1,0.3 0.1,0.2 0.5,0.1 v 0.1 l 0.3,0.2 0.7,0.2 0.4,0.3 0.1,0.5 0.3,0.1 0.3,0.1 z m 32,-6.6 v -0.1 l 0.2,-0.3 -0.2,-0.1 -0.5,-0.1 -0.7,0.1 -0.3,0.2 -0.2,0.3 h -0.2 v 0.2 l 0.1,0.4 0.2,-0.1 0.2,0.1 0.5,-0.5 h 0.3 0.1 z m -24.4,-2.3 -0.1,-0.2 -0.2,-0.1 -0.9,-0.7 -0.5,-0.2 h -0.5 l -0.1,0.5 v 0.3 h 0.6 l 0.4,0.2 v 0.6 l 0.2,0.2 v 0.5 l 1.2,0.9 0.7,0.4 0.7,0.1 0.4,0.2 0.5,-0.1 0.5,0.2 0.4,-0.1 -0.4,-0.3 v -0.4 l -0.5,-1.3 -0.3,-0.3 -0.5,0.1 -0.5,-0.2 h -0.4 z m -0.4,-4.9 -0.6,-1.6 -0.2,-0.1 0.1,0.6 0.1,0.4 -0.1,0.5 -0.1,0.6 0.2,0.2 0.2,-0.2 0.4,0.5 v -0.2 z m -9.8,-2.2 -0.3,-0.1 -0.4,0.3 -0.1,0.3 -0.1,0.7 v 0.4 l 0.3,0.7 0.3,0.5 0.3,0.3 0.2,0.2 0.9,0.1 1.7,0.1 0.9,0.4 0.9,0.2 0.4,-0.1 0.5,-0.2 0.1,-0.1 -0.1,-0.6 -0.2,-0.3 -0.4,-0.2 -0.2,-0.6 -0.5,-0.4 -0.9,-0.7 h -1.6 l -0.6,0.1 z m 2.6,-1.8 -0.5,0.2 v 0.3 l 0.4,0.1 0.4,0.2 0.1,0.3 v 0 l 0.2,-0.1 0.4,0.2 0.2,-0.3 -0.4,-0.5 -0.4,-0.3 h -0.1 z m -5.6,0.8 0.3,-0.2 v -0.4 h -0.3 l -0.1,-0.2 h -0.2 l -0.3,0.2 -0.2,0.3 0.1,0.2 h 0.4 l 0.2,0.1 z m -8.4,-2.3 -0.1,-0.2 -0.3,-0.2 h -0.2 l -0.5,0.1 0.1,0.1 0.6,0.3 0.3,0.1 z m 3.1,0.4 0.3,-0.2 -0.1,-0.2 -0.1,-0.5 -0.4,0.7 0.1,0.2 z m -0.5,-0.9 v -0.2 -0.2 l -0.2,-0.1 0.4,-0.3 -0.1,-0.1 -0.6,-0.2 -0.2,0.2 -0.2,0.1 -0.1,0.1 -0.1,0.1 -0.1,0.5 0.2,0.4 0.4,0.2 z m -4,0.2 -0.3,-0.4 0.1,-0.5 0.2,-0.1 0.2,-0.5 -0.1,-0.4 -0.2,0.1 -0.7,0.6 -0.1,0.3 0.6,0.8 0.3,0.2 z m 13,-1.3 -0.2,-0.4 v -0.2 l -0.3,-0.2 -0.2,0.1 -0.1,0.3 0.1,0.2 0.4,0.3 z m 6,-1.2 h -0.2 l -0.1,0.1 h -0.2 -0.3 l -0.1,0.2 0.6,1.1 -0.3,0.5 0.4,2.2 0.4,1.2 0.8,0.8 v 0.2 l 0.8,0.5 0.6,1.3 0.2,0.1 0.1,-0.2 v -0.6 l -0.5,-1.1 0.1,-0.8 -0.2,-0.3 v -0.3 l -0.2,-0.8 -0.6,-0.7 -0.3,-0.1 -0.2,-0.3 0.2,-0.6 0.2,-0.2 0.1,-0.3 z m -16.6,-0.5 -0.6,-0.2 -0.2,-0.3 v -1 l -0.6,-0.3 -0.3,0.2 -0.6,0.7 -0.2,0.4 -0.5,0.3 -0.1,0.3 v 0.4 l 0.4,0.1 0.3,-0.4 0.9,-0.1 0.3,0.1 v 0.4 l 0.1,0.7 0.3,0.3 0.5,0.2 0.4,0.6 0.1,-0.3 h 0.2 l 0.2,-0.4 -0.3,-1.2 z m -6.5,-0.4 0.1,-0.5 -0.1,-0.9 -0.2,0.1 v 0.2 l -0.1,0.4 0.2,0.8 z m 3.2,-0.4 0.2,-0.2 v -0.4 -0.5 l -0.2,-0.4 -0.2,-0.2 -0.5,0.1 -0.4,0.5 v 0.5 l 0.4,0.6 h 0.6 z m -2.6,-1.2 0.2,-0.3 0.5,-0.7 0.1,-0.3 -0.5,-0.2 -0.4,-0.5 -0.4,-0.2 -0.3,0.4 v 0.4 l 0.5,0.6 -0.1,0.4 0.2,0.1 0.1,0.4 z m 17.5,3.9 -0.1,-0.5 -0.3,-0.4 0.4,-0.5 -2.2,-1.9 -0.3,-0.2 -0.4,-0.1 -0.5,-0.4 -0.5,-0.1 -0.5,-0.4 -0.2,-0.3 -0.6,-0.4 -0.6,-0.8 -1.5,-0.3 0.1,0.2 0.4,0.4 0.1,0.7 0.5,0.4 0.5,0.6 0.2,0.1 0.2,0.2 0.4,0.5 0.8,0.4 0.8,0.6 0.3,0.1 0.3,0.3 1.5,0.7 0.5,0.7 0.7,0.5 z m -21.8,-9.2 0.2,-0.3 -0.7,-0.5 -0.2,0.3 -0.2,0.5 0.4,0.2 z m 9.1,1.5 -0.1,-0.1 h -0.3 l -0.4,-0.2 -0.7,-0.8 -0.2,-0.3 -0.2,-1 -0.4,-0.4 -1.4,-0.8 -0.8,-0.8 -0.7,-0.2 -0.2,0.2 v 0.5 l 0.2,0.3 1,0.9 1.1,1.7 1,1 0.8,0.1 h 0.4 v 0.1 l 0.1,0.2 0.5,0.2 0.5,-0.4 z"
     style="fill:#ffffff;fill-opacity:1;fill-rule:evenodd;stroke:#00c5c2;stroke-opacity:1" />
</svg>
