<?xml version="1.0" encoding="UTF-8" standalone="no"?>
<!--
*************Map created by Simplemaps.com********************		
*************Attribution is highly appreciated!***************
*************http://simplemaps.com****************************

The MIT License (MIT)

Copyright (c) 2015 Pareto Softare, LLC DBA Simplemaps.com

Permission is hereby granted, free of charge, to any person obtaining a copy
of this software and associated documentation files (the "Software"), to deal
in the Software without restriction, including without limitation the rights
to use, copy, modify, merge, publish, distribute, sublicense, and/or sell
copies of the Software, and to permit persons to whom the Software is
furnished to do so, subject to the following conditions:

The above copyright notice and this permission notice shall be included in
all copies or substantial portions of the Software.

THE SOFTWARE IS PROVIDED "AS IS", WITHOUT WARRANTY OF ANY KIND, EXPRESS OR
IMPLIED, INCLUDING BUT NOT LIMITED TO THE WARRANTIES OF MERCHANTABILITY,
FITNESS FOR A PARTICULAR PURPOSE AND NONINFRINGEMENT. IN NO EVENT SHALL THE
AUTHORS OR COPYRIGHT HOLDERS BE LIABLE FOR ANY CLAIM, DAMAGES OR OTHER
LIABILITY, WHETHER IN AN ACTION OF CONTRACT, TORT OR OTHERWISE, ARISING FROM,
OUT OF OR IN CONNECTION WITH THE SOFTWARE OR THE USE OR OTHER DEALINGS IN
THE SOFTWARE.

-->

<svg
   xmlns:dc="http://purl.org/dc/elements/1.1/"
   xmlns:cc="http://creativecommons.org/ns#"
   xmlns:rdf="http://www.w3.org/1999/02/22-rdf-syntax-ns#"
   xmlns:svg="http://www.w3.org/2000/svg"
   xmlns="http://www.w3.org/2000/svg"
   xmlns:xlink="http://www.w3.org/1999/xlink"
   xmlns:sodipodi="http://sodipodi.sourceforge.net/DTD/sodipodi-0.dtd"
   xmlns:inkscape="http://www.inkscape.org/namespaces/inkscape"
   enable_background="new 0 0 2000 1001"
   height="449.89999"
   pretty_print="False"
   style="fill:none;stroke:#000000;stroke-linejoin:round"
   version="1.1"
   viewBox="0 0 673.29993 449.9"
   width="673.29993"
   id="svg2"
   inkscape:version="0.92.4 (5da689c313, 2019-01-14)"
   sodipodi:docname="messico.svg"
   inkscape:export-filename="C:\Users\Michael\Desktop\world.png"
   inkscape:export-xdpi="96"
   inkscape:export-ydpi="96">
  <sodipodi:namedview
     pagecolor="#ffffff"
     bordercolor="#666666"
     borderopacity="1"
     objecttolerance="10"
     gridtolerance="10"
     guidetolerance="10"
     inkscape:pageopacity="0"
     inkscape:pageshadow="2"
     inkscape:window-width="1920"
     inkscape:window-height="1001"
     id="namedview231"
     showgrid="false"
     inkscape:zoom="0.80893016"
     inkscape:cx="309.75985"
     inkscape:cy="217.32565"
     inkscape:window-x="-9"
     inkscape:window-y="-9"
     inkscape:window-maximized="1"
     inkscape:current-layer="svg2"
     fit-margin-top="0"
     fit-margin-left="0"
     fit-margin-right="0"
     fit-margin-bottom="0" />
  <defs
     id="defs4">
    <linearGradient
       inkscape:collect="always"
       id="linearGradient5533">
      <stop
         style="stop-color:#00c5c2;stop-opacity:1;"
         offset="0"
         id="stop5529" />
      <stop
         style="stop-color:#00c5c2;stop-opacity:0;"
         offset="1"
         id="stop5531" />
    </linearGradient>
    <linearGradient
       inkscape:collect="always"
       id="linearGradient5117">
      <stop
         style="stop-color:#00c5c2;stop-opacity:1;"
         offset="0"
         id="stop5113" />
      <stop
         style="stop-color:#00c5c2;stop-opacity:0;"
         offset="1"
         id="stop5115" />
    </linearGradient>
    <style
       type="text/css"
       id="style6">path { fill-rule: evenodd; }</style>
    <linearGradient
       inkscape:collect="always"
       xlink:href="#linearGradient5117"
       id="linearGradient5119"
       x1="489.84409"
       y1="451.34482"
       x2="723.84186"
       y2="451.34482"
       gradientUnits="userSpaceOnUse" />
    <linearGradient
       inkscape:collect="always"
       xlink:href="#linearGradient5533"
       id="linearGradient5535"
       x1="1779.0076"
       y1="693.37335"
       x2="2003.6776"
       y2="693.37335"
       gradientUnits="userSpaceOnUse" />
  </defs>
  <metadata
     id="metadata8">
    <views
       id="views10">
      <view
         h="1001"
         padding="0"
         w="2000"
         id="view12">
        <proj
           flip="auto"
           id="robinson"
           lon0="100.0" />
        <bbox
           h="2233.1"
           w="5271.17"
           x="-2635.59"
           y="-1308.06"
           id="bbox15" />
      </view>
    </views>
    <rdf:RDF>
      <cc:Work
         rdf:about="">
        <dc:format>image/svg+xml</dc:format>
        <dc:type
           rdf:resource="http://purl.org/dc/dcmitype/StillImage" />
        <dc:title></dc:title>
      </cc:Work>
    </rdf:RDF>
  </metadata>
  <path
     inkscape:connector-curvature="0"
     id="BZ"
     data-name="Belize"
     data-id="BZ"
     d="m 385.29998,394.3 1.4,-2.2 1,-0.2 1.3,-1.7 1,-3.2 -0.3,-0.6 0.9,-2.3 -0.4,-1 1.3,-2.7 0.3,-1.8 h -1.1 l 0.1,-0.9 h -1 l -2.5,3.9 -0.9,-0.8 -0.7,0.3 -0.1,1 -0.7,5 -1.2,7.2 z"
     style="fill:#ffffff;fill-opacity:1;fill-rule:evenodd;stroke:#05c6c3;stroke-opacity:1" />
  <path
     inkscape:connector-curvature="0"
     id="CA"
     data-name="Canada"
     data-id="CA"
     d="m 561.79998,199.9 -0.7,-3 -2.5,1.9 0.5,2.1 5.6,2.6 1.9,-0.4 3.3,-2.5 -4.7,0.1 z m 14.4,-15.9 0.2,-1.1 -4.1,-2.6 -5.9,-1.6 -1.9,0.6 3.5,2.9 5.7,1.9 z m -305.3,3.7 0.2,-3.4 -3.2,-2.6 -0.4,-2.9 -0.1,-2.1 -4.1,-0.7 -2.4,-0.9 -4.1,-1.4 -1.4,1.5 -0.6,3.3 4.3,1.1 -0.4,1.8 2.9,2.2 v 2.2 l 6.3,2.8 z m 336.1,-13.5 3.9,-3.8 1.4,-1.7 -2.1,-0.3 -4.9,2.2 -4.2,3.5 -8.1,9.8 -5.3,3.7 1.6,1.7 -3.8,2.2 0.2,1.9 9.6,0.1 5.4,-0.3 4.4,1.5 -4.4,2.9 2.9,0.2 7.3,-5.4 1.2,0.8 -2.5,5.1 3,1.2 2.3,-0.2 3.5,-5.5 -0.5,-3.9 0.3,-3.3 -3.7,1.1 2.8,-4.6 -4.3,-1.9 -2.7,1.5 -3.9,-1.7 2.4,-2.1 -2.9,-1.3 -3.8,2 z m -356.8,-21.2 -1.9,2 -1.4,2.6 0.9,1.9 -0.6,2.8 0.7,2.8 h 1.9 l -0.2,-4.9 7.1,-6.9 -4.9,0.5 z m 280.9,-47 -0.4,-1.2 -1.7,-0.1 -2.8,1.7 -0.4,0.4 0.1,1.7 1.7,0.5 z m -9.6,-3.2 0.8,-1.1 -6,-0.1 -4.9,2.7 v 1.5 l 3,0.2 z m -3.1,-16.6 -2.7,-0.5 -5,5.2 -3.6,4.4 -5.7,2.8 6.3,-0.6 -0.8,3.4 8.2,-3 6.2,-3 0.8,2.6 5.9,1.3 4.9,-1.8 -1.9,-1.8 -3.4,0.4 1.3,-2.7 -3.7,-1.7 -3.4,-1.9 -1.5,-1.5 -2.8,0.9 z m 44.6,-8.2 3.7,-1.7 1,-0.7 1.4,-2.3 -2.3,-1.5 -4.2,0.7 -3.8,3.1 -0.7,2.6 z m -73.8,-10.7 -0.8,-2 -0.3,-1 -1.6,-1 -3,-1.5 -4.9,2.3 -5,1.7 3.5,2.4 3.8,-0.6 4.1,1.6 z m 22.4,-2.1 -6.6,-1 5.7,-2.6 -0.4,-6 -1.9,-2.3 -4.5,-0.8 -8.1,3.8 -5.5,5.8 2.9,2.1 1.6,3.3 -6.3,5.5 -3.2,-0.2 -6.2,4.4 4.2,-5.2 -4.8,-1.8 -4.5,0.9 -2.4,3.4 -5.9,-0.1 -7.2,0.8 -5.1,-2.4 -5,0.4 -1.5,-2.9 -2.1,-1.3 -3.8,0.5 -5.2,0.3 -4.4,1.8 2,2.3 -7,2.8 -1.4,-3.3 -4.4,1 -11.8,0.6 -6.4,-1.2 8.5,-2.6 -2.8,-2.8 -4.4,0.4 -4.7,-1 -7.5,-1.9 -3.8,-2.3 -4.5,-0.3 -3.3,1.6 -5.9,0.9 3.9,-4.1 -9.4,3.6 -1.4,-4.7 -2.1,-0.6 -3.8,2.5 -4.5,1.2 -0.2,-2.2 -8.2,1.4 -8.8,2.3 -5.2,-0.6 -7,1.6 -6.2,2.3 -3.7,-0.5 -3.3,-2.6 -5.9,-1.3 v 0 l -24.3,20.2 -35.4,32.4 4.2,0.1 2.7,1.6 0.6,2.6 0.2,3.9 7.6,-3.3 6.4,-1.9 -0.5,3 0.7,2.4 1.7,2.7 -1.1,4.2 -1.5,6.8 4.6,3.8 -3.1,3.7 -5.1,2.9 v 0 l -2.5,3.1 2.1,4.4 -3.1,4.9 4.1,2.6 -3.6,3.7 -1.3,5.5 6.9,2.5 1.6,2.7 5.4,6.1 h 0.7 13.9 14.6 4.8 15 14.5 14.7 14.8 16.7 16.8 10.1 l 1.3,-2.4 h 1.6 l -0.8,3.4 1,1 3.2,0.4 4.6,1 3.8,1.9 4.4,-0.8 5.3,1.6 v 0 l 3.2,-2.4 3.2,-1 1.8,-1.5 1.5,-0.8 4,1.2 3.3,0.2 0.8,0.8 0.1,3.5 5.2,1 -1.7,1.7 1.2,1.9 -1.9,2.3 1.8,0.8 -1.9,2.1 v 0 l 1.2,0.2 1.3,-0.9 0.5,1.4 3.4,0.7 3.8,0.1 3.8,0.6 4,1.2 0.8,2 1.4,4.7 -2.4,2 -3.8,-0.8 -1,-3.8 -0.9,3.9 -3.8,3.4 -0.8,2.9 -1.1,1.7 -4.1,2 v 0 l -3.7,3.4 -2,2.2 2.7,0.4 4.5,-2 2.9,-1.7 1.6,-0.3 2.6,0.6 1.7,-0.9 2.8,-0.8 4.7,-0.8 v 0 0 l 0.3,-1.8 -0.3,0.1 -1.7,0.3 -1.8,-0.6 2.3,-2.1 1.9,-0.7 3.9,-0.9 4.6,-0.9 1.8,1.2 1.9,-1.4 1.9,-0.8 0.9,0.4 0.1,0.1 6.7,-4.2 2.7,-1.2 h 7.7 9.3 l 1,-1.6 1.7,-0.3 2.5,-0.9 2.7,-2.8 3.2,-4.9 5.5,-4.7 1.1,1.7 3.7,-1.1 1.5,1.8 -2.8,8.5 2.1,3.5 5.9,-0.8 8.1,-0.2 -10.4,5.1 -1.5,5.2 3.7,0.5 7.1,-4.5 5.8,-2.4 12.2,-3.7 7.5,-4.1 -2.6,-2.2 1,-4.5 -7.1,7 -8.6,0.8 -5.5,-3.1 -0.1,-4.6 0.6,-6.8 6.1,-4.1 -3.3,-3.1 -7.6,0.6 -12.1,5.2 -10.9,8.2 -4.6,1 7.8,-5.7 10.1,-8.3 7.2,-2.7 5.7,-4.4 5.2,-0.5 7.3,0.1 10,1.3 8.6,-1 7.8,-5.1 8.7,-2.2 4.2,-2.1 4.2,-2.3 2,-6.8 -1.1,-2.3 -3.4,-0.8 v -5.1 l -2.3,-1.9 -6.9,-1.6 -2.8,-3.4 -4.8,-3.4 3.4,-3.7 -2,-7.1 -2.6,-7.5 -1,-5.2 -4.3,2.7 -7.4,6.5 -8.1,3.2 -1.6,-3.4 -3.7,-1 2.2,-7.3 2.6,-4.9 -7.7,-0.5 -0.1,-2.2 -3.6,-3.3 -3,-2 -4.5,1.5 -4.2,-0.5 -6.6,-1.6 -3.9,1.3 -3.8,9 -1,5.3 -8.8,6.1 3.1,4.5 0.5,5 -1.7,4 -4.7,4.1 -7.5,4.2 -9,2.8 1.7,3.2 -2.2,9.6 -5.6,6.3 -4.6,1.9 -4.4,-5.8 -0.1,-6.8 1.7,-6 3.6,-5.2 -4.8,-0.6 -7.5,-0.4 -3.6,-2.5 -4.8,-1.6 -1.7,-2.9 -3.3,-2.2 -7,-2.6 -7.1,1.2 0.7,-4.5 1.5,-5.5 -6,-1 4.9,-6.8 4.9,-4.6 9.4,-6.5 8.6,-4.6 5.6,-0.7 2.9,-3.7 5.1,-2.4 6.4,-0.4 7.7,-3.8 2.9,-2.4 7.4,-4.7 3.2,-2.8 3.2,1.7 6.5,-0.9 10.8,-3.8 2.3,-2.7 -0.8,-2.9 5,-2.9 1.7,-2.7 -3.5,-2.6 -5.4,-0.8 -5.5,-0.4 -4.6,5.9 -6.5,4.6 -7.2,4 -1.3,-3.7 4.2,-4 -2.2,-3.5 -8.7,4.2 z m -75.5,-18.9 -2.8,-1 -14.1,3.2 -5.1,2 -7.8,3.9 5.4,1.4 6.2,-0.1 -11.5,2.1 v 1.9 l 5.6,0.1 9,-0.4 6.5,1.2 -6.2,1 -5.5,-0.3 -7.1,0.9 -3.3,0.6 0.6,4.2 4.2,-0.6 4.1,1.5 -0.3,2.5 7.8,-0.5 11.2,-0.8 9.4,-1.8 5,-0.4 5.7,1.5 6.7,0.8 3.1,-1.9 -0.7,-2.1 7,-0.4 2.6,-2.4 -5,-2.5 -4.2,-2.6 2.4,-3.6 2.7,-5.1 -2.2,-2 -3,-0.9 -4.2,0.8 -2.8,5.3 -4.3,2.1 2.2,-5.1 -1.7,-1.7 -7.3,2.7 -2.6,-2.6 -10.4,1.5 z m 39.1,-1.5 -1.7,-1.1 -5.4,0.2 -2.1,0.7 2.2,3.6 z m 107.7,1.6 -4.4,-2.8 -8.4,-0.5 -2.1,0.3 -1.7,1.8 2,2.8 0.9,0.3 4.8,-0.7 4.1,0.1 4.1,0.1 z m -39.4,-0.3 5.7,-3.2 -11.2,1.3 -5.8,2.1 -7.1,4.6 -3.3,5.2 5.6,0.1 -6.1,2.3 1.8,1.9 5.9,0.8 7.3,1.5 13.8,1.2 7.9,-0.6 3.2,-1.6 2,1.8 3.3,0.3 2,3.3 -3.5,1.4 7.1,1.8 4.6,2.6 0.5,1.9 -0.4,2.4 -8.6,5.4 -3.2,2.7 0.2,2 -9.2,0.7 -8,0.1 -5.4,4.2 2.4,1.9 13,-0.9 0.9,-1.6 4.7,2.7 4.7,2.9 -2.4,1.6 3.8,2.8 7.6,3.3 10.7,2.3 0.3,-2 -2.8,-3.5 -3.5,-4.9 8.5,4.6 4.7,1.5 3.6,-4.1 v -5.6 l -1,-1.5 -4.4,-2.5 -2.7,-3.3 2.3,-3.2 5.8,-0.7 3.8,5.4 4,2.4 10.7,-6.5 3.3,-3.9 -6.4,-0.3 -3.2,-5.1 -5.9,-1.2 -7.7,-3.5 9,-2.5 -0.8,-5 -2.2,-2.1 -8.3,-2.1 -1.9,-3.3 -8.2,1.2 1.1,-2.3 -3.6,-2.5 -6.8,-2.6 -5.2,2.1 -9,1.5 3.3,-3.4 -2.3,-5.3 -11.6,2.1 -7.1,4.1 z m -50,-3.4 -7.1,2.4 0.9,3.4 -7.4,-0.7 -1.7,1.7 5.8,3.9 0.9,2 3.4,0.5 8.4,-2 5.1,-4.7 -3.8,-2.2 6,-2.4 0.5,-1.5 -7.5,0.6 z m 22.3,5.4 5.6,-1 10,-4.5 -6.1,-1.2 -7.8,-0.2 -5.2,1.4 -4.2,2.1 -2.5,2.6 -1.8,4.5 4.3,0.2 z m -114.7,7.2 2.6,-2.3 9.1,-3.6 13.8,-3.6 6.4,-1.3 -1.6,-2.1 -1.9,-1.5 -9.4,-0.2 -4.1,-1.1 -14,0.8 -0.3,3.1 -7.6,3.3 -7.4,3.8 -4.3,2.2 5.9,2.7 -0.6,2.3 z m 124.1,-18.3 0.3,-1.6 -1.4,-1.7 -6.9,1.3 -4.4,2.2 3.2,1.3 5.1,0.4 z m -8.7,-8.6 -1.1,0.7 -4.8,-0.3 -7.6,1.6 -3.8,-0.1 -4.3,3.8 6.6,-0.4 -3.4,2.9 3.2,0.8 6.8,-0.5 5.8,-3.7 2.8,-2.5 z m -39.1,2.5 1.8,-2.3 -3.1,-0.5 -5.7,1.7 -0.7,4.7 -6.1,-0.4 -2.8,-2.9 -8.2,-1.6 -5.4,1.4 -11.6,4.8 4.1,0.8 17.8,-0.5 -10.6,2.2 -1.5,1.6 5.9,-0.1 12.2,-2.2 13.8,-0.8 5.1,-2.3 2.3,-2.4 -3.7,-0.2 -4.3,0.8 z m 55.2,-4.3 -7.1,-0.3 -3.8,2 2.6,1.5 7,0.6 1.4,2.1 -2.2,2.4 -1.5,2.8 8.5,1.6 5.5,0.6 8,-0.1 11.6,-0.8 4.3,0.6 6.7,-1 3.5,-1.4 1,-2 -2.3,-1.9 -5.8,-0.3 -8,0.4 -7,1.1 -5.1,-0.4 -4.8,-0.3 -1.2,-1.1 -3.1,-1.1 2.8,-1.9 -1.4,-1.6 -7.3,0.1 z m -75,-2.6 -6,0.7 -5.5,-0.1 -12.1,3.1 -11.6,3.7 v 0 l 3.6,1 7,-0.7 9.8,-2.1 3.8,-0.3 5.2,-1.6 z m 80.5,0.6 1,-0.5 -1.5,-0.9 -7.2,-0.1 -0.6,1.3 6.4,0.3 z m -58.4,-0.8 3.2,-1.4 -4.1,-0.8 -5.9,0.5 -5.1,1.5 3.3,1.5 z m 7.8,-4.2 -3.3,-0.9 -1.6,-0.2 -5.7,1.3 -1,0.7 h 6 z m 46.4,2.5 3,-1.7 -2.3,-1.6 -1.7,-0.3 -4.4,-0.1 -2.1,1.8 -0.7,1.8 1.6,1.1 z m -13.7,-1.2 0.1,-2.2 -7.4,-1.7 -6.1,-0.6 -2.1,1.7 2.8,1.1 -5.3,1.4 7.7,0.2 4,1.5 5.2,0.5 z m 53.7,-6.1 0.6,-2.8 -4.7,-0.8 -4.7,-0.9 -1.6,-2.2000001 -8.2,0.2 0.3,0.9 -3.9,0.3 -4.1,1.3000001 -4.9,1.9 -0.3,1.9 2,1.5 h 6.5 l -4.3,1.2 -2.1,1.6 1.6,1.9 6.7,0.6 6.8,-0.4 10.5,-3.4 6.4,-1.3 z m 78.5,-13.80000006 -7,-0.2 -6.9,-0.3 -10.2,0.59999996 -1.4,-0.39999996 -10.3,0.2 -6.4,0.39999996 -5.1,0.6 -5,2 -2.3,-1 -3.9,-0.2 -6.7,1.4 -7.4,0.6 -4.1,0.1 -6,0.8 -1.1,1.3 2.5,1.2 0.8,1.6 4.4,1.5000001 12.4,-0.3 7.2,0.5 -7.2,1.5 -2.2,-0.4 -9.3,-0.2 -1.1,2.2 3,1.7 -2.8,1.6 -7.5,1.1 -4.9,1.7 4.8,0.9 1.7,3 -7.5,-2 -2.5,0.3 -2,3.4 -8,1.1 -2,2.3 6.7,0.3 4.9,0.6 11.7,-0.8 8.4,1.4 12.6,-3 1,-1.1 -6.4,0.2 0.5,-1.1 6.5,-1.4 3.6,-1.9 6.8,-1.3 5,-1.6 -0.8,-2.2 3.3,-0.8 -4.3,-0.6 11.1,-0.4 3.2,-0.9 7.9,-0.8 9.3,-3.5 6.8,-1.1000001 10.3,-2.5 h -7.4 l 3.9,-0.9 9,-0.8 9.7,-1.6 1.1,-1.1 -5.2,-1 -6.7,-0.4 z"
     style="fill:#ffffff;fill-opacity:1;fill-rule:evenodd;stroke:#05c6c3;stroke-opacity:1" />
  <path
     inkscape:connector-curvature="0"
     id="CR"
     data-name="Costa Rica"
     data-id="CR"
     d="m 411.89998,425.8 -1.4,1.3 -1.7,-0.4 -0.8,-1.3 -1.7,-0.5 -1.4,0.8 -3.5,-1.7 -0.9,0.8 -1.4,1.2 1.5,0.9 -0.9,2 -0.1,2 0.7,1.3 1.7,0.6 1.2,1.8 1.2,-1.6 -0.3,-1.8 1.4,1.1 0.3,1.9 1.9,0.8 2.1,1.3 1.5,1.5 0.1,1.4 -0.7,1.1 1.1,1.3 2.9,1.4 0.4,-1.2 0.5,-1.3 -0.1,-1.2 0.8,-0.7 -1.1,-1 0.1,-2.5 2.2,-0.6 -2.4,-2.7 -2,-2.6 z"
     style="fill:#ffffff;fill-opacity:1;fill-rule:evenodd;stroke:#05c6c3;stroke-opacity:1" />
  <path
     inkscape:connector-curvature="0"
     id="CU"
     data-name="Cuba"
     data-id="CU"
     d="m 441.79998,350.5 -4.9,-2.1 -4.3,-0.1 -4.7,-0.5 -1.4,0.7 -4.2,0.6 -3,1.3 -2.7,1.4 -1.5,2.3 -3.1,2 2.2,0.6 2.9,-0.7 0.9,-1.6 2.3,-0.1 4.4,-3.3 5.4,0.3 -2.3,1.6 1.8,1.3 7,1 1.5,1.3 4.9,1.7 3.2,-0.2 0.8,3.6 1.7,1.8 3.5,0.4 2.1,1.7 -4.1,3.5 7.9,-0.6 3.8,0.5 3.7,-0.3 3.8,-0.8 0.8,-1.5 -3.9,-2.6 -4,-0.3 0.6,-1.7 -3.1,-1.3 h -1.9 l -3,-2.8 -4.2,-4 -1.8,-1.5 -5.2,0.8 z"
     style="fill:#ffffff;fill-opacity:1;fill-rule:evenodd;stroke:#05c6c3;stroke-opacity:1" />
  <path
     inkscape:connector-curvature="0"
     id="DO"
     data-name="Dominican Rep."
     data-id="DO"
     d="m 482.39998,380.6 v 1.8 l 1.4,1 2.6,-4.4 2,-0.9 0.6,1.6 2.2,-0.4 1.1,-1.2 1.8,0.3 2.6,-0.2 2.5,1.3 2.3,-2.6 -2.5,-2.3 -2.4,-0.2 0.3,-1.9 -3,0.1 -0.8,-2.2 -1.4,0.1 -3.1,-1.6 -4.4,-0.1 -0.8,1.1 0.2,3.5 -0.7,2.4 -1.5,1.1 1.2,1.9 z"
     style="fill:#ffffff;fill-opacity:1;fill-rule:evenodd;stroke:#05c6c3;stroke-opacity:1" />
  <path
     inkscape:connector-curvature="0"
     id="GT"
     data-name="Guatemala"
     data-id="GT"
     d="m 385.59998,382.1 -5.1,-0.1 h -5.2 l -0.4,3.6 h -2.6 l 1.8,2.1 1.9,1.5 0.5,1.4 0.8,0.4 -0.4,2.1 h -7.1 l -3.3,5.2 0.7,1.2 -0.8,1.5 -0.4,1.9 2.7,2.6 2.5,1.3 3.4,0.1 2.8,1.1 0.2,-1 2.1,-1.6 1.1,-0.7 -0.2,-0.7 1.4,-0.4 1.3,-1.6 -0.3,-1.3 0.5,-1.2 2.8,-1.8 2.8,-2.4 -1.5,-0.8 -0.6,0.9 -1.7,-1.1 h -1.6 l 1.2,-7.2 z"
     style="fill:#ffffff;fill-opacity:1;fill-rule:evenodd;stroke:#05c6c3;stroke-opacity:1" />
  <path
     inkscape:connector-curvature="0"
     id="HN"
     data-name="Honduras"
     data-id="HN"
     d="m 416.89998,400 -1.3,-1.8 -1.9,-1 -1.5,-1.4 -1.6,-1.2 -0.8,-0.1 -2.5,-0.9 -1.1,0.5 -1.5,0.2 -1.3,-0.4 -1.7,-0.4 -0.8,0.7 -1.8,0.7 -2.6,0.2 -2.5,-0.6 -0.9,0.4 -0.5,-0.6 -1.6,0.1 -1.3,1.1 -0.6,-0.2 -2.8,2.4 -2.8,1.8 -0.5,1.2 0.3,1.3 -1.3,1.6 1.5,0.5 1.1,1.3 1.6,1 0.1,0.9 2.5,-0.8 1.1,0.5 0.7,0.7 -0.6,2.5 1.7,0.6 0.7,2 1.8,-0.3 0.8,-1.5 h 0.8 l 0.2,-3.1 1.3,-0.2 h 1.2 l 1.4,-1.7 1.5,1.3 0.6,-0.8 1.1,-0.7 2.1,-1.8 0.3,-1.3 0.5,0.1 0.8,-1.5 0.6,-0.2 0.9,0.9 1.1,0.3 1.3,-0.8 h 1.4 l 2,-0.8 0.9,-0.9 z"
     style="fill:#ffffff;fill-opacity:1;fill-rule:evenodd;stroke:#05c6c3;stroke-opacity:1" />
  <path
     inkscape:connector-curvature="0"
     id="HT"
     data-name="Haiti"
     data-id="HT"
     d="m 483.39998,369.9 -4.6,-1 -3.4,-0.2 -1.4,1.7 3.4,1 -0.3,2.4 2.2,2.8 -2.1,1.4 -4.2,-0.5 -5,-0.9 -0.7,2.1 2.8,1.9 2.7,-1.1 3.3,0.4 2.7,-0.4 3.6,1.1 0.2,-1.8 -1.2,-1.9 1.5,-1.1 0.7,-2.4 z"
     style="fill:#ffffff;fill-opacity:1;fill-rule:evenodd;stroke:#05c6c3;stroke-opacity:1" />
  <path
     inkscape:connector-curvature="0"
     id="JM"
     data-name="Jamaica"
     data-id="JM"
     d="m 453.49998,381.7 3.9,-0.1 -0.8,-1.8 -2.7,-1.5 -3.7,-0.6 -1.2,-0.2 -2.4,0.4 -0.8,1.5 2.9,2.3 3,1 z"
     style="fill:#ffffff;fill-opacity:1;fill-rule:evenodd;stroke:#05c6c3;stroke-opacity:1" />
  <path
     inkscape:connector-curvature="0"
     id="MX"
     data-name="Mexico"
     data-id="MX"
     d="m 347.19998,331 -3.6,-1.4 -3.9,-2 -0.8,-3 -0.2,-4.5 -2.4,-3.6 -1,-3.7 -1.6,-4.4 -3.1,-2.5 -4.4,0.1 -4.8,5 -4,-1.9 -2.2,-1.9 -0.4,-3.5 -0.8,-3.3 -2.4,-2.8 -2.1,-2 -1.3,-2.2 h -9.3 l -0.8,2.6 h -4.3 -10.7 l -10.7,-4.4 -7.1,-3.1 1,-1.3 -7,0.7 -6.3,0.5 0.2,5.7 0.7,5.1 0.7,4.1 0.8,4 2.6,1.8 2.9,4.5 -1,2.9 -2.7,2.3 -2.1,-0.3 -0.6,0.5 2.3,3.7 2.9,1.5 1,1.7 0.9,-0.9 3.1,2.9 2.1,2 0.1,3.4 -1.2,4.7 2.5,1.6 3.3,3.1 2.9,3.6 0.7,3.9 h 1 l 2.7,-2.3 0.4,-1.2 -1.5,-2.8 -1.6,-2.9 -2.6,-0.2 0.4,-3.4 -0.9,-3 -1,-2.8 -0.5,-5.9 -2.6,-3.2 -0.6,-2.3 -1.2,-1.6 v -4.1 l -1,0.1 -0.1,-2.2 -0.7,-0.5 -0.4,-1.4 -2.7,-4.4 -1.1,-2.6 1,-4.8 0.1,-3 1.8,-2.6 2.4,1.7 1.9,-0.2 3.1,2.5 -0.9,2.4 0.4,4.9 1.5,4.7 -0.4,2 1.7,3.1 2.3,3.4 2.7,0.5 0.3,4.4 2.4,3.1 2.5,1.5 -1.8,4 0.7,1.5 4.1,2.6 1.9,4 4.5,4.9 3.8,6.4 1.3,3.2 v 2.5 l 1.4,2.9 -0.3,2.2 -1.6,1.6 0.3,1.8 -1.9,0.7 0.8,3.1 2.2,4 5.3,3.6 1.9,2.9 5.4,2 3,0.4 1.2,1.7 4.2,3 5.9,3 4,0.9 4.8,2.9 4,1.2 3.7,1.7 2.9,-0.7 4.8,-2.4 3.1,-0.4 4.4,1.6 2.6,2.1 5.5,6.9 0.4,-1.9 0.8,-1.5 -0.7,-1.2 3.3,-5.2 h 7.1 l 0.4,-2.1 -0.8,-0.4 -0.5,-1.4 -1.9,-1.5 -1.8,-2.1 h 2.6 l 0.4,-3.6 h 5.2 l 5.1,0.1 0.1,-1 0.7,-0.3 0.9,0.8 2.5,-3.9 h 1 l 1.2,-0.1 1.2,1.6 2,-5 1.2,-2.7 -0.9,-1.1 1.8,-3.9 3.5,-3.8 0.6,-3.1 -1.2,-1.3 -3.4,0.5 -4.8,-0.2 -6,1.5 -4,1.7 -1.2,1.8 -1.2,5.4 -1.8,3.7 -3.9,2.6 -3.6,1.1 -4.3,1.1 -4.3,0.6 -5.1,1.8 -1.9,-2.6 -5.6,-1.7 -1.8,-3.2 -0.7,-3.6 -3,-4.7 -0.4,-5 -1.2,-3.1 -0.5,-3.4 1.1,-3.1 1.8,-8.6 1.8,-4.5 3.1,-5.6 z"
     style="fill:#05c6c3;fill-opacity:1;fill-rule:evenodd;stroke:#05c6c3;stroke-opacity:1" />
  <path
     inkscape:connector-curvature="0"
     id="NI"
     data-name="Nicaragua"
     data-id="NI"
     d="m 416.89998,400 -1.9,-0.2 -0.9,0.9 -2,0.8 h -1.4 l -1.3,0.8 -1.1,-0.3 -0.9,-0.9 -0.6,0.2 -0.8,1.5 -0.5,-0.1 -0.3,1.3 -2.1,1.8 -1.1,0.7 -0.6,0.8 -1.5,-1.3 -1.4,1.7 h -1.2 l -1.3,0.2 -0.2,3.1 h -0.8 l -0.8,1.5 -1.8,0.3 -0.4,0.4 -0.9,-1 -0.7,1 2.6,2.9 2.2,2 1,2.1 2.5,2.6 1.8,2 0.9,-0.8 3.5,1.7 1.4,-0.8 1.7,0.5 0.8,1.3 1.7,0.4 1.4,-1.3 -0.8,-1.1 -0.1,-1.7 1.2,-1.6 -0.2,-1.7 0.7,-2.7 0.9,-0.7 0.1,-2.8 -0.2,-1.7 0.4,-2.8 0.9,-2.5 1.4,-2.2 -0.3,-2.3 0.4,-1.4 z"
     style="fill:#ffffff;fill-opacity:1;fill-rule:evenodd;stroke:#05c6c3;stroke-opacity:1" />
  <path
     inkscape:connector-curvature="0"
     id="PA"
     data-name="Panama"
     data-id="PA"
     d="m 446.29998,440.2 -2,-1.8 -1.7,-1.9 -2.5,-1.1 -3.1,-0.2 0.3,-0.6 -3.1,-0.4 -2,1.9 -3.5,1.3 -2.5,1.6 -2.7,0.5 -1.5,-1.6 -0.5,0.5 -2.3,-0.3 0.2,-1.3 -1.9,-2.3 -2.2,0.6 -0.1,2.5 1.1,1 -0.8,0.7 0.1,1.2 -0.5,1.3 -0.4,1.2 0.6,1 0.3,-1.4 h 2.4 l 1.4,0.7 2.3,0.5 1,2.5 1.8,0.4 0.8,-1.1 0.8,3.8 2.6,-0.3 0.9,-0.9 1.5,-0.9 -2.5,-3.4 0.6,-1.3 1.3,-0.3 2.3,-1.6 1.2,-2.2 2.5,-0.4 2.7,1.8 1,2.1 1.4,0.4 -1.5,1.7 1,3.5 1.8,1.8 0.9,-3.1 1.8,0.5 1.1,-1.9 -1.1,-3.8 z"
     style="fill:#ffffff;fill-opacity:1;fill-rule:evenodd;stroke:#05c6c3;stroke-opacity:1" />
  <path
     inkscape:connector-curvature="0"
     id="SV"
     data-name="El Salvador"
     data-id="SV"
     d="m 389.99998,410.2 0.6,-2.5 -0.7,-0.7 -1.1,-0.5 -2.5,0.8 -0.1,-0.9 -1.6,-1 -1.1,-1.3 -1.5,-0.5 -1.4,0.4 0.2,0.7 -1.1,0.7 -2.1,1.6 -0.2,1 1.4,1.3 3.1,0.4 2.2,1.3 1.9,0.6 3.3,0.1 z"
     style="fill:#ffffff;fill-opacity:1;fill-rule:evenodd;stroke:#05c6c3;stroke-opacity:1" />
  <path
     inkscape:connector-curvature="0"
     id="US"
     data-name="United States"
     data-id="US"
     d="m 19.499977,373.9 2,-0.9 2.5,-1.4 0.2,-0.4 -0.9,-2.2 -0.7,-0.8 -0.8,-0.6 -1.9,-1.1 -0.4,-0.1 -0.4,0.6 v 1.3 l -1.2,1 -0.4,0.7 0.4,2.3 -0.6,1.8 1.2,0.9 z m -0.6,-9.9 0.6,-0.7 -1.2,-1 -1.8,-0.6 -0.7,0.5 v 0.4 l 0.5,0.5 0.6,1.4 z m -3,-3.4 -2.6,-0.2 -0.6,0.7 2.9,0.2 z m -4.7,-0.9 -1.1,-2.1 -0.2999996,-0.4 -1.7,0.9 0.1,0.2 0.4,1.5 1.7999996,0.2 0.4,0.1 z m -8.2999996,-4.2 0.3,-1.5 -1.3,-0.1 -1.00000002,0.6 -0.4,0.5 1.60000002,1.1 z M 414.99998,182.3 h -1.6 l -1.3,2.4 h -10.1 -16.8 -16.7 -14.8 -14.7 -14.5 -15 -4.8 -14.6 -13.9 l -1.6,5.1 -2.4,5.1 -2.3,1.6 1.1,-5.9 -5.8,-2.1 -1.4,1.2 -0.4,2.9 -1.8,5.4 -4.2,8.3 -4,5.6 -4,5.6 -5.4,5.8 -1.1,4.7 -2.8,5.3 -3.9,5.2 1,3.4 -1.9,5.2 1.5,5.4 1.3,2.2 -0.8,1.5 0.4,9 2.5,6.5 -0.8,3.5 1,1 4.6,0.7 1.3,1.7 2.8,0.3 -0.1,1.9 2.2,0.7 2.1,3.7 -0.3,3.2 6.3,-0.5 7,-0.7 -1,1.3 7.1,3.1 10.7,4.4 h 10.7 4.3 l 0.8,-2.6 h 9.3 l 1.3,2.2 2.1,2 2.4,2.8 0.8,3.3 0.4,3.5 2.2,1.9 4,1.9 4.8,-5 4.4,-0.1 3.1,2.5 1.6,4.4 1,3.7 2.4,3.6 0.2,4.5 0.8,3 3.9,2 3.6,1.4 2.1,-0.2 -0.6,-2.2 0.4,-3.1 1,-4.4 1.9,-2.8 3.7,-3.1 6,-2.7 6.1,-4.7 4.9,-1.5 3.5,-0.4 3.5,1.4 4.9,-0.8 3.3,3.4 3.8,0.2 2.4,-1.2 1.7,0.9 1.3,-0.8 -0.9,-1.3 0.7,-2.5 -0.5,-1.7 2.4,-1 4.2,-0.4 4.7,0.7 6.2,-0.8 3,1.5 2,3 0.9,0.3 6.1,-2.9 1.9,1 3,5.3 0.8,3.5 -2,4.2 0.4,2.5 1.6,4.9 2,5.5 1.8,1.4 0.4,2.8 2.6,0.8 1.7,-0.8 2,-3.9 0.7,-2.5 0.9,-4.3 -1.2,-7.4 0.5,-2.7 -1.5,-4.5 -0.7,-5.4 0.1,-4.4 1.8,-4.5 3.5,-3.8 3.7,-3 6.9,-4.1 1.3,-2.2 3.3,-2.3 2.8,-0.4 4.4,-3.8 6,-1.9 4.6,-4.8 0.9,-6.5 0.1,-2.2 -1.4,-0.4 1.5,-6.2 -3,-2.1 3.2,1 v -4.1 l 1.9,-2.7 -1,5.3 2,2.5 -2.9,4.4 0.4,0.2 4.4,-5.1 2.4,-2.5 0.6,-2.5 -0.9,-1.1 -0.1,-3.5 1.2,1.6 1.1,0.4 -0.1,1.6 5.2,-4.9 2.5,-4.5 -1.4,-0.3 2.1,-1.8 -0.4,0.8 h 3.3 l 7.8,-1.9 -1.1,-1.2 -7.9,1.2 4.8,-1.8 3.1,-0.3 2.4,-0.3 4.1,-1.1 2.4,0.1 3.8,-1 1,-1.7 -1.1,-1.4 -0.2,2.2 -2.1,-0.1 -0.6,-3.3 1.1,-3.3 1.4,-1.3 3.9,-3.7 5.9,-1.8 6,-2.1 6.3,-3 -0.2,-2 -2.1,-3.5 2.8,-8.5 -1.5,-1.8 -3.7,1.1 -1.1,-1.7 -5.5,4.7 -3.2,4.9 -2.7,2.8 -2.5,0.9 -1.7,0.3 -1,1.6 h -9.3 -7.7 l -2.7,1.2 -6.7,4.2 0.2,0.9 -0.6,2.4 -4.6,2 -3.9,-0.5 -4,-0.2 -2.6,0.7 -0.3,1.8 v 0 l -0.1,0.6 -5.8,3.7 -4.5,1.8 -2.9,0.8 -3.7,1.7 -4,0.9 -2.5,-0.3 -2.7,-1.3 2.7,-2.4 v 0 l 2,-2.2 3.7,-3.4 v 0 0 l 0.7,-2.5 0.5,-3.5 -1.6,-0.7 -4.3,2.8 -0.9,-0.1 0.3,-1.5 3.8,-2.5 1.6,-2.8 0.7,-2.8 -2.7,-2.4 -3.7,-1.3 -1.7,2.4 -1.4,0.6 -2.2,3.1 0.4,-2.1 -2.6,1.5 -2.1,2 -2.6,3.1 -1.3,2.6 0.1,3.8 -1.8,4 -3.3,3 -1.4,0.9 -1.6,0.7 h -1.8 l -0.3,-0.4 -0.1,-3.3 0.7,-1.6 0.7,-1.5 0.6,-3 2.5,-3.5 2.9,-4.3 4.6,-4.7 h -0.7 l -5.4,4 -0.4,-0.7 2.9,-2.3 4.7,-4 3.7,-0.5 4.4,-1.3 3.7,0.7 h 0.1 l 4.7,-0.5 -1.5,-2.5 v 0 l -1.2,-0.2 v 0 0 l -1.4,-0.3 -0.4,-1.7 -5.1,0.5 -5,1.4 -2.5,-2.3 -2.5,-0.8 3.1,-3.3 -5.3,2 -4.9,2.1 -4.6,1.5 -2.1,-2.1 -5.5,1.3 0.4,-0.9 4.6,-2.6 4.7,-2.5 5.9,-2.1 v 0 0 l -5.3,-1.6 -4.4,0.8 -3.8,-1.9 -4.6,-1 -3.2,-0.4 -1,-1 z m -240.6,-46.9 6.9,-2.8 v -1.8 l -2.6,-0.4 -3.4,0.9 -6.4,2.1 -2.2,2.7 0.7,1.6 z m -38.7,-16.4 2.3,-2.3 -2.9,-0.5 -5.7,1 0.8,1.6 1.6,1.1 z m 1.2,-22.3 -3.1,2.2 0.4,0.5 4.2,-0.4 0.3,1.1 1.7,1.2 4.9,-1.2 1.2,-0.6 -3.3,-0.8 -1.6,-1.5 -3.4,0.6 z m 124.9,-40.2 -4.4,-1.1 -10.2,2.8 -3.2,-0.3 -11,2.3 -4.8,0.6 -7.8,2.5 -4.8,2.6 -8.6,2.5 -7.6,0.1 -6.3,2.9 3.2,1.7 0.7,2.3 -0.8,2.7 2.3,2.1 -1.2,3.5 -9.2,0.2 4.3,-2.8 h -3.4 l -13.1,2.7 -9.1,2.3 1,3.3 -1.2,2.2 4.5,1.4 6.9,-0.7 1.8,1.3 2.9,-1.3 6.1,-1.2 h 2.7 l -5.9,2.1 1.1,1 -2.5,2.6 -5.5,1.8 -2.5,-0.5 -7,2.7 -1.8,-0.9 -4.1,0.4 -5.3,3 -7.6,3.1 -5.8,3.4 0.3,2.4 -4,3.3 1.4,1.4 0.5,2.7 7.2,-1.1 0.4,2.1 -3.3,2.1 -3.6,3.5 h 2.8 l 7.2,-2.3 -1.6,2.9 3.6,-2.1 -0.4,3 4.8,-2.2 0.4,1.1 7.2,-1.8 -6.2,3.4 -5.7,4.5 -5.7,2.1 -2.3,1.2 -10.3,3.6 -4.9,2.4 -6.5,0.7 -8.5,3.3 -6.6,1.8 -8.1,2.8 -0.4,1 10,-1.7 6,-2 6.9,-2 6.1,-1.7 2.8,0.5 8.1,-2.6 4.5,-2.8 10.5,-3.1 3.9,-2.6 6.6,-1.8 7.6,-2.5 8.9,-4.2 -0.2,-2.9 11.1,-4.1 7.4,-3.9 9.2,-3.2 -0.4,1.4 -6.7,1.8 -8.3,5.7 -3.2,3.5 6.4,-1.3 6.1,-1.9 6.5,-1.3 2.9,-0.3 3.5,-4.1 6.3,-1.2 2.6,2.5 6,2.7 6.7,-0.5 5.7,2 3.2,1.1 3.3,6.1 3.7,1.7 7.1,0.2 4.1,0.4 -2.7,5.5 1.6,4.9 -3.3,5.2 2.5,1.9 0.6,2.2 v 0 l 5.1,-2.9 3.1,-3.7 -4.6,-3.8 1.5,-6.8 1.1,-4.2 -1.7,-2.7 -0.7,-2.4 0.5,-3 -6.4,1.9 -7.6,3.3 -0.2,-3.9 -0.6,-2.6 -2.7,-1.6 -4.2,-0.1 35.4,-32.4 24.3,-20.2 v 0 0 l -3.5,-0.7 -4.1,-1.6 -6.5,0.8 -2.2,-0.7 -7.1,-0.5 -6.2,-1.6 -4.8,0.5 -4.9,-0.9 2,-1.2 -6.3,-0.3 -3.3,1 z"
     style="fill:#ffffff;fill-opacity:1;fill-rule:evenodd;stroke:#05c6c3;stroke-opacity:1" />
  <path
     inkscape:connector-curvature="0"
     id="AI"
     data-name="Anguilla"
     data-id="AI"
     d="m 530.69998,379.4 0.1,-0.2 -0.2,-0.1 -0.8,0.5 v 0.1 z"
     style="fill:#ffffff;fill-opacity:1;fill-rule:evenodd;stroke:#05c6c3;stroke-opacity:1" />
  <path
     inkscape:connector-curvature="0"
     id="AG"
     data-name="Antigua and Barb."
     data-id="AG"
     d="m 537.09998,387 0.2,-0.1 v -0.1 -0.2 l -0.1,-0.1 -0.1,-0.2 -0.4,-0.2 -0.5,0.5 v 0.2 l 0.1,0.3 0.6,0.1 z m 0.2,-3.5 V 383 l -0.1,-0.2 h -0.3 l -0.1,-0.1 h -0.1 l -0.1,0.1 0.1,0.6 0.5,0.3 z"
     style="fill:#ffffff;fill-opacity:1;fill-rule:evenodd;stroke:#05c6c3;stroke-opacity:1" />
  <path
     inkscape:connector-curvature="0"
     id="BS"
     data-name="Bahamas"
     data-id="BS"
     d="m 477.19998,360.5 0.2,-0.6 -0.3,-0.1 -0.5,0.7 -0.6,0.3 h -0.3 l -0.7,-0.3 h -0.5 l -0.4,0.5 -0.6,0.1 0.1,0.1 v 0.2 l -0.2,0.3 v 0.2 l 0.1,0.3 1.5,-0.1 1.3,-0.2 0.7,-0.9 z m 0.8,-2 -0.4,-0.3 -0.4,0.3 0.1,0.3 z m 0,-5.8 -0.4,-0.2 -0.3,0.5 0.3,0.1 0.7,-0.1 0.5,0.1 0.5,0.4 0.3,-0.2 -0.1,-0.1 -0.4,-0.3 -0.6,-0.1 h -0.2 z m -6.6,1.3 0.7,-0.6 0.7,-0.3 0.9,-1.1 -0.1,-0.9 0.2,-0.4 -0.6,0.1 -0.1,0.3 -0.1,0.3 0.3,0.4 v 0.2 l -0.2,0.4 -0.3,0.1 -0.1,0.2 -0.3,0.1 -0.4,0.5 -0.8,0.6 -0.2,0.3 z m 1.2,-3.2 -0.6,-0.2 -0.2,-0.4 -0.4,-0.1 -0.1,0.2 v 0.2 l 0.1,0.4 0.2,-0.1 0.8,0.4 0.4,-0.3 z m -4.1,-1.1 V 349 l -0.4,-0.5 -0.6,-0.4 -0.1,-1.2 -0.3,-0.7 -0.2,-0.6 -0.4,-0.8 v 0.5 l 0.1,0.1 0.1,0.6 0.4,0.9 0.1,0.4 -0.1,0.4 -0.4,0.1 -0.1,0.2 0.5,0.3 0.8,0.3 0.5,1.3 z m -4.1,-3.5 -0.5,-0.3 -0.2,-0.3 -0.7,-0.7 -0.3,-0.1 -0.2,0.4 0.4,0.1 0.9,0.7 0.4,0.2 z m 7.3,-4 -0.1,-0.3 h -0.1 l -0.3,0.1 -0.3,0.9 h 0.3 z m -17.6,-1.1 -0.2,-0.3 -0.3,0.2 h -0.5 l -0.2,0.1 h -0.4 l -0.3,0.2 0.4,0.8 0.3,0.3 0.1,1 0.2,0.1 -0.1,0.7 1.1,0.1 0.4,-0.8 v -0.3 -0.1 -0.2 -0.2 -0.9 l -0.3,-0.5 -0.4,0.6 -0.4,-0.3 0.6,-0.4 z m 12.9,0.3 -1,-1.4 v -0.2 l -0.5,-1.5 -0.3,-0.1 -0.1,0.1 -0.1,0.2 0.4,0.4 v 0.4 l 0.3,0.2 0.4,1.1 0.4,0.4 -0.1,0.3 -0.4,0.3 -0.1,0.2 h 0.1 l 0.6,-0.1 h 0.4 z m -10.5,-5.2 0.5,-0.2 v 0 l -0.3,-0.2 h -0.7 l -0.4,0.1 -0.2,0.2 0.1,0.1 0.4,0.1 z m -2.4,2 -0.5,-0.6 -0.3,-0.9 -0.2,-0.4 0.1,-0.5 -0.3,-0.4 -0.6,-0.4 -0.3,0.1 0.1,1.1 -0.2,0.6 -0.8,1.1 0.1,0.4 v 0 l 0.1,0.2 -0.5,0.4 v -0.3 l -0.6,0.1 0.3,0.5 0.6,0.4 0.3,0.1 0.3,-0.2 v 0.5 l 0.3,0.4 0.1,0.4 0.3,-0.3 0.6,-0.2 0.2,-0.2 0.7,-0.4 v -0.2 l 0.1,-0.6 z m 6.7,-5 -0.3,-0.5 -0.1,0.1 -0.1,0.4 -0.3,0.4 0.5,-0.1 0.4,0.1 0.6,0.5 0.7,0.2 0.3,0.6 0.6,0.6 v 0.6 l -0.4,0.6 -0.1,0.7 -0.6,0.1 0.1,0.1 0.3,0.3 0.1,0.4 0.2,0.2 v -0.7 l 0.3,-0.8 0.4,-1.3 -0.1,-0.3 -0.3,-0.3 -0.7,-0.9 -0.7,-0.3 z m -8.8,-7.9 -0.5,-0.4 -0.2,0.4 v 0.1 l -0.1,0.3 -0.5,0.4 -0.5,0.1 -0.7,-0.6 -0.2,-0.1 0.8,1.1 0.3,0.1 h 0.4 l 0.9,-0.3 1.6,-0.5 1.7,-0.2 0.1,-0.2 -0.1,-0.3 -0.8,0.2 -1,-0.1 -0.2,0.2 h -0.4 z m 6.1,5.2 0.2,-0.3 0.4,-1.8 0.8,-0.6 0.1,-1.2 -0.5,-0.5 -0.4,-0.2 -0.1,-0.2 0.1,-0.2 -0.2,-0.1 -0.3,-0.2 -0.4,-0.6 -0.4,-0.4 -0.7,-0.1 -0.6,-0.1 -0.4,-0.1 -0.5,0.3 h 0.8 l 1.5,0.3 0.7,1.5 0.5,0.4 0.1,0.4 -0.2,0.4 v 0.4 l -0.3,0.5 -0.1,0.8 -0.3,0.4 -0.7,0.5 0.4,0.2 0.3,0.6 z"
     style="fill:#ffffff;fill-opacity:1;fill-rule:evenodd;stroke:#05c6c3;stroke-opacity:1" />
  <path
     inkscape:connector-curvature="0"
     id="BM"
     data-name="Bermuda"
     data-id="BM"
     d="m 532.99998,290 0.4,-0.6 h -0.1 l -0.5,0.5 -0.6,0.2 0.1,0.1 h 0.1 z"
     style="fill:#ffffff;fill-opacity:1;fill-rule:evenodd;stroke:#05c6c3;stroke-opacity:1" />
  <path
     inkscape:connector-curvature="0"
     id="BB"
     data-name="Barbados"
     data-id="BB"
     d="m 547.69998,412.1 0.4,-0.4 -0.3,-0.3 -0.6,-0.8 -0.3,0.1 v 1 l 0.1,0.3 0.5,0.3 z"
     style="fill:#ffffff;fill-opacity:1;fill-rule:evenodd;stroke:#05c6c3;stroke-opacity:1" />
  <path
     inkscape:connector-curvature="0"
     id="KY"
     data-name="Cayman Is."
     data-id="KY"
     d="m 429.79998,372.3 -0.1,-0.3 -0.1,0.1 v 0.6 h 0.5 0.2 l 0.3,-0.2 h 0.6 l -0.1,-0.2 -0.8,-0.1 -0.1,0.1 -0.2,0.1 z m 8,-2.3 v 0 l -0.1,-0.1 h -0.1 l -0.3,0.1 h -0.1 -0.1 l -0.1,0.1 -0.1,0.1 h 0.2 l 0.4,-0.2 h 0.2 z m 0.8,-0.1 0.5,-0.2 v 0 l -0.1,-0.1 h -0.1 l -0.1,0.1 h -0.1 l -0.5,0.3 h 0.2 z"
     style="fill:#ffffff;fill-opacity:1;fill-rule:evenodd;stroke:#05c6c3;stroke-opacity:1" />
  <path
     inkscape:connector-curvature="0"
     id="DM"
     data-name="Dominica"
     data-id="DM"
     d="m 538.59998,398.3 0.3,-0.7 -0.1,-1 -0.2,-0.4 -0.8,-0.3 v 0.2 l -0.1,0.5 0.3,0.8 0.1,1.1 z"
     style="fill:#ffffff;fill-opacity:1;fill-rule:evenodd;stroke:#05c6c3;stroke-opacity:1" />
  <path
     inkscape:connector-curvature="0"
     id="GD"
     data-name="Grenada"
     data-id="GD"
     d="m 534.89998,418.9 0.5,-0.2 0.2,-1.1 -0.3,-0.1 -0.3,0.3 -0.3,0.5 v 0.4 l -0.2,0.3 z"
     style="fill:#ffffff;fill-opacity:1;fill-rule:evenodd;stroke:#05c6c3;stroke-opacity:1" />
  <path
     inkscape:connector-curvature="0"
     id="KN"
     data-name="St. Kitts and Nevis"
     data-id="KN"
     d="m 532.69998,386.4 v -0.3 l -0.2,-0.2 h -0.3 v 0.5 l 0.2,0.2 z m -0.5,-0.7 -0.1,-0.2 -0.1,-0.1 -0.2,-0.4 -0.4,-0.4 -0.2,0.1 -0.1,0.2 v 0.1 0 l 0.3,0.3 0.4,0.1 0.2,0.4 z"
     style="fill:#ffffff;fill-opacity:1;fill-rule:evenodd;stroke:#05c6c3;stroke-opacity:1" />
  <path
     inkscape:connector-curvature="0"
     id="LC"
     data-name="Saint Lucia"
     data-id="LC"
     d="m 540.19998,407.4 0.1,-1.2 -0.1,-0.5 -0.2,0.1 -0.3,0.4 -0.4,0.6 -0.1,0.3 v 0.6 l 0.6,0.4 z"
     style="fill:#ffffff;fill-opacity:1;fill-rule:evenodd;stroke:#05c6c3;stroke-opacity:1" />
  <path
     inkscape:connector-curvature="0"
     id="MS"
     data-name="Montserrat"
     data-id="MS"
     d="m 534.59998,388.9 -0.1,-0.5 h -0.1 l -0.2,0.4 v 0.3 l 0.3,0.1 z"
     style="fill:#ffffff;fill-opacity:1;fill-rule:evenodd;stroke:#05c6c3;stroke-opacity:1" />
  <path
     inkscape:connector-curvature="0"
     id="PR"
     data-name="Puerto Rico"
     data-id="PR"
     d="m 503.59998,380.5 v -0.1 0 h 0.1 v -0.1 l 0.1,-0.1 v 0 -0.1 h -0.1 v 0 h -0.3 -0.1 v 0.1 0.1 l 0.2,0.1 v 0 0.1 z m 13.6,-0.3 0.7,-0.2 v -0.1 l -0.4,-0.1 h -0.6 l -0.5,0.2 0.1,0.2 h 0.2 z m -3.7,-2.2 -0.1,-0.2 h -0.2 l -3.5,-0.1 -1.3,-0.2 -0.3,0.1 -0.3,0.1 -0.1,0.4 -0.2,0.2 -0.3,0.2 0.1,0.3 0.1,0.2 0.2,0.4 -0.1,0.5 -0.2,1 0.3,0.2 0.7,-0.1 0.3,0.1 0.3,0.1 0.4,-0.1 0.4,-0.2 0.9,0.1 0.5,-0.1 0.6,0.3 0.4,-0.1 0.2,0.1 h 0.3 0.6 l 0.9,-0.2 0.8,-0.5 0.3,-0.5 0.4,-0.3 0.6,-0.4 v -0.9 l -0.7,-0.1 -0.6,-0.3 -1.1,-0.1 h -0.1 l 0.1,0.2 h -0.1 z"
     style="fill:#ffffff;fill-opacity:1;fill-rule:evenodd;stroke:#05c6c3;stroke-opacity:1" />
  <path
     inkscape:connector-curvature="0"
     id="SX"
     data-name="Sint Maarten"
     data-id="SX"
     d="m 529.89998,380.4 v 0 l 0.2,0.2 0.3,0.1 0.1,-0.1 v -0.2 z"
     style="fill:#ffffff;fill-opacity:1;fill-rule:evenodd;stroke:#05c6c3;stroke-opacity:1" />
  <path
     inkscape:connector-curvature="0"
     id="TC"
     data-name="Turks and Caicos Is."
     data-id="TC"
     d="m 481.49998,356.3 -0.1,0.4 v 0.2 l 0.2,0.1 0.6,-0.1 0.1,-0.1 0.2,-0.1 v -0.1 l -0.4,0.1 z m 3.6,0.6 0.2,-0.2 -0.2,-0.2 -0.7,-0.2 -0.2,0.1 v 0.3 h 0.6 l 0.3,0.3 z m -1.1,-0.5 -0.1,-0.1 -0.1,-0.6 h -0.5 v 0.2 l 0.1,0.2 h 0.1 l 0.1,0.2 0.3,0.2 z"
     style="fill:#ffffff;fill-opacity:1;fill-rule:evenodd;stroke:#05c6c3;stroke-opacity:1" />
  <path
     inkscape:connector-curvature="0"
     id="VC"
     data-name="St. Vin. and Gren."
     data-id="VC"
     d="m 537.29998,414.6 v 0 -0.1 h 0.1 v -0.1 0 -0.1 h -0.1 v 0.1 0 0.1 h -0.1 v 0.1 0 0 z m 0.7,-1.9 0.1,-0.2 0.1,-0.1 v 0 0 l -0.1,-0.1 v 0 0.1 l -0.2,0.1 v 0 0.1 0 0.1 h -0.1 -0.1 v 0 h 0.1 v 0 l 0.1,0.1 v 0 0 0 z m 0.3,-1.1 0.3,-0.2 0.1,-0.6 -0.1,-0.4 h -0.2 l -0.3,0.1 -0.2,0.3 -0.1,0.5 0.4,0.4 z"
     style="fill:#ffffff;fill-opacity:1;fill-rule:evenodd;stroke:#05c6c3;stroke-opacity:1" />
  <path
     inkscape:connector-curvature="0"
     id="VG"
     data-name="British Virgin Is."
     data-id="VG"
     d="m 521.99998,378.3 0.3,-0.2 -0.2,-0.1 h -0.4 l -0.3,0.2 0.1,0.1 z m 1.1,-0.4 0.4,-0.4 -0.5,0.1 -0.2,0.2 0.1,0.1 h 0.1 z m 0.8,-1.8 h -0.2 -0.5 v 0 l 0.1,0.1 h 0.3 l 0.3,0.1 v 0 z"
     style="fill:#ffffff;fill-opacity:1;fill-rule:evenodd;stroke:#05c6c3;stroke-opacity:1" />
  <path
     inkscape:connector-curvature="0"
     id="VI"
     data-name="U.S. Virgin Is."
     data-id="VI"
     d="m 520.69998,382.1 -0.7,0.2 -0.1,0.4 h 1.1 l 0.7,-0.3 h -0.6 z m 0.9,-3.5 -0.5,-0.1 -0.2,0.2 v 0 l 0.3,0.1 z m -1.1,0.1 -0.2,-0.2 -0.3,-0.1 -0.4,0.1 0.5,0.3 z"
     style="fill:#ffffff;fill-opacity:1;fill-rule:evenodd;stroke:#05c6c3;stroke-opacity:1" />
  <path
     inkscape:connector-curvature="0"
     id="MQ"
     data-name="Martinique"
     data-id="MQ"
     d="m 540.79998,403.1 -0.2,-0.7 -0.1,-0.2 -0.2,-0.3 0.1,-0.3 v -0.1 h -0.2 l -0.3,-0.5 -0.6,-0.3 h -0.3 l -0.2,0.2 v 0.3 l 0.3,0.9 0.2,0.2 0.5,0.2 -0.4,0.4 v 0.1 l 0.1,0.3 h 0.9 l 0.2,0.3 0.1,-0.1 z"
     style="fill:#ffffff;fill-opacity:1;fill-rule:evenodd;stroke:#05c6c3;stroke-opacity:1" />
  <path
     inkscape:connector-curvature="0"
     id="GP"
     data-name="Guadeloupe"
     data-id="GP"
     d="m 539.19998,394.3 0.2,-0.2 v -0.3 l -0.2,-0.3 -0.2,0.1 -0.2,0.3 v 0.3 l 0.1,0.1 z m -1.9,-0.8 0.2,-0.2 v -1.2 l 0.1,-0.3 -0.2,-0.1 -0.2,-0.2 -0.6,-0.2 -0.1,0.1 -0.2,0.3 0.1,1.5 0.2,0.5 0.2,0.1 z m 1.6,-1.4 0.8,-0.2 -0.9,-0.6 -0.2,-0.4 v -0.3 l -0.4,-0.3 -0.2,0.2 -0.1,0.3 0.1,0.5 -0.3,0.4 0.1,0.4 0.4,0.1 z"
     style="fill:#ffffff;fill-opacity:1;fill-rule:evenodd;stroke:#05c6c3;stroke-opacity:1" />
  <path
     inkscape:connector-curvature="0"
     id="CW"
     data-name="Curaco"
     data-id="CW"
     d="m 498.69998,418.1 v -0.6 l -0.9,-0.4 v 0.3 l 0.1,0.2 0.3,0.1 0.1,0.2 -0.1,0.6 0.2,0.3 z"
     style="fill:#ffffff;fill-opacity:1;fill-rule:evenodd;stroke:#05c6c3;stroke-opacity:1" />
</svg>
