<?xml version="1.0" encoding="UTF-8" standalone="no"?>
<!--
*************Map created by Simplemaps.com********************		
*************Attribution is highly appreciated!***************
*************http://simplemaps.com****************************

The MIT License (MIT)

Copyright (c) 2015 Pareto Softare, LLC DBA Simplemaps.com

Permission is hereby granted, free of charge, to any person obtaining a copy
of this software and associated documentation files (the "Software"), to deal
in the Software without restriction, including without limitation the rights
to use, copy, modify, merge, publish, distribute, sublicense, and/or sell
copies of the Software, and to permit persons to whom the Software is
furnished to do so, subject to the following conditions:

The above copyright notice and this permission notice shall be included in
all copies or substantial portions of the Software.

THE SOFTWARE IS PROVIDED "AS IS", WITHOUT WARRANTY OF ANY KIND, EXPRESS OR
IMPLIED, INCLUDING BUT NOT LIMITED TO THE WARRANTIES OF MERCHANTABILITY,
FITNESS FOR A PARTICULAR PURPOSE AND NONINFRINGEMENT. IN NO EVENT SHALL THE
AUTHORS OR COPYRIGHT HOLDERS BE LIABLE FOR ANY CLAIM, DAMAGES OR OTHER
LIABILITY, WHETHER IN AN ACTION OF CONTRACT, TORT OR OTHERWISE, ARISING FROM,
OUT OF OR IN CONNECTION WITH THE SOFTWARE OR THE USE OR OTHER DEALINGS IN
THE SOFTWARE.

-->

<svg
   xmlns:dc="http://purl.org/dc/elements/1.1/"
   xmlns:cc="http://creativecommons.org/ns#"
   xmlns:rdf="http://www.w3.org/1999/02/22-rdf-syntax-ns#"
   xmlns:svg="http://www.w3.org/2000/svg"
   xmlns="http://www.w3.org/2000/svg"
   xmlns:sodipodi="http://sodipodi.sourceforge.net/DTD/sodipodi-0.dtd"
   xmlns:inkscape="http://www.inkscape.org/namespaces/inkscape"
   enable_background="new 0 0 2000 1001"
   height="223.29999"
   pretty_print="False"
   style="fill:none;stroke:#000000;stroke-linejoin:round"
   version="1.1"
   viewBox="0 0 361.69998 223.29999"
   width="361.69998"
   id="svg2"
   inkscape:version="0.92.4 (5da689c313, 2019-01-14)"
   sodipodi:docname="giappone.svg"
   inkscape:export-filename="C:\Users\Michael\Desktop\world.png"
   inkscape:export-xdpi="96"
   inkscape:export-ydpi="96">
  <sodipodi:namedview
     pagecolor="#ffffff"
     bordercolor="#666666"
     borderopacity="1"
     objecttolerance="10"
     gridtolerance="10"
     guidetolerance="10"
     inkscape:pageopacity="0"
     inkscape:pageshadow="2"
     inkscape:window-width="1920"
     inkscape:window-height="1001"
     id="namedview231"
     showgrid="false"
     inkscape:zoom="2.288"
     inkscape:cx="312.21926"
     inkscape:cy="61.344701"
     inkscape:window-x="-9"
     inkscape:window-y="-9"
     inkscape:window-maximized="1"
     inkscape:current-layer="svg2"
     fit-margin-top="0"
     fit-margin-left="0"
     fit-margin-right="0"
     fit-margin-bottom="0" />
  <defs
     id="defs4">
    <style
       type="text/css"
       id="style6">path { fill-rule: evenodd; }</style>
  </defs>
  <metadata
     id="metadata8">
    <views
       id="views10">
      <view
         h="1001"
         padding="0"
         w="2000"
         id="view12">
        <proj
           flip="auto"
           id="robinson"
           lon0="100.0" />
        <bbox
           h="2233.1"
           w="5271.17"
           x="-2635.59"
           y="-1308.06"
           id="bbox15" />
      </view>
    </views>
    <rdf:RDF>
      <cc:Work
         rdf:about="">
        <dc:format>image/svg+xml</dc:format>
        <dc:type
           rdf:resource="http://purl.org/dc/dcmitype/StillImage" />
        <dc:title></dc:title>
      </cc:Work>
    </rdf:RDF>
  </metadata>
  <path
     inkscape:connector-curvature="0"
     id="CN"
     data-name="China"
     data-id="CN"
     d="m 228.39998,219.7 0.6,-3.6 2,-2.8 -1.6,-2.5 -3.2,-0.1 -5.8,1.8 -2.2,2.8 1,5.5 4.9,2 z m 13.2,-196.5 -6.1,-6.1 -4.4,-3.7 -3.8,-2.7 -7.7,-6.1000002 -5.9,-2.3 -8.5,-1.79999997 -6.2,0.2 -5.1,1.09999997 -1.7,3 3.7,1.5 2.5,3.3 -1.2,2.0000002 0.1,6.5 1.9,2.7 -4.4,3.9 -7.3,-2.3 0.6,4.6 0.3,6.2 2.7,2.6 2.4,-0.8 5.4,1 2.5,-2.3 5.1,2 7.2,4.3 0.7,2.2 -4.3,-0.7 -6.8,0.8 -2.4,1.8 -1.4,4.1 -6.3,2.4 -3.1,3.3 -5.9,-1.3 -3.2,-0.5 -0.4,4 2.9,2.3 1.9,2.1 -2.5,2 -1.9,3.3 -4.9,2.2 -7.5,0.2 -7.2,2.2 -4.4,3.3 -3.2,-2 -6.2,0.1 -9.3,-3.8 -5.5,-0.9 -6.4,0.8 -11.2,-1.3 -5.5,0.1 -4.7,-3.6 -4.9,-5.7 -3.4,-0.7 -7.9,-3.8 -7.2,-0.9 -6.4,-1 -3,-2.7 -1.3,-7.3 -5.8,-5 -8.1,-2.3 -5.7,-3.3 -3.3,-4.4 -1.7,0.5 -1.8,4.2 -3.8,0.6 2.5,6.2 -1.6,2.8 -10.7,-2 1,11.1 -2,1.4 -9,2.4 8.7,10.7 -2.9,1.6 1.7,3.5 -0.2,1.4 -6.8,3.4 -1,2.4 -6.4,0.8 -0.6,4 -5.6999996,-0.9 -3.2,1.2 -3.99999997,3 1.09999997,1.5 -0.99999997,1.5 2.99999997,5.9 1.6,-0.6 3.5,1.4 0.6,2.5 1.7999996,3.7 1.4,1.9 4.7,3 2.9,5 9.4,2.6 7.6,7.5 0.8,5.2 3,3.3 0.6,3.3 -4.1,-0.9 3.2,7 6.2,4 8.5,4.4 1.9,-1.5 4.7,2 6.4,4.1 3.2,0.9 2.5,3.1 4.5,1.2 5,2.8 6.4,1.5 6.5,0.6 3,-1.4 1.5,5.1 2.6,-4.8 2.6,-1.6 4.2,1.5 2.9,0.1 2.7,1.8 4.2,-0.8 3.9,-4.8 5.3,-4 4.9,1.5 3.2,-2.6 3.5,3.9 -1.2,2.7 6.1,0.9 3,-0.4 2.7,3.7 2.7,1.5 1.3,4.9 0.8,5.3 -4.1,5.3 0.7,7.5 5.6,-1 2.3,5.8 3.7,1.3 -0.8,5.2 4.5,2.4 2.5,1.2 3.8,-1.8 0.6,2.6 0.7,1.5 2.9,0.1 -1.9,-7.2 2.7,-1 2.7,-1.5 h 4.3 l 5.3,-0.7 4.1,-3.4 3,2.4 5.2,1.1 -0.2,3.7 3,2.6 5.9,1.6 2.4,-1 7.7,2 -0.9,2.5 2.2,4.6 3,-0.4 0.8,-6.7 5.6,-0.9 7.2,-3.2 2.5,-3.2 2.3,2.1 2.8,-2.9 6.1,-0.7 6.6,-5.3 6.3,-5.9 3.3,-7.6 2.3,-8.4 2.1,-6.9 2.8,-0.5 -0.1,-5.1 -0.8,-5.1 -3.8,-2 -2.5,-3.4 2.8,-1.7 -1.6,-4.7 -5.4,-4.9 -5.4,-5.8 -4.6,-6.3 -7.1,-3.5 0.9,-4.6 3.8,-3.2 1,-3.5 6.7,-1.8 -2.4,-3.4 -3.4,-0.2 -5.8,-2.5 -3.9,4.6 -4.9,-1.9 -1.5,-2.9 -4.7,-1 -4.7,-4.4 1.2,-3 5,-0.3 1.2,-4.1 3.6,-4.4 3.4,-2.2 4.4,3.3 -1.9,4.2 2.3,2.5 -1.4,3 4.8,-1.8 2.4,-2.9 6.3,-1.9 2.1,-4 3.8,-3.4 1,-4.4 3.6,2 4.6,0.2 -2.7,-3.3 6.3,-2.6 -0.1,-3.5 5.5,3.6 v 0 l -1.9,-3.1 2.5,-0.1 -3.8,-7.3 -4.7,-5.3 2.9,-2.2 6.8,1.1 -0.6,-6 -2.8,-6.8 0.4,-2.3 -1.3,-5.6 -6.9,1.8 -2.6,2.5 h -7.5 l -6,-5.8 -8.9,-4.5 z"
     style="fill:#ffffff;fill-opacity:1;fill-rule:evenodd;stroke:#00c5c2;stroke-opacity:1" />
  <path
     inkscape:connector-curvature="0"
     id="JP"
     data-name="Japan"
     data-id="JP"
     d="m 333.69998,121.3 -4.5,-1.3 -1.1,2.7 -3.3,-0.8 -1.3,3.8 1.2,3 4.2,1.8 -0.1,-3.7 2.1,-1.5 3.1,2.1 1.3,-3.9 z m 24.4,-19.3 -3.6,-6.7 1.3,-6.4 -2.8,-5.2 -8.1,-8.7 -4.8,1.2 0.2,3.9 5.1,7.1 1,7.9 -1.7,2.5 -4.5,6.5 -5,-3.1 v 11.5 l -6.3,-1.3 -9.6,1.9 -1.9,4.4 -3.9,3.3 -1.1,4 -4.3,2 4,4.3 4.1,1.9 0.9,5.7 3.5,2.5 2.5,-2.7 -0.8,-10.8 -7.3,-4.7 6.1,-0.1 5,-3 8.6,-1.4 2.4,4.8 4.6,2.4 4.4,-7.3 9.1,-0.4 5.4,-3 0.6,-4.6 -2.5,-3.2 z m -11.8,-44.2 -5.3,-2.1 -10.4,-6.4 1.9,4.8 4.3,8.5 -5.2,0.4 0.6,4.7 4.6,6.1 h 5.7 l -1.6,-6.8 10.8,4.2 0.4,-6.1 6.4,-1.7 -6,-6.9 -1.7,2.6 z"
     style="fill:#00c5c2;fill-opacity:1;fill-rule:evenodd;stroke:#00c5c2;stroke-opacity:1" />
  <path
     inkscape:connector-curvature="0"
     id="KR"
     data-name="Korea"
     data-id="KR"
     d="m 278.49998,98.1 6.2,5.5 -3.4,1.1 5.2,6.8 1.1,4.8 2.1,3.5 4.5,-0.5 3.2,-2.7 4.2,-1.2 0.5,-3.6 -3.4,-7.5 -3.3,-4.2 -8.2,-7.6 0.1,1.6 -2.1,0.4 -3.5,0.3 -0.7,2.9 -2.4,-0.2 z"
     style="fill:#ffffff;fill-opacity:1;fill-rule:evenodd;stroke:#00c5c2;stroke-opacity:1" />
  <path
     inkscape:connector-curvature="0"
     id="KP"
     data-name="Dem. Rep. Korea"
     data-id="KP"
     d="m 285.89998,68.7 v 0 l -5.5,-3.6 0.1,3.5 -6.3,2.6 2.7,3.3 -4.6,-0.2 -3.6,-2 -1,4.4 -3.8,3.4 -2.1,4 3.3,1.7 3.4,0.7 0.8,1 0.4,3.5 1.1,1.2 -0.9,0.7 -0.1,2.9 1.9,1 1.6,0.6 0.8,1.2 1.3,-0.5 v -1.3 l 3.1,1.3 0.1,-0.6 2.4,0.2 0.7,-2.9 3.5,-0.3 2.1,-0.4 -0.1,-1.6 -4.3,-2.8 -2.6,-1 0.2,-0.7 -1.2,-2.8 1.3,-1.7 2.9,-1 1,-1.9 0.3,-1.1 1.9,-1.4 -2.8,-4.5 0.3,-2.1 0.9,-2 2.2,0.3 v 0 0 0 z"
     style="fill:#ffffff;fill-opacity:1;fill-rule:evenodd;stroke:#00c5c2;stroke-opacity:1" />
</svg>
