<?xml version="1.0" encoding="UTF-8" standalone="no"?>
<!--
*************Map created by Simplemaps.com********************		
*************Attribution is highly appreciated!***************
*************http://simplemaps.com****************************

The MIT License (MIT)

Copyright (c) 2015 Pareto Softare, LLC DBA Simplemaps.com

Permission is hereby granted, free of charge, to any person obtaining a copy
of this software and associated documentation files (the "Software"), to deal
in the Software without restriction, including without limitation the rights
to use, copy, modify, merge, publish, distribute, sublicense, and/or sell
copies of the Software, and to permit persons to whom the Software is
furnished to do so, subject to the following conditions:

The above copyright notice and this permission notice shall be included in
all copies or substantial portions of the Software.

THE SOFTWARE IS PROVIDED "AS IS", WITHOUT WARRANTY OF ANY KIND, EXPRESS OR
IMPLIED, INCLUDING BUT NOT LIMITED TO THE WARRANTIES OF MERCHANTABILITY,
FITNESS FOR A PARTICULAR PURPOSE AND NONINFRINGEMENT. IN NO EVENT SHALL THE
AUTHORS OR COPYRIGHT HOLDERS BE LIABLE FOR ANY CLAIM, DAMAGES OR OTHER
LIABILITY, WHETHER IN AN ACTION OF CONTRACT, TORT OR OTHERWISE, ARISING FROM,
OUT OF OR IN CONNECTION WITH THE SOFTWARE OR THE USE OR OTHER DEALINGS IN
THE SOFTWARE.

-->

<svg
   xmlns:dc="http://purl.org/dc/elements/1.1/"
   xmlns:cc="http://creativecommons.org/ns#"
   xmlns:rdf="http://www.w3.org/1999/02/22-rdf-syntax-ns#"
   xmlns:svg="http://www.w3.org/2000/svg"
   xmlns="http://www.w3.org/2000/svg"
   xmlns:sodipodi="http://sodipodi.sourceforge.net/DTD/sodipodi-0.dtd"
   xmlns:inkscape="http://www.inkscape.org/namespaces/inkscape"
   enable_background="new 0 0 2000 1001"
   height="263.60001"
   pretty_print="False"
   style="fill:none;stroke:#000000;stroke-linejoin:round"
   version="1.1"
   viewBox="0 0 301.09995 263.60001"
   width="301.09995"
   id="svg2"
   inkscape:version="0.92.4 (5da689c313, 2019-01-14)"
   sodipodi:docname="europa.svg"
   inkscape:export-filename="C:\Users\Michael\Desktop\world.png"
   inkscape:export-xdpi="96"
   inkscape:export-ydpi="96">
  <sodipodi:namedview
     pagecolor="#ffffff"
     bordercolor="#666666"
     borderopacity="1"
     objecttolerance="10"
     gridtolerance="10"
     guidetolerance="10"
     inkscape:pageopacity="0"
     inkscape:pageshadow="2"
     inkscape:window-width="1920"
     inkscape:window-height="1001"
     id="namedview231"
     showgrid="false"
     inkscape:zoom="1.6178603"
     inkscape:cx="8.823018"
     inkscape:cy="110.56327"
     inkscape:window-x="-9"
     inkscape:window-y="-9"
     inkscape:window-maximized="1"
     inkscape:current-layer="svg2"
     fit-margin-top="0"
     fit-margin-left="0"
     fit-margin-right="0"
     fit-margin-bottom="0" />
  <defs
     id="defs4">
    <style
       type="text/css"
       id="style6">path { fill-rule: evenodd; }</style>
  </defs>
  <metadata
     id="metadata8">
    <views
       id="views10">
      <view
         h="1001"
         padding="0"
         w="2000"
         id="view12">
        <proj
           flip="auto"
           id="robinson"
           lon0="100.0" />
        <bbox
           h="2233.1"
           w="5271.17"
           x="-2635.59"
           y="-1308.06"
           id="bbox15" />
      </view>
    </views>
    <rdf:RDF>
      <cc:Work
         rdf:about="">
        <dc:format>image/svg+xml</dc:format>
        <dc:type
           rdf:resource="http://purl.org/dc/dcmitype/StillImage" />
        <dc:title></dc:title>
      </cc:Work>
    </rdf:RDF>
  </metadata>
  <path
     inkscape:connector-curvature="0"
     id="AL"
     data-name="Albania"
     data-id="AL"
     d="m 204.49995,213.6 -2,3.1 0.5,1.9 v 0 l 1,1 -0.5,1.9 -0.1,4.3 0.7,3 3,2.1 0.2,1.4 1,0.4 2.1,-3 0.1,-2.1 1.6,-0.9 v -1.6 l -2.3,-1.6 -0.9,-2.6 0.4,-2.1 v 0 l -0.5,-2.3 -1.3,-0.6 -1.3,-1.6 -1.3,0.5 z"
     style="fill:#ffffff;fill-opacity:1;fill-rule:evenodd;stroke:#00c5c2;stroke-opacity:1" />
  <path
     inkscape:connector-curvature="0"
     id="AT"
     data-name="Austria"
     data-id="AT"
     d="m 187.19995,177.1 -2.3,-1.2 -2.3,0.3 -4,-1.9 -1.7,0.5 -2.6,2.5 -3.8,-2 -1.5,2.9 -1.7,0.8 1,4 -0.4,1.1 -1.7,-1.3 -2.4,-0.2 -3.4,1.2 -4.4,-0.3 -0.6,1.6 -2.6,-1.7 -1.5,0.3 0.2,1.1 -0.7,1.6 2.3,1.1 2.6,0.2 3.1,0.9 0.5,-1.2 4.8,-1.1 1.3,2.2 7.2,1.6 4.2,0.4 2.4,-1.4 4.3,-0.1 0.9,-1.1 1.3,-4 -1.1,-1.3 h 2.8 l 0.2,-2.6 -0.7,-2.1 z"
     style="fill:#ffffff;fill-opacity:1;fill-rule:evenodd;stroke:#00c5c2;stroke-opacity:1" />
  <path
     inkscape:connector-curvature="0"
     id="BE"
     data-name="Belgium"
     data-id="BE"
     d="m 127.69995,159.3 -4.4,1.3 -3.6,-0.5 v 0 l -3.8,1.2 0.7,2.2 2.2,0.1 2.4,2.4 3.4,2.9 2.5,-0.4 4.4,2.8 0.4,-3.5 1.3,-0.2 0.4,-4.2 -2.8,-1.4 z"
     style="fill:#ffffff;fill-opacity:1;fill-rule:evenodd;stroke:#00c5c2;stroke-opacity:1" />
  <path
     inkscape:connector-curvature="0"
     id="BA"
     data-name="Bosnia and Herz."
     data-id="BA"
     d="m 189.19995,198 -2.3,0.1 -1,1.3 -1.9,-1.4 -0.9,2.5 2.7,2.9 1.3,1.9 2.5,2.3 2,1.4 2.2,2.5 4.7,2.4 0.4,-3.4 1.5,-1.4 0.9,-0.6 1.2,-0.3 0.5,-2.9 -2.7,-2.3 1,-2.7 h -1.8 v 0 l -2.4,-1.4 -3.5,0.1 z"
     style="fill:#ffffff;fill-opacity:1;fill-rule:evenodd;stroke:#00c5c2;stroke-opacity:1" />
  <path
     inkscape:connector-curvature="0"
     id="BY"
     data-name="Belarus"
     data-id="BY"
     d="m 239.79995,132.5 -5.2,-1.5 -4.6,2.3 -2.6,1 0.9,2.6 -3.5,2 -0.5,3.4 -4.8,2.2 h -4.6 l 0.6,2.7 1.7,2.3 0.3,2.4 -2.7,1.2 1.9,2.9 0.5,2.7 2.2,-0.3 2.4,-1.6 3.7,-0.2 5,0.5 5.6,1.5 3.8,0.1 2,0.9 1.6,-1.1 1.5,1.5 4.3,-0.3 2,0.6 -0.2,-3.1 1.2,-1.4 4.1,-0.3 v 0 l -2,-3.9 -1.5,-2 0.8,-0.6 3.9,0.2 1.6,-1.3 -1.7,-1.6 -3.4,-1.1 0.1,-1.1 -2.2,-1.1 -3.7,-3.9 0.6,-1.6 -1,-2.9 -4.8,-1.4 -2.3,0.7 z"
     style="fill:#ffffff;fill-opacity:1;fill-rule:evenodd;stroke:#00c5c2;stroke-opacity:1" />
  <path
     inkscape:connector-curvature="0"
     id="CH"
     data-name="Switzerland"
     data-id="CH"
     d="m 151.29995,183.7 -5.4,-1.9 -1,1.4 h -4.2 l -1.3,1 -2.3,-0.6 0.2,1.6 -3.5,3.5 v 2.8 l 2.4,-0.9 1.8,2.7 2.2,1.3 2.4,-0.3 2.7,-2.1 0.9,1 2.4,-0.2 0.9,-2.5 3.8,0.8 2.1,-1.1 0.3,-2.5 -2.6,-0.2 -2.3,-1.1 0.7,-1.6 z"
     style="fill:#ffffff;fill-opacity:1;fill-rule:evenodd;stroke:#00c5c2;stroke-opacity:1" />
  <path
     inkscape:connector-curvature="0"
     id="CZ"
     data-name="Czech Rep."
     data-id="CZ"
     d="m 176.39995,161.6 -2.1,0.6 -1.4,-0.7 -1.1,1.2 -3.4,1.2 -1.7,1.5 -3.4,1.3 1,1.9 0.7,2.6 2.6,1.5 2.9,2.6 3.8,2 2.6,-2.5 1.7,-0.5 4,1.9 2.3,-0.3 2.3,1.2 0.6,-1.4 2.2,0.1 1.6,-0.6 0.1,-0.6 0.9,-0.3 0.2,-1.4 1.1,-0.3 0.6,-1.1 h 1.5 l -2.6,-3.1 -3.6,-0.3 -0.7,-2 -3.4,-0.6 -0.6,1.5 -2.7,-1.2 0.1,-1.7 -3.7,-0.6 z"
     style="fill:#ffffff;fill-opacity:1;fill-rule:evenodd;stroke:#00c5c2;stroke-opacity:1" />
  <path
     inkscape:connector-curvature="0"
     id="DE"
     data-name="Germany"
     data-id="DE"
     d="m 170.59995,145.4 -2.4,-1.9 -5.5,-2.4 -2.5,1.7 -4.7,1.1 -0.1,-2.1 -4.9,-1.4 -0.2,-2.3 -3,0.9 -3.6,-0.8 0.4,3.4 1.2,2.2 -3,3 -1,-1.3 -3.9,0.3 -0.9,1.3 1,2 -1,5.6 -1.1,2.3 h -2.9 l 1.1,6.4 -0.4,4.2 1,1.4 -0.2,2.7 2.4,1.6 7.1,1.2 -2.3,4.2 -0.5,4.5 h 4.2 l 1,-1.4 5.4,1.9 1.5,-0.3 2.6,1.7 0.6,-1.6 4.4,0.3 3.4,-1.2 2.4,0.2 1.7,1.3 0.4,-1.1 -1,-4 1.7,-0.8 1.5,-2.9 -2.9,-2.6 -2.6,-1.5 -0.7,-2.6 -1,-1.9 3.4,-1.3 1.7,-1.5 3.4,-1.2 1.1,-1.2 1.4,0.7 2.1,-0.6 -2.3,-3.9 0.1,-2.1 -1.4,-3.3 -2,-2.2 1.2,-1.6 z"
     style="fill:#ffffff;fill-opacity:1;fill-rule:evenodd;stroke:#00c5c2;stroke-opacity:1" />
  <path
     inkscape:connector-curvature="0"
     id="DK"
     data-name="Denmark"
     data-id="DK"
     d="m 162.89995,134.3 -1.7,-3 -6.7,2 0.9,2.5 5.1,3.4 z m -8.6,-5.1 -2.6,-0.9 -0.7,-1.6 1.3,-2 -0.1,-3 -3.6,1.6 -1.5,1.7 -4,0.4 -1.2,1.7 -0.7,1.6 0.4,6.1 2.1,3.4 3.6,0.8 3,-0.9 -1.5,-3 3.1,-4.3 1.4,0.7 z"
     style="fill:#ffffff;fill-opacity:1;fill-rule:evenodd;stroke:#00c5c2;stroke-opacity:1" />
  <path
     inkscape:connector-curvature="0"
     id="EE"
     data-name="Estonia"
     data-id="EE"
     d="m 220.19995,110.6 -5.5,0.9 -5.4,1.6 0.9,3.4 3.3,2.1 1.5,-0.8 0.1,3.5 3.7,-1 2.1,0.7 4.4,2.2 h 3.8 l 1.6,-1.9 -2.5,-5.5 2.6,-3.4 -0.9,-1 v 0 l -4.6,0.2 z"
     style="fill:#ffffff;fill-opacity:1;fill-rule:evenodd;stroke:#00c5c2;stroke-opacity:1" />
  <path
     inkscape:connector-curvature="0"
     id="FI"
     data-name="Finland"
     data-id="FI"
     d="m 220.39995,57.499999 0.8,-3.8 -5.7,-2.1 -5.8,1.8 -1.1,3.9 -3.4,2.4 -4.7,-1.3 -5.3,0.3 -5.1,-2.9 -2.1,1.4 5.9,2.7 7.2,3.7 1.7,8.4 1.9,2.2 6.4,2.6 0.9,2.3 -2.6,1.2 -8.7,6.1 -3.3,3.6 -1.5,3.3 2.9,5.2 -0.1,5.700001 4.7,1.9 3.1,3.1 7.1,-1.2 7.5,-2.1 8,-0.5 v 0 l 7.9,-7.400001 3.3,-3.3 0.9,-2.9 -7.3,-3.9 0.9,-3.7 -4.9,-4.1 1.7,-4.8 -6.4,-6.3 2.8,-4.1 -7.2,-3.7 z"
     style="fill:#ffffff;fill-opacity:1;fill-rule:evenodd;stroke:#00c5c2;stroke-opacity:1" />
  <path
     inkscape:connector-curvature="0"
     id="GB"
     data-name="United Kingdom"
     data-id="GB"
     d="m 76.999946,140.6 -4.9,-3.7 -3.9,0.3 0.8,3.2 -1.1,3.2 2.9,-0.1 3.5,1.3 z m 13,-24.3 -5.5,0.5 -3.6,-0.4 -3.7,4.8 -1.9,6.1 2.2,3 0.1,5.8 2.6,-2.8 1.4,1.6 -1.7,2.7 1,1.6 5.7,1.1 h 0.1 l 3.1,3.8 -0.8,3.5 v 0 l -7.1,-0.6 -1,4 2.6,3.3 -5.1,1.9 1.3,2.4 7.5,1 v 0 l -4.3,1.3 -7.3,6.5 2.5,1.2 3.5,-2.3 4.5,0.7 3.3,-2.9 2.2,1.2 8.3,-1.7 6.500004,0.1 4.3,-3.3 -1.9,-3.1 2.4,-1.8 0.5,-3.9 -5.8,-1.2 -1.3,-2.3 -2.9,-6.9 -3.200004,-1 -4.1,-7.1 -0.4,-0.6 -4.8,-0.4 4.2,-5.3 1.3,-4.9 h -5 l -4.7,0.8 z"
     style="fill:#ffffff;fill-opacity:1;fill-rule:evenodd;stroke:#00c5c2;stroke-opacity:1" />
  <path
     inkscape:connector-curvature="0"
     id="GR"
     data-name="Greece"
     data-id="GR"
     d="m 228.89995,258 -0.8,2.8 6.6,1.2 v 1.1 l 7.6,-0.6 0.5,-1.9 -2.8,0.8 v -1.1 l -3.9,-0.5 -4.1,0.4 z m 11.5,-37.4 -2.7,-1.6 0.3,3 -4.6,0.6 -3.9,-2.1 -3.9,1.7 -3.8,-0.2 -1,0.2 -0.7,1.1 -2.8,-0.1 -1.9,1.3 -3.3,0.6 v 1.6 l -1.6,0.9 -0.1,2.1 -2.1,3 0.5,1.9 2.9,3.6 2.3,3 1.3,4.3 2.3,5.1 4.6,2.9 3.4,-0.1 -2.4,-5.7 3.3,-0.7 -1.9,-3.3 5,1.7 -0.4,-3.7 -2.7,-1.8 -3.2,-3 1.8,-1.4 -2.8,-3 -1.6,-3.8 0.9,-1.3 3,3.2 h 2.9 l 2.5,-1 -3.9,-3.6 6.1,-1.6 2.7,0.6 3.2,0.2 1.1,-0.7 z"
     style="fill:#ffffff;fill-opacity:1;fill-rule:evenodd;stroke:#00c5c2;stroke-opacity:1" />
  <path
     inkscape:connector-curvature="0"
     id="HR"
     data-name="Croatia"
     data-id="HR"
     d="m 191.99995,193.5 -4,-2.6 -1.6,-0.8 -3.9,1.7 -0.3,2.5 -1.7,0.6 0.2,1.7 -2,-0.1 -1.8,-1 -0.8,1 -3.5,-0.2 -0.2,0.1 v 2.2 l 1.7,2 1.3,-2.6 3.3,1 0.3,2 2.5,2.6 -1,0.5 4.6,4.5 4.8,1.8 3.1,2.2 5,2.3 v 0 l 0.5,-1 -4.7,-2.4 -2.2,-2.5 -2,-1.4 -2.5,-2.3 -1.3,-1.9 -2.7,-2.9 0.9,-2.5 1.9,1.4 1,-1.3 2.3,-0.1 4.4,1 3.5,-0.1 2.4,1.4 v 0 l 1.7,-2.3 -1.7,-1.8 -1.5,-2.4 v 0 l -1.8,0.9 z"
     style="fill:#ffffff;fill-opacity:1;fill-rule:evenodd;stroke:#00c5c2;stroke-opacity:1" />
  <path
     inkscape:connector-curvature="0"
     id="HU"
     data-name="Hungary"
     data-id="HU"
     d="m 206.09995,176.9 -1.6,0.4 -1,1.5 -2.2,0.7 -0.6,-0.4 -2.3,1 -1.9,0.2 -0.3,1.2 -4.1,0.8 -1.9,-0.7 -2.6,-1.6 -0.2,2.6 h -2.8 l 1.1,1.3 -1.3,4 0.8,0.1 1.2,2.1 1.6,0.8 4,2.6 4.2,1.2 1.8,-0.9 v 0 l 3.7,-1.6 3.2,0.2 3.8,-1.1 2.6,-4.3 1.9,-4.2 2.9,-1.3 -0.6,-1.6 -2.9,-1.7 -1,0.6 z"
     style="fill:#ffffff;fill-opacity:1;fill-rule:evenodd;stroke:#00c5c2;stroke-opacity:1" />
  <path
     inkscape:connector-curvature="0"
     id="IE"
     data-name="Ireland"
     data-id="IE"
     d="m 74.299946,144.8 -3.5,-1.3 -2.9,0.1 1.1,-3.2 -0.8,-3.2 -3.7,2.8 -6.7,4.7 2.1,6.1 -4.2,6.4 6.7,0.9 8.7,-3.6 3.9,-5.4 z"
     style="fill:#ffffff;fill-opacity:1;fill-rule:evenodd;stroke:#00c5c2;stroke-opacity:1" />
  <path
     inkscape:connector-curvature="0"
     id="IS"
     data-name="Iceland"
     data-id="IS"
     d="m 42.699946,71.699999 -6.9,-0.4 -7.3,2.9 -5.1,-1.5 -6.9,3 -5.9,-3.8 -6.4999998,0.8 -3.60000003,3.7 8.70000003,1.3 -0.1,1.6 -7.8,1.1 8.7999998,2.7 -4.5999998,2.5 11.6999998,1.8 5.6,0.8 3.9,-1 12.9,-3.9 6.1,-4.2 -4.4,-3.8 z"
     style="fill:#ffffff;fill-opacity:1;fill-rule:evenodd;stroke:#00c5c2;stroke-opacity:1" />
  <path
     inkscape:connector-curvature="0"
     id="IT"
     data-name="Italy"
     data-id="IT"
     d="m 184.79995,241.7 -4,0.5 -5.2,0.7 -6.2,-0.6 -0.6,3.4 7.5,3.3 2.7,0.7 4.2,2.4 0.9,-3.3 -0.9,-2 z m -33.7,-18.9 -2.5,1.9 -2.8,-0.3 1.3,3.6 0.4,7.6 2.1,1.7 2,-2.1 2.4,0.4 0.4,-8.4 z m 14.3,-34.3 -1.3,-2.2 -4.8,1.1 -0.5,1.2 -3.1,-0.9 -0.3,2.5 -2.1,1.1 -3.8,-0.8 -0.9,2.5 -2.4,0.2 -0.9,-1 -2.7,2.1 -2.4,0.3 -2.2,-1.3 -0.2,1.7 1.6,2.4 -1.7,1.8 1.5,4.8 2.7,0.8 -0.5,2.7 2.1,-0.5 2.8,-2.8 2.3,-0.9 4.2,2.1 2.6,0.7 1.9,6 3.6,3.6 4.9,4 4.2,2.8 3.9,0.4 2.3,2.5 3.4,1.2 1.7,2.7 2.2,0.8 1.8,3.2 2.3,3.7 -1.1,1.3 -0.8,3.5 0.1,2 2.1,-0.5 2.5,-5.6 2.1,-0.4 0.4,-3.3 -3.9,-2.3 1.9,-4.1 4.5,1 3.1,3 0.8,-2.3 -0.6,-1.2 -4.7,-3.2 -3.9,-1.9 -4.8,-2.3 1.4,-1.2 -1.4,-1.4 -4,0.1 -6,-5 -2.9,-5.1 -4.9,-3.1 -1.9,-3.1 0.5,-1.8 -0.4,-3 3.9,-2.2 4.1,0.9 -1.4,-2.7 0.3,-3 z"
     style="fill:#ffffff;fill-opacity:1;fill-rule:evenodd;stroke:#00c5c2;stroke-opacity:1" />
  <path
     inkscape:connector-curvature="0"
     id="LT"
     data-name="Lithuania"
     data-id="LT"
     d="m 227.39995,134.3 -5,-2.9 -2.5,-0.4 -0.9,-1.3 -4.4,0.6 -7.9,-0.4 -5,1.9 1.7,5 5,1.1 2.2,0.9 -0.2,1.7 0.6,1.5 2.5,0.6 1.4,1.9 h 4.6 l 4.8,-2.2 0.5,-3.4 3.5,-2 z"
     style="fill:#ffffff;fill-opacity:1;fill-rule:evenodd;stroke:#00c5c2;stroke-opacity:1" />
  <path
     inkscape:connector-curvature="0"
     id="LU"
     data-name="Luxembourg"
     data-id="LU"
     d="m 133.99995,171.7 0.2,-2.7 -1,-1.4 -1.3,0.2 -0.4,3.5 1.1,0.5 z"
     style="fill:#ffffff;fill-opacity:1;fill-rule:evenodd;stroke:#00c5c2;stroke-opacity:1" />
  <path
     inkscape:connector-curvature="0"
     id="LV"
     data-name="Latvia"
     data-id="LV"
     d="m 229.09995,123.2 h -3.8 l -4.4,-2.2 -2.1,-0.7 -3.7,1 -0.2,4.6 -3.6,0.1 -4.4,-4.5 -4,2.1 -1.7,3.7 0.5,4.5 5,-1.9 7.9,0.4 4.4,-0.6 0.9,1.3 2.5,0.4 5,2.9 2.6,-1 4.6,-2.3 -2.1,-3.6 -1,-2.8 z"
     style="fill:#ffffff;fill-opacity:1;fill-rule:evenodd;stroke:#00c5c2;stroke-opacity:1" />
  <path
     inkscape:connector-curvature="0"
     id="MD"
     data-name="Moldova"
     data-id="MD"
     d="m 245.49995,196.4 1.2,-0.7 0.5,-2.1 1.1,-2 -0.5,-1.1 1,-0.5 0.6,0.9 3,0.2 1.2,-0.5 -1,-0.6 0.2,-1 -2,-1.5 -1.1,-2.6 -1.9,-1.1 v -2.1 l -2.5,-1.6 -2,-0.3 -3.9,-1.9 -3.2,0.6 -1.1,0.9 1.6,0.6 1.8,1.9 1.9,2.6 3.4,3.7 0.6,2.7 -0.2,2.7 z"
     style="fill:#ffffff;fill-opacity:1;fill-rule:evenodd;stroke:#00c5c2;stroke-opacity:1" />
  <path
     inkscape:connector-curvature="0"
     id="MK"
     data-name="Macedonia"
     data-id="MK"
     d="m 220.99995,217.9 -2.8,-2 -2.4,0.1 -1.7,0.4 -1.1,0.2 -2.9,1 -0.1,1.2 h -0.7 v 0 l -0.4,2.1 0.9,2.6 2.3,1.6 3.3,-0.6 1.9,-1.3 2.8,0.1 0.7,-1.1 1,-0.2 z"
     style="fill:#ffffff;fill-opacity:1;fill-rule:evenodd;stroke:#00c5c2;stroke-opacity:1" />
  <path
     inkscape:connector-curvature="0"
     id="ME"
     data-name="Montenegro"
     data-id="ME"
     d="m 206.99995,212.9 0.4,-0.6 -2,-1.2 -1.8,-0.7 -0.8,-0.8 -1.5,-1.1 -0.9,0.6 -1.5,1.4 -0.4,3.4 -0.5,1 v 0 l 2.3,1.2 1.6,2.1 1.1,0.4 v 0 l -0.5,-1.9 2,-3.1 0.4,1.2 1.3,-0.5 z"
     style="fill:#ffffff;fill-opacity:1;fill-rule:evenodd;stroke:#00c5c2;stroke-opacity:1" />
  <path
     inkscape:connector-curvature="0"
     id="NL"
     data-name="Netherlands"
     data-id="NL"
     d="m 132.49995,157 h 2.9 l 1.1,-2.3 1,-5.6 -1,-2 -3.9,-0.2 -6.5,2.6 -3.9,8.9 -2.5,1.7 v 0 l 3.6,0.5 4.4,-1.3 3.1,2.7 2.8,1.4 z"
     style="fill:#ffffff;fill-opacity:1;fill-rule:evenodd;stroke:#00c5c2;stroke-opacity:1" />
  <path
     inkscape:connector-curvature="0"
     id="NO"
     data-name="Norway"
     data-id="NO"
     d="m 215.79995,46.199999 -6.9,1.1 -7.3,-0.3 -5.1,4.4 -6.7,-0.3 -8.5,2.3 -10.1,6.8 -6.4,4 -8.8,10.7 -7.1,7.8 -8.1,5.8 -11.2,4.8 -3.9,3.6 1.9,13.400001 1.9,6.3 6.4,3 6,-1.4 8.5,-6.8 3.3,3.6 1.7,-3.3 3.4,-4 0.9,-6.9 -3.1,-2.900001 -1,-7.6 2.3,-5.3 4.3,0.1 1.3,-2.2 -1.8,-1.9 5.7,-7.9 3.4,-6.1 2.2,-3.9 4,0.1 0.6,-3.1 7.9,0.9 v -3.5 l 2.5,-0.3 2.1,-1.4 5.1,2.9 5.3,-0.3 4.7,1.3 3.4,-2.4 1.1,-3.9 5.8,-1.8 5.7,2.1 -0.8,3.8 3.2,-0.5 6.4,-2.2 v 0 l -5.4,-3.3 4.8,-1.4 z m -22.6,-33.3 -5.6,-1 -1.9,-1.7 -7.2,0.9 2.6,1.5 -2.2,1.2 6.7,1.1 z m -25.4,-8.3 -4.8,-1.6 -5.1,0.2 -1,1.5 h -5 l -2.2,-1.5 -9.3,1.6 3.2,3.5 7.6,3.8 5.7,1.4 -3,1.7 8.4,2.9 4.4,-0.2 0.9,-3.9 3,-0.9 1.2,-3.4 8.5,-1.8 z m 24.2,-3.1 -9.1,-1 -3.2,1.2 -5.3,-1 -10.4,1.2 4.3,2 h 5.1 l 0.9,1.3 10.6,0.7 10.1,-0.5 4.3,-2.4 z"
     style="fill:#ffffff;fill-opacity:1;fill-rule:evenodd;stroke:#00c5c2;stroke-opacity:1" />
  <path
     inkscape:connector-curvature="0"
     id="PL"
     data-name="Poland"
     data-id="PL"
     d="m 196.39995,141.4 -4.6,-0.1 -0.5,-1.4 -4.8,-1.1 -5.7,2.1 -7.1,2.8 -3.1,1.7 1.4,3.1 -1.2,1.6 2,2.2 1.4,3.3 -0.1,2.1 2.3,3.9 2.4,1.9 3.7,0.6 -0.1,1.7 2.7,1.2 0.6,-1.5 3.4,0.6 0.7,2 3.6,0.3 2.6,3.1 0.3,0.4 1.9,-0.9 2.7,2.2 2.8,-1.3 2.4,0.6 3.4,-0.8 4.9,2.3 1.1,0.4 -1.6,-2.8 3.8,-5.1 2.3,-0.7 0.3,-1.8 -3.1,-5.3 -0.5,-2.7 -1.9,-2.9 2.7,-1.2 -0.3,-2.4 -1.7,-2.3 -0.6,-2.7 -1.4,-1.9 -2.5,-0.6 -8.7,0.1 z"
     style="fill:#ffffff;fill-opacity:1;fill-rule:evenodd;stroke:#00c5c2;stroke-opacity:1" />
  <path
     inkscape:connector-curvature="0"
     id="PT"
     data-name="Portugal"
     data-id="PT"
     d="m 64.599946,249 -0.4,-2.1 2,-2.5 0.8,-1.7 -1.8,-1.9 1.6,-4.3 -2,-3.8 2.2,-0.5 0.3,-3 0.9,-0.9 0.2,-4.9 2.4,-1.7 -1.3,-3.1 -3,-0.2 -0.9,0.8 h -3 l -1.2,-3.1 -2.1,0.9 -1.9,1.6 0.1,2.1 0.9,2.2 0.1,2.7 -1.3,3.8 -0.4,2.5 -2.2,2.3 -0.6,4.2 1.2,2.4 2.3,0.6 0.4,4 -1,5.1 2.8,-0.7 2.7,0.9 z"
     style="fill:#ffffff;fill-opacity:1;fill-rule:evenodd;stroke:#00c5c2;stroke-opacity:1" />
  <path
     inkscape:connector-curvature="0"
     id="RO"
     data-name="Romania"
     data-id="RO"
     d="m 235.09995,179.4 h -2.1 l -1,1.5 -3.6,0.6 -1.6,0.9 -2.4,-1.5 h -3.2 l -3.2,-0.7 -1.9,1.3 -2.9,1.3 -1.9,4.2 -2.6,4.3 -3.8,1.1 2.9,2.5 0.8,1.9 3.2,1.5 0.7,2.5 3.1,1.8 1.4,-1.3 1.4,0.7 -1.1,1.1 1,1 1.8,2.6 1.9,-0.5 4,1 7.5,0.3 2.3,-1.6 5.8,-1.4 4,2.2 3,0.7 0.4,-7.4 1.6,0.5 2.3,-1.3 -0.4,-1.6 -2.4,-1.1 -2.2,1 -2.4,-1.1 -1.3,-2.8 0.2,-2.7 -0.6,-2.7 -3.4,-3.7 -1.9,-2.6 -1.8,-1.9 z"
     style="fill:#ffffff;fill-opacity:1;fill-rule:evenodd;stroke:#00c5c2;stroke-opacity:1" />
  <path
     inkscape:connector-curvature="0"
     id="RS"
     data-name="Serbia"
     data-id="RS"
     d="m 211.79995,198.3 -3.2,-1.5 -0.8,-1.9 -2.9,-2.5 -3.2,-0.2 -3.7,1.6 v 0 l 1.5,2.4 1.7,1.8 -1.7,2.3 v 0 h 1.8 l -1,2.7 2.7,2.3 -0.5,2.9 -1.2,0.3 1.5,1.1 0.8,0.8 1.8,0.7 2,1.2 -0.4,0.6 1.2,-0.5 0.5,-2 0.9,-0.4 0.8,0.9 1,0.4 0.8,1 0.8,0.3 1.1,1.1 h 0.8 l -0.5,1.5 -0.5,0.7 0.2,0.5 1.7,-0.4 2.4,-0.1 0.7,-0.9 -0.6,-0.7 0.7,-2 1.7,-1.9 -2.8,-2.6 -0.7,-2.3 1.1,-1.4 -1,-1 1.1,-1.1 -1.4,-0.7 -1.4,1.3 -3.1,-1.8 z"
     style="fill:#ffffff;fill-opacity:1;fill-rule:evenodd;stroke:#00c5c2;stroke-opacity:1" />
  <path
     inkscape:connector-curvature="0"
     id="SK"
     data-name="Slovakia"
     data-id="SK"
     d="m 214.39995,174 -4.9,-2.3 -3.4,0.8 -2.4,-0.6 -2.8,1.3 -2.7,-2.2 -1.9,0.9 -0.3,-0.4 h -1.5 l -0.6,1.1 -1.1,0.3 -0.2,1.4 -0.9,0.3 -0.1,0.6 -1.6,0.6 -2.2,-0.1 -0.6,1.4 -0.3,0.8 0.7,2.1 2.6,1.6 1.9,0.7 4.1,-0.8 0.3,-1.2 1.9,-0.2 2.3,-1 0.6,0.4 2.2,-0.7 1,-1.5 1.6,-0.4 5.5,1.9 1,-0.6 0.7,-2.5 z"
     style="fill:#ffffff;fill-opacity:1;fill-rule:evenodd;stroke:#00c5c2;stroke-opacity:1" />
  <path
     inkscape:connector-curvature="0"
     id="SI"
     data-name="Slovenia"
     data-id="SI"
     d="m 186.39995,190.1 -1.2,-2.1 -0.8,-0.1 -0.9,1.1 -4.3,0.1 -2.4,1.4 -4.2,-0.4 -0.3,3 1.4,2.7 -1.1,0.5 3.5,0.2 0.8,-1 1.8,1 2,0.1 -0.2,-1.7 1.7,-0.6 0.3,-2.5 z"
     style="fill:#ffffff;fill-opacity:1;fill-rule:evenodd;stroke:#00c5c2;stroke-opacity:1" />
  <path
     inkscape:connector-curvature="0"
     id="SE"
     data-name="Sweden"
     data-id="SE"
     d="m 204.69995,74.199999 -1.9,-2.2 -1.7,-8.4 -7.2,-3.7 -5.9,-2.7 -2.5,0.3 v 3.5 l -7.9,-0.9 -0.6,3.1 -4,-0.1 -2.2,3.9 -3.4,6.1 -5.7,7.9 1.8,1.9 -1.3,2.2 -4.3,-0.1 -2.3,5.3 1,7.6 3.1,2.900001 -0.9,6.9 -3.4,4 -1.7,3.3 4.2,8.4 4.4,6.7 2,5.7 5.3,-0.3 2.2,-4.7 5.7,0.5 2,-5.5 0.6,-10 4.6,-1.3 3.3,-6.6 -4.8,-3.3 -3.6,-4 2.1,-8.100001 7.7,-4.9 6.1,-4.5 -1.2,-3.5 3.4,-3.9 z"
     style="fill:#ffffff;fill-opacity:1;fill-rule:evenodd;stroke:#00c5c2;stroke-opacity:1" />
  <path
     inkscape:connector-curvature="0"
     id="UA"
     data-name="Ukraine"
     data-id="UA"
     d="m 265.49995,154.1 -4.8,0.5 -1.5,-0.3 -1,1.4 -1.8,-0.2 v 0 l -4.1,0.3 -1.2,1.4 0.2,3.1 -2,-0.6 -4.3,0.3 -1.5,-1.5 -1.6,1.1 -2,-0.9 -3.8,-0.1 -5.6,-1.5 -5,-0.5 -3.7,0.2 -2.4,1.6 -2.2,0.3 3.1,5.3 -0.3,1.8 -2.3,0.7 -3.8,5.1 1.6,2.8 -1.1,-0.4 -1.1,1.7 -0.7,2.5 2.9,1.7 0.6,1.6 1.9,-1.3 3.2,0.7 h 3.2 l 2.4,1.5 1.6,-0.9 3.6,-0.6 1,-1.5 h 2.1 l 1.1,-0.9 3.2,-0.6 3.9,1.9 2,0.3 2.5,1.6 v 2.1 l 1.9,1.1 1.1,2.6 2,1.5 -0.2,1 1,0.6 -1.2,0.5 -3,-0.2 -0.6,-0.9 -1,0.5 0.5,1.1 -1.1,2 -0.5,2.1 -1.2,0.7 2.4,1.1 2.2,-1 2.4,1.1 3.3,-4.6 1.3,-3.4 4.5,-0.8 0.7,2.4 8,1.5 1.7,1.4 -4.5,2.1 -0.7,1.2 5.8,1.8 -0.6,2.9 3,1.3 6.3,-3.6 5.3,-1.1 0.6,-2.2 -5.1,0.4 -2.7,-1.5 -1,-3.9 3.9,-2.3 4.6,-0.3 3,-2 3.9,-0.5 -0.4,-2.8 2.2,-1.7 4.7,-0.5 0.3,-2.1 -1.8,-3.4 1.3,-3.2 -0.4,-1.9 -7.6,-2 -2.9,0.1 -3.6,-2.9 -3.5,1 -6.6,-2.2 -0.2,-1.2 -2.2,-2.7 -4,-0.2 -0.7,-1.9 0.9,-1.3 z"
     style="fill:#ffffff;fill-opacity:1;fill-rule:evenodd;stroke:#00c5c2;stroke-opacity:1" />
  <path
     inkscape:connector-curvature="0"
     id="FR"
     data-name="France"
     data-id="FR"
     d="m 152.69995,216.9 -1.1,-5.2 -3.2,2.3 -1,2.3 1.4,4.2 2.4,1.2 z m -31.5,-50.9 -2.4,-2.4 -2.2,-0.1 -0.7,-2.2 -4.3,1.2 -1.4,5.1 -11.300004,4.8 -4.6,-2.6 1.4,7 -8.2,-1.6 -6.4,1.3 0.4,4.6 7.5,2.4 3.6,3.1 5.1,6.5 -1,12.3 -2.7,3.7 2,2.4 9.400004,2.8 1.9,-1.3 5.7,2.8 6,-0.8 0.5,-3.7 7.4,-2 10,1.6 4.5,-3.4 0.5,-2.7 -2.7,-0.8 -1.5,-4.8 1.7,-1.8 -1.6,-2.4 0.2,-1.7 -1.8,-2.7 -2.4,0.9 v -2.8 l 3.5,-3.5 -0.2,-1.6 2.3,0.6 1.3,-1 0.5,-4.5 2.3,-4.2 -7.1,-1.2 -2.4,-1.6 -1.4,0.1 -1.1,-0.5 -4.4,-2.8 -2.5,0.4 z"
     style="fill:#ffffff;fill-opacity:1;fill-rule:evenodd;stroke:#00c5c2;stroke-opacity:1" />
  <path
     inkscape:connector-curvature="0"
     id="ES"
     data-name="Spain"
     data-id="ES"
     d="m 111.99995,238.8 v -0.2 h -0.5 l -0.3,-0.4 -0.1,0.2 -0.1,0.2 v 0.2 h 0.5 l 0.4,0.1 z m -0.8,-1.6 h 0.3 l 0.6,-0.7 v -0.3 l -0.3,-0.2 -1.1,0.2 -0.2,0.3 v 0.3 l -0.3,0.1 -0.1,0.4 0.1,0.2 0.8,0.1 z m -17.200004,-28.1 -8.2,-0.2 -4.2,0.3 -5.4,-1 h -6.8 l -6.2,-1.1 -7.4,4.5 2,2.6 -0.4,4.4 1.9,-1.6 2.1,-0.9 1.2,3.1 h 3 l 0.9,-0.8 3,0.2 1.3,3.1 -2.4,1.7 -0.2,4.9 -0.9,0.9 -0.3,3 -2.2,0.5 2,3.8 -1.6,4.3 1.8,1.9 -0.8,1.7 -2,2.5 0.4,2.1 4.8,1 1.4,3.7 2,2.2 2.5,0.6 2.1,-2.5 3.3,-2.3 5,0.1 h 6.7 l 3.8,-5 3.900004,-1.3 1.2,-4.2 3,-2.9 -2,-3.7 2,-5.1 3.1,-3.5 0.5,-2.1 6.6,-1.3 4.8,-4.2 -0.3,-3.5 -6,0.8 -5.7,-2.8 -1.9,1.3 -9.400004,-2.8 z m 26.000004,22.6 0.1,-0.3 0.1,-0.2 0.1,-0.1 -0.2,-0.2 v -0.1 l 0.2,-0.2 -0.2,-0.1 -1.3,0.4 -0.7,0.4 -2.1,1.5 v 0.3 l 0.1,0.2 h 0.4 l 0.2,0.4 0.4,-0.4 0.3,-0.1 0.3,0.1 0.3,0.2 0.1,0.6 0.1,0.2 0.6,0.1 0.9,0.4 0.4,-0.2 0.5,-0.3 0.2,-0.6 0.3,-0.5 0.3,-0.5 0.3,-0.4 -0.1,-0.4 -0.3,-0.1 -0.3,-0.1 -0.5,0.2 z m 6,-0.3 0.1,-0.4 v -0.1 l -0.5,-0.7 -0.9,-0.3 -1,0.1 -0.1,0.1 v 0.4 l 0.1,0.1 0.6,0.1 1.6,0.7 z"
     style="fill:#ffffff;fill-opacity:1;fill-rule:evenodd;stroke:#00c5c2;stroke-opacity:1" />
  <path
     inkscape:connector-curvature="0"
     id="AD"
     data-name="Andorra"
     data-id="AD"
     d="m 112.39995,214.8 0.1,-0.2 0.1,-0.2 v -0.1 l -0.2,-0.1 -0.7,-0.2 -0.3,-0.1 -0.2,0.1 -0.2,0.2 -0.1,0.3 0.1,0.1 v 0.2 0.2 l 0.1,0.2 h 0.2 0.2 l 0.3,-0.1 0.5,-0.3 z"
     style="fill:#ffffff;fill-opacity:1;fill-rule:evenodd;stroke:#00c5c2;stroke-opacity:1" />
  <path
     inkscape:connector-curvature="0"
     id="FO"
     data-name="Faeroe Is."
     data-id="FO"
     d="m 73.999946,99.999999 v -0.3 l -0.1,-0.3 v -0.2 h -0.1 l -0.5,-0.1 -0.1,-0.2 h -0.1 v 0.2 l 0.1,0.4 0.5,0.4 0.3,0.200001 h 0.1 z m 0.5,-2.1 v -0.1 l -0.2,-0.2 -0.5,-0.2 -0.2,-0.1 -0.2,0.1 v 0.2 l 0.1,0.1 0.4,0.1 0.4,0.3 h 0.1 z m -2.4,-1.9 -0.2,-0.1 -0.5,0.1 h -0.3 l 0.1,0.3 0.6,0.2 h 0.3 0.3 l 0.2,-0.1 -0.1,-0.2 z m 2.5,-0.5 -0.8,-0.2 -0.6,-0.3 -1,0.1 0.7,1.1 0.8,0.7 0.4,0.2 v -0.1 -0.2 l -0.4,-0.5 -0.1,-0.1 v -0.1 l 0.1,-0.1 h 0.2 l 0.3,0.2 h 0.2 z m 1,-0.2 -0.3,-0.2 -0.4,-0.4 v 0.5 0.3 0.1 h 0.1 l 0.3,0.1 z"
     style="fill:#ffffff;fill-opacity:1;fill-rule:evenodd;stroke:#00c5c2;stroke-opacity:1" />
  <path
     inkscape:connector-curvature="0"
     id="LI"
     data-name="Liechtenstein"
     data-id="LI"
     d="m 151.39995,186.7 v -0.2 l 0.1,-0.2 -0.1,-0.1 -0.1,-0.2 -0.1,-0.1 v -0.2 l -0.1,-0.1 v -0.2 l -0.1,-0.1 -0.2,0.6 v 0.5 l 0.1,0.2 h 0.1 z"
     style="fill:#ffffff;fill-opacity:1;fill-rule:evenodd;stroke:#00c5c2;stroke-opacity:1" />
  <path
     inkscape:connector-curvature="0"
     id="MT"
     data-name="Malta"
     data-id="MT"
     d="m 180.59995,257.1 -0.2,-0.2 -0.5,-0.5 -0.5,-0.1 0.1,0.6 0.4,0.4 h 0.5 z m -1.4,-1.2 v 0 -0.2 l -0.3,-0.1 -0.4,0.1 0.1,0.1 0.3,0.2 z"
     style="fill:#ffffff;fill-opacity:1;fill-rule:evenodd;stroke:#00c5c2;stroke-opacity:1" />
</svg>
