<?xml version="1.0" encoding="UTF-8" standalone="no"?>
<!--
*************Map created by Simplemaps.com********************		
*************Attribution is highly appreciated!***************
*************http://simplemaps.com****************************

The MIT License (MIT)

Copyright (c) 2015 Pareto Softare, LLC DBA Simplemaps.com

Permission is hereby granted, free of charge, to any person obtaining a copy
of this software and associated documentation files (the "Software"), to deal
in the Software without restriction, including without limitation the rights
to use, copy, modify, merge, publish, distribute, sublicense, and/or sell
copies of the Software, and to permit persons to whom the Software is
furnished to do so, subject to the following conditions:

The above copyright notice and this permission notice shall be included in
all copies or substantial portions of the Software.

THE SOFTWARE IS PROVIDED "AS IS", WITHOUT WARRANTY OF ANY KIND, EXPRESS OR
IMPLIED, INCLUDING BUT NOT LIMITED TO THE WARRANTIES OF MERCHANTABILITY,
FITNESS FOR A PARTICULAR PURPOSE AND NONINFRINGEMENT. IN NO EVENT SHALL THE
AUTHORS OR COPYRIGHT HOLDERS BE LIABLE FOR ANY CLAIM, DAMAGES OR OTHER
LIABILITY, WHETHER IN AN ACTION OF CONTRACT, TORT OR OTHERWISE, ARISING FROM,
OUT OF OR IN CONNECTION WITH THE SOFTWARE OR THE USE OR OTHER DEALINGS IN
THE SOFTWARE.

-->

<svg
   xmlns:dc="http://purl.org/dc/elements/1.1/"
   xmlns:cc="http://creativecommons.org/ns#"
   xmlns:rdf="http://www.w3.org/1999/02/22-rdf-syntax-ns#"
   xmlns:svg="http://www.w3.org/2000/svg"
   xmlns="http://www.w3.org/2000/svg"
   xmlns:sodipodi="http://sodipodi.sourceforge.net/DTD/sodipodi-0.dtd"
   xmlns:inkscape="http://www.inkscape.org/namespaces/inkscape"
   enable_background="new 0 0 2000 1001"
   height="563.5"
   pretty_print="False"
   style="fill:none;stroke:#000000;stroke-linejoin:round"
   version="1.1"
   viewBox="0 0 846.59998 563.5"
   width="846.59998"
   id="svg2"
   inkscape:version="0.92.4 (5da689c313, 2019-01-14)"
   sodipodi:docname="ovest.svg"
   inkscape:export-filename="C:\Users\Michael\Desktop\world.png"
   inkscape:export-xdpi="96"
   inkscape:export-ydpi="96">
  <sodipodi:namedview
     pagecolor="#ffffff"
     bordercolor="#666666"
     borderopacity="1"
     objecttolerance="10"
     gridtolerance="10"
     guidetolerance="10"
     inkscape:pageopacity="0"
     inkscape:pageshadow="2"
     inkscape:window-width="1920"
     inkscape:window-height="1001"
     id="namedview231"
     showgrid="false"
     inkscape:zoom="1.144"
     inkscape:cx="-205.60865"
     inkscape:cy="401.86104"
     inkscape:window-x="-9"
     inkscape:window-y="-9"
     inkscape:window-maximized="1"
     inkscape:current-layer="svg2"
     fit-margin-top="0"
     fit-margin-left="0"
     fit-margin-right="0"
     fit-margin-bottom="0" />
  <defs
     id="defs4">
    <style
       type="text/css"
       id="style6">path { fill-rule: evenodd; }</style>
  </defs>
  <metadata
     id="metadata8">
    <views
       id="views10">
      <view
         h="1001"
         padding="0"
         w="2000"
         id="view12">
        <proj
           flip="auto"
           id="robinson"
           lon0="100.0" />
        <bbox
           h="2233.1"
           w="5271.17"
           x="-2635.59"
           y="-1308.06"
           id="bbox15" />
      </view>
    </views>
    <rdf:RDF>
      <cc:Work
         rdf:about="">
        <dc:format>image/svg+xml</dc:format>
        <dc:type
           rdf:resource="http://purl.org/dc/dcmitype/StillImage" />
        <dc:title />
      </cc:Work>
    </rdf:RDF>
  </metadata>
  <path
     inkscape:connector-curvature="0"
     id="AF"
     data-name="Afghanistan"
     data-id="AF"
     d="m 300.99999,249.4 h -5.4 l -3.8,-0.5 -2.5,2.9 -2.1,0.7 -1.5,1.3 -2.6,-2.1 -1,-5.4 -1.6,-0.3 v -2 l -3.2,-1.5 -1.7,2.3 0.2,2.6 -0.6,0.9 -3.2,-0.1 -0.9,3 -2.1,-1.3 -3.3,2.1 -1.8,-0.8 -4.3,-1.4 h -2.9 l -1.6,-0.2 -2.9,-1.7 -0.3,2.3 -4.1,1.2 0.1,5.2 -2.5,2 -4,0.9 -0.4,3 -3.9,0.8 -5.9,-2.4 -0.5,8 -0.5,4.7 2.5,0.9 -1.6,3.5 2.7,5.1 1.1,4 4.3,1.1 1.1,4 -3.9,5.8 9.6,3.2 5.3,-0.9 3.3,0.8 0.9,-1.4 3.8,0.5 6.6,-2.6 -0.8,-5.4 2.3,-3.6 h 4 l 0.2,-1.7 4,-0.9 2.1,0.6 1.7,-1.8 -1.1,-3.8 1.5,-3.8 3,-1.6 -3,-4.2 5.1,0.2 0.9,-2.3 -0.8,-2.5 2,-2.7 -1.4,-3.2 -1.9,-2.8 2.4,-2.8 5.3,-1.3 5.8,-0.8 2.4,-1.2 2.8,-0.7 z"
     style="fill:#00c5c2;fill-opacity:1;fill-rule:evenodd;stroke:#ffffff;stroke-opacity:1" />
  <path
     inkscape:connector-curvature="0"
     id="AE"
     data-name="United Arab Emirates"
     data-id="AE"
     d="m 214.99999,324.2 -1.3,-2.2 -3,3.9 -3.7,4.1 -3.3,4.3 -3.3,-0.2 -4.6,-0.2 -4.2,1 -0.3,-1.7 -1,0.3 0.4,1.5 2.6,6.4 16.8,3.2 1,-1.3 -0.1,-2.6 1.4,-2.6 -0.3,-2.6 2.4,-1.3 -1.1,-0.8 0.1,-4.2 h 2.8 z"
     style="fill:#00c5c2;fill-opacity:1;fill-rule:evenodd;stroke:#ffffff;stroke-opacity:1" />
  <path
     inkscape:connector-curvature="0"
     id="AM"
     data-name="Armenia"
     data-id="AM"
     d="m 150.09999,240.7 -0.9,-4.4 -2.5,-1.1 -2.5,-1.7 1,-2 -3.1,-2.2 0.7,-1.5 -2.2,-1.1 -1.4,-1.7 -6.9,1 1.3,2.2 v 3.1 l 4.2,1.5 2.4,1.9 1,-0.2 1.8,1.7 h 2.3 l 0.2,1 2.8,3.7 z"
     style="fill:#00c5c2;fill-opacity:1;fill-rule:evenodd;stroke:#ffffff;stroke-opacity:1" />
  <path
     inkscape:connector-curvature="0"
     id="AZ"
     data-name="Azerbaijan"
     data-id="AZ"
     d="m 141.19999,234.5 -1,0.2 1.2,2.4 3.2,2.9 3.7,0.9 -2.8,-3.7 -0.2,-1 h -2.3 z m 10.4,-9.3 -4.3,-3.8 -1.5,-0.2 -1.1,0.9 3.2,3.4 -0.6,0.7 -2.8,-0.4 -4.2,-1.8 -1.1,1 1.4,1.7 2.2,1.1 -0.7,1.5 3.1,2.2 -1,2 2.5,1.7 2.5,1.1 0.9,4.4 5.3,-4.7 1.9,-0.5 1.9,1.9 -1.2,3.1 3.8,3.4 1.3,-0.3 -0.8,-3.2 1.7,-1.5 0.4,-2.2 -0.1,-5 4.2,-0.5 -2,-1.7 -2.5,-0.2 -3.5,-4.5 -3.4,-3.2 v 0 l -2.6,2.5 -0.5,1.5 z"
     style="fill:#00c5c2;fill-opacity:1;fill-rule:evenodd;stroke:#ffffff;stroke-opacity:1" />
  <path
     inkscape:connector-curvature="0"
     id="BD"
     data-name="Bangladesh"
     data-id="BD"
     d="m 417.59999,347.5 -4.5,-10.1 -1.5,0.1 -0.2,4 -3.5,-3.3 1.1,-3.6 2.4,-0.4 1.6,-5.3 -3.4,-1.1 -5,0.1 -5.4,-0.9 -1.2,-4.4 -2.7,-0.4 -4.8,-2.7 -1.2,4.3 4.6,3.4 -3.1,2.4 -0.8,2.3 3.7,1.7 -0.4,3.8 2.6,4.8 1.6,5.2 2.2,0.6 1.7,0.7 0.6,-1.2 2.5,1.3 1.3,-3.5 -0.9,-2.6 5.1,0.2 2.8,3.7 1.5,3.1 0.8,3.2 2,3.3 -1.1,-5.1 2.1,1 z"
     style="fill:#ffffff;fill-opacity:1;fill-rule:evenodd;stroke:#00c5c2;stroke-opacity:1" />
  <path
     inkscape:connector-curvature="0"
     id="BN"
     data-name="Brunei"
     data-id="BN"
     d="m 548.89999,459 2.7,3.3 1.1,-2.2 2.7,0.2 0.1,-4.1 0.1,-3.1 -4.6,3.5 z"
     style="fill:#ffffff;fill-opacity:1;fill-rule:evenodd;stroke:#00c5c2;stroke-opacity:1" />
  <path
     inkscape:connector-curvature="0"
     id="BT"
     data-name="Bhutan"
     data-id="BT"
     d="m 405.79999,311.1 -2.7,-1.8 -2.9,-0.1 -4.2,-1.5 -2.6,1.6 -2.6,4.8 0.3,1.2 5.5,2.5 3.2,-1 4.7,0.4 4.4,-0.2 -0.4,-3.9 z"
     style="fill:#ffffff;fill-opacity:1;fill-rule:evenodd;stroke:#00c5c2;stroke-opacity:1" />
  <path
     inkscape:connector-curvature="0"
     id="CN"
     data-name="China"
     data-id="CN"
     d="m 518.29999,368.9 0.6,-3.6 2,-2.8 -1.6,-2.5 -3.2,-0.1 -5.8,1.8 -2.2,2.8 1,5.5 4.9,2 z m 13.2,-196.5 -6.1,-6.1 -4.4,-3.7 -3.8,-2.7 -7.7,-6.1 -5.9,-2.3 -8.5,-1.8 -6.2,0.2 -5.1,1.1 -1.7,3 3.7,1.5 2.5,3.3 -1.2,2 0.1,6.5 1.9,2.7 -4.4,3.9 -7.3,-2.3 0.6,4.6 0.3,6.2 2.7,2.6 2.4,-0.8 5.4,1 2.5,-2.3 5.1,2 7.2,4.3 0.7,2.2 -4.3,-0.7 -6.8,0.8 -2.4,1.8 -1.4,4.1 -6.3,2.4 -3.1,3.3 -5.9,-1.3 -3.2,-0.5 -0.4,4 2.9,2.3 1.9,2.1 -2.5,2 -1.9,3.3 -4.9,2.2 -7.5,0.2 -7.2,2.2 -4.4,3.3 -3.2,-2 -6.2,0.1 -9.3,-3.8 -5.5,-0.9 -6.4,0.8 -11.2,-1.3 -5.5,0.1 -4.7,-3.6 -4.9,-5.7 -3.4,-0.7 -7.9,-3.8 -7.2,-0.9 -6.4,-1 -3,-2.7 -1.3,-7.3 -5.8,-5 -8.1,-2.3 -5.7,-3.3 -3.3,-4.4 -1.7,0.5 -1.8,4.2 -3.8,0.6 2.5,6.2 -1.6,2.8 -10.7,-2 1,11.1 -2,1.4 -9,2.4 8.7,10.7 -2.9,1.6 1.7,3.5 -0.2,1.4 -6.8,3.4 -1,2.4 -6.4,0.8 -0.6,4 -5.7,-0.9 -3.2,1.2 -4,3 1.1,1.5 -1,1.5 3,5.9 1.6,-0.6 3.5,1.4 0.6,2.5 1.8,3.7 1.4,1.9 4.7,3 2.9,5 9.4,2.6 7.6,7.5 0.8,5.2 3,3.3 0.6,3.3 -4.1,-0.9 3.2,7 6.2,4 8.5,4.4 1.9,-1.5 4.7,2 6.4,4.1 3.2,0.9 2.5,3.1 4.5,1.2 5,2.8 6.4,1.5 6.5,0.6 3,-1.4 1.5,5.1 2.6,-4.8 2.6,-1.6 4.2,1.5 2.9,0.1 2.7,1.8 4.2,-0.8 3.9,-4.8 5.3,-4 4.9,1.5 3.2,-2.6 3.5,3.9 -1.2,2.7 6.1,0.9 3,-0.4 2.7,3.7 2.7,1.5 1.3,4.9 0.8,5.3 -4.1,5.3 0.7,7.5 5.6,-1 2.3,5.8 3.7,1.3 -0.8,5.2 4.5,2.4 2.5,1.2 3.8,-1.8 0.6,2.6 0.7,1.5 2.9,0.1 -1.9,-7.2 2.7,-1 2.7,-1.5 h 4.3 l 5.3,-0.7 4.1,-3.4 3,2.4 5.2,1.1 -0.2,3.7 3,2.6 5.9,1.6 2.4,-1 7.7,2 -0.9,2.5 2.2,4.6 3,-0.4 0.8,-6.7 5.6,-0.9 7.2,-3.2 2.5,-3.2 2.3,2.1 2.8,-2.9 6.1,-0.7 6.6,-5.3 6.3,-5.9 3.3,-7.6 2.3,-8.4 2.1,-6.9 2.8,-0.5 -0.1,-5.1 -0.8,-5.1 -3.8,-2 -2.5,-3.4 2.8,-1.7 -1.6,-4.7 -5.4,-4.9 -5.4,-5.8 -4.6,-6.3 -7.1,-3.5 0.9,-4.6 3.8,-3.2 1,-3.5 6.7,-1.8 -2.4,-3.4 -3.4,-0.2 -5.8,-2.5 -3.9,4.6 -4.9,-1.9 -1.5,-2.9 -4.7,-1 -4.7,-4.4 1.2,-3 5,-0.3 1.2,-4.1 3.6,-4.4 3.4,-2.2 4.4,3.3 -1.9,4.2 2.3,2.5 -1.4,3 4.8,-1.8 2.4,-2.9 6.3,-1.9 2.1,-4 3.8,-3.4 1,-4.4 3.6,2 4.6,0.2 -2.7,-3.3 6.3,-2.6 -0.1,-3.5 5.5,3.6 v 0 l -1.9,-3.1 2.5,-0.1 -3.8,-7.3 -4.7,-5.3 2.9,-2.2 6.8,1.1 -0.6,-6 -2.8,-6.8 0.4,-2.3 -1.3,-5.6 -6.9,1.8 -2.6,2.5 h -7.5 l -6,-5.8 -8.9,-4.5 z"
     style="fill:#ffffff;fill-opacity:1;fill-rule:evenodd;stroke:#00c5c2;stroke-opacity:1" />
  <path
     inkscape:connector-curvature="0"
     id="GE"
     data-name="Georgia"
     data-id="GE"
     d="m 131.09999,215.8 -7.5,-2.9 -7.7,-1 -4.5,-1.1 -0.5,0.7 2.2,1.9 3,0.7 3.4,2.3 2.1,4.2 -0.3,2.7 5.4,-0.3 5.6,3 6.9,-1 1.1,-1 4.2,1.8 2.8,0.4 0.6,-0.7 -3.2,-3.4 1.1,-0.9 -3.5,-1.4 -2.1,-2.5 -5.1,-1.3 -2.9,1 z"
     style="fill:#00c5c2;fill-opacity:1;fill-rule:evenodd;stroke:#ffffff;stroke-opacity:1" />
  <path
     inkscape:connector-curvature="0"
     id="ID"
     data-name="Indonesia"
     data-id="ID"
     d="m 582.99999,552.9 0.5,-1.7 -1.8,-1.9 -2.8,-2 -5.3,1.3 7,4.4 z m 20.9,-0.6 4,-4.8 0.1,-1.9 -0.5,-1.3 -5.7,2.6 -2.8,3.9 -0.7,2.1 0.6,0.8 z m -35.6,-13 -1.6,2.2 -3.1,0.1 -2.2,3.6 3,0.1 3.9,-0.9 6.6,-1.2 -1.2,-2.8 -3.5,0.6 z m 28.1,0 -5.2,2.3 -3.8,0.5 -3.4,-1.9 -4.5,1.3 -0.2,2.3 7.4,0.8 8.6,-1.8 z m -79.5,-8.4 -0.7,-2.3 -2.3,-0.5 -4.4,-2.4 -6.8,-0.4 -4.1,6.1 5.1,0.4 0.8,2.8 10,2.6 2.4,-0.8 4.1,0.6 6.3,2.4 5.2,1.2 5.8,0.5 5.1,-0.2 5.9,2.5 6.6,-2.4 -6.6,-3.8 -8.3,-1.1 -1.8,-4.1 -10.3,-3.1 -1.3,2.6 z m 146.6,-3.6 0.2,-3 -1.2,-1.9 -1.3,2.2 -1.2,2.2 0.3,4.8 z m -41,-17.5 -1.4,-2.1 -5.7,0.3 1,2.7 3.9,1.2 z m 18.1,-2.4 -6.1,-1.8 -6.9,0.3 -1.5,3.5 3.9,0.2 3.2,-0.4 4.6,0.5 4.7,2.6 z m 21,-12.3 -0.8,-2.4 -9,-2.6 -2.9,2.1 -7.6,1.5 2.3,3.2 5,1.2 2.1,3.7 8.3,0.1 0.4,1.6 -4,-0.1 -6.2,2.3 4.2,3.1 -0.1,2.8 1.2,2.3 2.1,-0.5 1.8,-3.1 8.2,5.9 4.6,0.5 10.6,5.4 2.3,5.3 1,6.9 -3.7,1.8 -2.8,5.2 7.1,-0.2 1.6,-1.8 5.5,1.3 4.6,5.2 1.5,-20.8 1,-20.7 -6,-1.2 -4.1,-2.3 -4.7,-2.2 h -5 l -6.6,3.8 -4.9,6.8 -5.7,-3.8 z m -50,-16.4 -1,-1.4 -5.5,4.6 -6.5,0.3 -7.1,-0.9 -4.4,-1.9 -4.7,4.8 -1.2,2.6 -2.9,9.6 -0.9,5 -2.4,4.2 1.6,4.3 2.3,0.1 0.6,6.1 -1.9,5.9 2.3,1.9 3.6,-1 0.3,-9.1 -0.2,-7.4 3.8,-1.9 -0.7,6.2 3.9,3.7 -0.8,2.5 1.3,1.7 5.6,-2.4 -3,5.2 2.1,2.2 3.1,-1.9 0.3,-4.1 -4.7,-7.4 1.1,-2.2 -5.1,-8.1 5,-2.5 2.6,-3.7 2.4,0.9 0.5,-2.9 -10.5,2.1 -3.1,2.9 -5,-5.6 0.9,-4.8 4.9,-1 9.3,-0.3 5.4,1.3 4.3,-1.3 z m 19.4,1.9 -0.6,-2.6 -3.3,-0.6 -0.5,-3.5 -1.8,2.3 -1,5.1 1.7,8.2 2.2,4 1.6,-0.8 -2.3,-3.3 0.9,-3.9 2.9,0.6 z m -60.9,-4.5 0.9,-2.9 -4.3,-6 3,-5.8 -5,-1 h -6.4 l -1.7,7.2 -2,2.2 -2.7,8.9 -4.5,1.3 -5.4,-1.8 -2.7,0.6 -3.2,3.2 -3.6,-0.4 -3.6,1.2 -3.9,-3.5 -1,-4.3 -3.3,4.2 -0.6,5.9 0.8,5.6 2.6,5.4 2.8,1.8 0.7,8.5 4.6,0.8 3.6,-0.4 2,3.1 6.7,-2.3 2.8,2 4,0.4 2,3.9 6.5,-2.9 0.8,2.3 2.5,-9.7 0.3,-6.4 5.5,-4.3 -0.2,-5.8 1.8,-4.3 6.7,-0.8 z m -68.7,48.9 0.7,-9.8 1.7,-8 -2.6,-4 -4.1,-0.5 -1.9,-3.6 -0.9,-4.4 -2,-0.2 -3.2,-2.2 2.3,-5.2 -4.3,-2.9 -3.3,-5.3 -4.8,-4.4 -5.7,-0.1 -5.5,-6.8 -3.2,-2.7 -4.5,-4.3 -5.2,-6.2 -8.8,-1.2 -3.6,-0.3 0.6,3.2 6.1,7 4.4,3.6 3.1,5.5 5.1,4 2.2,4.9 1.7,5.5 4.9,5.3 4.1,8.9 2.7,4.8 4.1,5.2 2.2,3.8 7,5.2 4.5,5.3 z"
     style="fill:#ffffff;fill-opacity:1;fill-rule:evenodd;stroke:#00c5c2;stroke-opacity:1" />
  <path
     inkscape:connector-curvature="0"
     id="IN"
     data-name="India"
     data-id="IN"
     d="m 345.19999,295.7 -8.5,-4.4 -6.2,-4 -3.2,-7 4.1,0.9 -0.6,-3.3 -3,-3.3 -0.8,-5.2 -7.6,-7.5 -3.7,5.4 -5.7,1 -8.5,-1.6 -1.9,2.8 3.2,5.6 2.9,4.3 5,3.1 -3.7,3.7 1,4.5 -3.9,6.3 -2.1,6.5 -4.5,6.7 -6.4,-0.5 -4.9,6.6 4,2.9 1.3,4.9 3.5,3.2 1.8,5.5 h -12 l -3.2,4.2 7.1,5.4 1.9,2.5 -2.4,2.3 8,7.7 4,0.8 7.6,-3.8 1.7,5.9 0.8,7.8 2.5,8.1 3.6,12.3 5.8,8.8 1.3,3.9 2,8 3.4,6.1 2.2,3 2.5,6.4 3.1,8.9 5.5,6 2.2,-1.8 1.7,-4.4 5,-1.8 -1.8,-2.1 2.2,-4.8 2.9,-0.3 -0.7,-10.8 1.9,-6.1 -0.7,-5.3 -1.9,-8.2 1.2,-4.9 2.5,-0.3 4.8,-2.3 2.6,-1.6 -0.3,-2.9 5,-4.2 3.7,-4 5.3,-7.5 7.4,-4.2 2.4,-3.8 -0.9,-4.8 6.6,-1.3 3.7,0.1 0.5,-2.4 -1.6,-5.2 -2.6,-4.8 0.4,-3.8 -3.7,-1.7 0.8,-2.3 3.1,-2.4 -4.6,-3.4 1.2,-4.3 4.8,2.7 2.7,0.4 1.2,4.4 5.4,0.9 5,-0.1 3.4,1.1 -1.6,5.3 -2.4,0.4 -1.1,3.6 3.5,3.3 0.2,-4 1.5,-0.1 4.5,10.1 2.4,-1.5 -0.9,-2.7 0.9,-2.1 -0.9,-6.6 4.6,1.4 1.5,-5.2 -0.3,-3.1 2.1,-5.4 -0.9,-3.6 6.1,-4.4 4.1,1.1 -1.3,-3.9 1.6,-1.2 -0.9,-2.4 -6.1,-0.9 1.2,-2.7 -3.5,-3.9 -3.2,2.6 -4.9,-1.5 -5.3,4 -3.9,4.8 -4.2,0.8 2.7,2 0.4,3.9 -4.4,0.2 -4.7,-0.4 -3.2,1 -5.5,-2.5 -0.3,-1.2 -1.5,-5.1 -3,1.4 0.1,2.7 1.5,4.1 -0.1,2.5 -4.6,0.1 -6.8,-1.5 -4.3,-0.6 -3.8,-3.2 -7.6,-0.9 -7.7,-3.5 -5.8,-3.1 -5.7,-2.5 0.9,-5.9 z"
     style="fill:#ffffff;fill-opacity:1;fill-rule:evenodd;stroke:#00c5c2;stroke-opacity:1" />
  <path
     inkscape:connector-curvature="0"
     id="IR"
     data-name="Iran"
     data-id="IR"
     d="m 144.59999,240 -3.2,-2.9 -1.2,-2.4 -3.3,1.8 2.9,7.3 -0.7,2 3.7,5.2 v 0 l 4.7,7.8 3.7,1.9 1,3.8 -2.3,2.2 -0.5,5 4.6,6.1 7,3.4 3.5,4.9 -0.2,4.6 h 1.7 l 0.5,3.3 3.4,3.4 1.7,-2.5 3.7,2.1 2.8,-1 5.1,8.4 4.3,6.1 5.5,1.8 6.1,4.9 6.9,2.1 5.1,-3.1 4,-1.1 2.8,1.1 3.2,7.8 6.3,0.8 6.1,1.5 10.5,1.9 1.2,-7.4 7.4,-3.3 -0.9,-2.9 -2.7,-1 -1,-5.7 -5.6,-2.7 -2.8,-3.9 -3.2,-3.3 3.9,-5.8 -1.1,-4 -4.3,-1.1 -1.1,-4 -2.7,-5.1 1.6,-3.5 -2.5,-0.9 0.5,-4.7 0.5,-8 -1.6,-5.5 -3.9,-0.2 -7.3,-5.7 -4.3,-0.7 -6.5,-3.3 -3.8,-0.6 -2.1,1.2 -3.5,-0.2 -3,3.7 -4.4,1.2 -0.2,1.6 -7.9,1.7 -7.6,-1.1 -4.3,-3.3 -5.2,-1.3 -2.5,-4.8 -1.3,0.3 -3.8,-3.4 1.2,-3.1 -1.9,-1.9 -1.9,0.5 -5.3,4.7 -1.8,0.2 z"
     style="fill:#00c5c2;fill-opacity:1;fill-rule:evenodd;stroke:#ffffff;stroke-opacity:1" />
  <path
     inkscape:connector-curvature="0"
     id="IQ"
     data-name="Iraq"
     data-id="IQ"
     d="m 138.39999,250.5 -6.2,-0.9 -2.1,1 -2.1,4.1 -2.7,1.6 1.2,4.7 -0.9,7.8 -11,6.7 3.1,7.7 6.7,1.7 8.5,4.5 16.7,12.7 10.2,0.5 3.2,-6.1 3.7,0.5 3.2,0.4 -3.4,-3.4 -0.5,-3.3 h -1.7 l 0.2,-4.6 -3.5,-4.9 -7,-3.4 -4.6,-6.1 0.5,-5 2.3,-2.2 -1,-3.8 -3.7,-1.9 -4.7,-7.8 v 0 l -2.3,1.1 z"
     style="fill:#00c5c2;fill-opacity:1;fill-rule:evenodd;stroke:#ffffff;stroke-opacity:1" />
  <path
     inkscape:connector-curvature="0"
     id="IL"
     data-name="Israel"
     data-id="IL"
     d="m 98.899987,276.1 -1.4,0.1 -0.4,1.1 h -1.8 l -0.1,0.1 -0.6,1.6 -0.6,4.8 -1.1,2.9 0.4,0.4 -1.4,2.1 v 0 l 3.9,9.2 0.7,1.7 1.7,-10.2 -0.4,-2.4 -2.4,0.8 0.1,-1.7 1.2,-0.8 -1.4,-0.7 0.7,-4.3 2,0.9 0.7,-2 h -0.1 l 0.6,-1 z"
     style="fill:#00c5c2;fill-opacity:1;fill-rule:evenodd;stroke:#ffffff;stroke-opacity:1" />
  <path
     inkscape:connector-curvature="0"
     id="JO"
     data-name="Jordan"
     data-id="JO"
     d="m 117.69999,283.2 -3.1,-7.7 -9.6,6.7 -6.300003,-2.5 -0.7,2 0.4,3.9 -0.6,1.9 0.4,2.4 -1.7,10.2 0.3,0.9 6.100003,1 2.1,-2 1.1,-2.3 4,-0.8 0.7,-2.2 1.7,-1 -6.1,-6.4 10.4,-3.1 z"
     style="fill:#00c5c2;fill-opacity:1;fill-rule:evenodd;stroke:#ffffff;stroke-opacity:1" />
  <path
     inkscape:connector-curvature="0"
     id="JP"
     data-name="Japan"
     data-id="JP"
     d="m 623.59999,270.5 -4.5,-1.3 -1.1,2.7 -3.3,-0.8 -1.3,3.8 1.2,3 4.2,1.8 -0.1,-3.7 2.1,-1.5 3.1,2.1 1.3,-3.9 z m 24.4,-19.3 -3.6,-6.7 1.3,-6.4 -2.8,-5.2 -8.1,-8.7 -4.8,1.2 0.2,3.9 5.1,7.1 1,7.9 -1.7,2.5 -4.5,6.5 -5,-3.1 v 11.5 l -6.3,-1.3 -9.6,1.9 -1.9,4.4 -3.9,3.3 -1.1,4 -4.3,2 4,4.3 4.1,1.9 0.9,5.7 3.5,2.5 2.5,-2.7 -0.8,-10.8 -7.3,-4.7 6.1,-0.1 5,-3 8.6,-1.4 2.4,4.8 4.6,2.4 4.4,-7.3 9.1,-0.4 5.4,-3 0.6,-4.6 -2.5,-3.2 z m -11.8,-44.2 -5.3,-2.1 -10.4,-6.4 1.9,4.8 4.3,8.5 -5.2,0.4 0.6,4.7 4.6,6.1 h 5.7 l -1.6,-6.8 10.8,4.2 0.4,-6.1 6.4,-1.7 -6,-6.9 -1.7,2.6 z"
     style="fill:#ffffff;fill-opacity:1;fill-rule:evenodd;stroke:#00c5c2;stroke-opacity:1" />
  <path
     inkscape:connector-curvature="0"
     id="KZ"
     data-name="Kazakhstan"
     data-id="KZ"
     d="m 239.89999,139.4 -9,-1.3 -3.1,2.5 -10.8,2.2 -1.7,1.5 -16.8,2.1 -1.4,2.1 5,4.1 -3.9,1.6 1.5,1.7 -3.6,2.9 9.4,4.2 -0.2,3 -6.9,-0.3 -0.8,1.8 -7.3,-3.2 -7.6,0.2 -4.3,2.5 -6.6,-2.4 -11.9,-4.3 -7.5,0.2 -8.1,6.6 0.7,4.6 -6,-3.6 -2.1,6.8 1.7,1.2 -1.7,4.7 5.3,4.3 3.6,-0.2 4.2,4.1 0.2,3.2 2.8,1 4.4,-1.3 5,-2.7 4.7,1.5 4.9,-0.3 1.9,3.9 0.6,6 -4.6,-0.9 -4,1 0.9,4.5 -5,-0.6 0.6,2 3.2,1.6 3.7,5.5 6.4,2.1 1.5,2.1 -0.7,2.6 0.7,1.5 1.8,-2 5.5,-1.3 3.8,1.7 4.9,4.9 2.5,-0.3 -6.2,-22.8 11.9,-3.6 1.1,0.5 9.1,4.5 4.8,2.3 6.5,5.5 5.7,-0.9 8.6,-0.5 7.5,4.5 1.5,6.2 2.5,0.1 2.6,5 6.6,0.2 2.3,3 h 1.9 l 0.9,-4.5 5.4,-4.3 2.5,-1.2 0.3,-2.7 3.1,-0.8 9.1,2.1 -0.5,-3.6 2.5,-1.3 8.1,2.6 1.6,-0.7 8.6,0.2 7.8,0.6 3.3,2.2 3.5,0.9 -1.7,-3.5 2.9,-1.6 -8.7,-10.7 9,-2.4 2,-1.4 -1,-11.1 10.7,2 1.6,-2.8 -2.5,-6.2 3.8,-0.6 1.8,-4.2 -4.3,-3.8 -6,0.9 -3.3,-2.6 -3.9,-1.2 -4.1,-3.6 -3.2,-1.1 -6.2,1.6 -8.3,-3.6 -1.1,3.3 -18.1,-15.5 -8.3,-4.7 0.8,-1.9 -9.1,5.7 -4.4,0.4 -1.2,-3.3 -7,-2.1 -4.3,1.5 z"
     style="fill:#ffffff;fill-opacity:1;fill-rule:evenodd;stroke:#00c5c2;stroke-opacity:1" />
  <path
     inkscape:connector-curvature="0"
     id="KG"
     data-name="Kyrgyzstan"
     data-id="KG"
     d="m 318.29999,218.2 -3.5,-0.9 -3.3,-2.2 -7.8,-0.6 -8.6,-0.2 -1.6,0.7 -8.1,-2.6 -2.5,1.3 0.5,3.6 -9.1,-2.1 -3.1,0.8 -0.3,2.7 1.8,0.6 -3.1,4.1 4.6,2.3 3.2,-1.6 7.1,3.3 -5.2,4.5 -4.1,-0.6 -1.4,2 -5.9,-1.1 0.6,3.7 5.4,-0.5 7.1,2 9.5,-0.9 1,-1.5 -1.1,-1.5 4,-3 3.2,-1.2 5.7,0.9 0.6,-4 6.4,-0.8 1,-2.4 6.8,-3.4 z"
     style="fill:#ffffff;fill-opacity:1;fill-rule:evenodd;stroke:#00c5c2;stroke-opacity:1" />
  <path
     inkscape:connector-curvature="0"
     id="KH"
     data-name="Cambodia"
     data-id="KH"
     d="m 505.89999,397.4 -5.2,-2.3 -2,4.3 -4.9,-2.4 -5.3,-1 -7.1,1.3 -3,5.2 2.1,7.7 3.4,6.6 2.6,3.3 4.7,0.9 4.7,-2.5 5.8,-0.5 -2.8,-3.8 8.9,-4.9 -0.1,-7.7 z"
     style="fill:#ffffff;fill-opacity:1;fill-rule:evenodd;stroke:#00c5c2;stroke-opacity:1" />
  <path
     inkscape:connector-curvature="0"
     id="KR"
     data-name="Korea"
     data-id="KR"
     d="m 568.39999,247.3 6.2,5.5 -3.4,1.1 5.2,6.8 1.1,4.8 2.1,3.5 4.5,-0.5 3.2,-2.7 4.2,-1.2 0.5,-3.6 -3.4,-7.5 -3.3,-4.2 -8.2,-7.6 0.1,1.6 -2.1,0.4 -3.5,0.3 -0.7,2.9 -2.4,-0.2 z"
     style="fill:#ffffff;fill-opacity:1;fill-rule:evenodd;stroke:#00c5c2;stroke-opacity:1" />
  <path
     inkscape:connector-curvature="0"
     id="KW"
     data-name="Kuwait"
     data-id="KW"
     d="m 166.69999,297 -3.7,-0.5 -3.2,6.1 4.9,0.6 1.7,3.1 3.8,-0.2 -2.4,-4.8 0.3,-1.5 z"
     style="fill:#00c5c2;fill-opacity:1;fill-rule:evenodd;stroke:#ffffff;stroke-opacity:1" />
  <path
     inkscape:connector-curvature="0"
     id="LA"
     data-name="Lao PDR"
     data-id="LA"
     d="m 505.89999,397.4 0.2,-6.4 -2,-4.5 -4.8,-4.4 -4.3,-5.6 -5.7,-7.5 -7.3,-3.8 1.3,-2.3 3.3,-1.7 -3,-5.5 -6.8,-0.1 -3.4,-5.7 -4,-5.1 -2.7,1 1.9,7.2 -2.9,-0.1 -0.7,-1.5 -4.1,4.1 -0.8,2.4 2.6,1.9 0.9,3.8 3.8,0.3 -0.4,6.7 1,5.7 5.3,-3.8 1.8,1.2 3.2,-0.2 0.8,-2.2 4.3,0.4 4.9,5.2 1.3,6.3 5.2,5.5 0.5,5.4 -1.5,2.9 4.9,2.4 2,-4.3 z"
     style="fill:#ffffff;fill-opacity:1;fill-rule:evenodd;stroke:#00c5c2;stroke-opacity:1" />
  <path
     inkscape:connector-curvature="0"
     id="LB"
     data-name="Lebanon"
     data-id="LB"
     d="m 98.899987,276.1 0.9,-3.5 2.600003,-2.4 -1.2,-2.5 -2.400003,-0.3 -0.1,0.2 -2.1,4.5 -1.3,5.2 h 1.8 l 0.4,-1.1 z"
     style="fill:#00c5c2;fill-opacity:1;fill-rule:evenodd;stroke:#ffffff;stroke-opacity:1" />
  <path
     inkscape:connector-curvature="0"
     id="LK"
     data-name="Sri Lanka"
     data-id="LK"
     d="m 363.29999,448.3 2.3,-1.8 0.6,-6.6 -3,-6.6 -2.9,-4.5 -4.1,-3.5 -1.9,10.3 1.4,9.1 2.8,5.1 z"
     style="fill:#ffffff;fill-opacity:1;fill-rule:evenodd;stroke:#00c5c2;stroke-opacity:1" />
  <path
     inkscape:connector-curvature="0"
     id="MM"
     data-name="Myanmar"
     data-id="MM"
     d="m 464.99999,351.4 -0.6,-2.6 -3.8,1.8 -2.5,-1.2 -4.5,-2.4 0.8,-5.2 -3.7,-1.3 -2.3,-5.8 -5.6,1 -0.7,-7.5 4.1,-5.3 -0.8,-5.3 -1.3,-4.9 -2.7,-1.5 -2.7,-3.7 -3,0.4 0.9,2.4 -1.6,1.2 1.3,3.9 -4.1,-1.1 -6.1,4.4 0.9,3.6 -2.1,5.4 0.3,3.1 -1.5,5.2 -4.6,-1.4 0.9,6.6 -0.9,2.1 0.9,2.7 -2.4,1.5 0.5,4.6 -2.1,-1 1.1,5.1 4.6,5.2 3.4,0.9 -0.4,2.2 5.4,7.4 1.9,5.9 -0.9,7.9 3.6,1.5 3.2,0.6 5.8,-4.6 3.2,-3.1 3.1,5.2 2,8.1 2.6,7.6 2.6,3.3 0.2,6.9 2.2,3.8 -1.3,4.8 0.9,4.8 2.2,-6.6 2.6,-5.9 -2.8,-5.8 -0.2,-3 -1,-3.5 -4.2,-5.1 -1.7,-3.2 1.7,-1.1 1.4,-5.6 -2.9,-4.2 -4.1,-4.6 -3.5,-5.6 2.2,-1.1 1.5,-6.9 3.9,-0.3 2.8,-2.8 3,-1.4 0.8,-2.4 z"
     style="fill:#ffffff;fill-opacity:1;fill-rule:evenodd;stroke:#00c5c2;stroke-opacity:1" />
  <path
     inkscape:connector-curvature="0"
     id="MN"
     data-name="Mongolia"
     data-id="MN"
     d="m 404.79999,167.7 -3.7,-4.6 -6.6,-1.5 -4.8,-0.8 -6.9,-2.5 -1.3,6.4 4,3.6 -2.4,4.3 -7.9,-1.6 -5,-0.2 -4.7,-2.9 -5.1,-0.1 -5.3,-1.9 -5.9,2.9 -6.6,5.4 -4.7,1 3.3,4.4 5.7,3.3 8.1,2.3 5.8,5 1.3,7.3 3,2.7 6.4,1 7.2,0.9 7.9,3.8 3.4,0.7 4.9,5.7 4.7,3.6 5.5,-0.1 11.2,1.3 6.4,-0.8 5.5,0.9 9.3,3.8 6.2,-0.1 3.2,2 4.4,-3.3 7.2,-2.2 7.5,-0.2 4.9,-2.2 1.9,-3.3 2.5,-2 -1.9,-2.1 -2.9,-2.3 0.4,-4 3.2,0.5 5.9,1.3 3.1,-3.3 6.3,-2.4 1.4,-4.1 2.4,-1.8 6.8,-0.8 4.3,0.7 -0.7,-2.2 -7.2,-4.3 -5.1,-2 -2.5,2.3 -5.4,-1 -2.4,0.8 -2.7,-2.6 -0.3,-6.2 -0.6,-4.6 -5.5,0.5 -3.9,-2.1 -3.3,-0.7 -4.5,4.4 -5.8,1 -3.6,1.6 -6.7,-1 h -4.5 l -4.9,-3.1 -6.5,-3 -5.4,-0.8 -5.7,0.8 -3.9,1.1 z"
     style="fill:#ffffff;fill-opacity:1;fill-rule:evenodd;stroke:#00c5c2;stroke-opacity:1" />
  <path
     inkscape:connector-curvature="0"
     id="MY"
     data-name="Malaysia"
     data-id="MY"
     d="m 474.69999,448.3 -4.7,-2.8 -0.9,1.1 1.4,2.7 -0.4,4.7 2.1,3.4 1,5.3 3.4,4.3 0.8,3.2 6.7,5 5.4,4.8 4,-0.5 0.1,-2.1 -2.3,-5.6 -2.1,-1.8 -0.5,-3.8 -0.6,-2.1 0.5,-2.9 -0.5,-4.3 -2.6,-4.3 -3.5,-3.8 -1.3,-0.6 -1.7,2.6 -3.7,0.8 z m 99,11 -1.2,-3.1 3.8,-0.4 0.3,-2.4 -4.8,-2 -3.8,-1.7 -0.4,-2.8 -3.1,-3.2 h -2.3 l -2.5,5 -4.1,4.4 -0.1,3.1 -0.1,4.1 -2.7,-0.2 -1.1,2.2 -2.7,-3.3 -2.6,4 -3.8,5 -6.7,1.4 -2.4,1.2 -0.9,5.4 -4.4,1.2 -4.1,-2.2 1,4.3 3.9,3.5 3.6,-1.2 3.6,0.4 3.2,-3.2 2.7,-0.6 5.4,1.8 4.5,-1.3 2.7,-8.9 2,-2.2 1.7,-7.2 h 6.4 l 5,1 z"
     style="fill:#ffffff;fill-opacity:1;fill-rule:evenodd;stroke:#00c5c2;stroke-opacity:1" />
  <path
     inkscape:connector-curvature="0"
     id="NP"
     data-name="Nepal"
     data-id="NP"
     d="m 386.29999,310.4 -6.5,-0.6 -6.4,-1.5 -5,-2.8 -4.5,-1.2 -2.5,-3.1 -3.2,-0.9 -6.4,-4.1 -4.7,-2 -1.9,1.5 -2.8,2.9 -0.9,5.9 5.7,2.5 5.8,3.1 7.7,3.5 7.6,0.9 3.8,3.2 4.3,0.6 6.8,1.5 4.6,-0.1 0.1,-2.5 -1.5,-4.1 z"
     style="fill:#ffffff;fill-opacity:1;fill-rule:evenodd;stroke:#00c5c2;stroke-opacity:1" />
  <path
     inkscape:connector-curvature="0"
     id="OM"
     data-name="Oman"
     data-id="OM"
     d="m 232.09999,353.4 2.1,-2 0.8,-1.8 1.6,-3.8 -0.1,-1.4 -2.1,-0.8 -1.6,-2.1 -2.9,-3.7 -3.3,-1.1 -4.1,-0.9 -3.3,-2.3 -2.9,-4.3 h -2.8 l -0.1,4.2 1.1,0.8 -2.4,1.3 0.3,2.6 -1.4,2.6 0.1,2.6 2.9,4.5 -2.6,12.7 -16.1,6.4 5.2,10.5 2.1,4.4 2.5,-0.3 3.6,-2.2 3.1,0.6 2.5,-1.8 -0.2,-2.5 2.1,-1.6 h 3.4 l 1.2,-1.3 0.2,-3.1 3.3,-2.4 h 2.6 l 0.4,-0.8 -1,-4.2 0.6,-3.2 1,-1.5 2.5,0.3 z m -16.6,-30.4 0.2,-2.6 -0.7,-0.6 -1.3,2.2 1.3,2.2 z"
     style="fill:#00c5c2;fill-opacity:1;fill-rule:evenodd;stroke:#ffffff;stroke-opacity:1" />
  <path
     inkscape:connector-curvature="0"
     id="PK"
     data-name="Pakistan"
     data-id="PK"
     d="m 319.39999,261.9 -9.4,-2.6 -2.9,-5 -4.7,-3 -2.8,0.7 -2.4,1.2 -5.8,0.8 -5.3,1.3 -2.4,2.8 1.9,2.8 1.4,3.2 -2,2.7 0.8,2.5 -0.9,2.3 -5.1,-0.2 3,4.2 -3,1.6 -1.5,3.8 1.1,3.8 -1.7,1.8 -2.1,-0.6 -4,0.9 -0.2,1.7 h -4 l -2.3,3.6 0.8,5.4 -6.6,2.6 -3.8,-0.5 -0.9,1.4 -3.3,-0.8 -5.3,0.9 -9.6,-3.2 3.2,3.3 2.8,3.9 5.6,2.7 1,5.7 2.7,1 0.9,2.9 -7.4,3.3 -1.2,7.4 7.6,-0.9 8.9,-0.1 9.9,-1.2 4.9,4.8 2.1,4.6 4.2,1.6 3.2,-4.2 h 12 l -1.8,-5.5 -3.5,-3.2 -1.3,-4.9 -4,-2.9 4.9,-6.6 6.4,0.5 4.5,-6.7 2.1,-6.5 3.9,-6.3 -1,-4.5 3.7,-3.7 -5,-3.1 -2.9,-4.3 -3.2,-5.6 1.9,-2.8 8.5,1.6 5.7,-1 z"
     style="fill:#00c5c2;fill-opacity:1;fill-rule:evenodd;stroke:#ffffff;stroke-opacity:1" />
  <path
     inkscape:connector-curvature="0"
     id="PH"
     data-name="Philippines"
     data-id="PH"
     d="m 615.69999,434.2 -0.6,-2.3 -0.8,-3.2 -4.8,-3 0.8,4.9 -3.9,0.2 -0.7,2.8 -4.2,1.7 -2.2,-2.8 -2.8,2.4 -3.4,1.7 -1.9,5.4 1.1,1.9 3.9,-3.6 2.7,0.3 1.5,-2.7 3.8,3 -1.5,3.1 1.9,4.6 6.8,3.7 1.4,-3 -2.1,-4.7 2.4,-3.2 2.5,6.4 1.5,-5.8 -0.6,-3.5 z m -14.5,-11.8 v -6.1 l -3.6,6.1 0.5,-4.2 -3,0.3 -0.3,4 -1.2,1.8 -1,1.7 3.8,4.4 1.6,-1.9 1.4,-4 z m -30.1,6.1 2.6,-4.4 3.4,-3.5 -1.5,-5.2 -2.4,6.3 -2.9,4.4 -3.8,4 -2.4,4.4 z m 17.4,-16.4 1.2,3 -0.1,3.3 0.5,2.9 3.3,-1.9 2.4,-2.7 -0.2,-2.6 h -3.6 z m 20,-1.7 -1.8,-2.4 -5.4,-0.1 4,4.8 0.3,2.4 -3.3,-0.5 1.2,3.9 1.7,0.3 0.7,4.5 2.5,-1.4 -1.7,-4 -0.4,-2.1 4.5,1.7 z m -22.9,-5.8 -2.2,-2.3 -4.8,-0.2 3.4,4.8 2.8,3.2 z m -6.4,-34.6 h -3.3 l -0.9,5.8 1.1,9.9 -2.6,-2 1.2,6 1.2,2.8 3.3,3.7 0.4,-2.3 1.8,1.4 -1.5,1.7 0.1,2.6 2.9,1.4 5,-0.9 4,3.8 1.1,-2.4 2.5,3.4 4.8,3.1 0.2,-2.9 -2,-1.6 0.1,-3.4 -7.5,-3.6 -2.3,0.8 -3.1,-0.7 -2,-5.1 0.1,-5.1 3,-2.1 0.6,-5.3 -2.7,-4.6 0.4,-2.6 -0.7,-1.6 -1.5,1.6 z"
     style="fill:#ffffff;fill-opacity:1;fill-rule:evenodd;stroke:#00c5c2;stroke-opacity:1" />
  <path
     inkscape:connector-curvature="0"
     id="KP"
     data-name="Dem. Rep. Korea"
     data-id="KP"
     d="m 575.79999,217.9 v 0 l -5.5,-3.6 0.1,3.5 -6.3,2.6 2.7,3.3 -4.6,-0.2 -3.6,-2 -1,4.4 -3.8,3.4 -2.1,4 3.3,1.7 3.4,0.7 0.8,1 0.4,3.5 1.1,1.2 -0.9,0.7 -0.1,2.9 1.9,1 1.6,0.6 0.8,1.2 1.3,-0.5 V 246 l 3.1,1.3 0.1,-0.6 2.4,0.2 0.7,-2.9 3.5,-0.3 2.1,-0.4 -0.1,-1.6 -4.3,-2.8 -2.6,-1 0.2,-0.7 -1.2,-2.8 1.3,-1.7 2.9,-1 1,-1.9 0.3,-1.1 1.9,-1.4 -2.8,-4.5 0.3,-2.1 0.9,-2 2.2,0.3 v 0 0 0 z"
     style="fill:#ffffff;fill-opacity:1;fill-rule:evenodd;stroke:#00c5c2;stroke-opacity:1" />
  <path
     inkscape:connector-curvature="0"
     id="PS"
     data-name="Palestine"
     data-id="PS"
     d="m 97.999987,281.7 -2,-0.9 -0.7,4.3 1.4,0.7 -1.2,0.8 -0.1,1.7 2.4,-0.8 0.6,-1.9 z"
     style="fill:#00c5c2;fill-opacity:1;fill-rule:evenodd;stroke:#ffffff;stroke-opacity:1" />
  <path
     inkscape:connector-curvature="0"
     id="QA"
     data-name="Qatar"
     data-id="QA"
     d="m 189.09999,331.1 0.8,-3.8 -0.5,-3.7 -1.9,-2 -1.4,0.7 -1.1,3.3 0.8,4.7 1.8,1.2 z"
     style="fill:#00c5c2;fill-opacity:1;fill-rule:evenodd;stroke:#ffffff;stroke-opacity:1" />
  <path
     id="RU"
     data-name="Russia"
     data-id="RU"
     style="fill:#ffffff;fill-opacity:1;fill-rule:evenodd;stroke:#00c5c2;stroke-opacity:1"
     d="m 263.39999,10.699999 -4.5,-3.9999998 -13.6,-4.1 -9.4,-2.1 -6.2,0.9 -5.3,2.9 5.8,0.8 6.6,3.2 8,1.7 11.5,1.2999998 z M 84.699987,3.3999992 l 0.9,-0.6 -5.7,-0.9 -2.8,0.7 -1.3,1 -1.5,-1.2 -5.2,0.1 -6.2,0.8 7.7,0.1 -1.1,1.3 4.4,1 3.6,-0.7 0.1,-0.7 2.9,-0.3 z m 200.500003,9.8999998 -1.5,-1.8 -12.5,-2.5999998 -3,-0.3 -2.2,0.5 1.2,5.9999998 z m 15.2,6.3 -9.2,-0.7 3.4,-1.2 -8.2,-1.5 -6.1,1.9 -1,2 1.5,2.1 -6.9,-0.1 -5.3,2.6 -4.3,-1.1 -9.3,0.5 0.3,1.3 -9.2,0.7 -4.9,2.4 -4.2,0.2 -1.2,3.3 5.5,2.6 -7.7,0.7 -9.5,-0.3 -5.8,1.1 4.8,5.4 6.9,4.3 -9.6,-3 -7.9,0.3 -5.1,2 4.5,3.8 -4.9,-1 -2.1,-5 -4.2,-2.8 -1.8,0.1 3.6,3.7 -4.6,3.5 8.1,4.2 0.4,5.4 2.9,2.9 4.7,0.5 0.4,3.5 4.4,3.1 -1.9,2.6 0.5,2.7 -3.7,1.4 -0.5,2 -5.3,-0.8 3.5,-7.8 -0.5,-3.6 -6.7,-3.3 -3.8,-7.3 -3.7,-3.7 -3.6,-1.6 0.8,-4.2 -2.9,-2.9 -11.3,-1.4 -2.1,1 0.5,4.7 -4.3,4.7 1.2,1.7 4.7,4.1 0.1,2.6 5.3,0.5 0.8,1.1 5.8,2.9 -1,2.8 -18.5,-6.1 -6.6,-1.7 -12.8,-1.6 -1.2,1.7 5.9,3.1 -2.7,3.6 -6.4,-3.2 -5,2.2 -7.6,0.1 -2.1,1.9 -5.3,-0.6 2.5,-3.3 -3.2,-0.2 -12.3,4.6 -7.6,2.6 0.4,3.5 -6,1.2 -4.000003,-1.9 -1.2,-3 5.000003,-0.7 -3.600003,-3 -12.2,-1.8 4.3,3.4 -0.8,3.2 4.7,3.3 -1.1,3.8 -4.6,-1.9 -4,-0.3 -8,5.4 4.2,4.1 -3.2,1.4 -11.4,-3.5 -2.1,2.1 3.3,2.4 0.2,2.7 -3.8,-1.4 -6,-1.7 -1.9,-5.8 -1,-2.6 -8,-4 2.9,-0.7 20.1,4.2 6.4,-1.5 3.7,-2.9 -1.6,-3.6 -4,-2.6 -17.6,-6.1 -11.6,-1.3 -7.6,-3.2 -3.6,1.8 v 0 l -6.4,2.2 -3.2,0.5 0.4,3.7 7.2,3.7 -2.8,4.1 6.4,6.3 -1.7,4.8 4.9,4.1 -0.9,3.7 7.3,3.9 -0.9,2.9 -3.3,3.300001 -7.9,7.4 v 0 l 5.3,2.8 -4.5,3.2 v 0 l 0.9,1 -2.6,3.4 2.5,5.5 -1.6,1.9 2.4,1.4 1,2.8 2.1,3.6 5.2,1.5 1,1.4 2.3,-0.7 4.8,1.4 1,2.9 -0.6,1.6 3.7,3.9 2.2,1.1 -0.1,1.1 3.4,1.1 1.7,1.6 -1.6,1.3 -3.9,-0.2 -0.8,0.6 1.5,2 2,3.9 v 0 l 1.8,0.2 1,-1.4 1.5,0.3 4.8,-0.5 3.8,3.4 -0.9,1.3 0.7,1.9 4,0.2 2.2,2.7 0.2,1.2 6.6,2.2 3.5,-1 3.6,2.9 2.9,-0.1 7.600003,2 0.4,1.9 -1.3,3.2 1.8,3.4 -0.3,2.1 -4.700003,0.5 -2.2,1.7 0.4,2.8 4.200003,-1 0.4,1.3 -6.800003,2.6 3.2,2.4 -3.2,5.2 -3.4,1 5,3.6 6.200003,2.4 7.4,5.1 0.5,-0.7 4.5,1.1 7.7,1 7.5,2.9 1.1,1.2 2.9,-1 5.1,1.3 2.1,2.5 3.5,1.4 1.5,0.2 4.3,3.8 2.4,0.4 0.5,-1.5 2.6,-2.5 v 0 l -7.3,-7.3 -0.4,-4.1 -5.9,-5.9 3.5,-6.3 4.6,-1.1 1.4,-3.7 -2.8,-1 -0.2,-3.2 -4.2,-4.1 -3.6,0.2 -5.3,-4.3 1.7,-4.7 -1.7,-1.2 2.1,-6.8 6,3.6 -0.7,-4.6 8.1,-6.6 7.5,-0.2 11.9,4.3 6.6,2.4 4.3,-2.5 7.6,-0.2 7.3,3.2 0.8,-1.8 6.9,0.3 0.2,-3 -9.4,-4.2 3.6,-2.9 -1.5,-1.7 3.9,-1.6 -5,-4.1 1.4,-2.1 16.8,-2.1 1.7,-1.5 10.8,-2.2 3.1,-2.5 9,1.3 4.3,6.3 4.3,-1.5 7,2.1 1.2,3.3 4.4,-0.4 9.1,-5.7 -0.8,1.9 8.3,4.7 18.1,15.5 1.1,-3.3 8.3,3.6 6.2,-1.6 3.2,1.1 4.1,3.6 3.9,1.2 3.3,2.6 6,-0.9 4.3,3.8 1.7,-0.5 4.7,-1 6.6,-5.4 5.9,-2.9 5.3,1.9 5.1,0.1 4.7,2.9 5,0.2 7.9,1.6 2.4,-4.3 -4,-3.6 1.3,-6.4 6.9,2.5 4.8,0.8 6.6,1.5 3.7,4.6 8.4,2.6 3.9,-1.1 5.7,-0.8 5.4,0.8 6.5,3 4.9,3.1 h 4.5 l 6.7,1 3.6,-1.6 5.8,-1 4.5,-4.4 3.3,0.7 3.9,2.1 5.5,-0.5 7.3,2.3 4.4,-3.9 -1.9,-2.7 -0.1,-6.5 1.2,-2 -2.5,-3.3 -3.7,-1.5 1.7,-3 5.1,-1.1 6.2,-0.2 8.5,1.8 5.9,2.3 7.7,6.1 3.8,2.7 4.4,3.7 6.1,6.1 9.9,1.9 8.9,4.5 6,5.8 h 7.5 l 2.6,-2.5 6.9,-1.8 1.3,5.6 -0.4,2.3 2.8,6.8 0.6,6 -6.8,-1.1 -2.9,2.2 4.7,5.3 3.8,7.3 -2.5,0.1 1.9,3.1 v 0 l 1.4,1.1 v 0 0 0 l -0.4,-2 4,-4.5 5.1,3 3.2,-0.1 4.4,-3.6 1,-3.7 2.1,-7.1 1.9,-7.2 -1.3,-4.3 1,-9 -5.2,-9.9 -5.5,-7.3 -1.3,-6.2 -4.7,-5.1 -12.7,-6.7 -5.6,-0.4 -0.3,3 -5.8,-1.3 -5.7,-3.8 -8,-0.7 4.9,-14.1 3.5,-11.5 13.1,-1.8 14.9,1 2.5,-2.8 7.9,0.8 4.3,4.3 6.4,-0.6 8.4,-1.6 -7.7,-3.5 v -9.8 l 9.1,-1.9 12.1,7.1 3.6,-6.4 -3.2,-4.700001 4.7,-0.5 6.5,8.100001 -2.4,4.6 -0.8,6 0.3,7.5 -5.7,1.3 2.8,2.7 -0.1,3.6 6.4,8.3 16,13.4 10.5,8.8 5.7,4.3 1.6,-5.7 -4.5,-6.2 5.7,-1.5 -5.4,-6.9 5,-3.1 -4.7,-2.6 -3.4,-5 4.1,-0.2 -9,-8.6 -6.7,-1.4 -2.9,-2.4 -1.1,-5.6 -3.1,-3.9 7,0.8 1.3,-2.5 4.7,2.2 6.1,-4.6 11.4,4 -1.7,-2.6 2,-3.6 1.5,-4 3.1,-0.7 6.5,-4.300001 9.8,1.2 -0.9,-1.5 -3.8,-2.3 -4.1,-1.6 -9.1,-4.6 -8.1,-3 6.1,0.4 2,-2.5 v 0 l -32.9,-21.9 -9.4,-2.3 -15.7,-2.6 -7.9,0.3 -15.2,-1.4 1.8,2.3 8.5,3.4 -2.5,1.8 -14.2,-4.8 -6.8,0.6 -9.2,-1.1 -7,0.2 -3.9,1.1 -7.2,-1.6 -5.1,-3.8 -6.5,-2.2 -9.2,-0.9 -14.7,1 -16.1,-4 -7.8,-3 -40.1,-3.4 -2.1,2.2 9.3,4.8 -7.5,-0.7 -1,1.5 -9.7,-1.6 -5,1.4 -9.3,-2.4 3,5.5 -8.9,-2.1 -10,-4.1 -0.4,-2.2 -6,-3.3 -9.8,-2.6 h -6.1 l -9.3,-0.9 4.7,3.9 -17.2,-0.8 -3.9,-2.3 -13.3,-0.9 -5.3,0.8 -0.1,1.3 -5.8,-3.2 -2.3,0.9 -7.2,-1.2 -5.6,-0.7 1.1,-1.5 6.6,-2.8 2.3,-1.5 -2.4,-2.5 -5.5,-1.9 -11.5,-2.3 -10.8,-0.1 -1.9,1.2 z m -162.2,31.6 -9.9,-4.3 -3.1,-4.3 3.3,-4.9 2.8,-5 8.6,-4.7 9.8,-2.4 11.3,-2.4 1.3,-1.5 -4.2,-1.9 -6.6,0.6 -4.9,1.8 -11.7,0.9 -10.1,3.1 -6.8,2.7 2.5,2.2 -6.6,4.4 3.9,0.7 -5.4,4.3 1.6,2.8 -3.4,1.1 1.9,2.8 7.9,1.4 2.2,2.3 13.4,0.7 z m 314,-24.7 -17.9,-2.6 -10.2,-0.2 -3.4,0.9 3.4,3.4 12.4,3.2 4.5,-1.2 14.2,0.2 z m 25.2,2.3 -11.7,-1.3 -8.2,-0.7 1.7,1.6 10.3,2 6.8,0.4 z m -12.5,9.5 -2.5,-1.4 -8.3,-1.9 -4.1,0.5 -0.8,2 1.1,0.2 8.8,0.6 z m 162.6,12.3 -6,-3.6 -1.4,2.2 3.5,1.6 z M 15.099987,144.5 l -0.6,-1.5 0.2,-1.7 -2.2,-0.9 -5.0000003,-1.1 -6.3,2 -0.70000001,2.6 5.90000001,0.7 z m 589.700003,21.8 -7.2,-6.2 -5.1,-6 -6.8,-5.8 -4.9,-4 -1.3,0.8 4.4,2.8 -1.9,2.8 6.8,8.3 7.8,6 6.4,8.3 2.4,4.6 5.5,6.8 3.8,6 4.6,5.2 -0.1,-4.8 6.5,3.8 -3,-4.4 -9.5,-6.3 -3.7,-9 8.9,2 z"
     inkscape:connector-curvature="0" />
  <path
     inkscape:connector-curvature="0"
     id="SA"
     data-name="Saudi Arabia"
     data-id="SA"
     d="m 159.79999,302.6 -10.2,-0.5 -16.7,-12.7 -8.5,-4.5 -6.7,-1.7 -0.9,1 -10.4,3.1 6.1,6.4 -1.7,1 -0.7,2.2 -4,0.8 -1.1,2.3 -2.1,2 -6.100003,-1 -0.5,2.5 v 2.2 l -0.6,3.5 h 2.7 l 3.200003,4.4 3.7,5.1 2.5,4.7 1.7,1.5 1.7,3.3 -0.2,1.4 2.1,3.7 3,1.3 2.8,2.5 3.6,7 v 3.8 l 0.9,4.4 4,6.1 2.5,1 4.1,4.4 1.9,5.2 3.2,5.3 3,2.3 0.6,2.5 1.8,1.9 0.9,2.8 2.3,-2.1 -0.7,-2.7 1.2,-3.1 2.4,1.7 1.5,-0.6 6.4,-0.2 1,0.7 5.4,0.6 2.1,-0.3 1.6,2.1 2.5,-1 3.5,-6.7 5,-2.9 15.7,-2.4 16.1,-6.4 2.6,-12.7 -2.9,-4.5 -1,1.3 -16.8,-3.2 -2.6,-6.4 -0.4,-1.5 -1.2,-2.4 -1.5,0.4 -1.8,-1.2 -1,-1.6 -0.9,-2.1 -1.7,-1.8 -1,-2.1 0.4,-2.1 -0.6,-2.7 -4,-2.6 -1.2,-2.3 -2.9,-1.4 -2.7,-5.5 -3.8,0.2 -1.7,-3.1 z"
     style="fill:#00c5c2;fill-opacity:1;fill-rule:evenodd;stroke:#ffffff;stroke-opacity:1" />
  <path
     inkscape:connector-curvature="0"
     id="SY"
     data-name="Syria"
     data-id="SY"
     d="m 114.59999,275.5 11,-6.7 0.9,-7.8 -1.2,-4.7 2.7,-1.6 2.1,-4.1 -5.9,1.1 -2.8,-0.2 -5.7,2.5 h -4.3 l -3,-1.2 -5.5,1.8 -1.9,-1.3 0.1,3.6 -1.200003,1.5 -1.2,1.4 -1,2.6 1.1,5 2.400003,0.3 1.2,2.5 -2.600003,2.4 -0.9,3.5 0.3,2.6 -0.6,1 h 0.1 l 6.300003,2.5 z"
     style="fill:#00c5c2;fill-opacity:1;fill-rule:evenodd;stroke:#ffffff;stroke-opacity:1" />
  <path
     inkscape:connector-curvature="0"
     id="TH"
     data-name="Thailand"
     data-id="TH"
     d="m 493.79999,397 1.5,-2.9 -0.5,-5.4 -5.2,-5.5 -1.3,-6.3 -4.9,-5.2 -4.3,-0.4 -0.8,2.2 -3.2,0.2 -1.8,-1.2 -5.3,3.8 -1,-5.7 0.4,-6.7 -3.8,-0.3 -0.9,-3.8 -2.6,-1.9 -3,1.4 -2.8,2.8 -3.9,0.3 -1.5,6.9 -2.2,1.1 3.5,5.6 4.1,4.6 2.9,4.2 -1.4,5.6 -1.7,1.1 1.7,3.2 4.2,5.1 1,3.5 0.2,3 2.8,5.8 -2.6,5.9 -2.2,6.6 -1.3,6.1 -0.3,3.9 1.2,3.6 0.7,-3.8 2.9,3.1 3.2,3.5 1.1,3.2 2.4,2.4 0.9,-1.1 4.7,2.8 0.6,3.3 3.7,-0.8 1.7,-2.6 -3.1,-3.3 -3.4,-0.8 -3.3,-3.6 -1.4,-5.5 -2.6,-5.8 -3.7,-0.2 -0.7,-4.6 1.4,-5.6 2.2,-9.3 -0.2,-7 4.9,-0.1 -0.3,5 4.7,-0.1 5.3,2.9 -2.1,-7.7 3,-5.2 7.1,-1.3 z"
     style="fill:#ffffff;fill-opacity:1;fill-rule:evenodd;stroke:#00c5c2;stroke-opacity:1" />
  <path
     inkscape:connector-curvature="0"
     id="TJ"
     data-name="Tajikistan"
     data-id="TJ"
     d="m 275.19999,231.3 -2.1,0.2 -1.3,-1.8 0.2,-2.9 -6.4,1.5 -0.5,4 -1.5,3.5 -4.4,-0.3 -0.6,2.8 4.2,1.6 2.4,4.7 -1.3,6.6 1.8,0.8 3.3,-2.1 2.1,1.3 0.9,-3 3.2,0.1 0.6,-0.9 -0.2,-2.6 1.7,-2.3 3.2,1.5 v 2 l 1.6,0.3 1,5.4 2.6,2.1 1.5,-1.3 2.1,-0.7 2.5,-2.9 3.8,0.5 h 5.4 l -1.8,-3.7 -0.6,-2.5 -3.5,-1.4 -1.6,0.6 -3,-5.9 -9.5,0.9 -7.1,-2 -5.4,0.5 -0.6,-3.7 5.9,1.1 z"
     style="fill:#00c5c2;fill-opacity:1;fill-rule:evenodd;stroke:#ffffff;stroke-opacity:1" />
  <path
     inkscape:connector-curvature="0"
     id="TM"
     data-name="Turkmenistan"
     data-id="TM"
     d="m 256.69999,249.8 -0.8,-4 -7.7,-2.7 -6.2,-3.2 -4.2,-3 -7,-4.4 -4.3,-6.4 -2,-1.2 -5.5,0.3 -2.3,-1.3 -1.9,-4.9 -7.8,-3.3 -3.3,3.6 -3.8,2.2 1.6,3.1 -5.8,0.1 -2.5,0.3 -4.9,-4.9 -3.8,-1.7 -5.5,1.3 -1.8,2 2.5,4 -0.5,-4.5 3.7,-1.6 2.4,3.6 4.6,3.7 -4,2 -5.3,-1.5 0.1,5.2 3.5,0.4 -0.4,4.4 4.5,2.1 0.7,6.8 1.8,4.5 4.4,-1.2 3,-3.7 3.5,0.2 2.1,-1.2 3.8,0.6 6.5,3.3 4.3,0.7 7.3,5.7 3.9,0.2 1.6,5.5 5.9,2.4 3.9,-0.8 0.4,-3 4,-0.9 2.5,-2 -0.1,-5.2 4.1,-1.2 0.3,-2.3 2.9,1.7 z"
     style="fill:#00c5c2;fill-opacity:1;fill-rule:evenodd;stroke:#ffffff;stroke-opacity:1" />
  <path
     inkscape:connector-curvature="0"
     id="TL"
     data-name="Timor-Leste"
     data-id="TL"
     d="m 607.89999,547.5 4.9,-1.8 6,-2.8 2.2,-1.7 -2,-0.8 -1.8,0.8 -4,0.2 -4.9,1.4 -0.8,1.5 0.5,1.3 z"
     style="fill:#ffffff;fill-opacity:1;fill-rule:evenodd;stroke:#00c5c2;stroke-opacity:1" />
  <path
     inkscape:connector-curvature="0"
     id="TR"
     data-name="Turkey"
     data-id="TR"
     d="m 97.699987,224.5 -9.7,-4.4 -8.5,0.2 -5.7,1.7 -5.6,4 -9.9,-0.8 -1.6,4.8 -7.9,0.2 -5.1,6.1 3.6,3 -2,5 4.2,3.6 3.7,6.4 5.8,-0.1 5.4,3.5 3.6,-0.8 0.9,-2.7 5.7,0.2 4.6,3.5 8,-0.7 3.1,-3.7 4.6,1.5 3.2,-0.6 -1.7,2.4 2.3,3 1.2,-1.4 1.200003,-1.5 -0.1,-3.6 1.9,1.3 5.5,-1.8 3,1.2 h 4.3 l 5.7,-2.5 2.8,0.2 5.9,-1.1 2.1,-1 6.2,0.9 2.1,1.6 2.3,-1.1 v 0 l -3.7,-5.2 0.7,-2 -2.9,-7.3 3.3,-1.8 -2.4,-1.9 -4.2,-1.5 v -3.1 l -1.3,-2.2 -5.6,-3 -5.4,0.3 -5.5,3.2 -4.5,-0.6 -5.8,1 z m -49.6,4 2,-1.9 6.1,-0.4 0.7,-1.5 -4.7,-2 -0.9,-2.4 -4.5,-0.8 -5,2 2.7,1.6 -1.2,3.9 -1.1,0.7 0.1,1.3 1.9,2.9 z"
     style="fill:#00c5c2;fill-opacity:1;fill-rule:evenodd;stroke:#ffffff;stroke-opacity:1" />
  <path
     inkscape:connector-curvature="0"
     id="TW"
     data-name="Taiwan"
     data-id="TW"
     d="m 573.39999,342.8 1.2,-10.2 0.1,-3.9 -2.9,-1.9 -3.3,4.8 -1.9,6.3 1.5,4.7 4,5.4 z"
     style="fill:#ffffff;fill-opacity:1;fill-rule:evenodd;stroke:#00c5c2;stroke-opacity:1" />
  <path
     inkscape:connector-curvature="0"
     id="UZ"
     data-name="Uzbekistan"
     data-id="UZ"
     d="m 270.89999,218.7 -2.5,1.2 -5.4,4.3 -0.9,4.5 h -1.9 l -2.3,-3 -6.6,-0.2 -2.6,-5 -2.5,-0.1 -1.5,-6.2 -7.5,-4.5 -8.6,0.5 -5.7,0.9 -6.5,-5.5 -4.8,-2.3 -9.1,-4.5 -1.1,-0.5 -11.9,3.6 6.2,22.8 5.8,-0.1 -1.6,-3.1 3.8,-2.2 3.3,-3.6 7.8,3.3 1.9,4.9 2.3,1.3 5.5,-0.3 2,1.2 4.3,6.4 7,4.4 4.2,3 6.2,3.2 7.7,2.7 0.8,4 h 2.9 l 4.3,1.4 1.3,-6.6 -2.4,-4.7 -4.2,-1.6 0.6,-2.8 4.4,0.3 1.5,-3.5 0.5,-4 6.4,-1.5 -0.2,2.9 1.3,1.8 2.1,-0.2 4.1,0.6 5.2,-4.5 -7.1,-3.3 -3.2,1.6 -4.6,-2.3 3.1,-4.1 z"
     style="fill:#00c5c2;fill-opacity:1;fill-rule:evenodd;stroke:#ffffff;stroke-opacity:1" />
  <path
     inkscape:connector-curvature="0"
     id="VN"
     data-name="Vietnam"
     data-id="VN"
     d="m 502.69999,350.6 -5.9,-1.6 -3,-2.6 0.2,-3.7 -5.2,-1.1 -3,-2.4 -4.1,3.4 -5.3,0.7 h -4.3 l -2.7,1.5 4,5.1 3.4,5.7 6.8,0.1 3,5.5 -3.3,1.7 -1.3,2.3 7.3,3.8 5.7,7.5 4.3,5.6 4.8,4.4 2,4.5 -0.2,6.4 1.8,4.2 0.1,7.7 -8.9,4.9 2.8,3.8 -5.8,0.5 -4.7,2.5 4.5,3.7 -1.3,4.3 2.3,4 6.6,-5.9 4.1,-5.3 6.1,-4.1 4.3,-4.2 -0.4,-11.2 -4,-11.7 -4.1,-5.1 -5.6,-4 -6.4,-8.3 -5.3,-6.7 0.5,-4.4 3.7,-6 z"
     style="fill:#ffffff;fill-opacity:1;fill-rule:evenodd;stroke:#00c5c2;stroke-opacity:1" />
  <path
     inkscape:connector-curvature="0"
     id="YE"
     data-name="Yemen"
     data-id="YE"
     d="m 202.59999,381.8 -2.1,-4.4 -5.2,-10.5 -15.7,2.4 -5,2.9 -3.5,6.7 -2.5,1 -1.6,-2.1 -2.1,0.3 -5.4,-0.6 -1,-0.7 -6.4,0.2 -1.5,0.6 -2.4,-1.7 -1.2,3.1 0.7,2.7 -2.3,2.1 0.4,2.7 -0.6,1.3 0.7,2.9 -1.1,0.3 1.7,2.6 1.3,4.7 1,1.9 v 3.4 l 1.6,3.8 3.9,0.3 1.8,-0.9 2.7,0.2 0.8,-1.7 1.5,-0.4 1.1,-1.7 1.4,-0.4 4.7,-0.3 3.5,-1.2 3.1,-2.7 1.7,0.4 2.4,-0.3 4.7,-4.5 8.8,-3 5.3,-2.7 v -2.1 l 0.9,-2.9 z"
     style="fill:#00c5c2;fill-opacity:1;fill-rule:evenodd;stroke:#ffffff;stroke-opacity:1" />
  <path
     inkscape:connector-curvature="0"
     id="HK"
     data-name="Hong Kong"
     data-id="HK"
     d="m 535.99999,346.5 v -0.2 -0.2 l -0.4,-0.2 h -0.3 l 0.1,0.2 0.4,0.5 z m -1.3,0 -0.1,-0.5 0.2,-0.3 -0.9,0.3 -0.1,0.3 v 0.1 l 0.2,0.1 z m 1.6,-1.2 -0.1,-0.3 -0.2,-0.1 -0.1,-0.3 -0.1,-0.2 v 0 l -0.3,-0.1 -0.2,-0.1 h -0.4 l -0.1,0.1 h -0.2 l -0.2,0.2 v 0 0.2 l -0.5,0.4 v 0.2 l 0.3,0.2 0.5,-0.1 0.6,0.2 0.8,0.3 v -0.2 -0.3 z"
     style="fill:#ffffff;fill-opacity:1;fill-rule:evenodd;stroke:#00c5c2;stroke-opacity:1" />
  <path
     inkscape:connector-curvature="0"
     id="MV"
     data-name="Maldives"
     data-id="MV"
     d="m 320.19999,467.2 0.1,-0.1 v -0.2 l -0.1,-0.1 h -0.1 l -0.1,0.2 v 0.1 0.1 z m 0.3,-5.9 0.1,-0.2 v -0.1 -0.1 -0.1 -0.1 l -0.1,0.1 -0.1,0.2 v 0.1 l -0.1,0.1 v 0.1 h 0.1 z"
     style="fill:#ffffff;fill-opacity:1;fill-rule:evenodd;stroke:#00c5c2;stroke-opacity:1" />
  <path
     inkscape:connector-curvature="0"
     id="NR"
     data-name="Nauru"
     data-id="NR"
     d="m 846.09999,491.1 v -0.2 h -0.1 -0.1 l -0.1,0.2 0.1,0.1 0.1,0.1 z"
     style="fill:#ffffff;fill-opacity:1;fill-rule:evenodd;stroke:#00c5c2;stroke-opacity:1" />
  <path
     inkscape:connector-curvature="0"
     id="SG"
     data-name="Singapore"
     data-id="SG"
     d="m 492.09999,479.3 0.1,-0.2 -0.2,-0.2 -0.3,-0.1 -0.5,-0.2 -0.6,0.1 -0.3,0.6 0.9,0.4 z"
     style="fill:#ffffff;fill-opacity:1;fill-rule:evenodd;stroke:#00c5c2;stroke-opacity:1" />
  <path
     inkscape:connector-curvature="0"
     id="SB"
     data-name="Solomon Is."
     data-id="SB"
     d="m 840.19999,562 -0.2,-0.2 -0.1,-0.4 h -0.3 l -0.3,0.1 0.2,0.6 h 0.2 z m -35.6,0.8 -0.1,-0.2 -0.5,-0.4 -1.9,-1.3 -0.4,-0.1 -0.1,0.1 -0.1,0.3 0.1,0.2 0.5,0.1 v 0.1 l 0.3,0.2 0.7,0.2 0.4,0.3 0.1,0.5 0.3,0.1 0.3,0.1 z m 32,-6.6 v -0.1 l 0.2,-0.3 -0.2,-0.1 -0.5,-0.1 -0.7,0.1 -0.3,0.2 -0.2,0.3 h -0.2 v 0.2 l 0.1,0.4 0.2,-0.1 0.2,0.1 0.5,-0.5 h 0.3 0.1 z m -24.4,-2.3 -0.1,-0.2 -0.2,-0.1 -0.9,-0.7 -0.5,-0.2 h -0.5 l -0.1,0.5 v 0.3 h 0.6 l 0.4,0.2 v 0.6 l 0.2,0.2 v 0.5 l 1.2,0.9 0.7,0.4 0.7,0.1 0.4,0.2 0.5,-0.1 0.5,0.2 0.4,-0.1 -0.4,-0.3 v -0.4 l -0.5,-1.3 -0.3,-0.3 -0.5,0.1 -0.5,-0.2 h -0.4 z m -0.4,-4.9 -0.6,-1.6 -0.2,-0.1 0.1,0.6 0.1,0.4 -0.1,0.5 -0.1,0.6 0.2,0.2 0.2,-0.2 0.4,0.5 v -0.2 z m -9.8,-2.2 -0.3,-0.1 -0.4,0.3 -0.1,0.3 -0.1,0.7 v 0.4 l 0.3,0.7 0.3,0.5 0.3,0.3 0.2,0.2 0.9,0.1 1.7,0.1 0.9,0.4 0.9,0.2 0.4,-0.1 0.5,-0.2 0.1,-0.1 -0.1,-0.6 -0.2,-0.3 -0.4,-0.2 -0.2,-0.6 -0.5,-0.4 -0.9,-0.7 h -1.6 l -0.6,0.1 z m 2.6,-1.8 -0.5,0.2 v 0.3 l 0.4,0.1 0.4,0.2 0.1,0.3 v 0 l 0.2,-0.1 0.4,0.2 0.2,-0.3 -0.4,-0.5 -0.4,-0.3 h -0.1 z m -5.6,0.8 0.3,-0.2 v -0.4 h -0.3 l -0.1,-0.2 h -0.2 l -0.3,0.2 -0.2,0.3 0.1,0.2 h 0.4 l 0.2,0.1 z m -8.4,-2.3 -0.1,-0.2 -0.3,-0.2 h -0.2 l -0.5,0.1 0.1,0.1 0.6,0.3 0.3,0.1 z m 3.1,0.4 0.3,-0.2 -0.1,-0.2 -0.1,-0.5 -0.4,0.7 0.1,0.2 z m -0.5,-0.9 v -0.2 -0.2 l -0.2,-0.1 0.4,-0.3 -0.1,-0.1 -0.6,-0.2 -0.2,0.2 -0.2,0.1 -0.1,0.1 -0.1,0.1 -0.1,0.5 0.2,0.4 0.4,0.2 z m -4,0.2 -0.3,-0.4 0.1,-0.5 0.2,-0.1 0.2,-0.5 -0.1,-0.4 -0.2,0.1 -0.7,0.6 -0.1,0.3 0.6,0.8 0.3,0.2 z m 13,-1.3 -0.2,-0.4 v -0.2 l -0.3,-0.2 -0.2,0.1 -0.1,0.3 0.1,0.2 0.4,0.3 z m 6,-1.2 h -0.2 l -0.1,0.1 h -0.2 -0.3 l -0.1,0.2 0.6,1.1 -0.3,0.5 0.4,2.2 0.4,1.2 0.8,0.8 v 0.2 l 0.8,0.5 0.6,1.3 0.2,0.1 0.1,-0.2 v -0.6 l -0.5,-1.1 0.1,-0.8 -0.2,-0.3 v -0.3 l -0.2,-0.8 -0.6,-0.7 -0.3,-0.1 -0.2,-0.3 0.2,-0.6 0.2,-0.2 0.1,-0.3 z m -16.6,-0.5 -0.6,-0.2 -0.2,-0.3 v -1 l -0.6,-0.3 -0.3,0.2 -0.6,0.7 -0.2,0.4 -0.5,0.3 -0.1,0.3 v 0.4 l 0.4,0.1 0.3,-0.4 0.9,-0.1 0.3,0.1 v 0.4 l 0.1,0.7 0.3,0.3 0.5,0.2 0.4,0.6 0.1,-0.3 h 0.2 l 0.2,-0.4 -0.3,-1.2 z m -6.5,-0.4 0.1,-0.5 -0.1,-0.9 -0.2,0.1 v 0.2 l -0.1,0.4 0.2,0.8 z m 3.2,-0.4 0.2,-0.2 v -0.4 -0.5 l -0.2,-0.4 -0.2,-0.2 -0.5,0.1 -0.4,0.5 v 0.5 l 0.4,0.6 h 0.6 z m -2.6,-1.2 0.2,-0.3 0.5,-0.7 0.1,-0.3 -0.5,-0.2 -0.4,-0.5 -0.4,-0.2 -0.3,0.4 v 0.4 l 0.5,0.6 -0.1,0.4 0.2,0.1 0.1,0.4 z m 17.5,3.9 -0.1,-0.5 -0.3,-0.4 0.4,-0.5 -2.2,-1.9 -0.3,-0.2 -0.4,-0.1 -0.5,-0.4 -0.5,-0.1 -0.5,-0.4 -0.2,-0.3 -0.6,-0.4 -0.6,-0.8 -1.5,-0.3 0.1,0.2 0.4,0.4 0.1,0.7 0.5,0.4 0.5,0.6 0.2,0.1 0.2,0.2 0.4,0.5 0.8,0.4 0.8,0.6 0.3,0.1 0.3,0.3 1.5,0.7 0.5,0.7 0.7,0.5 z m -21.8,-9.2 0.2,-0.3 -0.7,-0.5 -0.2,0.3 -0.2,0.5 0.4,0.2 z m 9.1,1.5 -0.1,-0.1 h -0.3 l -0.4,-0.2 -0.7,-0.8 -0.2,-0.3 -0.2,-1 -0.4,-0.4 -1.4,-0.8 -0.8,-0.8 -0.7,-0.2 -0.2,0.2 v 0.5 l 0.2,0.3 1,0.9 1.1,1.7 1,1 0.8,0.1 h 0.4 v 0.1 l 0.1,0.2 0.5,0.2 0.5,-0.4 z"
     style="fill:#ffffff;fill-opacity:1;fill-rule:evenodd;stroke:#00c5c2;stroke-opacity:1" />
  <path
     inkscape:connector-curvature="0"
     id="CY"
     data-name="Cyprus"
     data-id="CY"
     d="m 80.999987,264 -0.3,-0.1 -0.5,0.2 -0.4,0.4 -0.4,0.3 -0.5,-0.3 0.2,0.9 0.6,1.1 0.2,0.3 0.3,0.2 1.1,0.3 h 0.3 0.6 l 0.2,0.1 0.2,0.4 h 0.4 v -0.1 -0.3 l 0.2,-0.2 0.3,-0.2 h 0.3 l 0.6,-0.1 0.6,-0.2 0.5,-0.4 0.9,-1 h 0.3 0.3 0.6 l 0.6,-0.1 -0.2,-0.4 -0.1,-0.1 -0.4,-0.5 -0.2,-0.4 0.1,-0.6 2.5,-1.9 0.5,-0.5 -0.8,0.2 -0.6,0.4 -0.4,0.2 -0.7,0.4 -2.3,0.8 -0.8,0.1 h -0.8 l -1,-0.1 -0.9,-0.2 v 0.7 l -0.2,0.6 -0.6,0.2 z"
     style="fill:#00c5c2;fill-opacity:1;fill-rule:evenodd;stroke:#ffffff;stroke-opacity:1" />
</svg>
