<svg id="Layer_1" data-name="Layer 1" xmlns="http://www.w3.org/2000/svg" viewBox="0 0 435.66 435.66"><defs><style>.cls-1{fill:#00c5c2;}</style></defs><title>Con_Training</title><path class="cls-1" d="M223.37,435.39l-.1-2,8.15-.41.11,2Zm16.32-.84-.12-2,.52,0,7.47-1.14.31,2ZM256,432.12l-.31-2,3.53-.54a39.48,39.48,0,0,0,4.41-.89l.5,2a41.82,41.82,0,0,1-4.62.93Zm16-3.52-.51-2,7.91-2.06.5,2ZM287.75,424l-.7-1.92,7.62-2.78.72,1.91Zm15.38-5.71-.83-1.86c1-.44,2-.92,2.94-1.41.77-.37,1.53-.75,2.31-1.1l2.09-1,.88,1.84-2.09,1c-.78.36-1.54.73-2.29,1.1C305.14,417.34,304.14,417.83,303.13,418.28Zm14.75-7.09-.88-1.84,3.78-1.82,3.36-1.95,1,1.76c-1.15.68-2.3,1.35-3.46,2Zm14.3-8.12-1.09-1.72c2.28-1.45,4.55-2.93,6.81-4.46l1.14,1.68C336.76,400.12,334.48,401.62,332.18,403.07Zm13.58-9.22-1.21-1.65q3.29-2.38,6.49-4.9l1.26,1.61C350.14,390.6,348,392.25,345.76,393.85Zm12.92-10.09-1.31-1.57q3.12-2.61,6.15-5.32l1.36,1.51Q361.82,381.13,358.68,383.76Zm12.25-11-1.46-1.44.95-.92c1.57-1.61,3.13-3.26,4.67-4.93l1.5,1.38c-1.54,1.69-3.12,3.35-4.72,5Zm11.11-12-1.56-1.33q2.64-3.09,5.18-6.26l1.6,1.27Q384.71,357.6,382,360.72Zm10.23-12.82-1.64-1.22c1.63-2.18,3.2-4.38,4.75-6.6l1.68,1.17C395.5,343.48,393.91,345.7,392.27,347.9Zm9.36-13.46-1.71-1.11c1.48-2.29,2.91-4.6,4.3-6.9l1.75,1.05C404.58,329.81,403.12,332.13,401.63,334.44Zm8.4-14.15-1.84-.89,3.55-7.35,1.84.88Zm7.09-14.71-1.83-.9c.57-1.17,1.13-2.33,1.61-3.52l1.44-3.93,1.92.7-1.45,4C418.29,303.16,417.72,304.37,417.12,305.58Zm5.95-15.32-1.92-.7L423.9,282l2,.5-.44,1.3Zm4.86-15.68-2-.51,1-3.86c.31-1.37.68-2.73,1-4.06l2,.53c-.36,1.31-.72,2.65-1,4Zm3.78-16-2-.31,1.23-8.07,2,.3Zm2.47-16.15-2-.3.32-2.15.3-5.89,2,.11-.32,6Zm1.07-16.4-2-.1.42-8.16,2,.1Z"/><path class="cls-1" d="M217.77,435.66l-8.15-.41.1-2,8.16.41Zm-16.31-.82-6-.32-2.25-.34.31-2,2.15.33,5.89.3ZM185.14,433l-8.07-1.23.31-2,8.07,1.24ZM169,430c-1.31-.36-2.64-.72-4-1l-3.89-1,.51-2,3.86,1c1.37.32,2.72.69,4.06,1.05Zm-15.79-4.08-1.3-.45-6.48-2.36.7-1.92,7.57,2.74Zm-15.45-5.62-4-1.46c-1.27-.51-2.48-1.09-3.69-1.68l.9-1.84c1.17.57,2.33,1.13,3.52,1.62l3.93,1.44Zm-15-6.69L115.37,410l.89-1.84,7.36,3.55ZM108.18,406c-2.32-1.4-4.65-2.85-7-4.34l1.11-1.72c2.29,1.48,4.6,2.92,6.9,4.31Zm-13.77-8.92q-3.34-2.32-6.65-4.79L89,390.63c2.18,1.63,4.38,3.21,6.59,4.76Zm-13.14-9.8q-3.21-2.55-6.33-5.22l1.33-1.55q3.09,2.64,6.27,5.18ZM68.8,376.59c-1.68-1.54-3.35-3.12-5-4.72l-.91-.94,1.43-1.45.93.95c1.61,1.57,3.26,3.13,4.93,4.66Zm-11.52-11.7c-1.83-2-3.63-4.11-5.38-6.21l1.57-1.3c1.74,2.07,3.51,4.12,5.33,6.14ZM46.74,352.3c-1.69-2.16-3.33-4.34-4.94-6.54l1.66-1.21c1.59,2.19,3.22,4.35,4.9,6.5Zm-9.66-13.25q-2.31-3.42-4.49-6.86l1.73-1.1q2.16,3.42,4.45,6.81Zm-8.77-13.87c-.67-1.15-1.34-2.3-2-3.45l-1.85-3.85L26.3,317l1.83,3.78c.62,1.08,1.27,2.23,1.95,3.37Zm-7.39-14.65-1-2.1c-.36-.78-.73-1.53-1.1-2.28-.49-1-1-2-1.44-3l1.87-.84c.44,1,.92,2,1.41,2.95.37.77.74,1.53,1.1,2.31l1,2.08ZM14.47,295.4l1-.33-1,.32-2.79-7.63,1.92-.71,2.78,7.62ZM9.1,279.9l-2-7.91,2-.51,2.06,7.91ZM5,264.08a39.61,39.61,0,0,1-.93-4.62L3.53,256l2-.31.54,3.54a37.62,37.62,0,0,0,.89,4.4ZM2.3,247.87,1.11,239.7l2-.12,0,.52,1.15,7.47ZM.68,231.53l-.41-8.15,2-.11.41,8.16Z"/><path class="cls-1" d="M2,217.88l-2-.1.41-8.16,2,.1Zm.83-16.32-2-.1.31-6,.34-2.25,2,.31-.32,2.15Zm1.86-16.1-2-.31,1.23-8.08,2,.31Zm2.94-15.94-2-.54c.36-1.31.72-2.65,1-4l1-3.88,2,.5-1,3.87C8.39,166.82,8,168.18,7.66,169.52Zm4.1-15.84-2-.49.45-1.3,2.36-6.49,1.93.71Zm5.55-15.24-1.92-.71,1.45-4c.52-1.26,1.1-2.47,1.69-3.67l1.84.89c-.57,1.17-1.14,2.34-1.62,3.52Zm6.61-14.82-1.84-.89,3.55-7.36,1.83.89Zm7.51-14.38-1.74-1.06c1.39-2.32,2.84-4.64,4.33-7l1.72,1.1Q33.52,105.78,31.43,109.24Zm8.84-13.66L38.6,94.42c1.55-2.24,3.15-4.46,4.78-6.66L45,89C43.4,91.16,41.81,93.37,40.27,95.58Zm9.73-13-1.6-1.27c1.69-2.14,3.44-4.24,5.22-6.33l1.55,1.33C53.41,78.34,51.68,80.43,50,82.54ZM60.56,70.18l-1.5-1.38c1.55-1.68,3.12-3.35,4.73-5l.94-.92,1.46,1.44-1,.92C63.66,66.86,62.1,68.51,60.56,70.18ZM72.14,58.8l-1.37-1.52q3.06-2.74,6.21-5.37l1.31,1.57C76.21,55.21,74.15,57,72.14,58.8ZM84.61,48.36l-1.25-1.61c2.15-1.69,4.34-3.33,6.54-4.94l1.21,1.65C88.92,45.05,86.76,46.68,84.61,48.36Zm13.15-9.58-1.15-1.69c2.28-1.55,4.56-3.05,6.86-4.5l1.1,1.73Q101.14,36.48,97.76,38.78Zm13.75-8.7-1-1.76c1.15-.68,2.3-1.34,3.45-2l3.84-1.85.89,1.84-3.78,1.82C113.79,28.75,112.65,29.41,111.51,30.08ZM126,22.77l-.89-1.85,2.1-1,2.28-1.11c1-.49,2-1,3-1.43l.84,1.86c-1,.45-2,.93-3,1.41-.76.37-1.53.75-2.31,1.11Zm15-6.39-.72-1.91,7.64-2.8.7,1.92Zm15.28-5.29-.51-2,7.91-2,.51,2ZM172.07,7l-.49-2a39.07,39.07,0,0,1,4.62-.94l3.51-.53.31,2-3.54.54A39.63,39.63,0,0,0,172.07,7Zm16-2.65-.3-2L196,1.12l.12,2-.51,0Zm16.14-1.6-.1-2,8.15-.41.1,2Z"/><path class="cls-1" d="M433.34,212.39l-.41-8.16,2-.1.41,8.16Zm-.83-16.31,0-.51-1.15-7.47,2-.31,1.2,8.18ZM430.1,180l-.54-3.53a39.19,39.19,0,0,0-.88-4.41l2-.5a42.13,42.13,0,0,1,.94,4.62l.53,3.51Zm-3.48-15.84-2.06-7.91,2-.51,2,7.91Zm-4.55-15.57L419.28,141l1.91-.72-1,.32,1-.32,2.79,7.64Zm-5.65-15.25c-.45-1-.93-2-1.41-2.94-.37-.77-.75-1.54-1.11-2.32l-1-2.08,1.84-.88,1,2.09c.36.78.74,1.53,1.11,2.29.48,1,1,2,1.43,3Zm-7.07-14.7-1.83-3.78c-.61-1.08-1.27-2.22-1.94-3.37l1.76-1c.68,1.15,1.34,2.3,2,3.46l1.85,3.84Zm-8-14.09q-2.16-3.42-4.46-6.8l1.69-1.15c1.55,2.27,3,4.56,4.5,6.86Zm-9.15-13.46q-2.37-3.27-4.89-6.5l1.61-1.25c1.69,2.16,3.34,4.35,4.94,6.55Zm-10-12.82q-2.6-3.12-5.32-6.15l1.52-1.36q2.75,3.06,5.37,6.2ZM371.33,66.18l-.92-1q-2.43-2.36-4.93-4.66l1.38-1.5c1.68,1.54,3.34,3.12,5,4.72l.92.95Zm-11.94-11q-3.11-2.66-6.27-5.18l1.27-1.6q3.19,2.55,6.33,5.23ZM346.68,45c-2.18-1.62-4.39-3.21-6.6-4.75l1.16-1.68c2.24,1.56,4.46,3.15,6.66,4.79Zm-13.35-9.29c-2.3-1.48-4.6-2.92-6.9-4.3l1.05-1.76c2.32,1.41,4.65,2.85,6.95,4.35ZM319.4,27.47,312,23.92l.89-1.84,7.36,3.55Zm-14.73-7.1c-1.16-.57-2.33-1.13-3.51-1.62l-3.93-1.43.69-1.92,4,1.45c1.27.51,2.47,1.1,3.69,1.69Zm-15.11-5.86L282,11.76l.49-2,1.3.44,6.49,2.37Zm-15.5-4.8-3.86-1c-1.36-.31-2.72-.68-4.05-1l.52-2c1.32.35,2.65.71,4,1l3.88,1ZM258.28,6,250.2,4.73l.31-2,8.07,1.23ZM242.14,3.5,240,3.17l-5.89-.3.11-2,6,.31,2.24.34Zm-16.2-1L217.77,2l.11-2L226,.41Z"/></svg>