<?xml version="1.0" encoding="UTF-8" standalone="no"?>
<!-- Created with Inkscape (http://www.inkscape.org/) -->

<svg
   xmlns:dc="http://purl.org/dc/elements/1.1/"
   xmlns:cc="http://creativecommons.org/ns#"
   xmlns:rdf="http://www.w3.org/1999/02/22-rdf-syntax-ns#"
   xmlns:svg="http://www.w3.org/2000/svg"
   xmlns="http://www.w3.org/2000/svg"
   xmlns:sodipodi="http://sodipodi.sourceforge.net/DTD/sodipodi-0.dtd"
   xmlns:inkscape="http://www.inkscape.org/namespaces/inkscape"
   width="135.02483mm"
   height="147.56821mm"
   viewBox="0 0 135.02482 147.56819"
   version="1.1"
   id="svg8"
   inkscape:version="0.92.4 (5da689c313, 2019-01-14)"
   sodipodi:docname="2.svg">
  <defs
     id="defs2">
    <style
       id="style309">.cls-1{isolation:isolate;}.cls-2{fill:#00c5c2;}.cls-3{opacity:0.18;mix-blend-mode:multiply;}</style>
    <style
       id="style847">.cls-1{fill:#00c5c2;}.cls-2{fill:none;stroke:#00c5c2;stroke-miterlimit:10;}</style>
    <style
       id="style1054">.cls-1{fill:#00c5c2;}</style>
    <style
       id="style1105">.cls-1{fill:#00c5c2;}</style>
    <style
       id="style1502">.cls-1{fill:#00c5c2;}.cls-2{fill:none;stroke:#00c5c2;stroke-miterlimit:10;}</style>
    <style
       id="style121">.cls-1{isolation:isolate;}.cls-2{fill:#00c5c2;}.cls-3{opacity:0.18;mix-blend-mode:multiply;}</style>
    <style
       id="style356">.cls-1{fill:#00c5c2;}.cls-2{fill:none;stroke:#00c5c2;stroke-miterlimit:10;}</style>
    <style
       id="style660">.cls-1{fill:#00c5c2;}</style>
    <style
       id="style1252">.cls-1{fill:#00c5c2;}</style>
  </defs>
  <sodipodi:namedview
     id="base"
     pagecolor="#ffffff"
     bordercolor="#666666"
     borderopacity="1.0"
     inkscape:pageopacity="0.0"
     inkscape:pageshadow="2"
     inkscape:zoom="0.7"
     inkscape:cx="232.80296"
     inkscape:cy="229.31905"
     inkscape:document-units="mm"
     inkscape:current-layer="layer1"
     showgrid="false"
     fit-margin-top="0"
     fit-margin-left="0"
     fit-margin-right="0"
     fit-margin-bottom="0"
     inkscape:window-width="1366"
     inkscape:window-height="705"
     inkscape:window-x="-8"
     inkscape:window-y="-8"
     inkscape:window-maximized="1" />
  <metadata
     id="metadata5">
    <rdf:RDF>
      <cc:Work
         rdf:about="">
        <dc:format>image/svg+xml</dc:format>
        <dc:type
           rdf:resource="http://purl.org/dc/dcmitype/StillImage" />
        <dc:title></dc:title>
      </cc:Work>
    </rdf:RDF>
  </metadata>
  <g
     inkscape:label="Layer 1"
     inkscape:groupmode="layer"
     id="layer1"
     transform="translate(-35.214979,-101.8061)">
    <g
       id="g1285"
       transform="matrix(-0.18238639,-0.19167563,0.19167563,-0.18238639,101.40754,278.59938)">
      <path
         id="path1258"
         d="M 296.11,0 A 20.76,20.76 0 1 0 316.86,20.75 20.75,20.75 0 0 0 296.11,0 Z M 291,29.35 h -3.82 V 17 H 291 Z M 289.06,15.4 v 0 a 2.28,2.28 0 1 1 2.25,-2.27 2.25,2.25 0 0 1 -2.25,2.27 z m 16.23,14 h -3.8 v -6.52 c 0,-1.78 -0.68,-2.77 -2.08,-2.77 -1.4,0 -2.32,1 -2.32,2.77 v 6.47 h -3.67 V 17 h 3.67 v 1.66 a 4.27,4.27 0 0 1 3.71,-2 c 2.62,0 4.49,1.59 4.49,4.9 z"
         class="cls-1"
         inkscape:connector-curvature="0"
         style="fill:#00c5c2" />
      <path
         id="path1260"
         d="M 278.12,19.4 261.6,20 236.22,23.21 c -1.51,0.3 -3,0.66 -4.61,1 l -18.47,4.24 c -3.49,1 -7,2.21 -10.72,3.45 -2.08,0.7 -4.21,1.42 -6.43,2.13 a 265.57,265.57 0 0 0 -60.8,31 L 115.5,47.22 105.76,54 c -1.12,0.77 -2.31,1.59 -3.59,2.66 L 85.57,70.92 C 73.76,82 51.33,105.33 33.66,136.52 16.24,167.79 8,199.08 4.59,215.31 l -3.46,21.35 c -0.23,1.5 -0.3,2.94 -0.38,4.3 L 0,252.83 l 25.42,7.56 a 265.59,265.59 0 0 0 5.2,68.11 c 0.54,2.21 1,4.39 1.51,6.54 0.85,3.78 1.67,7.44 2.67,11 l 6,17.88 c 0.5,1.53 1,3 1.58,4.6 l 9.82,22.17 8.71,15.44 3.43,-1.93 L 56.22,389.81 46,367.09 c -0.5,-1.4 -1,-2.86 -1.48,-4.35 l -5.92,-17.8 c -1,-3.44 -1.76,-7.05 -2.6,-10.76 -0.49,-2.17 -1,-4.37 -1.5,-6.54 a 261.76,261.76 0 0 1 -5.16,-66.09 l 0.34,0.1 0.62,-10 c 0,-0.66 0.09,-1.34 0.13,-2 0.05,-0.9 0.09,-1.86 0.21,-2.73 L 34,226 c 5.39,-25.52 15.36,-52.49 27.32,-74 12.14,-21.44 30,-44 48.7,-61.61 l 16.24,-13.91 c 0.79,-0.65 1.59,-1.18 2.32,-1.7 0.58,-0.39 1.14,-0.77 1.52,-1 l 8.37,-5.85 -0.26,-0.23 a 261.08,261.08 0 0 1 59.07,-30 c 2.18,-0.7 4.31,-1.43 6.42,-2.14 3.61,-1.21 7.11,-2.4 10.44,-3.36 L 232.5,28 c 1.53,-0.36 3,-0.71 4.37,-1 l 23.67,-3.11 17.72,-0.6 z"
         class="cls-1"
         inkscape:connector-curvature="0"
         style="fill:#00c5c2" />
      <path
         id="path1262"
         d="M 460.1,453.44 A 255.17,255.17 0 0 0 438.78,73.52 l -1.86,2.33 A 252.19,252.19 0 1 1 82.81,430.63 l -2.32,1.86 a 255.17,255.17 0 0 0 379.61,20.95 z"
         class="cls-1"
         inkscape:connector-curvature="0"
         style="fill:#00c5c2" />
      <path
         id="path1270"
         d="m 529.78,239 2.36,-0.36 c 1.61844,12.06549 -0.4857,12.45273 -2.36,0.36 z m -1.47,-9.47 -0.62,-4.13 c -0.23292,-1.73795 -0.56682,-3.46086 -1,-5.16 l 2.31,-0.58 c 0.46996,1.77682 0.83394,3.58 1.09,5.4 l 0.63,4.11 z m -4.05,-18.53 -2.4,-9.26 2.32,-0.59 2.4,9.25 z m -5.32,-18.21 -3.26,-8.91 2.23,-0.85 -1.13,0.37 1.13,-0.37 3.27,8.94 z M 512.33,175 c -0.52,-1.15 -1.08,-2.3 -1.64,-3.44 -0.43,-0.9 -0.88,-1.79 -1.3,-2.71 l -1.17,-2.43 2.15,-1 1.18,2.45 c 0.42,0.91 0.86,1.79 1.29,2.67 0.57,1.18 1.14,2.34 1.67,3.52 z m -8.26,-17.19 -2.14,-4.42 c -0.72,-1.27 -1.48,-2.6 -2.27,-3.94 l 2.06,-1.2 c 0.79,1.34 1.56,2.69 2.33,4 l 2.17,4.5 z m -9.37,-16.48 c -1.68,-2.66667 -3.41667,-5.33333 -5.21,-8 l 2,-1.34 c 1.82,2.66 3.56,5.34 5.26,8 z M 484,125.55 c -1.86,-2.55333 -3.77,-5.08667 -5.73,-7.6 l 1.88,-1.47 c 2,2.53333 3.92667,5.08667 5.78,7.66 z m -11.71,-15 c -2,-2.42 -4.07333,-4.81333 -6.22,-7.18 l 1.77,-1.6 c 2.15,2.39 4.23,4.81 6.28,7.25 z M 459.61,96.4 458.53,95.29 c -1.89,-1.84 -3.82,-3.66 -5.77,-5.46 l 1.62,-1.75 c 2,1.8 3.94333,3.64 5.83,5.52 l 1.08,1.1 z m -14,-12.88 c -2.42,-2.06 -4.86333,-4.06 -7.33,-6 l 1.49,-1.86 c 2.49333,2 4.96,4.033333 7.4,6.1 z M 430.77,71.66 c -2.54,-1.9 -5.12,-3.76 -7.71,-5.56 l 1.36,-2 c 2.60667,1.82 5.2,3.686667 7.78,5.6 z M 415.16,60.8 c -2.69,-1.74 -5.37,-3.41 -8.07,-5 l 1.23,-2 c 2.72,1.64 5.44,3.33 8.13,5.09 z m -16.28,-9.68 -8.61,-4.12 1,-2.15 8.6,4.15 z m -17.23,-8.3 c -1.36,-0.67 -2.72,-1.32 -4.11,-1.89 l -4.54,-1.68 0.81,-2.24 4.64,1.7 c 1.48,0.59 2.89,1.27 4.31,2 z M 364,36 l -8.86,-3.21 0.58,-2.32 1.52,0.52 7.58,2.77 z m -18.12,-5.61 -4.51,-1.16 c -1.59,-0.37 -3.19,-0.81 -4.74,-1.23 l 0.61,-2.3 c 1.54,0.41 3.1,0.84 4.7,1.2 l 4.51,1.1 z M 327.39,26 318,24.52 l 0.36,-2.35 9.44,1.44 z"
         class="cls-1"
         inkscape:connector-curvature="0"
         style="fill:#00c5c2"
         sodipodi:nodetypes="ccccccccccccccccccccccccccccccccccccccccccccccccccccccccccccccccccccccccccccccccccccccccccccccccccccccccc" />
    </g>
    <path
       id="path1037"
       d="m 57.28214,122.18818 a 6.3129583,6.3129583 0 1 0 2.071144,8.68815 6.3129583,6.3129583 0 0 0 -2.071144,-8.68815 z m -5.887154,6.69566 v 0 a 2.4182917,2.4182917 0 0 1 -0.79445,-3.32643 v 0 a 2.4182917,2.4182917 0 0 1 3.326427,-0.79445 v 0 a 2.4156458,2.4156458 0 0 1 1.082983,1.48212 l -0.648197,0.1048 a 1.7647708,1.7647708 0 0 0 -3.204399,-0.45035 v 0 a 1.7647708,1.7647708 0 0 0 0.579758,2.4275 1.4869583,1.4869583 0 0 0 1.919986,-0.30467 l -1.29172,-0.79367 0.336582,-0.5478 1.916163,1.17734 -0.1302,0.21191 c -0.698095,1.13617 -1.997338,1.48686 -3.092933,0.8137 z m 5.413442,1.04994 -0.486173,0.79126 -0.504966,-0.31027 0.486173,-0.79126 -0.791262,-0.48617 0.310264,-0.50497 0.791262,0.48618 0.486173,-0.79127 0.504965,0.31027 -0.486172,0.79126 0.791262,0.48617 -0.310264,0.50497 z"
       class="cls-1"
       inkscape:connector-curvature="0"
       style="isolation:isolate;fill:#00c5c2;stroke-width:0.26458332" />
    <circle
       transform="rotate(31.567673)"
       id="circle1035"
       r="9.9059992"
       cy="80.554169"
       cx="113.0583"
       class="cls-2"
       style="isolation:isolate;fill:none;stroke:#00c5c2;stroke-width:0.26458332;stroke-miterlimit:10" />
    <circle
       transform="rotate(31.567673)"
       id="circle1033"
       r="1.8309166"
       cy="90.599419"
       cx="115.18626"
       class="cls-1"
       style="isolation:isolate;fill:#00c5c2;stroke-width:0.26458332" />
  </g>
</svg>
