<svg id="Layer_1" data-name="Layer 1" xmlns="http://www.w3.org/2000/svg" viewBox="0 0 66.64 66.64"><defs><style>.cls-1{fill:#00c5c2;}.cls-2{fill:none;stroke:#00c5c2;stroke-miterlimit:10;}.cls-3{fill:#fff;}</style></defs><title>ConTraining_Outs</title><g id="Group_84" data-name="Group 84"><circle id="Ellipse_12" data-name="Ellipse 12" class="cls-1" cx="33.67" cy="32.86" r="20.92"/><circle id="Ellipse_13" data-name="Ellipse 13" class="cls-1" cx="10.16" cy="57.17" r="6.06"/><circle id="Ellipse_14" data-name="Ellipse 14" class="cls-2" cx="33.32" cy="33.32" r="32.82"/></g><path id="Path_1232" data-name="Path 1232" class="cls-3" d="M43.61,29.59h-2v3.07H38.57v2h3.07V37.7h2V34.63h3.07v-2H43.61Z"/><path id="Path_1233" data-name="Path 1233" class="cls-3" d="M28.52,32.58v2.13h5a4.93,4.93,0,0,1-4.89,4.19,5.84,5.84,0,0,1-5.85-5.84h0a5.85,5.85,0,0,1,9.83-4.29l1.64-1.42a7.92,7.92,0,0,0-5.62-2.3h0a8,8,0,0,0-8,8h0a8,8,0,0,0,8,8h0c4.26,0,7.33-3.24,7.32-7.66v-.83Z"/></svg>