<svg id="Layer_1" data-name="Layer 1" xmlns="http://www.w3.org/2000/svg" viewBox="0 0 41.52 41.52"><defs><style>.cls-1{fill:#00c5c2;}.cls-2{fill:#fff;}</style></defs><title>ConTraining_Outs</title><circle id="Ellipse_15" data-name="Ellipse 15" class="cls-1" cx="20.76" cy="20.76" r="20.75"/><g id="Group_89" data-name="Group 89"><rect id="Rectangle_2" data-name="Rectangle 2" class="cls-2" x="11.81" y="17.02" width="3.82" height="12.33"/><path id="Path_1235" data-name="Path 1235" class="cls-2" d="M13.71,10.86a2.28,2.28,0,0,0,0,4.55h0A2.26,2.26,0,0,0,16,13.13h0a2.25,2.25,0,0,0-2.25-2.27Z"/><path id="Path_1236" data-name="Path 1236" class="cls-2" d="M25.45,16.65a4.31,4.31,0,0,0-3.72,2V17H18.07V29.36h3.66V22.88c0-1.73.8-2.76,2.33-2.76s2.08,1,2.08,2.76v6.48h3.8V21.55C29.94,18.25,28.07,16.65,25.45,16.65Z"/></g></svg>