<?xml version="1.0" encoding="UTF-8" standalone="no"?>
<!-- Created with Inkscape (http://www.inkscape.org/) -->

<svg
   xmlns:dc="http://purl.org/dc/elements/1.1/"
   xmlns:cc="http://creativecommons.org/ns#"
   xmlns:rdf="http://www.w3.org/1999/02/22-rdf-syntax-ns#"
   xmlns:svg="http://www.w3.org/2000/svg"
   xmlns="http://www.w3.org/2000/svg"
   xmlns:sodipodi="http://sodipodi.sourceforge.net/DTD/sodipodi-0.dtd"
   xmlns:inkscape="http://www.inkscape.org/namespaces/inkscape"
   width="172.44659mm"
   height="179.67249mm"
   viewBox="0 0 172.44659 179.67249"
   version="1.1"
   id="svg737"
   inkscape:version="0.92.4 (5da689c313, 2019-01-14)"
   sodipodi:docname="3.svg">
  <defs
     id="defs731">
    <style
       id="style782">.cls-1{isolation:isolate;}.cls-2{fill:#00c5c2;}.cls-3{opacity:0.18;mix-blend-mode:multiply;}</style>
    <style
       id="style1027">.cls-1{fill:#00c5c2;}.cls-2{fill:none;stroke:#00c5c2;stroke-miterlimit:10;}</style>
  </defs>
  <sodipodi:namedview
     id="base"
     pagecolor="#ffffff"
     bordercolor="#666666"
     borderopacity="1.0"
     inkscape:pageopacity="0.0"
     inkscape:pageshadow="2"
     inkscape:zoom="0.70710678"
     inkscape:cx="399.90159"
     inkscape:cy="348.01162"
     inkscape:document-units="mm"
     inkscape:current-layer="g1213"
     showgrid="false"
     fit-margin-top="0"
     fit-margin-left="0"
     fit-margin-right="0"
     fit-margin-bottom="0"
     inkscape:window-width="1366"
     inkscape:window-height="705"
     inkscape:window-x="-8"
     inkscape:window-y="-8"
     inkscape:window-maximized="1" />
  <metadata
     id="metadata734">
    <rdf:RDF>
      <cc:Work
         rdf:about="">
        <dc:format>image/svg+xml</dc:format>
        <dc:type
           rdf:resource="http://purl.org/dc/dcmitype/StillImage" />
        <dc:title></dc:title>
      </cc:Work>
    </rdf:RDF>
  </metadata>
  <g
     inkscape:label="Layer 1"
     inkscape:groupmode="layer"
     id="layer1"
     transform="translate(-15.727387,-95.484387)">
    <g
       id="g817"
       class="cls-1"
       transform="matrix(0.26458333,0,0,0.26458333,-366.92175,-115.19409)"
       style="isolation:isolate">
      <g
         id="g1213"
         transform="rotate(31.567673,-365.95915,3283.3264)">
        <path
           id="path1039"
           d="M 185.34,584.57 A 19.42,19.42 0 1 0 204.76,604 19.43,19.43 0 0 0 185.34,584.57 Z m 5.66,20.55 h -3.13 v 11.25 h -4.49 v -11.2 H 181 v -3.81 h 2.34 v -3 c 0,-2.81 1.5,-4.29 4.84,-4.29 h 3.11 V 598 h -2.43 c -0.86,0 -1,0.36 -1,1.24 v 2.15 h 3.46 z"
           class="cls-1"
           inkscape:connector-curvature="0"
           style="fill:#00c5c2" />
        <path
           id="path1041"
           d="m 648,287.46 c -1.14473,-12.12582 -15.5957,-17.79244 -24.67795,-9.67802 -9.08224,8.11442 -5.07285,23.10996 6.84795,25.60802 l 1.07,24.95 c 0.17406,3.00012 0.11387,6.00924 -0.18,9 -0.12,1.68 -0.24,3.4 -0.29,5.12 l -1,17.09 c -0.3351,3.96484 -0.87247,7.90998 -1.61,11.82 -0.41,2.37 -0.82,4.78 -1.15,7.18 l -0.73,4.55 c -0.72193,5.57682 -1.85841,11.09208 -3.4,16.5 -5.36,24.65 -15.21,50.2 -28.8,74.88 v 0 c -0.1,0.18 -0.45,0.83 -1.19,2 l -7.25,11.89 c -4.47936,7.6751 -9.49166,15.02648 -15,22 l -8.31,11.07 -20.49,22.73 -19.05,17.33 c -2.36046,2.19806 -4.87339,4.22645 -7.52,6.07 l -12.46,9.26 c -2.51752,1.76733 -5.05935,3.49711 -7.62461,5.18891 -23.8953,15.75903 -49.82402,28.22252 -77.08539,37.04109 -8.27,2.35 -15.61,4.15 -22.08,5.73 -3.08,0.75 -5.86,1.44 -8,2 -1.3,0.26 -2.6,0.52 -3.89,0.76 -0.92,0.14 -1.78,0.26 -2.55,0.36 -1.07,0.14 -2,0.28 -2.57,0.37 l -3.17,0.46 0.11,0.24 c -26.44366,4.29616 -53.32748,5.20012 -80,2.69 -27.45,-3.46 -52.35,-9.15 -70.14,-16 -3.06,-1.16 -5.89,-2.2 -8.47,-3.14 -4.27,-1.58 -7.82,-2.88 -10.39,-4 l -6.48,-3.15 -2.08,4.26 6.6,3.21 c 2.75,1.15 6.36,2.48 10.71,4.09 2.56,0.94 5.39,2 8.41,3.12 18.13,7 43.43,12.8 71.31,16.31 19.90856,1.89036 39.95144,1.89036 59.86,0 7.3,-0.68 14.93,-1.66 22.82,-3 l 15.53,32.64 3.44,-0.5 c 0.6,-0.11 1.32,-0.2 2.12,-0.31 2,-0.26 4.4,-0.6 7.64,-1.29 2.56,-0.67 5.5,-1.4 8.79,-2.2 6.3,-1.54 14.14,-3.46 23,-6 32.21136,-10.38642 62.67843,-25.55591 90.38,-45 l 12.55,-9.32 c 3.26807,-2.29446 6.37226,-4.81389 9.29,-7.54 l 19.16,-17.37 19.74,-21.6 10.95,-14.29 c 5.95923,-7.56424 11.38563,-15.53344 16.24,-23.85 l 7.1,-11.65 c 0.7997,-1.21805 1.52438,-2.48373 2.17,-3.79 l -28.36,-23.68 c 14,-25.33 24.2,-51.58 29.65,-76.79 1.59566,-5.57095 2.77228,-11.25348 3.52,-17 l 0.72,-4.55 c 0.34,-2.41 0.75,-4.78 1.14,-7.09 0.77232,-4.08426 1.32644,-8.20677 1.66,-12.35 l 1,-17.15 c 0.06,-1.71 0.18,-3.38 0.28,-5 0.3439,-3.2184 0.40747,-6.46059 0.19,-9.69 l -1,-24.42 c 7.9832,-0.96713 13.7461,-8.11312 13,-16.12 z M 634.26,300 c -9.90944,0.9281 -15.99173,-10.58801 -9.64072,-18.24954 6.35101,-7.66154 18.79523,-3.82015 19.72072,6.08954 0.57925,6.14291 -3.93621,11.59014 -10.08,12.16 z"
           class="cls-1"
           inkscape:connector-curvature="0"
           style="fill:#00c5c2"
           sodipodi:nodetypes="cscccccccccccccccccccscccccccccccccccccccccccccccccccccccccccccccccccscc" />
        <path
           id="path1043"
           d="m 167.3,66.72 c 0.93,-0.6 1.87,-1.18 2.81,-1.76 L 156.67,43.2 c -1,0.63 -2,1.26 -3,1.91 z"
           class="cls-1"
           inkscape:connector-curvature="0"
           style="fill:#00c5c2" />
        <path
           id="path1045"
           d="m 63.65,176.45 q 0.8,-1.44 1.62,-2.88 L 43,160.91 c -0.59,1 -1.17,2.09 -1.75,3.13 z"
           class="cls-1"
           inkscape:connector-curvature="0"
           style="fill:#00c5c2" />
        <path
           id="path1047"
           d="M 180.4,58.87 183.3,57.26 171,34.85 c -1.06,0.58 -2.1,1.17 -3.15,1.76 z"
           class="cls-1"
           inkscape:connector-curvature="0"
           style="fill:#00c5c2" />
        <path
           id="path1049"
           transform="rotate(-31.567673,319.4115,326.99997)"
           style="fill:#00c5c2"
           d="m 279.90234,3.8359375 -3.55078,0.5644531 4.15625,25.2285154 3.27735,-0.519531 z" />
        <path
           id="path1051"
           transform="rotate(-31.567673,319.4115,326.99997)"
           style="fill:#00c5c2"
           d="m 247.49609,10.519531 -3.42968,0.886719 6.6289,24.681641 c 1.06634,-0.283754 2.1335,-0.567892 3.20313,-0.837891 z" />
        <path
           id="path1053"
           d="m 88.76,138.3 c 0.67,-0.88 1.35,-1.75 2,-2.62 L 70.72,119.84 c -0.74,0.94 -1.48,1.88 -2.21,2.83 z"
           class="cls-1"
           inkscape:connector-curvature="0"
           style="fill:#00c5c2" />
        <path
           id="path1055"
           transform="rotate(-31.567673,319.4115,326.99997)"
           style="fill:#00c5c2"
           d="m 200.60547,26.378906 -3.30274,1.421875 9.2168,21.039063 c 0.14849,0.08362 0.29129,0.168359 0.46875,0.248047 -0.002,0.2811 0.007,0.562418 0.01,0.84375 l 0.56836,1.298828 3.04492,-1.308594 z" />
        <path
           id="path1057"
           d="m 119.32,104.29 2.4,-2.28 -17.49,-18.66 -2.61,2.47 z"
           class="cls-1"
           inkscape:connector-curvature="0"
           style="fill:#00c5c2" />
        <path
           id="path1059"
           d="m 154.61,75.2 2.73,-1.9 -14.52,-21 -2.95,2 z"
           class="cls-1"
           inkscape:connector-curvature="0"
           style="fill:#00c5c2" />
        <path
           id="path1061"
           transform="rotate(-31.567673,319.4115,326.99997)"
           style="fill:#00c5c2"
           d="m 296.28125,1.7636719 c -1.19158,0.1246463 -2.38397,0.2483171 -3.57227,0.3867187 l 2.91407,25.3808594 3.27929,-0.332031 z" />
        <path
           id="path1063"
           transform="rotate(-31.567673,319.4115,326.99997)"
           style="fill:#00c5c2"
           d="m 231.61328,14.998047 -3.41211,1.083984 7.86133,24.337891 c 1.0532,-0.338775 2.10758,-0.678887 3.16406,-1.003906 z" />
        <path
           id="path1065"
           transform="rotate(-31.567673,319.4115,326.99997)"
           style="fill:#00c5c2"
           d="m 185.56445,33.228516 c -1.07732,0.511744 -2.13823,1.033802 -3.20703,1.550781 l 11.4043,22.910156 2.97461,-1.458984 z" />
        <path
           id="path1067"
           d="M 0.51,305.72 26,307.14 c 0.07,-1.11 0.13,-2.21 0.21,-3.31 L 0.73,302.14 c -0.08,1.19 -0.16,2.39 -0.22,3.58 z"
           class="cls-1"
           inkscape:connector-curvature="0"
           style="fill:#00c5c2" />
        <path
           id="path1069"
           d="m 2.92,368.18 c 0.16,1.19 0.32,2.38 0.5,3.57 l 25.31,-3.68 c -0.16,-1.1 -0.32,-2.2 -0.46,-3.3 z"
           class="cls-1"
           inkscape:connector-curvature="0"
           style="fill:#00c5c2" />
        <path
           id="path1071"
           d="m 0,318.65 c 0,1.2 0,2.4 0,3.6 l 25.58,0.15 c 0,-1.11 0,-2.21 0,-3.32 z"
           class="cls-1"
           inkscape:connector-curvature="0"
           style="fill:#00c5c2" />
        <path
           id="path1073"
           d="m 5.53,384.53 c 0.22,1.19 0.45,2.36 0.68,3.54 l 25.09,-4.95 c -0.21,-1.08 -0.42,-2.17 -0.62,-3.26 z"
           class="cls-1"
           inkscape:connector-curvature="0"
           style="fill:#00c5c2" />
        <path
           id="path1075"
           d="m 1.13,351.7 c 0.1,1.2 0.21,2.4 0.32,3.59 l 25.46,-2.38 c -0.1,-1.11 -0.2,-2.22 -0.29,-3.33 z"
           class="cls-1"
           inkscape:connector-curvature="0"
           style="fill:#00c5c2" />
        <path
           id="path1077"
           d="m 18.28,432.51 q 0.59,1.69 1.2,3.39 l 24.06,-8.68 c -0.38,-1.05 -0.75,-2.09 -1.12,-3.14 z"
           class="cls-1"
           inkscape:connector-curvature="0"
           style="fill:#00c5c2" />
        <path
           id="path1079"
           d="m 13.22,416.74 c 0.34,1.15 0.68,2.3 1,3.45 l 24.47,-7.46 c -0.33,-1.06 -0.64,-2.12 -0.95,-3.18 z"
           class="cls-1"
           inkscape:connector-curvature="0"
           style="fill:#00c5c2" />
        <path
           id="path1081"
           d="M 33.85,394.79 9,400.73 c 0.28,1.17 0.56,2.34 0.85,3.5 L 34.64,398 c -0.27,-1 -0.54,-2.13 -0.79,-3.21 z"
           class="cls-1"
           inkscape:connector-curvature="0"
           style="fill:#00c5c2" />
        <path
           id="path1083"
           d="m 15.24,224.62 24.4,7.68 c 0.33,-1.05 0.66,-2.1 1,-3.14 l -24.31,-7.95 c -0.33,1.13 -0.73,2.27 -1.09,3.41 z"
           class="cls-1"
           inkscape:connector-curvature="0"
           style="fill:#00c5c2" />
        <path
           id="path1085"
           d="m 20.6,209 24,8.9 1.17,-3.09 -23.88,-9.17 q -0.67,1.69 -1.29,3.36 z"
           class="cls-1"
           inkscape:connector-curvature="0"
           style="fill:#00c5c2" />
        <path
           id="path1087"
           transform="rotate(-31.567673,319.4115,326.99997)"
           style="fill:#00c5c2"
           d="m 358.78516,1.2363281 -2.2168,25.4804689 c 1.07257,0.09389 2.14458,0.189925 3.20312,0.306641 0.0417,-3e-5 0.0833,2.5e-5 0.125,0 l 2.4961,-25.4492192 z" />
        <path
           id="path1089"
           d="m 26.73,193.68 23.5,10.1 q 0.65,-1.51 1.32,-3 L 28.17,190.39 c -0.49,1.1 -0.96,2.19 -1.44,3.29 z"
           class="cls-1"
           inkscape:connector-curvature="0"
           style="fill:#00c5c2" />
        <path
           id="path1091"
           d="m 33.64,178.68 23,11.27 c 0.49,-1 1,-2 1.48,-3 L 35.23,175.47 c -0.53,1.07 -1.07,2.14 -1.59,3.21 z"
           class="cls-1"
           inkscape:connector-curvature="0"
           style="fill:#00c5c2" />
        <path
           id="path1093"
           d="m 4,272.86 25.28,3.93 c 0.17,-1.09 0.34,-2.18 0.52,-3.27 L 4.54,269.31 c -0.2,1.18 -0.39,2.37 -0.54,3.55 z"
           class="cls-1"
           inkscape:connector-curvature="0"
           style="fill:#00c5c2" />
        <path
           id="path1095"
           d="m 10.68,240.49 24.75,6.45 c 0.28,-1.07 0.56,-2.14 0.85,-3.21 L 11.6,237 c -0.31,1.17 -0.6,2.33 -0.92,3.49 z"
           class="cls-1"
           inkscape:connector-curvature="0"
           style="fill:#00c5c2" />
        <path
           id="path1097"
           d="m 1.83,289.25 25.43,2.68 c 0.12,-1.1 0.24,-2.21 0.37,-3.3 L 2.22,285.68 Q 2,287.47 1.83,289.25 Z"
           class="cls-1"
           inkscape:connector-curvature="0"
           style="fill:#00c5c2" />
        <path
           id="path1099"
           d="m 6.91,256.59 25.09,5.2 c 0.22,-1.09 0.45,-2.17 0.69,-3.25 l -25,-5.46 z"
           class="cls-1"
           inkscape:connector-curvature="0"
           style="fill:#00c5c2" />
        <path
           id="path1101"
           d="m 0.17,335.18 c 0,1.2 0.09,2.4 0.14,3.59 l 25.55,-1.12 c -0.05,-1.1 -0.09,-2.2 -0.12,-3.31 z"
           class="cls-1"
           inkscape:connector-curvature="0"
           style="fill:#00c5c2" />
        <path
           id="path1103"
           d="m 32.27,466.42 23.06,-11.07 c -0.48,-1 -0.95,-2 -1.42,-3 l -23.18,10.8 c 0.51,1.1 1.02,2.19 1.54,3.27 z"
           class="cls-1"
           inkscape:connector-curvature="0"
           style="fill:#00c5c2" />
        <path
           id="path1105"
           d="m 87.88,548.17 18.76,-17.38 c -0.75,-0.81 -1.49,-1.63 -2.23,-2.45 l -19,17.18 z"
           class="cls-1"
           inkscape:connector-curvature="0"
           style="fill:#00c5c2" />
        <path
           id="path1107"
           d="m 39.8,481.16 22.47,-12.22 c -0.53,-1 -1.05,-1.94 -1.56,-2.92 L 38.1,478 c 0.56,1 1.13,2.1 1.7,3.16 z"
           class="cls-1"
           inkscape:connector-curvature="0"
           style="fill:#00c5c2" />
        <path
           id="path1109"
           d="m 99.41,560 17.88,-18.28 -2.36,-2.34 -18.07,18.1 z"
           class="cls-1"
           inkscape:connector-curvature="0"
           style="fill:#00c5c2" />
        <path
           id="path1111"
           d="m 25.49,451.32 23.59,-9.88 c -0.43,-1 -0.85,-2.05 -1.27,-3.07 L 24.12,448 c 0.45,1.1 0.88,2.21 1.37,3.32 z"
           class="cls-1"
           inkscape:connector-curvature="0"
           style="fill:#00c5c2" />
        <path
           id="path1113"
           d="M 66.65,522.83 87.06,507.4 c -0.67,-0.88 -1.33,-1.77 -2,-2.66 L 64.5,520 Z"
           class="cls-1"
           inkscape:connector-curvature="0"
           style="fill:#00c5c2" />
        <path
           id="path1115"
           d="m 48.05,495.49 21.84,-13.32 c -0.58,-0.94 -1.15,-1.89 -1.71,-2.84 l -22,13.07 c 0.63,1.04 1.25,2.06 1.87,3.09 z"
           class="cls-1"
           inkscape:connector-curvature="0"
           style="fill:#00c5c2" />
        <path
           id="path1117"
           d="M 94.44,516.78 74.66,533 c 0.76,0.93 1.52,1.85 2.29,2.77 l 19.61,-16.42 c -0.71,-0.86 -1.42,-1.71 -2.12,-2.57 z"
           class="cls-1"
           inkscape:connector-curvature="0"
           style="fill:#00c5c2" />
        <path
           id="path1119"
           d="M 57,509.39 78.16,495 c -0.62,-0.91 -1.24,-1.83 -1.85,-2.75 L 55,506.4 c 0.67,1 1.34,2 2,2.99 z"
           class="cls-1"
           inkscape:connector-curvature="0"
           style="fill:#00c5c2" />
        <path
           id="path1121"
           transform="rotate(-31.567673,319.4115,326.99997)"
           style="fill:#00c5c2"
           d="m 627.00977,217.59961 -21.875,8.85937 c 0.63955,1.48057 1.22078,2.94235 1.74414,4.38282 L 628.8457,222.25 c -0.59264,-1.53781 -1.18365,-3.07593 -1.83593,-4.65039 z" />
        <path
           id="path1123"
           transform="rotate(-31.567673,319.4115,326.99997)"
           style="fill:#00c5c2"
           d="m 618.08203,196.59961 -21.25976,10.1875 c 0.64889,1.40806 1.30642,2.82073 1.91015,4.2832 l 21.42188,-9.93554 c -0.6837,-1.52334 -1.3781,-3.02886 -2.07227,-4.53516 z" />
        <path
           id="path1125"
           d="m 574.46,155.51 18.3,-14.72 c -1,-1.32 -2,-2.64 -3.07,-3.95 l -18.11,15 c 0.97,1.16 1.93,2.43 2.88,3.67 z"
           class="cls-1"
           inkscape:connector-curvature="0"
           style="fill:#00c5c2" />
        <path
           id="path1127"
           d="M 560.81,138.84 578.19,123 c -1.09,-1.26 -2.2,-2.5 -3.31,-3.74 l -17.17,16.07 q 1.56,1.74 3.1,3.51 z"
           class="cls-1"
           inkscape:connector-curvature="0"
           style="fill:#00c5c2" />
        <path
           id="path1129"
           d="m 530.54,108.31 15.34,-17.89 c -1.24,-1.11 -2.49,-2.2 -3.75,-3.29 L 527,105.24 c 1.21,1.01 2.38,2.04 3.54,3.07 z"
           class="cls-1"
           inkscape:connector-curvature="0"
           style="fill:#00c5c2" />
        <path
           id="path1131"
           d="m 546.15,123.09 16.4,-16.91 -3.55,-3.52 -16.16,17.13 c 1.16,1.09 2.22,2.21 3.31,3.3 z"
           class="cls-1"
           inkscape:connector-curvature="0"
           style="fill:#00c5c2" />
        <path
           id="path1133"
           d="m 618.47,179 c -0.85,-1.45 -1.7,-2.88 -2.57,-4.32 l -19.75,12.59 q 1.22,2 2.4,4 z"
           class="cls-1"
           inkscape:connector-curvature="0"
           style="fill:#00c5c2" />
        <path
           id="path1135"
           d="m 629.51,199.29 c -0.76,-1.5 -1.52,-3 -2.3,-4.47 l -20.46,11.32 c 0.73,1.39 1.44,2.79 2.15,4.19 z"
           class="cls-1"
           inkscape:connector-curvature="0"
           style="fill:#00c5c2" />
        <path
           id="path1137"
           transform="rotate(-31.567673,319.4115,326.99997)"
           style="fill:#00c5c2"
           d="m 607.7793,176.13867 -20.63477,11.52149 c 0.75565,1.36802 1.48866,2.73478 2.2168,4.10937 l 20.78125,-11.24609 c -0.77451,-1.47742 -1.56216,-2.93794 -2.36328,-4.38477 z" />
        <path
           id="path1139"
           d="m 584.41,169.14 c 0.89,1.29 1.78,2.59 2.65,3.89 l 19.14,-13.55 c -0.93,-1.39 -1.87,-2.76 -2.82,-4.13 z"
           class="cls-1"
           inkscape:connector-curvature="0"
           style="fill:#00c5c2" />
        <g
           id="g1285"
           transform="matrix(0.52364823,1.0783992,-1.0726508,0.51006388,475.03355,-115.06771)"
           style="stroke-width:0.83804893">
          <path
             id="path1260-0"
             d="M 278.12,19.4 261.6,20 236.22,23.21 c -1.51,0.3 -3,0.66 -4.61,1 l -18.47,4.24 c -3.49,1 -7,2.21 -10.72,3.45 -2.08,0.7 -4.21,1.42 -6.43,2.13 a 265.57,265.57 0 0 0 -60.8,31 L 115.5,47.22 105.76,54 c -1.12,0.77 -2.31,1.59 -3.59,2.66 L 85.57,70.92 C 73.76,82 51.33,105.33 33.66,136.52 16.24,167.79 8,199.08 4.59,215.31 l -3.46,21.35 c -0.23,1.5 -0.3,2.94 -0.38,4.3 L 0,252.83 l 25.42,7.56 a 265.59,265.59 0 0 0 5.2,68.11 c 0.54,2.21 1,4.39 1.51,6.54 0.85,3.78 1.67,7.44 2.67,11 l 6,17.88 c 0.5,1.53 1,3 1.58,4.6 l 9.82,22.17 8.71,15.44 3.43,-1.93 L 56.22,389.81 46,367.09 c -0.5,-1.4 -1,-2.86 -1.48,-4.35 l -5.92,-17.8 c -1,-3.44 -1.76,-7.05 -2.6,-10.76 -0.49,-2.17 -1,-4.37 -1.5,-6.54 a 261.76,261.76 0 0 1 -5.16,-66.09 l 0.34,0.1 0.62,-10 c 0,-0.66 0.09,-1.34 0.13,-2 0.05,-0.9 0.09,-1.86 0.21,-2.73 L 34,226 c 5.39,-25.52 15.36,-52.49 27.32,-74 12.14,-21.44 30,-44 48.7,-61.61 l 16.24,-13.91 c 0.79,-0.65 1.59,-1.18 2.32,-1.7 0.58,-0.39 1.14,-0.77 1.52,-1 l 8.37,-5.85 -0.26,-0.23 a 261.08,261.08 0 0 1 59.07,-30 c 2.18,-0.7 4.31,-1.43 6.42,-2.14 3.61,-1.21 7.11,-2.4 10.44,-3.36 L 232.5,28 c 1.53,-0.36 3,-0.71 4.37,-1 l 23.67,-3.11 17.72,-0.6 z"
             class="cls-1"
             inkscape:connector-curvature="0"
             style="isolation:isolate;fill:#00c5c2;stroke-width:0.83804893" />
        </g>
      </g>
    </g>
  </g>
</svg>
