<svg xmlns="http://www.w3.org/2000/svg" viewBox="0 0 553.84 566.49"><defs><style>.cls-1{fill:#00c5c2;}</style></defs><title>Con_Training</title><g id="Layer_1" data-name="Layer 1"><path class="cls-1" d="M412.25,9.06a295.59,295.59,0,0,1,134.53,248H552A313.08,313.08,0,0,1,410.69,519.18a.93.93,0,0,0,.51,1.71h.14l.79-.13,0-.26A315,315,0,0,0,553.84,257.1h-.25A302.36,302.36,0,0,0,416,3.36Z"/><path class="cls-1" d="M35,433.61c-.56-.78-1.11-1.56-1.65-2.35L15.14,443.89c.59.85,1.19,1.7,1.79,2.54Z"/><path class="cls-1" d="M134.54,518,132,516.73l-9.89,19.78c.92.47,1.85.92,2.78,1.38Z"/><path class="cls-1" d="M27.57,422.67c-.52-.81-1-1.62-1.54-2.43L7.27,431.94c.54.88,1.1,1.76,1.66,2.63Z"/><path class="cls-1" d="M60.23,464q-1-1-2-2.07L42.18,477.15c.71.76,1.43,1.51,2.15,2.25Z"/><path class="cls-1" d="M79.48,482.07l-2.17-1.87L62.82,496.92c.79.68,1.57,1.35,2.37,2Z"/><path class="cls-1" d="M100.43,498.09l-2.36-1.64L85.33,514.53c.84.6,1.69,1.19,2.55,1.78Z"/><path class="cls-1" d="M111.46,505.3,109,503.78,97.21,522.47l2.64,1.65Z"/><path class="cls-1" d="M69.63,473.29l-2.08-2-15.3,16,2.26,2.14Z"/><path class="cls-1" d="M42.87,444.17c-.6-.75-1.18-1.51-1.77-2.27L23.6,455.43c.63.82,1.27,1.63,1.91,2.44Z"/><path class="cls-1" d="M51.3,454.32l-1.88-2.17-16.8,14.37c.67.79,1.35,1.58,2,2.36Z"/><path class="cls-1" d="M89.76,490.34c-.76-.58-1.52-1.16-2.27-1.75L73.86,506c.81.64,1.63,1.27,2.45,1.9Z"/><path class="cls-1" d="M122.85,511.94c-.84-.46-1.67-.93-2.5-1.4L109.47,529.8c.9.51,1.81,1,2.71,1.51Z"/><path class="cls-1" d="M249.12,566.49l0-22.12-2.87,0L246,566.47Z"/><path class="cls-1" d="M302.93,561.49l3.06-.59-4.35-21.69c-.94.19-1.88.38-2.83.55Z"/><path class="cls-1" d="M260.3,566.29l3.11-.13-1.07-22.1-2.86.13Z"/><path class="cls-1" d="M316.94,558.47c1-.24,2-.49,3-.75l-5.44-21.43-2.8.69Z"/><path class="cls-1" d="M288.79,563.81l3.09-.45-3.25-21.87-2.86.41Z"/><path class="cls-1" d="M357.77,545.23c1-.39,1.92-.79,2.87-1.2L352,523.67l-2.65,1.1Z"/><path class="cls-1" d="M344.39,550.33c1-.34,2-.69,2.93-1.05l-7.58-20.78-2.71,1Z"/><path class="cls-1" d="M324.48,533.55l6.28,21.2c1-.29,2-.6,3-.9l-6.52-21.14Z"/><path class="cls-1" d="M178.39,557.55l5.5-21.42-2.76-.73-5.73,21.36Z"/><path class="cls-1" d="M164.66,553.65l6.57-21.12-2.72-.86-6.8,21.05Z"/><path class="cls-1" d="M1.53,422.32l19.21-11-1.41-2.49L0,419.61C.5,420.52,1,421.42,1.53,422.32Z"/><path class="cls-1" d="M151.14,549.07l7.63-20.76-2.68-1L148.24,548Z"/><path class="cls-1" d="M137.87,543.81l8.66-20.35c-.88-.38-1.75-.75-2.62-1.14L135,542.58Z"/><path class="cls-1" d="M220.58,565l2.21-22c-.95-.09-1.9-.2-2.84-.3l-2.46,22Z"/><path class="cls-1" d="M192.31,560.75l4.41-21.67-2.8-.59-4.65,21.62Z"/><path class="cls-1" d="M234.83,566.12,236,544l-2.87-.16-1.36,22.07C232.76,566,233.8,566.06,234.83,566.12Z"/><path class="cls-1" d="M206.39,563.25l3.32-21.87-2.83-.44-3.56,21.83Z"/><path class="cls-1" d="M274.57,565.4l3.1-.28-2.16-22-2.86.26Z"/><path class="cls-1" d="M386.4,531.56l-10.63-19.39-2.52,1.36,10.41,19.52C384.58,532.56,385.49,532.06,386.4,531.56Z"/><path class="cls-1" d="M454.4,479.73l-15.89-15.39c-.66.69-1.33,1.37-2,2.05L452.22,482Z"/><path class="cls-1" d="M398.77,524.38l-11.59-18.84L384.73,507l11.38,19Z"/><path class="cls-1" d="M464.08,469.22l-16.62-14.59c-.63.72-1.27,1.44-1.91,2.15L462,471.55Z"/><path class="cls-1" d="M373.68,538.13,364,518.22c-.86.41-1.72.83-2.59,1.23l9.42,20Z"/><path class="cls-1" d="M433.5,499.24l-14.27-16.89-2.2,1.84,14.09,17.05C431.92,500.58,432.71,499.91,433.5,499.24Z"/><path class="cls-1" d="M410.76,516.58l-12.51-18.23L395.87,500l12.32,18.37C409.05,517.75,409.91,517.17,410.76,516.58Z"/><path class="cls-1" d="M427,475.53l14.92,16.33,2.28-2.11-15.1-16.17C428.4,474.24,427.69,474.88,427,475.53Z"/><path class="cls-1" d="M422.35,508.2l-13.41-17.59-2.29,1.72,13.22,17.74Z"/><path class="cls-1" d="M323.27,30.82l5.55-16.15c-1.16-.4-2.32-.79-3.49-1.17L320,29.72C321.09,30.08,322.18,30.44,323.27,30.82Z"/><path class="cls-1" d="M308.14,26.14l4.53-16.46c-1.19-.33-2.37-.65-3.56-1l-4.3,16.53Z"/><path class="cls-1" d="M380,58.67l9.38-14.27c-1-.67-2.05-1.34-3.09-2l-9.18,14.4Z"/><path class="cls-1" d="M366.48,50.39,375,35.56l-3.2-1.8L363.48,48.7Z"/><path class="cls-1" d="M338.07,36.43l6.56-15.76c-1.13-.48-2.27-.94-3.41-1.39l-6.34,15.85Z"/><path class="cls-1" d="M352.5,43,360,27.64,356.71,26l-7.32,15.43C350.43,42,351.46,42.46,352.5,43Z"/><path class="cls-1" d="M416.38,64.68q-1.41-1.2-2.82-2.37l-10.9,13.15,2.63,2.21Z"/><path class="cls-1" d="M428.89,76c-.89-.85-1.77-1.7-2.67-2.54L414.53,85.94q1.26,1.17,2.49,2.37Z"/><path class="cls-1" d="M292.75,22.43l3.48-16.72c-1.2-.25-2.4-.5-3.61-.73l-3.26,16.76Z"/><path class="cls-1" d="M390.16,65.73l2.77,2,10.25-13.66c-1-.74-2-1.46-2.95-2.18Z"/><path class="cls-1" d="M132.56,41.15A251.87,251.87,0,0,1,240.64,17.08a258.13,258.13,0,0,1,35.53,2.46l2.36-16.91A273.38,273.38,0,0,0,240.64,0,268.73,268.73,0,0,0,125.29,25.7Z"/><path class="cls-1" d="M441,455.21A268.8,268.8,0,0,0,418.52,55l-2,2.45a265.66,265.66,0,1,1-373,373.73l-2.45,2A268.8,268.8,0,0,0,441,455.21Z"/></g></svg>