<svg xmlns="http://www.w3.org/2000/svg" viewBox="0 0 309.63 206.77"><defs><style>.cls-1{fill:#00c5c2;}</style></defs><title>Con_Training</title><g id="Layer_1" data-name="Layer 1"><path class="cls-1" d="M27.2,174.28c9.19,0,21.12-1.8,36.13-5.38,23.57-5.62,57.77-17.32,87.9-29.66-2.36-1-6.9-3-12-5.26-20.9,8-56,18.21-73.35,22-32.63,7.1-50.18,3.56-51.45,3.26,1.59-2.91,19.7-19.76,37.84-29.69-2.38-5.49-2.35-11.74-3-17.81-29.57,20.42-53.88,42.14-48.62,54C3.81,172.7,14.51,174.28,27.2,174.28Z"/><path class="cls-1" d="M161.41,125.41c7.58,3,4.11,2,11.49,4.62,31.16-14.69,71.95-36.59,92.94-51C296.14,58.28,314,39.54,308.7,27.54c-3.09-6.95-17.29-6.27-30-6.27-9.19,0-22,1.77-37,5.35-2.2.52-3.41,1.07-5.69,1.66,2.92,3,7.76,12.93,8.27,13.73,38.65-9.53,47.83-6.25,49.09-5.95-1.88,3.43-5.31,15.25-35,36.91C236,89.31,195,110.38,161.41,125.41Z"/><path class="cls-1" d="M268.76,114.08a97.81,97.81,0,0,0-9.94-5.21c.07,5.54.2,9.5-1.78,16.89,21.26,13.87,30.41,24.37,32.23,27.5-1.43.38-14.95,4.87-44.74-.67-27.82-5.17-67-17.18-101.77-31.61S78,88.82,54.09,73.7C25.57,55.65,21.58,42.24,21.58,42.24a44.57,44.57,0,0,1,8.29-.86c5.37,0,20.77,1.5,33.19,4,.58-1.08,5.9-12.15,9.44-15.49-.4-.08-24.85-6.24-42.85-5.55-13.8.52-22.88,2.93-25.93,10.29-5,12.12,7.6,27.15,38.4,47.17,25.3,16.45,60.47,34.33,99,50.32s76.08,28.28,105.6,34.56c14.11,3,25.49,4.52,34.42,4.52,13.81,0,21.75-3.63,24.8-11C311,148.07,299.55,134.11,268.76,114.08Z"/><path class="cls-1" d="M133.51,2q0,.42-.69.42T132.13,2V.42q0-.42.69-.42t.69.42ZM133.19.48c0-.15-.12-.22-.37-.22s-.37.07-.37.22V1.89c0,.15.12.23.37.23s.37-.08.37-.23Z"/><path class="cls-1" d="M138.39,2q0,.42-.69.42T137,2V.42q0-.42.69-.42t.69.42ZM138.07.48c0-.15-.12-.22-.37-.22s-.37.07-.37.22V1.89c0,.15.12.23.37.23s.37-.08.37-.23Z"/><path class="cls-1" d="M142.6,0h.33V2.34h-.33V.48h-.37V.22C142.48.22,142.6.16,142.6,0Z"/><path class="cls-1" d="M147.48,0h.32V2.34h-.32V.48h-.37V.22C147.36.22,147.48.16,147.48,0Z"/><path class="cls-1" d="M152.36,0h.32V2.34h-.32V.48H152V.22C152.24.22,152.36.16,152.36,0Z"/><path class="cls-1" d="M157.91,2q0,.42-.69.42c-.47,0-.7-.14-.7-.42V.42c0-.28.23-.42.7-.42s.69.14.69.42ZM157.59.48c0-.15-.13-.22-.37-.22s-.38.07-.38.22V1.89c0,.15.13.23.38.23s.37-.08.37-.23Z"/><path class="cls-1" d="M162.12,0h.32V2.34h-.32V.48h-.37V.22C162,.22,162.12.16,162.12,0Z"/><path class="cls-1" d="M167.67,2c0,.28-.23.42-.7.42s-.69-.14-.69-.42V.42q0-.42.69-.42c.47,0,.7.14.7.42ZM167.35.48c0-.15-.13-.22-.38-.22s-.37.07-.37.22V1.89c0,.15.13.23.37.23s.38-.08.38-.23Z"/><path class="cls-1" d="M171.88,0h.32V2.34h-.32V.48h-.37V.22C171.75.22,171.88.16,171.88,0Z"/><path class="cls-1" d="M177.42,2q0,.42-.69.42T176,2V.42q0-.42.69-.42t.69.42ZM177.1.48c0-.15-.12-.22-.37-.22s-.37.07-.37.22V1.89c0,.15.12.23.37.23s.37-.08.37-.23Z"/><path class="cls-1" d="M106,9.53h.43v3.08H106V10.13h-.49V9.79C105.86,9.79,106,9.7,106,9.53Z"/><path class="cls-1" d="M113.42,12.1c0,.37-.31.56-.93.56s-.92-.19-.92-.56v-2c0-.37.31-.56.92-.56s.93.19.93.56Zm-.43-2c0-.2-.17-.3-.5-.3s-.49.1-.49.3V12c0,.19.16.29.49.29s.5-.1.5-.29Z"/><path class="cls-1" d="M119,9.53h.43v3.08H119V10.13h-.49V9.79C118.87,9.79,119,9.7,119,9.53Z"/><path class="cls-1" d="M126.43,12.1c0,.37-.31.56-.93.56s-.92-.19-.92-.56v-2c0-.37.31-.56.92-.56s.93.19.93.56Zm-.43-2c0-.2-.17-.3-.5-.3s-.49.1-.49.3V12c0,.19.16.29.49.29s.5-.1.5-.29Z"/><path class="cls-1" d="M132,9.53h.43v3.08H132V10.13h-.49V9.79C131.88,9.79,132,9.7,132,9.53Z"/><path class="cls-1" d="M138.55,9.53H139v3.08h-.43V10.13h-.5V9.79C138.38,9.79,138.55,9.7,138.55,9.53Z"/><path class="cls-1" d="M145.94,12.1c0,.37-.3.56-.92.56s-.93-.19-.93-.56v-2c0-.37.31-.56.93-.56s.92.19.92.56Zm-.42-2c0-.2-.17-.3-.5-.3s-.5.1-.5.3V12c0,.19.17.29.5.29s.5-.1.5-.29Z"/><path class="cls-1" d="M151.56,9.53H152v3.08h-.43V10.13h-.5V9.79C151.39,9.79,151.56,9.7,151.56,9.53Z"/><path class="cls-1" d="M159,12.1c0,.37-.3.56-.92.56s-.92-.19-.92-.56v-2c0-.37.3-.56.92-.56s.92.19.92.56Zm-.42-2c0-.2-.17-.3-.5-.3s-.5.1-.5.3V12c0,.19.17.29.5.29s.5-.1.5-.29Z"/><path class="cls-1" d="M165.46,12.1c0,.37-.31.56-.93.56s-.92-.19-.92-.56v-2c0-.37.31-.56.92-.56s.93.19.93.56Zm-.43-2c0-.2-.16-.3-.5-.3s-.49.1-.49.3V12c0,.19.16.29.49.29s.5-.1.5-.29Z"/><path class="cls-1" d="M171.07,9.53h.43v3.08h-.43V10.13h-.49V9.79C170.91,9.79,171.07,9.7,171.07,9.53Z"/><path class="cls-1" d="M178.47,12.1c0,.37-.31.56-.93.56s-.92-.19-.92-.56v-2c0-.37.31-.56.92-.56s.93.19.93.56Zm-.43-2c0-.2-.16-.3-.5-.3s-.49.1-.49.3V12c0,.19.16.29.49.29s.5-.1.5-.29Z"/><path class="cls-1" d="M185,12.1c0,.37-.3.56-.92.56s-.92-.19-.92-.56v-2c0-.37.3-.56.92-.56s.92.19.92.56Zm-.42-2c0-.2-.17-.3-.5-.3s-.5.1-.5.3V12c0,.19.17.29.5.29s.5-.1.5-.29Z"/><path class="cls-1" d="M191.48,12.1c0,.37-.31.56-.92.56s-.93-.19-.93-.56v-2c0-.37.31-.56.93-.56s.92.19.92.56Zm-.43-2c0-.2-.16-.3-.49-.3s-.5.1-.5.3V12c0,.19.16.29.5.29s.49-.1.49-.29Z"/><path class="cls-1" d="M197.09,9.53h.43v3.08h-.43V10.13h-.49V9.79C196.93,9.79,197.09,9.7,197.09,9.53Z"/><path class="cls-1" d="M204.49,12.1c0,.37-.31.56-.92.56s-.93-.19-.93-.56v-2c0-.37.31-.56.93-.56s.92.19.92.56Zm-.43-2c0-.2-.16-.3-.49-.3s-.5.1-.5.3V12c0,.19.16.29.5.29s.49-.1.49-.29Z"/><path class="cls-1" d="M89.77,22.12h.53V26h-.53V22.86h-.62v-.42C89.56,22.44,89.77,22.33,89.77,22.12Z"/><path class="cls-1" d="M99,25.32c0,.47-.38.7-1.15.7s-1.16-.23-1.16-.7V22.76c0-.47.39-.7,1.16-.7s1.15.23,1.15.7Zm-.53-2.46c0-.25-.21-.37-.62-.37s-.62.12-.62.37v2.36c0,.25.2.37.62.37s.62-.12.62-.37Z"/><path class="cls-1" d="M107.14,25.32c0,.47-.38.7-1.15.7s-1.16-.23-1.16-.7V22.76c0-.47.39-.7,1.16-.7s1.15.23,1.15.7Zm-.53-2.46c0-.25-.21-.37-.62-.37s-.62.12-.62.37v2.36c0,.25.2.37.62.37s.62-.12.62-.37Z"/><path class="cls-1" d="M115.28,25.32c0,.47-.39.7-1.16.7s-1.16-.23-1.16-.7V22.76c0-.47.39-.7,1.16-.7s1.16.23,1.16.7Zm-.54-2.46c0-.25-.21-.37-.62-.37s-.62.12-.62.37v2.36c0,.25.21.37.62.37s.62-.12.62-.37Z"/><path class="cls-1" d="M122.29,22.12h.54V26h-.54V22.86h-.62v-.42C122.09,22.44,122.29,22.33,122.29,22.12Z"/><path class="cls-1" d="M131.54,25.32c0,.47-.39.7-1.16.7s-1.15-.23-1.15-.7V22.76c0-.47.38-.7,1.15-.7s1.16.23,1.16.7ZM131,22.86c0-.25-.2-.37-.62-.37s-.62.12-.62.37v2.36c0,.25.21.37.62.37s.62-.12.62-.37Z"/><path class="cls-1" d="M138.56,22.12h.53V26h-.53V22.86h-.62v-.42C138.35,22.44,138.56,22.33,138.56,22.12Z"/><path class="cls-1" d="M147.8,25.32c0,.47-.38.7-1.16.7s-1.15-.23-1.15-.7V22.76c0-.47.38-.7,1.15-.7s1.16.23,1.16.7Zm-.53-2.46c0-.25-.21-.37-.63-.37s-.62.12-.62.37v2.36c0,.25.21.37.62.37s.63-.12.63-.37Z"/><path class="cls-1" d="M155.93,25.32c0,.47-.38.7-1.15.7s-1.16-.23-1.16-.7V22.76c0-.47.39-.7,1.16-.7s1.15.23,1.15.7Zm-.53-2.46c0-.25-.21-.37-.62-.37s-.62.12-.62.37v2.36c0,.25.2.37.62.37s.62-.12.62-.37Z"/><path class="cls-1" d="M163,22.12h.54V26H163V22.86h-.62v-.42C162.74,22.44,163,22.33,163,22.12Z"/><path class="cls-1" d="M172.19,25.32c0,.47-.38.7-1.15.7s-1.16-.23-1.16-.7V22.76c0-.47.39-.7,1.16-.7s1.15.23,1.15.7Zm-.53-2.46c0-.25-.21-.37-.62-.37s-.62.12-.62.37v2.36c0,.25.2.37.62.37s.62-.12.62-.37Z"/><path class="cls-1" d="M180.33,25.32c0,.47-.39.7-1.16.7s-1.16-.23-1.16-.7V22.76c0-.47.39-.7,1.16-.7s1.16.23,1.16.7Zm-.54-2.46c0-.25-.21-.37-.62-.37s-.62.12-.62.37v2.36c0,.25.21.37.62.37s.62-.12.62-.37Z"/><path class="cls-1" d="M188.46,25.32c0,.47-.39.7-1.16.7s-1.15-.23-1.15-.7V22.76c0-.47.38-.7,1.15-.7s1.16.23,1.16.7Zm-.54-2.46c0-.25-.21-.37-.62-.37s-.62.12-.62.37v2.36c0,.25.21.37.62.37s.62-.12.62-.37Z"/><path class="cls-1" d="M195.47,22.12H196V26h-.54V22.86h-.62v-.42C195.27,22.44,195.47,22.33,195.47,22.12Z"/><path class="cls-1" d="M204.72,25.32c0,.47-.39.7-1.16.7s-1.15-.23-1.15-.7V22.76c0-.47.38-.7,1.15-.7s1.16.23,1.16.7Zm-.54-2.46c0-.25-.2-.37-.62-.37s-.62.12-.62.37v2.36c0,.25.21.37.62.37s.62-.12.62-.37Z"/><path class="cls-1" d="M211.74,22.12h.53V26h-.53V22.86h-.62v-.42C211.53,22.44,211.74,22.33,211.74,22.12Z"/><path class="cls-1" d="M221,25.32c0,.47-.38.7-1.15.7s-1.16-.23-1.16-.7V22.76c0-.47.39-.7,1.16-.7s1.15.23,1.15.7Zm-.53-2.46c0-.25-.21-.37-.62-.37s-.62.12-.62.37v2.36c0,.25.2.37.62.37s.62-.12.62-.37Z"/><path class="cls-1" d="M76.77,34.7h.64v4.62h-.64V35.6H76v-.52C76.52,35.08,76.77,35,76.77,34.7Z"/><path class="cls-1" d="M87.86,38.55c0,.56-.46.83-1.39.83s-1.38-.27-1.38-.83V35.47q0-.84,1.38-.84c.93,0,1.39.28,1.39.84Zm-.64-2.95q0-.45-.75-.45c-.49,0-.74.15-.74.45v2.82c0,.3.25.45.74.45s.75-.15.75-.45Z"/><path class="cls-1" d="M96.28,34.7h.64v4.62h-.64V35.6h-.74v-.52C96,35.08,96.28,35,96.28,34.7Z"/><path class="cls-1" d="M107.38,38.55c0,.56-.47.83-1.39.83s-1.39-.27-1.39-.83V35.47c0-.56.46-.84,1.39-.84s1.39.28,1.39.84Zm-.65-2.95c0-.3-.24-.45-.74-.45s-.75.15-.75.45v2.82q0,.45.75.45c.5,0,.74-.15.74-.45Z"/><path class="cls-1" d="M117.13,38.55c0,.56-.46.83-1.38.83s-1.39-.27-1.39-.83V35.47c0-.56.46-.84,1.39-.84s1.38.28,1.38.84Zm-.64-2.95c0-.3-.25-.45-.74-.45s-.75.15-.75.45v2.82q0,.45.75.45c.49,0,.74-.15.74-.45Z"/><path class="cls-1" d="M125.56,34.7h.64v4.62h-.64V35.6h-.75v-.52C125.31,35.08,125.56,35,125.56,34.7Z"/><path class="cls-1" d="M136.65,38.55c0,.56-.46.83-1.39.83s-1.39-.27-1.39-.83V35.47c0-.56.47-.84,1.39-.84s1.39.28,1.39.84ZM136,35.6q0-.45-.75-.45c-.5,0-.74.15-.74.45v2.82c0,.3.24.45.74.45s.75-.15.75-.45Z"/><path class="cls-1" d="M146.41,38.55c0,.56-.47.83-1.39.83s-1.39-.27-1.39-.83V35.47c0-.56.46-.84,1.39-.84s1.39.28,1.39.84Zm-.65-2.95c0-.3-.24-.45-.74-.45s-.75.15-.75.45v2.82q0,.45.75.45c.5,0,.74-.15.74-.45Z"/><path class="cls-1" d="M156.16,38.55c0,.56-.46.83-1.38.83s-1.39-.27-1.39-.83V35.47c0-.56.46-.84,1.39-.84s1.38.28,1.38.84Zm-.64-2.95c0-.3-.25-.45-.74-.45s-.75.15-.75.45v2.82q0,.45.75.45c.49,0,.74-.15.74-.45Z"/><path class="cls-1" d="M164.59,34.7h.64v4.62h-.64V35.6h-.75v-.52C164.34,35.08,164.59,35,164.59,34.7Z"/><path class="cls-1" d="M175.68,38.55c0,.56-.46.83-1.39.83s-1.39-.27-1.39-.83V35.47c0-.56.47-.84,1.39-.84s1.39.28,1.39.84ZM175,35.6q0-.45-.75-.45c-.49,0-.74.15-.74.45v2.82c0,.3.25.45.74.45s.75-.15.75-.45Z"/><path class="cls-1" d="M184.1,34.7h.64v4.62h-.64V35.6h-.74v-.52C183.85,35.08,184.1,35,184.1,34.7Z"/><path class="cls-1" d="M195.19,38.55c0,.56-.46.83-1.38.83s-1.39-.27-1.39-.83V35.47c0-.56.46-.84,1.39-.84s1.38.28,1.38.84Zm-.64-2.95c0-.3-.25-.45-.74-.45s-.75.15-.75.45v2.82q0,.45.75.45c.49,0,.74-.15.74-.45Z"/><path class="cls-1" d="M205,38.55c0,.56-.46.83-1.39.83s-1.38-.27-1.38-.83V35.47q0-.84,1.38-.84c.93,0,1.39.28,1.39.84Zm-.64-2.95q0-.45-.75-.45c-.49,0-.74.15-.74.45v2.82c0,.3.25.45.74.45s.75-.15.75-.45Z"/><path class="cls-1" d="M214.71,38.55c0,.56-.46.83-1.39.83s-1.38-.27-1.38-.83V35.47q0-.84,1.38-.84c.93,0,1.39.28,1.39.84Zm-.64-2.95q0-.45-.75-.45c-.49,0-.74.15-.74.45v2.82c0,.3.25.45.74.45s.75-.15.75-.45Z"/><path class="cls-1" d="M223.13,34.7h.64v4.62h-.64V35.6h-.74v-.52C222.88,35.08,223.13,35,223.13,34.7Z"/><path class="cls-1" d="M234.22,38.55c0,.56-.46.83-1.38.83s-1.39-.27-1.39-.83V35.47c0-.56.46-.84,1.39-.84s1.38.28,1.38.84Zm-.64-2.95c0-.3-.25-.45-.74-.45s-.75.15-.75.45v2.82q0,.45.75.45c.49,0,.74-.15.74-.45Z"/><path class="cls-1" d="M71,51.77c0,.65-.54,1-1.62,1s-1.62-.33-1.62-1V48.18c0-.65.54-1,1.62-1s1.62.33,1.62,1Zm-.75-3.44c0-.35-.29-.53-.87-.53s-.87.18-.87.53v3.29c0,.35.29.53.87.53s.87-.18.87-.53Z"/><path class="cls-1" d="M80.84,47.28h.75v5.39h-.75V48.33H80v-.6Q80.84,47.73,80.84,47.28Z"/><path class="cls-1" d="M93.78,51.77c0,.65-.54,1-1.61,1s-1.62-.33-1.62-1V48.18c0-.65.54-1,1.62-1s1.61.33,1.61,1ZM93,48.33c0-.35-.29-.53-.86-.53s-.87.18-.87.53v3.29c0,.35.29.53.87.53S93,52,93,51.62Z"/><path class="cls-1" d="M103.61,47.28h.75v5.39h-.75V48.33h-.87v-.6Q103.61,47.73,103.61,47.28Z"/><path class="cls-1" d="M115,47.28h.75v5.39H115V48.33h-.87v-.6Q115,47.73,115,47.28Z"/><path class="cls-1" d="M127.93,51.77c0,.65-.54,1-1.61,1s-1.62-.33-1.62-1V48.18c0-.65.54-1,1.62-1s1.61.33,1.61,1Zm-.75-3.44c0-.35-.28-.53-.86-.53s-.87.18-.87.53v3.29c0,.35.29.53.87.53s.86-.18.86-.53Z"/><path class="cls-1" d="M139.32,51.77c0,.65-.54,1-1.62,1s-1.62-.33-1.62-1V48.18c0-.65.54-1,1.62-1s1.62.33,1.62,1Zm-.75-3.44c0-.35-.29-.53-.87-.53s-.87.18-.87.53v3.29c0,.35.29.53.87.53s.87-.18.87-.53Z"/><path class="cls-1" d="M149.14,47.28h.75v5.39h-.75V48.33h-.87v-.6Q149.14,47.73,149.14,47.28Z"/><path class="cls-1" d="M160.53,47.28h.75v5.39h-.75V48.33h-.87v-.6Q160.53,47.73,160.53,47.28Z"/><path class="cls-1" d="M173.47,51.77c0,.65-.54,1-1.62,1s-1.62-.33-1.62-1V48.18c0-.65.54-1,1.62-1s1.62.33,1.62,1Zm-.75-3.44c0-.35-.29-.53-.87-.53s-.87.18-.87.53v3.29c0,.35.29.53.87.53s.87-.18.87-.53Z"/><path class="cls-1" d="M184.85,51.77c0,.65-.54,1-1.62,1s-1.61-.33-1.61-1V48.18c0-.65.54-1,1.61-1s1.62.33,1.62,1Zm-.75-3.44c0-.35-.29-.53-.87-.53s-.86.18-.86.53v3.29c0,.35.29.53.86.53s.87-.18.87-.53Z"/><path class="cls-1" d="M194.68,47.28h.75v5.39h-.75V48.33h-.87v-.6Q194.68,47.73,194.68,47.28Z"/><path class="cls-1" d="M206.06,47.28h.75v5.39h-.75V48.33h-.87v-.6Q206.06,47.73,206.06,47.28Z"/><path class="cls-1" d="M217.45,47.28h.74v5.39h-.74V48.33h-.87v-.6Q217.45,47.73,217.45,47.28Z"/><path class="cls-1" d="M230.39,51.77c0,.65-.54,1-1.62,1s-1.62-.33-1.62-1V48.18c0-.65.54-1,1.62-1s1.62.33,1.62,1Zm-.75-3.44c0-.35-.29-.53-.87-.53s-.87.18-.87.53v3.29c0,.35.29.53.87.53s.87-.18.87-.53Z"/><path class="cls-1" d="M240.21,47.28H241v5.39h-.75V48.33h-.87v-.6Q240.21,47.73,240.21,47.28Z"/><path class="cls-1" d="M65.55,65c0,.74-.61,1.11-1.84,1.11s-1.85-.37-1.85-1.11V60.89c0-.74.61-1.11,1.85-1.11s1.84.37,1.84,1.11Zm-.85-3.94q0-.6-1-.6c-.67,0-1,.2-1,.6v3.77c0,.4.33.59,1,.59s1-.19,1-.59Z"/><path class="cls-1" d="M78.56,65c0,.74-.61,1.11-1.84,1.11s-1.85-.37-1.85-1.11V60.89c0-.74.61-1.11,1.85-1.11s1.84.37,1.84,1.11Zm-.85-3.94q0-.6-1-.6c-.67,0-1,.2-1,.6v3.77c0,.4.33.59,1,.59s1-.19,1-.59Z"/><path class="cls-1" d="M89.79,59.86h.86V66h-.86v-5h-1v-.69Q89.79,60.37,89.79,59.86Z"/><path class="cls-1" d="M104.58,65c0,.74-.61,1.11-1.84,1.11s-1.85-.37-1.85-1.11V60.89c0-.74.61-1.11,1.85-1.11s1.84.37,1.84,1.11Zm-.85-3.94q0-.6-1-.6c-.67,0-1,.2-1,.6v3.77c0,.4.33.59,1,.59s1-.19,1-.59Z"/><path class="cls-1" d="M115.81,59.86h.86V66h-.86v-5h-1v-.69Q115.81,60.37,115.81,59.86Z"/><path class="cls-1" d="M130.6,65c0,.74-.61,1.11-1.84,1.11s-1.85-.37-1.85-1.11V60.89c0-.74.61-1.11,1.85-1.11s1.84.37,1.84,1.11Zm-.85-3.94q0-.6-1-.6c-.67,0-1,.2-1,.6v3.77c0,.4.33.59,1,.59s1-.19,1-.59Z"/><path class="cls-1" d="M143.61,65c0,.74-.61,1.11-1.84,1.11s-1.85-.37-1.85-1.11V60.89c0-.74.61-1.11,1.85-1.11s1.84.37,1.84,1.11Zm-.85-3.94q0-.6-1-.6c-.67,0-1,.2-1,.6v3.77c0,.4.33.59,1,.59s1-.19,1-.59Z"/><path class="cls-1" d="M154.84,59.86h.86V66h-.86v-5h-1v-.69Q154.84,60.37,154.84,59.86Z"/><path class="cls-1" d="M169.64,65c0,.74-.62,1.11-1.85,1.11s-1.85-.37-1.85-1.11V60.89c0-.74.61-1.11,1.85-1.11s1.85.37,1.85,1.11Zm-.86-3.94q0-.6-1-.6c-.67,0-1,.2-1,.6v3.77c0,.4.33.59,1,.59s1-.19,1-.59Z"/><path class="cls-1" d="M182.65,65c0,.74-.62,1.11-1.85,1.11S179,65.74,179,65V60.89c0-.74.61-1.11,1.85-1.11s1.85.37,1.85,1.11Zm-.86-3.94q0-.6-1-.6c-.67,0-1,.2-1,.6v3.77c0,.4.33.59,1,.59s1-.19,1-.59Z"/><path class="cls-1" d="M195.66,65c0,.74-.62,1.11-1.85,1.11S192,65.74,192,65V60.89c0-.74.61-1.11,1.85-1.11s1.85.37,1.85,1.11Zm-.86-3.94q0-.6-1-.6c-.67,0-1,.2-1,.6v3.77c0,.4.33.59,1,.59s1-.19,1-.59Z"/><path class="cls-1" d="M206.88,59.86h.86V66h-.86v-5h-1v-.69Q206.88,60.37,206.88,59.86Z"/><path class="cls-1" d="M221.68,65c0,.74-.62,1.11-1.85,1.11S218,65.74,218,65V60.89c0-.74.61-1.11,1.85-1.11s1.85.37,1.85,1.11Zm-.86-3.94q0-.6-1-.6c-.67,0-1,.2-1,.6v3.77c0,.4.33.59,1,.59s1-.19,1-.59Z"/><path class="cls-1" d="M232.9,59.86h.86V66h-.86v-5h-1v-.69Q232.9,60.37,232.9,59.86Z"/><path class="cls-1" d="M247.7,65c0,.74-.62,1.11-1.85,1.11S244,65.74,244,65V60.89c0-.74.61-1.11,1.85-1.11s1.85.37,1.85,1.11Zm-.86-3.94q0-.6-1-.6c-.67,0-1,.2-1,.6v3.77c0,.4.33.59,1,.59s1-.19,1-.59Z"/><path class="cls-1" d="M59.72,72.44h1v6.94h-1V73.79H58.6V73C59.34,73,59.72,72.83,59.72,72.44Z"/><path class="cls-1" d="M74.35,72.44h1v6.94h-1V73.79H73.24V73C74,73,74.35,72.83,74.35,72.44Z"/><path class="cls-1" d="M91,78.22c0,.84-.69,1.25-2.08,1.25s-2.08-.41-2.08-1.25V73.6c0-.84.7-1.25,2.08-1.25S91,72.76,91,73.6Zm-1-4.43c0-.45-.37-.67-1.12-.67s-1.11.22-1.11.67V78c0,.45.37.67,1.11.67S90,78.48,90,78Z"/><path class="cls-1" d="M222.72,78.22c0,.84-.69,1.25-2.08,1.25s-2.08-.41-2.08-1.25V73.6c0-.84.69-1.25,2.08-1.25s2.08.41,2.08,1.25Zm-1-4.43c0-.45-.38-.67-1.12-.67s-1.12.22-1.12.67V78c0,.45.38.67,1.12.67s1.12-.22,1.12-.67Z"/><path class="cls-1" d="M235.35,72.44h1v6.94h-1V73.79h-1.11V73C235,73,235.35,72.83,235.35,72.44Z"/><path class="cls-1" d="M250,72.44h1v6.94h-1V73.79h-1.12V73C249.62,73,250,72.83,250,72.44Z"/><path class="cls-1" d="M59.51,91.45c0,.92-.77,1.39-2.31,1.39s-2.31-.47-2.31-1.39V86.31c0-.93.77-1.39,2.31-1.39s2.31.46,2.31,1.39Zm-1.07-4.93c0-.5-.41-.75-1.24-.75S56,86,56,86.52v4.71c0,.5.41.75,1.24.75s1.24-.25,1.24-.75Z"/><path class="cls-1" d="M75.77,91.45c0,.92-.77,1.39-2.31,1.39s-2.31-.47-2.31-1.39V86.31c0-.93.77-1.39,2.31-1.39s2.31.46,2.31,1.39ZM74.7,86.52c0-.5-.41-.75-1.24-.75s-1.24.25-1.24.75v4.71c0,.5.42.75,1.24.75s1.24-.25,1.24-.75Z"/><path class="cls-1" d="M92,91.45c0,.92-.77,1.39-2.31,1.39s-2.32-.47-2.32-1.39V86.31c0-.93.77-1.39,2.32-1.39S92,85.38,92,86.31ZM91,86.52c0-.5-.42-.75-1.24-.75s-1.25.25-1.25.75v4.71c0,.5.42.75,1.25.75S91,91.73,91,91.23Z"/><path class="cls-1" d="M108.3,91.45c0,.92-.77,1.39-2.31,1.39s-2.31-.47-2.31-1.39V86.31c0-.93.77-1.39,2.31-1.39s2.31.46,2.31,1.39Zm-1.07-4.93c0-.5-.41-.75-1.24-.75s-1.24.25-1.24.75v4.71c0,.5.41.75,1.24.75s1.24-.25,1.24-.75Z"/><path class="cls-1" d="M122.34,85h1.07v7.7h-1.07V86.52H121.1v-.85C121.92,85.67,122.34,85.45,122.34,85Z"/><path class="cls-1" d="M140.82,91.45c0,.92-.77,1.39-2.31,1.39s-2.31-.47-2.31-1.39V86.31c0-.93.77-1.39,2.31-1.39s2.31.46,2.31,1.39Zm-1.07-4.93c0-.5-.41-.75-1.24-.75s-1.24.25-1.24.75v4.71c0,.5.42.75,1.24.75s1.24-.25,1.24-.75Z"/><path class="cls-1" d="M154.86,85h1.07v7.7h-1.07V86.52h-1.24v-.85C154.45,85.67,154.86,85.45,154.86,85Z"/><path class="cls-1" d="M173.35,91.45c0,.92-.77,1.39-2.31,1.39s-2.31-.47-2.31-1.39V86.31c0-.93.77-1.39,2.31-1.39s2.31.46,2.31,1.39Zm-1.07-4.93c0-.5-.41-.75-1.24-.75s-1.24.25-1.24.75v4.71c0,.5.41.75,1.24.75s1.24-.25,1.24-.75Z"/><path class="cls-1" d="M187.39,85h1.07v7.7h-1.07V86.52h-1.24v-.85C187,85.67,187.39,85.45,187.39,85Z"/><path class="cls-1" d="M205.87,91.45c0,.92-.77,1.39-2.31,1.39s-2.31-.47-2.31-1.39V86.31c0-.93.77-1.39,2.31-1.39s2.31.46,2.31,1.39Zm-1.07-4.93c0-.5-.41-.75-1.24-.75s-1.24.25-1.24.75v4.71c0,.5.42.75,1.24.75s1.24-.25,1.24-.75Z"/><path class="cls-1" d="M219.91,85H221v7.7h-1.07V86.52h-1.24v-.85C219.5,85.67,219.91,85.45,219.91,85Z"/><path class="cls-1" d="M238.4,91.45c0,.92-.77,1.39-2.31,1.39s-2.31-.47-2.31-1.39V86.31c0-.93.77-1.39,2.31-1.39s2.31.46,2.31,1.39Zm-1.07-4.93c0-.5-.41-.75-1.24-.75s-1.24.25-1.24.75v4.71c0,.5.41.75,1.24.75s1.24-.25,1.24-.75Z"/><path class="cls-1" d="M254.66,91.45c0,.92-.77,1.39-2.31,1.39S250,92.37,250,91.45V86.31c0-.93.77-1.39,2.31-1.39s2.31.46,2.31,1.39Zm-1.07-4.93c0-.5-.41-.75-1.24-.75s-1.24.25-1.24.75v4.71c0,.5.41.75,1.24.75s1.24-.25,1.24-.75Z"/><path class="cls-1" d="M56.48,97.61h1.18v8.47H56.48V99.26H55.12v-1C56,98.31,56.48,98.08,56.48,97.61Z"/><path class="cls-1" d="M74.37,97.61h1.18v8.47H74.37V99.26H73v-1C73.92,98.31,74.37,98.08,74.37,97.61Z"/><path class="cls-1" d="M94.71,104.67c0,1-.85,1.53-2.54,1.53s-2.55-.51-2.55-1.53V99q0-1.53,2.55-1.53c1.69,0,2.54.51,2.54,1.53Zm-1.18-5.41c0-.55-.45-.83-1.36-.83s-1.37.28-1.37.83v5.17c0,.55.46.83,1.37.83s1.36-.28,1.36-.83Z"/><path class="cls-1" d="M110.15,97.61h1.18v8.47h-1.18V99.26h-1.37v-1C109.69,98.31,110.15,98.08,110.15,97.61Z"/><path class="cls-1" d="M130.49,104.67q0,1.53-2.55,1.53c-1.69,0-2.54-.51-2.54-1.53V99c0-1,.85-1.53,2.54-1.53s2.55.51,2.55,1.53Zm-1.18-5.41c0-.55-.46-.83-1.37-.83s-1.36.28-1.36.83v5.17c0,.55.45.83,1.36.83s1.37-.28,1.37-.83Z"/><path class="cls-1" d="M145.93,97.61h1.17v8.47h-1.17V99.26h-1.37v-1C145.47,98.31,145.93,98.08,145.93,97.61Z"/><path class="cls-1" d="M166.26,104.67c0,1-.84,1.53-2.54,1.53s-2.54-.51-2.54-1.53V99c0-1,.85-1.53,2.54-1.53s2.54.51,2.54,1.53Zm-1.17-5.41c0-.55-.46-.83-1.37-.83s-1.36.28-1.36.83v5.17c0,.55.45.83,1.36.83s1.37-.28,1.37-.83Z"/><path class="cls-1" d="M184.15,104.67c0,1-.85,1.53-2.54,1.53s-2.54-.51-2.54-1.53V99c0-1,.84-1.53,2.54-1.53s2.54.51,2.54,1.53ZM183,99.26c0-.55-.45-.83-1.36-.83s-1.37.28-1.37.83v5.17c0,.55.46.83,1.37.83s1.36-.28,1.36-.83Z"/><path class="cls-1" d="M202,104.67c0,1-.85,1.53-2.54,1.53s-2.54-.51-2.54-1.53V99c0-1,.84-1.53,2.54-1.53S202,98,202,99Zm-1.18-5.41c0-.55-.45-.83-1.36-.83s-1.37.28-1.37.83v5.17c0,.55.46.83,1.37.83s1.36-.28,1.36-.83Z"/><path class="cls-1" d="M217.48,97.61h1.18v8.47h-1.18V99.26h-1.36v-1C217,98.31,217.48,98.08,217.48,97.61Z"/><path class="cls-1" d="M237.82,104.67c0,1-.85,1.53-2.54,1.53s-2.55-.51-2.55-1.53V99q0-1.53,2.55-1.53c1.69,0,2.54.51,2.54,1.53Zm-1.18-5.41c0-.55-.45-.83-1.36-.83s-1.37.28-1.37.83v5.17c0,.55.46.83,1.37.83s1.36-.28,1.36-.83Z"/><path class="cls-1" d="M253.26,97.61h1.18v8.47h-1.18V99.26h-1.37v-1C252.8,98.31,253.26,98.08,253.26,97.61Z"/><path class="cls-1" d="M59.51,118.15c0,.93-.77,1.39-2.31,1.39s-2.31-.46-2.31-1.39V113c0-.92.77-1.39,2.31-1.39s2.31.47,2.31,1.39Zm-1.07-4.92c0-.5-.41-.75-1.24-.75s-1.24.25-1.24.75v4.71c0,.5.41.75,1.24.75s1.24-.25,1.24-.75Z"/><path class="cls-1" d="M75.77,118.15c0,.93-.77,1.39-2.31,1.39s-2.31-.46-2.31-1.39V113c0-.92.77-1.39,2.31-1.39s2.31.47,2.31,1.39Zm-1.07-4.92c0-.5-.41-.75-1.24-.75s-1.24.25-1.24.75v4.71c0,.5.42.75,1.24.75s1.24-.25,1.24-.75Z"/><path class="cls-1" d="M92,118.15c0,.93-.77,1.39-2.31,1.39s-2.32-.46-2.32-1.39V113c0-.92.77-1.39,2.32-1.39S92,112.09,92,113ZM91,113.23c0-.5-.42-.75-1.24-.75s-1.25.25-1.25.75v4.71c0,.5.42.75,1.25.75s1.24-.25,1.24-.75Z"/><path class="cls-1" d="M108.3,118.15c0,.93-.77,1.39-2.31,1.39s-2.31-.46-2.31-1.39V113c0-.92.77-1.39,2.31-1.39s2.31.47,2.31,1.39Zm-1.07-4.92c0-.5-.41-.75-1.24-.75s-1.24.25-1.24.75v4.71c0,.5.41.75,1.24.75s1.24-.25,1.24-.75Z"/><path class="cls-1" d="M122.34,111.73h1.07v7.7h-1.07v-6.2H121.1v-.86C121.92,112.37,122.34,112.16,122.34,111.73Z"/><path class="cls-1" d="M140.82,118.15c0,.93-.77,1.39-2.31,1.39s-2.31-.46-2.31-1.39V113c0-.92.77-1.39,2.31-1.39s2.31.47,2.31,1.39Zm-1.07-4.92c0-.5-.41-.75-1.24-.75s-1.24.25-1.24.75v4.71c0,.5.42.75,1.24.75s1.24-.25,1.24-.75Z"/><path class="cls-1" d="M154.86,111.73h1.07v7.7h-1.07v-6.2h-1.24v-.86C154.45,112.37,154.86,112.16,154.86,111.73Z"/><path class="cls-1" d="M173.35,118.15c0,.93-.77,1.39-2.31,1.39s-2.31-.46-2.31-1.39V113c0-.92.77-1.39,2.31-1.39s2.31.47,2.31,1.39Zm-1.07-4.92c0-.5-.41-.75-1.24-.75s-1.24.25-1.24.75v4.71c0,.5.41.75,1.24.75s1.24-.25,1.24-.75Z"/><path class="cls-1" d="M187.39,111.73h1.07v7.7h-1.07v-6.2h-1.24v-.86C187,112.37,187.39,112.16,187.39,111.73Z"/><path class="cls-1" d="M205.87,118.15c0,.93-.77,1.39-2.31,1.39s-2.31-.46-2.31-1.39V113c0-.92.77-1.39,2.31-1.39s2.31.47,2.31,1.39Zm-1.07-4.92c0-.5-.41-.75-1.24-.75s-1.24.25-1.24.75v4.71c0,.5.42.75,1.24.75s1.24-.25,1.24-.75Z"/><path class="cls-1" d="M219.91,111.73H221v7.7h-1.07v-6.2h-1.24v-.86C219.5,112.37,219.91,112.16,219.91,111.73Z"/><path class="cls-1" d="M238.4,118.15c0,.93-.77,1.39-2.31,1.39s-2.31-.46-2.31-1.39V113c0-.92.77-1.39,2.31-1.39s2.31.47,2.31,1.39Zm-1.07-4.92c0-.5-.41-.75-1.24-.75s-1.24.25-1.24.75v4.71c0,.5.41.75,1.24.75s1.24-.25,1.24-.75Z"/><path class="cls-1" d="M254.66,118.15c0,.93-.77,1.39-2.31,1.39s-2.31-.46-2.31-1.39V113c0-.92.77-1.39,2.31-1.39s2.31.47,2.31,1.39Zm-1.07-4.92c0-.5-.41-.75-1.24-.75s-1.24.25-1.24.75v4.71c0,.5.41.75,1.24.75s1.24-.25,1.24-.75Z"/><path class="cls-1" d="M59.72,125.85h1v6.94h-1V127.2H58.6v-.77C59.34,126.43,59.72,126.24,59.72,125.85Z"/><path class="cls-1" d="M74.35,125.85h1v6.94h-1V127.2H73.24v-.77C74,126.43,74.35,126.24,74.35,125.85Z"/><path class="cls-1" d="M91,131.63c0,.84-.69,1.25-2.08,1.25s-2.08-.41-2.08-1.25V127c0-.84.7-1.25,2.08-1.25S91,126.17,91,127Zm-1-4.43c0-.45-.37-.67-1.12-.67s-1.11.22-1.11.67v4.24c0,.45.37.67,1.11.67s1.12-.22,1.12-.67Z"/><path class="cls-1" d="M103.63,125.85h1v6.94h-1V127.2h-1.12v-.77C103.25,126.43,103.63,126.24,103.63,125.85Z"/><path class="cls-1" d="M120.27,131.63c0,.84-.7,1.25-2.08,1.25s-2.08-.41-2.08-1.25V127c0-.84.69-1.25,2.08-1.25s2.08.41,2.08,1.25Zm-1-4.43c0-.45-.37-.67-1.11-.67s-1.12.22-1.12.67v4.24c0,.45.37.67,1.12.67s1.11-.22,1.11-.67Z"/><path class="cls-1" d="M134.9,131.63c0,.84-.69,1.25-2.08,1.25s-2.08-.41-2.08-1.25V127c0-.84.7-1.25,2.08-1.25s2.08.41,2.08,1.25Zm-1-4.43c0-.45-.37-.67-1.12-.67s-1.11.22-1.11.67v4.24c0,.45.37.67,1.11.67s1.12-.22,1.12-.67Z"/><path class="cls-1" d="M147.54,125.85h1v6.94h-1V127.2h-1.12v-.77C147.16,126.43,147.54,126.24,147.54,125.85Z"/><path class="cls-1" d="M164.17,131.63c0,.84-.69,1.25-2.08,1.25s-2.08-.41-2.08-1.25V127c0-.84.7-1.25,2.08-1.25s2.08.41,2.08,1.25Zm-1-4.43c0-.45-.37-.67-1.12-.67s-1.11.22-1.11.67v4.24c0,.45.37.67,1.11.67s1.12-.22,1.12-.67Z"/><path class="cls-1" d="M178.81,131.63c0,.84-.69,1.25-2.08,1.25s-2.08-.41-2.08-1.25V127c0-.84.69-1.25,2.08-1.25s2.08.41,2.08,1.25Zm-1-4.43c0-.45-.37-.67-1.12-.67s-1.12.22-1.12.67v4.24c0,.45.38.67,1.12.67s1.12-.22,1.12-.67Z"/><path class="cls-1" d="M193.45,131.63c0,.84-.7,1.25-2.08,1.25s-2.08-.41-2.08-1.25V127c0-.84.69-1.25,2.08-1.25s2.08.41,2.08,1.25Zm-1-4.43c0-.45-.37-.67-1.11-.67s-1.12.22-1.12.67v4.24c0,.45.37.67,1.12.67s1.11-.22,1.11-.67Z"/><path class="cls-1" d="M206.08,125.85h1v6.94h-1V127.2H205v-.77C205.71,126.43,206.08,126.24,206.08,125.85Z"/><path class="cls-1" d="M222.72,131.63c0,.84-.69,1.25-2.08,1.25s-2.08-.41-2.08-1.25V127c0-.84.69-1.25,2.08-1.25s2.08.41,2.08,1.25Zm-1-4.43c0-.45-.38-.67-1.12-.67s-1.12.22-1.12.67v4.24c0,.45.38.67,1.12.67s1.12-.22,1.12-.67Z"/><path class="cls-1" d="M235.35,125.85h1v6.94h-1V127.2h-1.11v-.77C235,126.43,235.35,126.24,235.35,125.85Z"/><path class="cls-1" d="M250,125.85h1v6.94h-1V127.2h-1.12v-.77C249.62,126.43,250,126.24,250,125.85Z"/><path class="cls-1" d="M65.55,145.11c0,.74-.61,1.11-1.84,1.11s-1.85-.37-1.85-1.11V141c0-.74.61-1.11,1.85-1.11s1.84.37,1.84,1.11Zm-.85-3.94c0-.39-.33-.59-1-.59s-1,.2-1,.59v3.77c0,.4.33.6,1,.6s1-.2,1-.6Z"/><path class="cls-1" d="M78.56,145.11c0,.74-.61,1.11-1.84,1.11s-1.85-.37-1.85-1.11V141c0-.74.61-1.11,1.85-1.11s1.84.37,1.84,1.11Zm-.85-3.94c0-.39-.33-.59-1-.59s-1,.2-1,.59v3.77c0,.4.33.6,1,.6s1-.2,1-.6Z"/><path class="cls-1" d="M89.79,140h.86v6.16h-.86v-5h-1v-.68Q89.79,140.49,89.79,140Z"/><path class="cls-1" d="M104.58,145.11c0,.74-.61,1.11-1.84,1.11s-1.85-.37-1.85-1.11V141c0-.74.61-1.11,1.85-1.11s1.84.37,1.84,1.11Zm-.85-3.94c0-.39-.33-.59-1-.59s-1,.2-1,.59v3.77c0,.4.33.6,1,.6s1-.2,1-.6Z"/><path class="cls-1" d="M115.81,140h.86v6.16h-.86v-5h-1v-.68Q115.81,140.49,115.81,140Z"/><path class="cls-1" d="M130.6,145.11c0,.74-.61,1.11-1.84,1.11s-1.85-.37-1.85-1.11V141c0-.74.61-1.11,1.85-1.11s1.84.37,1.84,1.11Zm-.85-3.94c0-.39-.33-.59-1-.59s-1,.2-1,.59v3.77c0,.4.33.6,1,.6s1-.2,1-.6Z"/><path class="cls-1" d="M143.61,145.11c0,.74-.61,1.11-1.84,1.11s-1.85-.37-1.85-1.11V141c0-.74.61-1.11,1.85-1.11s1.84.37,1.84,1.11Zm-.85-3.94c0-.39-.33-.59-1-.59s-1,.2-1,.59v3.77c0,.4.33.6,1,.6s1-.2,1-.6Z"/><path class="cls-1" d="M154.84,140h.86v6.16h-.86v-5h-1v-.68Q154.84,140.49,154.84,140Z"/><path class="cls-1" d="M169.64,145.11c0,.74-.62,1.11-1.85,1.11s-1.85-.37-1.85-1.11V141c0-.74.61-1.11,1.85-1.11s1.85.37,1.85,1.11Zm-.86-3.94c0-.39-.33-.59-1-.59s-1,.2-1,.59v3.77c0,.4.33.6,1,.6s1-.2,1-.6Z"/><path class="cls-1" d="M182.65,145.11c0,.74-.62,1.11-1.85,1.11s-1.85-.37-1.85-1.11V141c0-.74.61-1.11,1.85-1.11s1.85.37,1.85,1.11Zm-.86-3.94c0-.39-.33-.59-1-.59s-1,.2-1,.59v3.77c0,.4.33.6,1,.6s1-.2,1-.6Z"/><path class="cls-1" d="M195.66,145.11c0,.74-.62,1.11-1.85,1.11s-1.85-.37-1.85-1.11V141c0-.74.61-1.11,1.85-1.11s1.85.37,1.85,1.11Zm-.86-3.94c0-.39-.33-.59-1-.59s-1,.2-1,.59v3.77c0,.4.33.6,1,.6s1-.2,1-.6Z"/><path class="cls-1" d="M206.88,140h.86v6.16h-.86v-5h-1v-.68Q206.88,140.49,206.88,140Z"/><path class="cls-1" d="M221.68,145.11c0,.74-.62,1.11-1.85,1.11s-1.85-.37-1.85-1.11V141c0-.74.61-1.11,1.85-1.11s1.85.37,1.85,1.11Zm-.86-3.94c0-.39-.33-.59-1-.59s-1,.2-1,.59v3.77c0,.4.33.6,1,.6s1-.2,1-.6Z"/><path class="cls-1" d="M232.9,140h.86v6.16h-.86v-5h-1v-.68Q232.9,140.49,232.9,140Z"/><path class="cls-1" d="M247.7,145.11c0,.74-.62,1.11-1.85,1.11s-1.85-.37-1.85-1.11V141c0-.74.61-1.11,1.85-1.11s1.85.37,1.85,1.11Zm-.86-3.94c0-.39-.33-.59-1-.59s-1,.2-1,.59v3.77c0,.4.33.6,1,.6s1-.2,1-.6Z"/><path class="cls-1" d="M71,158.59c0,.65-.54,1-1.62,1s-1.62-.33-1.62-1V155c0-.65.54-1,1.62-1s1.62.33,1.62,1Zm-.75-3.44c0-.35-.29-.53-.87-.53s-.87.18-.87.53v3.29c0,.35.29.53.87.53s.87-.18.87-.53Z"/><path class="cls-1" d="M80.84,154.1h.75v5.39h-.75v-4.34H80v-.6Q80.84,154.55,80.84,154.1Z"/><path class="cls-1" d="M93.78,158.59c0,.65-.54,1-1.61,1s-1.62-.33-1.62-1V155c0-.65.54-1,1.62-1s1.61.33,1.61,1ZM93,155.15c0-.35-.29-.53-.86-.53s-.87.18-.87.53v3.29c0,.35.29.53.87.53s.86-.18.86-.53Z"/><path class="cls-1" d="M103.61,154.1h.75v5.39h-.75v-4.34h-.87v-.6Q103.61,154.55,103.61,154.1Z"/><path class="cls-1" d="M115,154.1h.75v5.39H115v-4.34h-.87v-.6Q115,154.55,115,154.1Z"/><path class="cls-1" d="M127.93,158.59c0,.65-.54,1-1.61,1s-1.62-.33-1.62-1V155c0-.65.54-1,1.62-1s1.61.33,1.61,1Zm-.75-3.44c0-.35-.28-.53-.86-.53s-.87.18-.87.53v3.29c0,.35.29.53.87.53s.86-.18.86-.53Z"/><path class="cls-1" d="M139.32,158.59c0,.65-.54,1-1.62,1s-1.62-.33-1.62-1V155c0-.65.54-1,1.62-1s1.62.33,1.62,1Zm-.75-3.44c0-.35-.29-.53-.87-.53s-.87.18-.87.53v3.29c0,.35.29.53.87.53s.87-.18.87-.53Z"/><path class="cls-1" d="M149.14,154.1h.75v5.39h-.75v-4.34h-.87v-.6Q149.14,154.55,149.14,154.1Z"/><path class="cls-1" d="M160.53,154.1h.75v5.39h-.75v-4.34h-.87v-.6Q160.53,154.55,160.53,154.1Z"/><path class="cls-1" d="M173.47,158.59c0,.65-.54,1-1.62,1s-1.62-.33-1.62-1V155c0-.65.54-1,1.62-1s1.62.33,1.62,1Zm-.75-3.44c0-.35-.29-.53-.87-.53s-.87.18-.87.53v3.29c0,.35.29.53.87.53s.87-.18.87-.53Z"/><path class="cls-1" d="M184.85,158.59c0,.65-.54,1-1.62,1s-1.61-.33-1.61-1V155c0-.65.54-1,1.61-1s1.62.33,1.62,1Zm-.75-3.44c0-.35-.29-.53-.87-.53s-.86.18-.86.53v3.29c0,.35.29.53.86.53s.87-.18.87-.53Z"/><path class="cls-1" d="M194.68,154.1h.75v5.39h-.75v-4.34h-.87v-.6Q194.68,154.55,194.68,154.1Z"/><path class="cls-1" d="M206.06,154.1h.75v5.39h-.75v-4.34h-.87v-.6Q206.06,154.55,206.06,154.1Z"/><path class="cls-1" d="M217.45,154.1h.74v5.39h-.74v-4.34h-.87v-.6Q217.45,154.55,217.45,154.1Z"/><path class="cls-1" d="M230.39,158.59c0,.65-.54,1-1.62,1s-1.62-.33-1.62-1V155c0-.65.54-1,1.62-1s1.62.33,1.62,1Zm-.75-3.44c0-.35-.29-.53-.87-.53s-.87.18-.87.53v3.29c0,.35.29.53.87.53s.87-.18.87-.53Z"/><path class="cls-1" d="M240.21,154.1H241v5.39h-.75v-4.34h-.87v-.6Q240.21,154.55,240.21,154.1Z"/><path class="cls-1" d="M76.77,168.22h.64v4.62h-.64v-3.72H76v-.51Q76.77,168.61,76.77,168.22Z"/><path class="cls-1" d="M87.86,172.07c0,.56-.46.84-1.39.84s-1.38-.28-1.38-.84V169c0-.55.46-.83,1.38-.83s1.39.28,1.39.83Zm-.64-2.95q0-.45-.75-.45c-.49,0-.74.15-.74.45V172c0,.29.25.44.74.44s.75-.15.75-.44Z"/><path class="cls-1" d="M96.28,168.22h.64v4.62h-.64v-3.72h-.74v-.51C96,168.61,96.28,168.48,96.28,168.22Z"/><path class="cls-1" d="M107.38,172.07c0,.56-.47.84-1.39.84s-1.39-.28-1.39-.84V169c0-.55.46-.83,1.39-.83s1.39.28,1.39.83Zm-.65-2.95c0-.3-.24-.45-.74-.45s-.75.15-.75.45V172c0,.29.25.44.75.44s.74-.15.74-.44Z"/><path class="cls-1" d="M117.13,172.07q0,.84-1.38.84c-.93,0-1.39-.28-1.39-.84V169c0-.55.46-.83,1.39-.83s1.38.28,1.38.83Zm-.64-2.95c0-.3-.25-.45-.74-.45s-.75.15-.75.45V172c0,.29.25.44.75.44s.74-.15.74-.44Z"/><path class="cls-1" d="M125.56,168.22h.64v4.62h-.64v-3.72h-.75v-.51Q125.56,168.61,125.56,168.22Z"/><path class="cls-1" d="M136.65,172.07c0,.56-.46.84-1.39.84s-1.39-.28-1.39-.84V169c0-.55.47-.83,1.39-.83s1.39.28,1.39.83Zm-.64-2.95q0-.45-.75-.45c-.5,0-.74.15-.74.45V172c0,.29.24.44.74.44s.75-.15.75-.44Z"/><path class="cls-1" d="M146.41,172.07c0,.56-.47.84-1.39.84s-1.39-.28-1.39-.84V169c0-.55.46-.83,1.39-.83s1.39.28,1.39.83Zm-.65-2.95c0-.3-.24-.45-.74-.45s-.75.15-.75.45V172c0,.29.25.44.75.44s.74-.15.74-.44Z"/><path class="cls-1" d="M156.16,172.07q0,.84-1.38.84c-.93,0-1.39-.28-1.39-.84V169c0-.55.46-.83,1.39-.83s1.38.28,1.38.83Zm-.64-2.95c0-.3-.25-.45-.74-.45s-.75.15-.75.45V172c0,.29.25.44.75.44s.74-.15.74-.44Z"/><path class="cls-1" d="M164.59,168.22h.64v4.62h-.64v-3.72h-.75v-.51Q164.59,168.61,164.59,168.22Z"/><path class="cls-1" d="M175.68,172.07c0,.56-.46.84-1.39.84s-1.39-.28-1.39-.84V169c0-.55.47-.83,1.39-.83s1.39.28,1.39.83Zm-.64-2.95q0-.45-.75-.45c-.49,0-.74.15-.74.45V172c0,.29.25.44.74.44s.75-.15.75-.44Z"/><path class="cls-1" d="M184.1,168.22h.64v4.62h-.64v-3.72h-.74v-.51C183.85,168.61,184.1,168.48,184.1,168.22Z"/><path class="cls-1" d="M195.19,172.07q0,.84-1.38.84c-.93,0-1.39-.28-1.39-.84V169c0-.55.46-.83,1.39-.83s1.38.28,1.38.83Zm-.64-2.95c0-.3-.25-.45-.74-.45s-.75.15-.75.45V172c0,.29.25.44.75.44s.74-.15.74-.44Z"/><path class="cls-1" d="M205,172.07c0,.56-.46.84-1.39.84s-1.38-.28-1.38-.84V169c0-.55.46-.83,1.38-.83s1.39.28,1.39.83Zm-.64-2.95q0-.45-.75-.45c-.49,0-.74.15-.74.45V172c0,.29.25.44.74.44s.75-.15.75-.44Z"/><path class="cls-1" d="M214.71,172.07c0,.56-.46.84-1.39.84s-1.38-.28-1.38-.84V169c0-.55.46-.83,1.38-.83s1.39.28,1.39.83Zm-.64-2.95q0-.45-.75-.45c-.49,0-.74.15-.74.45V172c0,.29.25.44.74.44s.75-.15.75-.44Z"/><path class="cls-1" d="M223.13,168.22h.64v4.62h-.64v-3.72h-.74v-.51C222.88,168.61,223.13,168.48,223.13,168.22Z"/><path class="cls-1" d="M234.22,172.07q0,.84-1.38.84c-.93,0-1.39-.28-1.39-.84V169c0-.55.46-.83,1.39-.83s1.38.28,1.38.83Zm-.64-2.95c0-.3-.25-.45-.74-.45s-.75.15-.75.45V172c0,.29.25.44.75.44s.74-.15.74-.44Z"/><path class="cls-1" d="M89.77,182.34h.53v3.86h-.53v-3.11h-.62v-.42C89.56,182.67,89.77,182.56,89.77,182.34Z"/><path class="cls-1" d="M99,185.55c0,.47-.38.7-1.15.7s-1.16-.23-1.16-.7V183c0-.47.39-.7,1.16-.7s1.15.23,1.15.7Zm-.53-2.46c0-.25-.21-.37-.62-.37s-.62.12-.62.37v2.36c0,.25.2.37.62.37s.62-.12.62-.37Z"/><path class="cls-1" d="M107.14,185.55c0,.47-.38.7-1.15.7s-1.16-.23-1.16-.7V183c0-.47.39-.7,1.16-.7s1.15.23,1.15.7Zm-.53-2.46c0-.25-.21-.37-.62-.37s-.62.12-.62.37v2.36c0,.25.2.37.62.37s.62-.12.62-.37Z"/><path class="cls-1" d="M115.28,185.55c0,.47-.39.7-1.16.7s-1.16-.23-1.16-.7V183c0-.47.39-.7,1.16-.7s1.16.23,1.16.7Zm-.54-2.46c0-.25-.21-.37-.62-.37s-.62.12-.62.37v2.36c0,.25.21.37.62.37s.62-.12.62-.37Z"/><path class="cls-1" d="M122.29,182.34h.54v3.86h-.54v-3.11h-.62v-.42C122.09,182.67,122.29,182.56,122.29,182.34Z"/><path class="cls-1" d="M131.54,185.55c0,.47-.39.7-1.16.7s-1.15-.23-1.15-.7V183c0-.47.38-.7,1.15-.7s1.16.23,1.16.7Zm-.54-2.46c0-.25-.2-.37-.62-.37s-.62.12-.62.37v2.36c0,.25.21.37.62.37s.62-.12.62-.37Z"/><path class="cls-1" d="M138.56,182.34h.53v3.86h-.53v-3.11h-.62v-.42C138.35,182.67,138.56,182.56,138.56,182.34Z"/><path class="cls-1" d="M147.8,185.55c0,.47-.38.7-1.16.7s-1.15-.23-1.15-.7V183c0-.47.38-.7,1.15-.7s1.16.23,1.16.7Zm-.53-2.46c0-.25-.21-.37-.63-.37s-.62.12-.62.37v2.36c0,.25.21.37.62.37s.63-.12.63-.37Z"/><path class="cls-1" d="M155.93,185.55c0,.47-.38.7-1.15.7s-1.16-.23-1.16-.7V183c0-.47.39-.7,1.16-.7s1.15.23,1.15.7Zm-.53-2.46c0-.25-.21-.37-.62-.37s-.62.12-.62.37v2.36c0,.25.2.37.62.37s.62-.12.62-.37Z"/><path class="cls-1" d="M163,182.34h.54v3.86H163v-3.11h-.62v-.42C162.74,182.67,163,182.56,163,182.34Z"/><path class="cls-1" d="M172.19,185.55c0,.47-.38.7-1.15.7s-1.16-.23-1.16-.7V183c0-.47.39-.7,1.16-.7s1.15.23,1.15.7Zm-.53-2.46c0-.25-.21-.37-.62-.37s-.62.12-.62.37v2.36c0,.25.2.37.62.37s.62-.12.62-.37Z"/><path class="cls-1" d="M180.33,185.55c0,.47-.39.7-1.16.7s-1.16-.23-1.16-.7V183c0-.47.39-.7,1.16-.7s1.16.23,1.16.7Zm-.54-2.46c0-.25-.21-.37-.62-.37s-.62.12-.62.37v2.36c0,.25.21.37.62.37s.62-.12.62-.37Z"/><path class="cls-1" d="M188.46,185.55c0,.47-.39.7-1.16.7s-1.15-.23-1.15-.7V183c0-.47.38-.7,1.15-.7s1.16.23,1.16.7Zm-.54-2.46c0-.25-.21-.37-.62-.37s-.62.12-.62.37v2.36c0,.25.21.37.62.37s.62-.12.62-.37Z"/><path class="cls-1" d="M195.47,182.34H196v3.86h-.54v-3.11h-.62v-.42C195.27,182.67,195.47,182.56,195.47,182.34Z"/><path class="cls-1" d="M204.72,185.55c0,.47-.39.7-1.16.7s-1.15-.23-1.15-.7V183c0-.47.38-.7,1.15-.7s1.16.23,1.16.7Zm-.54-2.46c0-.25-.2-.37-.62-.37s-.62.12-.62.37v2.36c0,.25.21.37.62.37s.62-.12.62-.37Z"/><path class="cls-1" d="M211.74,182.34h.53v3.86h-.53v-3.11h-.62v-.42C211.53,182.67,211.74,182.56,211.74,182.34Z"/><path class="cls-1" d="M221,185.55c0,.47-.38.7-1.15.7s-1.16-.23-1.16-.7V183c0-.47.39-.7,1.16-.7s1.15.23,1.15.7Zm-.53-2.46c0-.25-.21-.37-.62-.37s-.62.12-.62.37v2.36c0,.25.2.37.62.37s.62-.12.62-.37Z"/><path class="cls-1" d="M106,193.39h.43v3.08H106V194h-.49v-.35C105.86,193.64,106,193.56,106,193.39Z"/><path class="cls-1" d="M113.42,196c0,.37-.31.56-.93.56s-.92-.19-.92-.56v-2c0-.37.31-.56.92-.56s.93.19.93.56Zm-.43-2c0-.2-.17-.3-.5-.3s-.49.1-.49.3v1.88c0,.2.16.3.49.3s.5-.1.5-.3Z"/><path class="cls-1" d="M119,193.39h.43v3.08H119V194h-.49v-.35C118.87,193.64,119,193.56,119,193.39Z"/><path class="cls-1" d="M126.43,196c0,.37-.31.56-.93.56s-.92-.19-.92-.56v-2c0-.37.31-.56.92-.56s.93.19.93.56Zm-.43-2c0-.2-.17-.3-.5-.3s-.49.1-.49.3v1.88c0,.2.16.3.49.3s.5-.1.5-.3Z"/><path class="cls-1" d="M132,193.39h.43v3.08H132V194h-.49v-.35C131.88,193.64,132,193.56,132,193.39Z"/><path class="cls-1" d="M138.55,193.39H139v3.08h-.43V194h-.5v-.35C138.38,193.64,138.55,193.56,138.55,193.39Z"/><path class="cls-1" d="M145.94,196c0,.37-.3.56-.92.56s-.93-.19-.93-.56v-2c0-.37.31-.56.93-.56s.92.19.92.56Zm-.42-2c0-.2-.17-.3-.5-.3s-.5.1-.5.3v1.88c0,.2.17.3.5.3s.5-.1.5-.3Z"/><path class="cls-1" d="M151.56,193.39H152v3.08h-.43V194h-.5v-.35C151.39,193.64,151.56,193.56,151.56,193.39Z"/><path class="cls-1" d="M159,196c0,.37-.3.56-.92.56s-.92-.19-.92-.56v-2c0-.37.3-.56.92-.56s.92.19.92.56Zm-.42-2c0-.2-.17-.3-.5-.3s-.5.1-.5.3v1.88c0,.2.17.3.5.3s.5-.1.5-.3Z"/><path class="cls-1" d="M165.46,196c0,.37-.31.56-.93.56s-.92-.19-.92-.56v-2c0-.37.31-.56.92-.56s.93.19.93.56Zm-.43-2c0-.2-.16-.3-.5-.3s-.49.1-.49.3v1.88c0,.2.16.3.49.3s.5-.1.5-.3Z"/><path class="cls-1" d="M171.07,193.39h.43v3.08h-.43V194h-.49v-.35C170.91,193.64,171.07,193.56,171.07,193.39Z"/><path class="cls-1" d="M178.47,196c0,.37-.31.56-.93.56s-.92-.19-.92-.56v-2c0-.37.31-.56.92-.56s.93.19.93.56Zm-.43-2c0-.2-.16-.3-.5-.3s-.49.1-.49.3v1.88c0,.2.16.3.49.3s.5-.1.5-.3Z"/><path class="cls-1" d="M185,196c0,.37-.3.56-.92.56s-.92-.19-.92-.56v-2c0-.37.3-.56.92-.56s.92.19.92.56Zm-.42-2c0-.2-.17-.3-.5-.3s-.5.1-.5.3v1.88c0,.2.17.3.5.3s.5-.1.5-.3Z"/><path class="cls-1" d="M191.48,196c0,.37-.31.56-.92.56s-.93-.19-.93-.56v-2c0-.37.31-.56.93-.56s.92.19.92.56Zm-.43-2c0-.2-.16-.3-.49-.3s-.5.1-.5.3v1.88c0,.2.16.3.5.3s.49-.1.49-.3Z"/><path class="cls-1" d="M197.09,193.39h.43v3.08h-.43V194h-.49v-.35C196.93,193.64,197.09,193.56,197.09,193.39Z"/><path class="cls-1" d="M204.49,196c0,.37-.31.56-.92.56s-.93-.19-.93-.56v-2c0-.37.31-.56.93-.56s.92.19.92.56Zm-.43-2c0-.2-.16-.3-.49-.3s-.5.1-.5.3v1.88c0,.2.16.3.5.3s.49-.1.49-.3Z"/><path class="cls-1" d="M133.51,206.35q0,.42-.69.42t-.69-.42v-1.54c0-.28.23-.41.69-.41s.69.13.69.41Zm-.32-1.47c0-.15-.12-.23-.37-.23s-.37.08-.37.23v1.41c0,.15.12.22.37.22s.37-.07.37-.22Z"/><path class="cls-1" d="M138.39,206.35q0,.42-.69.42t-.69-.42v-1.54c0-.28.23-.41.69-.41s.69.13.69.41Zm-.32-1.47c0-.15-.12-.23-.37-.23s-.37.08-.37.23v1.41c0,.15.12.22.37.22s.37-.07.37-.22Z"/><path class="cls-1" d="M142.6,204.43h.33v2.31h-.33v-1.86h-.37v-.26C142.48,204.62,142.6,204.56,142.6,204.43Z"/><path class="cls-1" d="M147.48,204.43h.32v2.31h-.32v-1.86h-.37v-.26C147.36,204.62,147.48,204.56,147.48,204.43Z"/><path class="cls-1" d="M152.36,204.43h.32v2.31h-.32v-1.86H152v-.26C152.24,204.62,152.36,204.56,152.36,204.43Z"/><path class="cls-1" d="M157.91,206.35q0,.42-.69.42c-.47,0-.7-.14-.7-.42v-1.54c0-.28.23-.41.7-.41s.69.13.69.41Zm-.32-1.47c0-.15-.13-.23-.37-.23s-.38.08-.38.23v1.41c0,.15.13.22.38.22s.37-.07.37-.22Z"/><path class="cls-1" d="M162.12,204.43h.32v2.31h-.32v-1.86h-.37v-.26C162,204.62,162.12,204.56,162.12,204.43Z"/><path class="cls-1" d="M167.67,206.35c0,.28-.23.42-.7.42s-.69-.14-.69-.42v-1.54c0-.28.23-.41.69-.41s.7.13.7.41Zm-.32-1.47c0-.15-.13-.23-.38-.23s-.37.08-.37.23v1.41c0,.15.13.22.37.22s.38-.07.38-.22Z"/><path class="cls-1" d="M171.88,204.43h.32v2.31h-.32v-1.86h-.37v-.26C171.75,204.62,171.88,204.56,171.88,204.43Z"/><path class="cls-1" d="M177.42,206.35q0,.42-.69.42t-.69-.42v-1.54c0-.28.23-.41.69-.41s.69.13.69.41Zm-.32-1.47c0-.15-.12-.23-.37-.23s-.37.08-.37.23v1.41c0,.15.12.22.37.22s.37-.07.37-.22Z"/><path class="cls-1" d="M106.37,79.13q0,2.13-4.09,2.13c-2.72,0-4.09-.71-4.09-2.13V71.28c0-1.42,1.37-2.13,4.09-2.13s4.09.71,4.09,2.13v1.64h-2.45V71.61c0-.66-.55-1-1.64-1s-1.63.32-1.63,1v7.2c0,.54.54.82,1.63.82s1.64-.28,1.64-.82V77.5h2.45Z"/><path class="cls-1" d="M117.44,79.13c0,1.42-1.26,2.13-3.77,2.13s-3.76-.71-3.76-2.13V74.55c0-1.41,1.26-2.12,3.76-2.12s3.77.71,3.77,2.12ZM115,74.88c0-.54-.43-.82-1.31-.82s-1.3.28-1.3.82v3.93c0,.54.43.82,1.3.82s1.31-.28,1.31-.82Z"/><path class="cls-1" d="M121,72.59h2.45v1.15c0-.88.84-1.31,2.54-1.31s2.53.71,2.53,2.12V81.1h-2.45V75c0-.65-.44-1-1.31-1s-1.31.33-1.31,1V81.1H121Z"/><path class="cls-1" d="M140.78,81.1V71h-2.91V69.32h8.21V71h-2.91V81.1Z"/><path class="cls-1" d="M149.29,72.59h2.46v1.15c0-.88.7-1.31,2.09-1.31a1.86,1.86,0,0,1,2.09,2.12v1h-2.45v-.66c0-.54-.29-.82-.87-.82s-.86.28-.86.82V81.1h-2.46Z"/><path class="cls-1" d="M162.35,81.26c-2,0-3-.71-3-2.13V78c0-1.46,1.14-2.19,3.44-2.19.65,0,1-.21,1-.62v-.33c0-.54-.33-.82-1-.82s-.76.28-.76.82v.33h-2.45v-.66c0-1.41,1.07-2.12,3.21-2.12,2.29,0,3.43.71,3.43,2.12V80c0,.77.22,1.15.66,1.15h-2.46c-.43,0-.65-.3-.65-.89Q163.73,81.26,162.35,81.26Zm.4-3.79c-.66,0-1,.29-1,.88v.46c0,.54.33.82,1,.82s1-.41,1-1.22V77C163.73,77.3,163.4,77.47,162.75,77.47Z"/><path class="cls-1" d="M171,71.12c-.91,0-1.36-.38-1.36-1.13s.45-1.13,1.36-1.13,1.35.38,1.35,1.13S171.85,71.12,171,71.12Zm1.22,1.47V81.1h-2.45V72.59Z"/><path class="cls-1" d="M175.71,72.59h2.46v1.15c0-.88.84-1.31,2.53-1.31s2.54.71,2.54,2.12V81.1h-2.46V75c0-.65-.43-1-1.31-1s-1.3.33-1.3,1V81.1h-2.46Z"/><path class="cls-1" d="M188,71.12c-.9,0-1.35-.38-1.35-1.13s.45-1.13,1.35-1.13,1.36.38,1.36,1.13S188.91,71.12,188,71.12Zm1.23,1.47V81.1h-2.45V72.59Z"/><path class="cls-1" d="M192.77,72.59h2.45v1.15c0-.88.85-1.31,2.54-1.31s2.53.71,2.53,2.12V81.1h-2.45V75c0-.65-.44-1-1.31-1s-1.31.33-1.31,1V81.1h-2.45Z"/><path class="cls-1" d="M211.36,72.59v9.82c0,1.2-1.26,1.8-3.76,1.8s-3.77-.6-3.77-1.8v-.49h2.46v.16c0,.33.43.49,1.31.49s1.3-.16,1.3-.49V80c0,.88-.84,1.31-2.53,1.31s-2.54-.71-2.54-2.13V74.55c0-1.41.85-2.12,2.54-2.12s2.53.43,2.53,1.31V72.59Zm-2.46,6.22V74.88c0-.54-.43-.82-1.3-.82s-1.31.28-1.31.82v3.93c0,.54.43.82,1.31.82S208.9,79.35,208.9,78.81Z"/></g></svg>