<svg xmlns="http://www.w3.org/2000/svg" viewBox="0 0 631.41 578.02"><defs><style>.cls-1{fill:#00c5c2;}.cls-2{isolation:isolate;}.cls-3{fill:#fff;}</style></defs><title>Con_Training</title><g id="Layer_1" data-name="Layer 1"><path class="cls-1" d="M615.72,189.14a15.7,15.7,0,1,0,15.69,15.69A15.69,15.69,0,0,0,615.72,189.14Zm0,27.49a11.8,11.8,0,1,1,11.79-11.8A11.8,11.8,0,0,1,615.72,216.63Z"/><path class="cls-1" d="M289.15,543a334.22,334.22,0,0,1-63-5.9c-29-6.43-55-15-73.4-24.17-3.07-1.5-5.94-2.87-8.54-4.11-4.42-2.12-8.09-3.87-10.86-5.35l-6.63-4,2.61-4.27,6.5,3.95c2.6,1.39,6.2,3.11,10.54,5.18,2.62,1.25,5.5,2.62,8.6,4.14,18,9,43.67,17.42,72.2,23.76A334.77,334.77,0,0,0,334.39,535a316.22,316.22,0,0,0,116-39.82A322.55,322.55,0,0,0,543,414.6c23.27-29.87,40.9-62.46,51-94.26a120.61,120.61,0,0,0,5.21-17l1.21-4.71c.58-2.49,1.25-5,1.91-7.44a120.69,120.69,0,0,0,2.86-12.28L607.87,261c.22-1.81.52-3.61.81-5.36a60,60,0,0,0,1.08-9.48l1.47-29.24,5,.25-1.49,29.11a60.12,60.12,0,0,1-1.13,10.18c-.27,1.69-.56,3.44-.79,5.24l-2.74,17.93a125.82,125.82,0,0,1-3,12.83c-.64,2.4-1.3,4.84-1.9,7.35l-1.2,4.71a122.31,122.31,0,0,1-5.38,17.52c-10.17,32.15-28.08,65.29-51.71,95.62a327.54,327.54,0,0,1-94,81.82A321,321,0,0,1,335.05,540,342,342,0,0,1,289.15,543Z"/><path class="cls-1" d="M326.57,578l-15-41,3.39-.18c.58,0,1.59-.09,2.74-.14,1.7-.06,3.78-.15,6.17-.42s5.66-.89,9.32-1.43c7-1,14.86-2.19,23.79-3.85a335.6,335.6,0,0,0,93.26-36.09l14-8.51a74.49,74.49,0,0,0,8.52-5.64l21.76-16.35,23.78-21.89,9.84-10.82A201,201,0,0,0,546,410l8.8-11.8c.9-1.15,1.32-1.8,1.45-2l31.13,31.36a35.82,35.82,0,0,1-2.65,3.77l-8.62,11.56a217.33,217.33,0,0,1-19.43,23.49l-12.92,13.95-22.88,20.78-21.83,16.39a90.24,90.24,0,0,1-10.51,7l-14.11,8.57a356.84,356.84,0,0,1-99.53,38.5c-9.6,1.79-18,3-24.81,4q-5.33.78-9.47,1.45c-3.47.41-6,.52-8.16.61-.85,0-1.61.06-2.26.11Z"/><path class="cls-1" d="M296.36,435.39l-.1-2,8.15-.41.11,2Zm16.32-.84-.12-2,.52,0,7.47-1.14.31,2Zm16.25-2.43-.3-2,3.53-.54a39.48,39.48,0,0,0,4.41-.89l.5,2a41.82,41.82,0,0,1-4.62.93ZM345,428.6l-.51-2,7.91-2.06.5,2ZM360.74,424l-.7-1.92,7.62-2.78.72,1.91Zm15.38-5.71-.83-1.86c1-.44,2-.92,2.94-1.41.77-.37,1.53-.75,2.31-1.1l2.09-1,.88,1.84-2.09,1c-.78.36-1.54.73-2.29,1.1C378.13,417.34,377.13,417.83,376.12,418.28Zm14.75-7.09-.89-1.84,3.79-1.82,3.36-1.95,1,1.76c-1.15.68-2.3,1.35-3.46,2Zm14.3-8.12-1.09-1.72c2.28-1.45,4.54-2.93,6.81-4.46l1.14,1.68Q408.61,400.9,405.17,403.07Zm13.58-9.22-1.21-1.65q3.29-2.38,6.49-4.9l1.26,1.61Q422,391.45,418.75,393.85Zm12.92-10.09-1.31-1.57q3.11-2.61,6.15-5.32l1.36,1.51Q434.81,381.13,431.67,383.76Zm12.25-11-1.46-1.44,1-.92c1.57-1.61,3.13-3.26,4.67-4.93l1.5,1.38c-1.55,1.69-3.12,3.35-4.72,5Zm11.11-12-1.56-1.33q2.64-3.09,5.18-6.26l1.6,1.27Q457.7,357.6,455,360.72Zm10.23-12.82-1.64-1.22c1.63-2.18,3.2-4.38,4.75-6.6l1.68,1.17C468.49,343.48,466.9,345.7,465.26,347.9Zm9.36-13.46-1.72-1.11c1.49-2.29,2.92-4.6,4.31-6.9l1.75,1.05Q476.86,331,474.62,334.44ZM483,320.29l-1.83-.89,3.55-7.35,1.83.88Zm7.1-14.71-1.83-.9c.57-1.17,1.13-2.33,1.61-3.52l1.44-3.93,1.92.7-1.45,4C491.28,303.16,490.7,304.37,490.11,305.58Zm5.95-15.32-1.92-.7,2.75-7.58,2,.5-.44,1.3Zm4.85-15.68-2-.51,1-3.86c.31-1.37.68-2.73,1-4.06l2,.53c-.35,1.31-.71,2.65-1,4Zm3.79-16-2-.31,1.23-8.07,2,.3Zm2.47-16.15-2-.3.33-2.15.3-5.89,2,.11-.32,6Zm1.07-16.4-2-.1.41-8.16,2,.1Z"/><path class="cls-1" d="M290.76,435.66l-8.16-.41.11-2,8.16.41Zm-16.32-.82-6-.32-2.25-.34.31-2,2.15.33,5.88.3ZM258.13,433l-8.07-1.23.3-2,8.08,1.24ZM242,430c-1.31-.36-2.64-.72-4-1l-3.88-1,.51-2,3.86,1c1.37.32,2.72.69,4.06,1.05Zm-15.79-4.08-1.3-.45-6.48-2.36.7-1.92,7.57,2.74Zm-15.45-5.62-4-1.46c-1.26-.51-2.47-1.09-3.68-1.68l.9-1.84c1.17.57,2.33,1.13,3.52,1.62l3.93,1.44Zm-15-6.69L188.36,410l.89-1.84,7.36,3.55ZM181.17,406q-3.49-2.1-7-4.34l1.11-1.72c2.29,1.48,4.6,2.92,6.9,4.31Zm-13.77-8.92q-3.35-2.32-6.65-4.79l1.22-1.64c2.17,1.63,4.38,3.21,6.59,4.76Zm-13.14-9.8q-3.21-2.55-6.33-5.22l1.33-1.55q3.09,2.64,6.27,5.18Zm-12.47-10.67c-1.69-1.54-3.36-3.12-5-4.72l-.92-.94,1.44-1.45.93.95c1.6,1.57,3.26,3.13,4.93,4.66Zm-11.53-11.7q-2.74-3.06-5.37-6.21l1.57-1.3q2.61,3.11,5.32,6.14ZM119.73,352.3c-1.69-2.16-3.33-4.34-4.94-6.54l1.65-1.21c1.6,2.19,3.23,4.35,4.91,6.5Zm-9.66-13.25c-1.54-2.28-3-4.57-4.49-6.86l1.73-1.1c1.43,2.28,2.92,4.55,4.45,6.81Zm-8.77-13.87c-.67-1.15-1.34-2.3-2-3.45l-1.85-3.85,1.83-.88,1.82,3.78c.62,1.08,1.28,2.23,2,3.37Zm-7.39-14.65-1-2.1c-.36-.78-.73-1.53-1.1-2.28-.49-1-1-2-1.44-3l1.87-.84c.44,1,.92,2,1.41,2.95.37.77.74,1.53,1.1,2.31l1,2.08ZM87.46,295.4l1-.33-1,.32-2.79-7.63,1.92-.71,2.78,7.62Zm-5.37-15.5-2-7.91,2-.51,2.06,7.91ZM78,264.08a37.63,37.63,0,0,1-.93-4.62L76.52,256l2-.31.54,3.54a37.62,37.62,0,0,0,.89,4.4Zm-2.7-16.21L74.1,239.7l2-.12,0,.52,1.15,7.47Zm-1.62-16.34-.41-8.15,2-.11.42,8.16Z"/><path class="cls-1" d="M75,217.88l-2-.1.41-8.16,2,.1Zm.83-16.32-2-.1.31-6,.34-2.25,2,.31-.32,2.15Zm1.86-16.1-2-.31,1.23-8.08,2,.31Zm2.94-15.94-2-.54c.36-1.31.72-2.65,1-4l1-3.88,2,.5-1,3.87C81.38,166.82,81,168.18,80.65,169.52Zm4.1-15.84-2-.49.44-1.3,2.37-6.49,1.92.71Zm5.55-15.24-1.92-.71,1.45-4c.52-1.26,1.1-2.47,1.69-3.67l1.83.89c-.57,1.17-1.13,2.34-1.61,3.52Zm6.61-14.82-1.84-.89,3.55-7.36,1.83.89Zm7.51-14.38-1.75-1.06q2.1-3.48,4.34-7l1.72,1.1Q106.51,105.78,104.42,109.24Zm8.84-13.66-1.67-1.16c1.55-2.24,3.15-4.46,4.78-6.66L118,89C116.39,91.16,114.8,93.37,113.26,95.58Zm9.72-13-1.59-1.27c1.69-2.14,3.44-4.24,5.22-6.33l1.55,1.33Q125.51,79.38,123,82.54Zm10.57-12.36-1.5-1.38c1.55-1.68,3.12-3.35,4.73-5l.94-.92,1.45,1.44-.95.92C136.65,66.86,135.09,68.51,133.55,70.18ZM145.13,58.8l-1.37-1.52q3.06-2.74,6.21-5.37l1.31,1.57C149.2,55.21,147.14,57,145.13,58.8Zm12.46-10.44-1.25-1.61c2.16-1.69,4.35-3.33,6.55-4.94l1.21,1.65Q160.82,45.85,157.59,48.36Zm13.16-9.58-1.15-1.69c2.28-1.55,4.56-3.05,6.86-4.5l1.1,1.73Q174.13,36.48,170.75,38.78Zm13.75-8.7-1-1.76c1.14-.68,2.3-1.34,3.45-2l3.84-1.85.89,1.84-3.78,1.82C186.78,28.75,185.64,29.41,184.5,30.08ZM199,22.77l-.88-1.85,2.09-1,2.29-1.11c1-.49,2-1,3-1.43l.84,1.86c-1,.45-2,.93-2.95,1.41-.76.37-1.53.75-2.31,1.11Zm15-6.39-.72-1.91,7.64-2.8.7,1.92Zm15.28-5.29-.52-2,7.92-2,.51,2ZM245.06,7l-.49-2a39.07,39.07,0,0,1,4.62-.94l3.51-.53.31,2-3.54.54A39.63,39.63,0,0,0,245.06,7Zm16-2.65-.31-2L269,1.12l.12,2-.51,0Zm16.13-1.6-.1-2,8.16-.41.1,2Z"/><path class="cls-1" d="M506.33,212.39l-.41-8.16,2-.1.41,8.16Zm-.83-16.31,0-.51-1.15-7.47,2-.31,1.2,8.18ZM503.09,180l-.54-3.53a39.19,39.19,0,0,0-.88-4.41l2-.5a39.61,39.61,0,0,1,.93,4.62l.54,3.51Zm-3.49-15.84-2.05-7.91,2-.51,2,7.91Zm-4.55-15.57L492.27,141l1.91-.72-1,.32,1-.32,2.79,7.64Zm-5.64-15.25c-.45-1-.93-2-1.41-2.94-.37-.77-.75-1.54-1.11-2.32l-1-2.08,1.84-.88,1,2.09c.36.78.74,1.53,1.11,2.29.48,1,1,2,1.43,3Zm-7.08-14.7-1.82-3.78c-.61-1.08-1.27-2.22-1.94-3.37l1.76-1c.68,1.15,1.34,2.3,2,3.46l1.86,3.84Zm-8-14.09q-2.16-3.42-4.46-6.8l1.69-1.15c1.55,2.27,3,4.56,4.5,6.86Zm-9.15-13.46c-1.58-2.18-3.22-4.35-4.89-6.5l1.61-1.25c1.68,2.16,3.34,4.35,4.93,6.55Zm-10-12.82q-2.6-3.12-5.32-6.15l1.52-1.36q2.75,3.06,5.36,6.2ZM444.32,66.18l-.92-1q-2.43-2.36-4.94-4.66l1.39-1.5c1.68,1.54,3.34,3.12,5,4.72l.92.95Zm-11.94-11q-3.11-2.66-6.27-5.18l1.27-1.6q3.19,2.55,6.33,5.23ZM419.66,45c-2.17-1.62-4.38-3.21-6.59-4.75l1.16-1.68c2.23,1.56,4.46,3.15,6.66,4.79Zm-13.35-9.29c-2.3-1.48-4.59-2.92-6.89-4.3l1.05-1.76c2.32,1.41,4.64,2.85,6.95,4.35Zm-13.92-8.27L385,23.92l.89-1.84,7.35,3.55Zm-14.73-7.1c-1.16-.57-2.33-1.13-3.51-1.62l-3.93-1.43.69-1.92,4,1.45c1.27.51,2.47,1.1,3.68,1.69Zm-15.12-5.86L355,11.76l.5-2,1.3.44,6.49,2.37Zm-15.49-4.8-3.86-1c-1.36-.31-2.73-.68-4.05-1l.52-2c1.32.35,2.65.71,4,1l3.88,1ZM331.27,6l-8.08-1.23.31-2,8.07,1.23ZM315.12,3.5,313,3.17l-5.89-.3.11-2,6,.31,2.24.34Zm-16.19-1L290.76,2l.11-2L299,.41Z"/><path class="cls-1" d="M18.49,114a288.8,288.8,0,0,0-17,72.58l3.69.38A285.11,285.11,0,0,1,22,115.27Z"/><path class="cls-1" d="M3.91,205.32l-3.72-.14a290.19,290.19,0,0,0,6.88,74.24l3.63-.82A285.41,285.41,0,0,1,3.91,205.32Z"/><path class="cls-1" d="M25.64,96.7,29,98.23A283.14,283.14,0,0,1,67.85,35.72L65,33.37A286.81,286.81,0,0,0,25.64,96.7Z"/><path class="cls-1" d="M80,21.83c3.18-3.41,6.5-6.8,9.85-10.06L87.25,9.11c-3.4,3.3-6.75,6.73-10,10.19Z"/><g id="Username"><g id="Username-2" class="cls-2"><g class="cls-2"><path class="cls-3" d="M427.15,529.94c1-.07,1.54-.11,2.56-.2,3.54-.48,5.64.12,6.32,2l1.37,3.71c.73,2-1,3.85-5.42,5.28s-6.9,1-7.49-1.06l-.69-2.37c1.55-.45,2.32-.68,3.86-1.16l.59,1.89c.24.79,1.24.91,3,.35s2.46-1.26,2.19-2l-.8-2.33a1.75,1.75,0,0,0-1.91-1.32l-2.6.21c-3.59.45-5.61-.2-6.07-1.78-.32-1.14-.49-1.71-.82-2.85-.59-2.06,1.14-3.63,5.1-4.92s6.27-1.05,7,1l.85,2.32c-1.45.54-2.18.8-3.65,1.3l-.64-1.87c-.27-.78-1.2-.89-2.8-.37s-2.3,1.17-2.05,2l.29.94A1.73,1.73,0,0,0,427.15,529.94Z"/><path class="cls-3" d="M440.48,537.44l-.7-1.85,1-.39-5-12.9-.94.36-.7-1.85c2.15-.82,3.22-1.24,5.33-2.13l.77,1.82-.94.39c2.11,5.12,3.17,7.68,5.27,12.8l1-.42.76,1.83C444,536.07,442.85,536.54,440.48,537.44Z"/><path class="cls-3" d="M460.55,528.47l-1.35.69L457.66,528c.21,1.37-.84,2.64-3.16,3.74-4.14,2-6.69,1.85-7.54-.12l-4.68-10.9c-.85-2,.65-3.74,4.4-5.51s6.07-1.81,7.06.09l1.13,2.2c-1.37.7-2.06,1-3.44,1.73l-.87-1.77c-.36-.74-1.3-.74-2.82,0s-2.12,1.44-1.78,2.19l4.51,9.9c.34.75,1.34.75,3,0s2.26-1.55,1.9-2.29l-1.85-3.77c-1.39.68-2.08,1-3.48,1.66-.41-.9-.62-1.35-1-2.24,2.8-1.3,4.18-2,6.92-3.4Z"/><path class="cls-3" d="M456.77,510.31c3.7,2.36,5.59,3.5,9.46,5.69l-4.92-8.29c.94-.56,1.41-.85,2.34-1.42L473,521.45c-1.12.69-1.69,1-2.82,1.7-4-2.14-5.88-3.26-9.67-5.58l4.66,8.44c-1.06.59-1.59.87-2.65,1.44l-8.36-15.71C455.2,511.18,455.72,510.89,456.77,510.31Z"/><path class="cls-3" d="M489.61,506.21c1.33,1.68.21,4-3.49,6.69s-6.22,3.09-7.43,1.32c-3.33-4.91-5-7.36-8.34-12.27,1.24-.84,1.85-1.26,3.07-2.13l8.32,11.68c.48.67,1.46.48,2.92-.59,1.75-1.29,2.36-2.28,1.86-2.94l-8.67-11.41c1-.78,1.55-1.18,2.57-2C484.09,499.23,485.93,501.55,489.61,506.21Z"/><path class="cls-3" d="M482,493.34c2.41-1.95,3.6-3,5.93-5s4.31-2.37,5.88-.68l2.7,2.89c1.69,1.8,1.31,3.88-1.21,6.11-1.28,1.14-1.93,1.69-3.23,2.79l4.31,5.1c-1.27,1.07-1.9,1.59-3.19,2.63Zm10.87,2.16c1.05-.92,1.19-1.83.42-2.68l-1.81-2c-.77-.86-1.66-.83-2.68.06s-1.38,1.2-2.31,2c1.59,1.89,2.39,2.84,4,4.72C491.4,496.74,491.88,496.33,492.83,495.5Z"/></g></g></g></g></svg>